<?xml version="1.0" encoding="utf-8"?>
<COLLADA xmlns="http://www.collada.org/2005/11/COLLADASchema" version="1.4.1">
  <asset>
    <contributor><authoring_tool>generate_snorkel_dae.py</authoring_tool></contributor>
    <unit name="meter" meter="1"/>
    <up_axis>Z_UP</up_axis>
  </asset>
  <library_effects>
    <effect id="snorkel_black-effect">
      <profile_COMMON><technique sid="common"><phong>
        <diffuse><color sid="diffuse">0.03 0.03 0.03 1</color></diffuse>
        <specular><color sid="specular">0.15 0.15 0.15 1</color></specular>
        <shininess><float sid="shininess">25</float></shininess>
      </phong></technique></profile_COMMON>
    </effect>
  </library_effects>
  <library_materials>
    <material id="snorkel_black-material" name="snorkel_black">
      <instance_effect url="#snorkel_black-effect"/>
    </material>
  </library_materials>
  <library_geometries>
    <geometry id="snorkel_roamer_small_v11-mesh" name="snorkel_roamer_small_v11">
      <mesh>
        <source id="snorkel_roamer_small_v11-pos">
          <float_array id="snorkel_roamer_small_v11-pos-array" count="732">-0.93000 -1.16816 1.06084 -0.94006 -1.17029 1.06268 -0.94943 -1.17172 1.06706 -0.95747 -1.17235 1.07368 -0.96365 -1.17214 1.08210 -0.96753 -1.17110 1.09174 -0.96885 -1.16931 1.10194 -0.96753 -1.16688 1.11201 -0.96365 -1.16398 1.12126 -0.95747 -1.16081 1.12906 -0.94943 -1.15759 1.13488 -0.94006 -1.15453 1.13833 -0.93000 -1.15184 1.13916 -0.91994 -1.14971 1.13732 -0.91057 -1.14828 1.13294 -0.90253 -1.14765 1.12632 -0.89635 -1.14786 1.11790 -0.89247 -1.14890 1.10826 -0.89115 -1.15069 1.09806 -0.89247 -1.15312 1.08799 -0.89635 -1.15602 1.07874 -0.90253 -1.15919 1.07094 -0.91057 -1.16241 1.06512 -0.91994 -1.16547 1.06167 -0.99000 -0.89811 1.01652 -1.00021 -0.90029 1.01672 -1.00972 -0.90382 1.01919 -1.01789 -0.90844 1.02376 -1.02416 -0.91386 1.03012 -1.02810 -0.91969 1.03783 -1.02945 -0.92555 1.04637 -1.02810 -0.93102 1.05516 -1.02416 -0.93575 1.06360 -1.01789 -0.93940 1.07111 -1.00972 -0.94173 1.07718 -1.00021 -0.94258 1.08140 -0.99000 -0.94189 1.08348 -0.97979 -0.93971 1.08328 -0.97028 -0.93618 1.08081 -0.96211 -0.93156 1.07624 -0.95584 -0.92614 1.06988 -0.95190 -0.92031 1.06217 -0.95055 -0.91445 1.05363 -0.95190 -0.90898 1.04484 -0.95584 -0.90425 1.03640 -0.96211 -0.90060 1.02889 -0.97028 -0.89827 1.02282 -0.97979 -0.89742 1.01860 -0.99000 -0.82224 1.28681 -1.00035 -0.82347 1.28741 -1.01000 -0.82720 1.28886 -1.01828 -0.83316 1.29108 -1.02464 -0.84095 1.29390 -1.02863 -0.85003 1.29714 -1.03000 -0.85980 1.30057 -1.02863 -0.86958 1.30397 -1.02464 -0.87871 1.30709 -1.01828 -0.88656 1.30973 -1.01000 -0.89260 1.31171 -1.00035 -0.89642 1.31289 -0.99000 -0.89776 1.31319 -0.97965 -0.89653 1.31259 -0.97000 -0.89280 1.31114 -0.96172 -0.88684 1.30892 -0.95536 -0.87905 1.30610 -0.95137 -0.86997 1.30286 -0.95000 -0.86020 1.29943 -0.95137 -0.85042 1.29603 -0.95536 -0.84129 1.29291 -0.96172 -0.83344 1.29027 -0.97000 -0.82740 1.28829 -0.97965 -0.82358 1.28711 -0.98000 -0.68375 1.58308 -0.99035 -0.68492 1.58380 -1.00000 -0.68848 1.58562 -1.00828 -0.69419 1.58843 -1.01464 -0.70166 1.59202 -1.01863 -0.71037 1.59615 -1.02000 -0.71974 1.60055 -1.01863 -0.72913 1.60491 -1.01464 -0.73790 1.60893 -1.00828 -0.74545 1.61235 -1.00000 -0.75126 1.61492 -0.99035 -0.75495 1.61648 -0.98000 -0.75625 1.61692 -0.96965 -0.75508 1.61620 -0.96000 -0.75152 1.61438 -0.95172 -0.74581 1.61157 -0.94536 -0.73834 1.60798 -0.94137 -0.72963 1.60385 -0.94000 -0.72026 1.59945 -0.94137 -0.71087 1.59509 -0.94536 -0.70210 1.59107 -0.95172 -0.69455 1.58765 -0.96000 -0.68874 1.58508 -0.96965 -0.68505 1.58352 -0.98000 -0.54095 1.89134 -0.99035 -0.54228 1.89163 -1.00000 -0.54618 1.89250 -1.00828 -0.55239 1.89387 -1.01464 -0.56047 1.89567 -1.01864 -0.56989 1.89776 -1.02000 -0.58000 1.90000 -1.01864 -0.59011 1.90224 -1.01464 -0.59953 1.90433 -1.00828 -0.60761 1.90613 -1.00000 -0.61382 1.90750 -0.99035 -0.61772 1.90837 -0.98000 -0.61905 1.90866 -0.96965 -0.61772 1.90837 -0.96000 -0.61382 1.90750 -0.95172 -0.60761 1.90613 -0.94536 -0.59953 1.90433 -0.94136 -0.59011 1.90224 -0.94000 -0.58000 1.90000 -0.94136 -0.56989 1.89776 -0.94536 -0.56047 1.89567 -0.95172 -0.55239 1.89387 -0.96000 -0.54618 1.89250 -0.96965 -0.54228 1.89163 -0.98000 -0.53520 2.02587 -0.99160 -0.53673 2.02498 -1.00240 -0.54120 2.02240 -1.01168 -0.54832 2.01829 -1.01880 -0.55760 2.01293 -1.02327 -0.56840 2.00669 -1.02480 -0.58000 2.00000 -1.02327 -0.59160 1.99331 -1.01880 -0.60240 1.98707 -1.01168 -0.61168 1.98171 -1.00240 -0.61880 1.97760 -0.99160 -0.62327 1.97502 -0.98000 -0.62480 1.97413 -0.96840 -0.62327 1.97502 -0.95760 -0.61880 1.97760 -0.94832 -0.61168 1.98171 -0.94120 -0.60240 1.98707 -0.93673 -0.59160 1.99331 -0.93520 -0.58000 2.00000 -0.93673 -0.56840 2.00669 -0.94120 -0.55760 2.01293 -0.94832 -0.54832 2.01829 -0.95760 -0.54120 2.02240 -0.96840 -0.53673 2.02498 -0.93000 -1.16000 1.10000 -0.98000 -0.58000 2.00000 -0.98700 -0.77600 1.49400 -0.98700 -0.77962 1.49352 -0.98700 -0.78300 1.49212 -0.98700 -0.78590 1.48990 -0.98700 -0.78812 1.48700 -0.98700 -0.78952 1.48362 -0.98700 -0.79000 1.48000 -0.98700 -0.78952 1.47638 -0.98700 -0.78812 1.47300 -0.98700 -0.78590 1.47010 -0.98700 -0.78300 1.46788 -0.98700 -0.77962 1.46648 -0.98700 -0.77600 1.46600 -0.98700 -0.77238 1.46648 -0.98700 -0.76900 1.46788 -0.98700 -0.76610 1.47010 -0.98700 -0.76388 1.47300 -0.98700 -0.76248 1.47638 -0.98700 -0.76200 1.48000 -0.98700 -0.76248 1.48362 -0.98700 -0.76388 1.48700 -0.98700 -0.76610 1.48990 -0.98700 -0.76900 1.49212 -0.98700 -0.77238 1.49352 -0.92700 -0.77600 1.49400 -0.92700 -0.77962 1.49352 -0.92700 -0.78300 1.49212 -0.92700 -0.78590 1.48990 -0.92700 -0.78812 1.48700 -0.92700 -0.78952 1.48362 -0.92700 -0.79000 1.48000 -0.92700 -0.78952 1.47638 -0.92700 -0.78812 1.47300 -0.92700 -0.78590 1.47010 -0.92700 -0.78300 1.46788 -0.92700 -0.77962 1.46648 -0.92700 -0.77600 1.46600 -0.92700 -0.77238 1.46648 -0.92700 -0.76900 1.46788 -0.92700 -0.76610 1.47010 -0.92700 -0.76388 1.47300 -0.92700 -0.76248 1.47638 -0.92700 -0.76200 1.48000 -0.92700 -0.76248 1.48362 -0.92700 -0.76388 1.48700 -0.92700 -0.76610 1.48990 -0.92700 -0.76900 1.49212 -0.92700 -0.77238 1.49352 -0.92700 -0.77600 1.48000 -0.98200 -0.63600 1.79400 -0.98200 -0.63962 1.79352 -0.98200 -0.64300 1.79212 -0.98200 -0.64590 1.78990 -0.98200 -0.64812 1.78700 -0.98200 -0.64952 1.78362 -0.98200 -0.65000 1.78000 -0.98200 -0.64952 1.77638 -0.98200 -0.64812 1.77300 -0.98200 -0.64590 1.77010 -0.98200 -0.64300 1.76788 -0.98200 -0.63962 1.76648 -0.98200 -0.63600 1.76600 -0.98200 -0.63238 1.76648 -0.98200 -0.62900 1.76788 -0.98200 -0.62610 1.77010 -0.98200 -0.62388 1.77300 -0.98200 -0.62248 1.77638 -0.98200 -0.62200 1.78000 -0.98200 -0.62248 1.78362 -0.98200 -0.62388 1.78700 -0.98200 -0.62610 1.78990 -0.98200 -0.62900 1.79212 -0.98200 -0.63238 1.79352 -0.92200 -0.63600 1.79400 -0.92200 -0.63962 1.79352 -0.92200 -0.64300 1.79212 -0.92200 -0.64590 1.78990 -0.92200 -0.64812 1.78700 -0.92200 -0.64952 1.78362 -0.92200 -0.65000 1.78000 -0.92200 -0.64952 1.77638 -0.92200 -0.64812 1.77300 -0.92200 -0.64590 1.77010 -0.92200 -0.64300 1.76788 -0.92200 -0.63962 1.76648 -0.92200 -0.63600 1.76600 -0.92200 -0.63238 1.76648 -0.92200 -0.62900 1.76788 -0.92200 -0.62610 1.77010 -0.92200 -0.62388 1.77300 -0.92200 -0.62248 1.77638 -0.92200 -0.62200 1.78000 -0.92200 -0.62248 1.78362 -0.92200 -0.62388 1.78700 -0.92200 -0.62610 1.78990 -0.92200 -0.62900 1.79212 -0.92200 -0.63238 1.79352 -0.92200 -0.63600 1.78000</float_array>
          <technique_common>
            <accessor source="#snorkel_roamer_small_v11-pos-array" count="244" stride="3">
              <param name="X" type="float"/><param name="Y" type="float"/><param name="Z" type="float"/>
            </accessor>
          </technique_common>
        </source>
        <source id="snorkel_roamer_small_v11-nrm">
          <float_array id="snorkel_roamer_small_v11-nrm-array" count="732">0.00000 -0.20395 -0.97898 -0.25140 -0.25724 -0.93307 -0.48567 -0.29300 -0.82358 -0.68684 -0.30878 -0.65796 -0.84120 -0.30353 -0.44750 -0.93823 -0.27759 -0.20655 -0.97133 -0.23273 0.04849 -0.93823 -0.17201 0.30021 -0.84120 -0.09957 0.53148 -0.68684 -0.02035 0.72653 -0.48567 0.06026 0.87206 -0.25140 0.13677 0.95817 -0.00000 0.20395 0.97898 0.25140 0.25724 0.93307 0.48567 0.29300 0.82358 0.68684 0.30878 0.65796 0.84120 0.30353 0.44750 0.93823 0.27759 0.20655 0.97133 0.23273 -0.04849 0.93823 0.17201 -0.30021 0.84120 0.09957 -0.53148 0.68684 0.02035 -0.72653 0.48567 -0.06026 -0.87206 0.25140 -0.13677 -0.95817 0.00000 0.54722 -0.83699 -0.25524 0.49268 -0.83194 -0.49309 0.40456 -0.77019 -0.69733 0.28888 -0.65595 -0.85405 0.15351 -0.49702 -0.95257 0.00767 -0.30421 -0.98618 -0.13868 -0.09067 -0.95257 -0.27559 0.12905 -0.85405 -0.39371 0.33997 -0.69733 -0.48500 0.52773 -0.49309 -0.54325 0.67952 -0.25524 -0.56447 0.78500 -0.00000 -0.54722 0.83699 0.25524 -0.49268 0.83194 0.49309 -0.40456 0.77019 0.69733 -0.28888 0.65595 0.85405 -0.15351 0.49702 0.95257 -0.00767 0.30421 0.98618 0.13868 0.09067 0.95257 0.27559 -0.12905 0.85405 0.39371 -0.33997 0.69733 0.48500 -0.52773 0.49309 0.54325 -0.67952 0.25524 0.56447 -0.78500 0.00000 0.94406 -0.32977 -0.25879 0.91319 -0.31483 -0.49994 0.82008 -0.27843 -0.70703 0.67109 -0.22305 -0.86593 0.47636 -0.15248 -0.96581 0.24917 -0.07151 -0.99988 0.00500 0.01433 -0.96581 -0.23951 0.09919 -0.86593 -0.46770 0.17729 -0.70703 -0.66401 0.24331 -0.49994 -0.81508 0.29275 -0.25879 -0.91060 0.32224 -0.00000 -0.94406 0.32977 0.25879 -0.91319 0.31483 0.49994 -0.82008 0.27843 0.70703 -0.67109 0.22305 0.86593 -0.47636 0.15248 0.96581 -0.24917 0.07151 0.99988 -0.00500 -0.01433 0.96581 0.23951 -0.09919 0.86593 0.46770 -0.17729 0.70703 0.66401 -0.24331 0.49994 0.81508 -0.29275 0.25879 0.91060 -0.32224 0.00000 0.90618 -0.42289 -0.25879 0.87696 -0.40493 -0.49994 0.78797 -0.35939 -0.70703 0.64528 -0.28935 -0.86593 0.45862 -0.19959 -0.96582 0.24070 -0.09624 -0.99989 0.00638 0.01368 -0.96582 -0.22837 0.12267 -0.86593 -0.44756 0.22329 -0.70703 -0.63625 0.30870 -0.49994 -0.78159 0.37307 -0.25879 -0.87365 0.41202 -0.00000 -0.90618 0.42289 0.25879 -0.87696 0.40493 0.49994 -0.78797 0.35939 0.70703 -0.64528 0.28935 0.86593 -0.45862 0.19959 0.96582 -0.24070 0.09624 0.99989 -0.00638 -0.01368 0.96582 0.22837 -0.12267 0.86593 0.44756 -0.22329 0.70703 0.63625 -0.30870 0.49994 0.78159 -0.37307 0.25879 0.87365 -0.41202 0.00000 0.97626 -0.21658 -0.25882 0.94300 -0.20920 -0.50000 0.84547 -0.18757 -0.70711 0.69032 -0.15315 -0.86603 0.48813 -0.10829 -0.96593 0.25268 -0.05606 -1.00000 0.00000 -0.00000 -0.96593 -0.25268 0.05606 -0.86603 -0.48813 0.10829 -0.70711 -0.69032 0.15315 -0.50000 -0.84547 0.18757 -0.25882 -0.94300 0.20920 -0.00000 -0.97626 0.21658 0.25882 -0.94300 0.20920 0.50000 -0.84547 0.18757 0.70711 -0.69032 0.15315 0.86603 -0.48813 0.10829 0.96593 -0.25268 0.05606 1.00000 -0.00000 0.00000 0.96593 0.25268 -0.05606 0.86603 0.48813 -0.10829 0.70711 0.69032 -0.15315 0.50000 0.84547 -0.18757 0.25882 0.94300 -0.20920 0.00000 1.00000 0.00000 -0.25882 0.96593 0.00000 -0.50000 0.86603 0.00000 -0.70711 0.70711 0.00000 -0.86603 0.50000 0.00000 -0.96593 0.25882 0.00000 -1.00000 0.00000 0.00000 -0.96593 -0.25882 0.00000 -0.86603 -0.50000 0.00000 -0.70711 -0.70711 0.00000 -0.50000 -0.86603 0.00000 -0.25882 -0.96593 0.00000 -0.00000 -1.00000 0.00000 0.25882 -0.96593 -0.00000 0.50000 -0.86603 -0.00000 0.70711 -0.70711 -0.00000 0.86603 -0.50000 -0.00000 0.96593 -0.25882 -0.00000 1.00000 -0.00000 -0.00000 0.96593 0.25882 0.00000 0.86603 0.50000 0.00000 0.70711 0.70711 0.00000 0.50000 0.86603 0.00000 0.25882 0.96593 0.00000 0.23773 -0.95091 0.19811 0.00000 -0.50001 0.86602 0.00000 0.00000 1.00000 0.00000 -0.25882 0.96593 0.00000 -0.50000 0.86603 0.00000 -0.70711 0.70711 0.00000 -0.86603 0.50000 0.00000 -0.96593 0.25882 0.00000 -1.00000 0.00000 0.00000 -0.96593 -0.25882 0.00000 -0.86603 -0.50000 0.00000 -0.70711 -0.70711 0.00000 -0.50000 -0.86603 0.00000 -0.25882 -0.96593 0.00000 -0.00000 -1.00000 -0.00000 0.25882 -0.96593 -0.00000 0.50000 -0.86603 -0.00000 0.70711 -0.70711 -0.00000 0.86603 -0.50000 -0.00000 0.96593 -0.25882 -0.00000 1.00000 -0.00000 0.00000 0.96593 0.25882 0.00000 0.86603 0.50000 0.00000 0.70711 0.70711 0.00000 0.50000 0.86603 0.00000 0.25882 0.96593 0.00000 0.00000 1.00000 0.00000 -0.25882 0.96593 0.00000 -0.50000 0.86603 0.00000 -0.70711 0.70711 0.00000 -0.86603 0.50000 0.00000 -0.96593 0.25882 0.00000 -1.00000 0.00000 0.00000 -0.96593 -0.25882 0.00000 -0.86603 -0.50000 0.00000 -0.70711 -0.70711 0.00000 -0.50000 -0.86603 0.00000 -0.25882 -0.96593 0.00000 -0.00000 -1.00000 -0.00000 0.25882 -0.96593 -0.00000 0.50000 -0.86603 -0.00000 0.70711 -0.70711 -0.00000 0.86603 -0.50000 -0.00000 0.96593 -0.25882 -0.00000 1.00000 -0.00000 0.00000 0.96593 0.25882 0.00000 0.86603 0.50000 0.00000 0.70711 0.70711 0.00000 0.50000 0.86603 0.00000 0.25882 0.96593 1.00000 0.00000 0.00000 0.00000 0.00000 1.00000 0.00000 -0.25882 0.96593 0.00000 -0.50000 0.86603 0.00000 -0.70711 0.70711 0.00000 -0.86603 0.50000 0.00000 -0.96593 0.25882 0.00000 -1.00000 0.00000 0.00000 -0.96593 -0.25882 0.00000 -0.86603 -0.50000 0.00000 -0.70711 -0.70711 0.00000 -0.50000 -0.86603 0.00000 -0.25882 -0.96593 0.00000 -0.00000 -1.00000 -0.00000 0.25882 -0.96593 -0.00000 0.50000 -0.86603 -0.00000 0.70711 -0.70711 -0.00000 0.86603 -0.50000 -0.00000 0.96593 -0.25882 -0.00000 1.00000 -0.00000 0.00000 0.96593 0.25882 0.00000 0.86603 0.50000 0.00000 0.70711 0.70711 0.00000 0.50000 0.86603 0.00000 0.25882 0.96593 0.00000 0.00000 1.00000 0.00000 -0.25882 0.96593 0.00000 -0.50000 0.86603 0.00000 -0.70711 0.70711 0.00000 -0.86603 0.50000 0.00000 -0.96593 0.25882 0.00000 -1.00000 0.00000 0.00000 -0.96593 -0.25882 0.00000 -0.86603 -0.50000 0.00000 -0.70711 -0.70711 0.00000 -0.50000 -0.86603 0.00000 -0.25882 -0.96593 0.00000 -0.00000 -1.00000 -0.00000 0.25882 -0.96593 -0.00000 0.50000 -0.86603 -0.00000 0.70711 -0.70711 -0.00000 0.86603 -0.50000 -0.00000 0.96593 -0.25882 -0.00000 1.00000 -0.00000 0.00000 0.96593 0.25882 0.00000 0.86603 0.50000 0.00000 0.70711 0.70711 0.00000 0.50000 0.86603 0.00000 0.25882 0.96593 1.00000 0.00000 0.00000</float_array>
          <technique_common>
            <accessor source="#snorkel_roamer_small_v11-nrm-array" count="244" stride="3">
              <param name="X" type="float"/><param name="Y" type="float"/><param name="Z" type="float"/>
            </accessor>
          </technique_common>
        </source>
        <vertices id="snorkel_roamer_small_v11-vtx"><input semantic="POSITION" source="#snorkel_roamer_small_v11-pos"/></vertices>
        <triangles material="snorkel_black" count="432">
          <input semantic="VERTEX" source="#snorkel_roamer_small_v11-vtx" offset="0"/>
          <input semantic="NORMAL" source="#snorkel_roamer_small_v11-nrm" offset="1"/>
          <p>0 0 24 24 25 25 0 0 25 25 1 1 1 1 25 25 26 26 1 1 26 26 2 2 2 2 26 26 27 27 2 2 27 27 3 3 3 3 27 27 28 28 3 3 28 28 4 4 4 4 28 28 29 29 4 4 29 29 5 5 5 5 29 29 30 30 5 5 30 30 6 6 6 6 30 30 31 31 6 6 31 31 7 7 7 7 31 31 32 32 7 7 32 32 8 8 8 8 32 32 33 33 8 8 33 33 9 9 9 9 33 33 34 34 9 9 34 34 10 10 10 10 34 34 35 35 10 10 35 35 11 11 11 11 35 35 36 36 11 11 36 36 12 12 12 12 36 36 37 37 12 12 37 37 13 13 13 13 37 37 38 38 13 13 38 38 14 14 14 14 38 38 39 39 14 14 39 39 15 15 15 15 39 39 40 40 15 15 40 40 16 16 16 16 40 40 41 41 16 16 41 41 17 17 17 17 41 41 42 42 17 17 42 42 18 18 18 18 42 42 43 43 18 18 43 43 19 19 19 19 43 43 44 44 19 19 44 44 20 20 20 20 44 44 45 45 20 20 45 45 21 21 21 21 45 45 46 46 21 21 46 46 22 22 22 22 46 46 47 47 22 22 47 47 23 23 23 23 47 47 24 24 23 23 24 24 0 0 24 24 48 48 49 49 24 24 49 49 25 25 25 25 49 49 50 50 25 25 50 50 26 26 26 26 50 50 51 51 26 26 51 51 27 27 27 27 51 51 52 52 27 27 52 52 28 28 28 28 52 52 53 53 28 28 53 53 29 29 29 29 53 53 54 54 29 29 54 54 30 30 30 30 54 54 55 55 30 30 55 55 31 31 31 31 55 55 56 56 31 31 56 56 32 32 32 32 56 56 57 57 32 32 57 57 33 33 33 33 57 57 58 58 33 33 58 58 34 34 34 34 58 58 59 59 34 34 59 59 35 35 35 35 59 59 60 60 35 35 60 60 36 36 36 36 60 60 61 61 36 36 61 61 37 37 37 37 61 61 62 62 37 37 62 62 38 38 38 38 62 62 63 63 38 38 63 63 39 39 39 39 63 63 64 64 39 39 64 64 40 40 40 40 64 64 65 65 40 40 65 65 41 41 41 41 65 65 66 66 41 41 66 66 42 42 42 42 66 66 67 67 42 42 67 67 43 43 43 43 67 67 68 68 43 43 68 68 44 44 44 44 68 68 69 69 44 44 69 69 45 45 45 45 69 69 70 70 45 45 70 70 46 46 46 46 70 70 71 71 46 46 71 71 47 47 47 47 71 71 48 48 47 47 48 48 24 24 48 48 72 72 73 73 48 48 73 73 49 49 49 49 73 73 74 74 49 49 74 74 50 50 50 50 74 74 75 75 50 50 75 75 51 51 51 51 75 75 76 76 51 51 76 76 52 52 52 52 76 76 77 77 52 52 77 77 53 53 53 53 77 77 78 78 53 53 78 78 54 54 54 54 78 78 79 79 54 54 79 79 55 55 55 55 79 79 80 80 55 55 80 80 56 56 56 56 80 80 81 81 56 56 81 81 57 57 57 57 81 81 82 82 57 57 82 82 58 58 58 58 82 82 83 83 58 58 83 83 59 59 59 59 83 83 84 84 59 59 84 84 60 60 60 60 84 84 85 85 60 60 85 85 61 61 61 61 85 85 86 86 61 61 86 86 62 62 62 62 86 86 87 87 62 62 87 87 63 63 63 63 87 87 88 88 63 63 88 88 64 64 64 64 88 88 89 89 64 64 89 89 65 65 65 65 89 89 90 90 65 65 90 90 66 66 66 66 90 90 91 91 66 66 91 91 67 67 67 67 91 91 92 92 67 67 92 92 68 68 68 68 92 92 93 93 68 68 93 93 69 69 69 69 93 93 94 94 69 69 94 94 70 70 70 70 94 94 95 95 70 70 95 95 71 71 71 71 95 95 72 72 71 71 72 72 48 48 72 72 96 96 97 97 72 72 97 97 73 73 73 73 97 97 98 98 73 73 98 98 74 74 74 74 98 98 99 99 74 74 99 99 75 75 75 75 99 99 100 100 75 75 100 100 76 76 76 76 100 100 101 101 76 76 101 101 77 77 77 77 101 101 102 102 77 77 102 102 78 78 78 78 102 102 103 103 78 78 103 103 79 79 79 79 103 103 104 104 79 79 104 104 80 80 80 80 104 104 105 105 80 80 105 105 81 81 81 81 105 105 106 106 81 81 106 106 82 82 82 82 106 106 107 107 82 82 107 107 83 83 83 83 107 107 108 108 83 83 108 108 84 84 84 84 108 108 109 109 84 84 109 109 85 85 85 85 109 109 110 110 85 85 110 110 86 86 86 86 110 110 111 111 86 86 111 111 87 87 87 87 111 111 112 112 87 87 112 112 88 88 88 88 112 112 113 113 88 88 113 113 89 89 89 89 113 113 114 114 89 89 114 114 90 90 90 90 114 114 115 115 90 90 115 115 91 91 91 91 115 115 116 116 91 91 116 116 92 92 92 92 116 116 117 117 92 92 117 117 93 93 93 93 117 117 118 118 93 93 118 118 94 94 94 94 118 118 119 119 94 94 119 119 95 95 95 95 119 119 96 96 95 95 96 96 72 72 96 96 120 120 121 121 96 96 121 121 97 97 97 97 121 121 122 122 97 97 122 122 98 98 98 98 122 122 123 123 98 98 123 123 99 99 99 99 123 123 124 124 99 99 124 124 100 100 100 100 124 124 125 125 100 100 125 125 101 101 101 101 125 125 126 126 101 101 126 126 102 102 102 102 126 126 127 127 102 102 127 127 103 103 103 103 127 127 128 128 103 103 128 128 104 104 104 104 128 128 129 129 104 104 129 129 105 105 105 105 129 129 130 130 105 105 130 130 106 106 106 106 130 130 131 131 106 106 131 131 107 107 107 107 131 131 132 132 107 107 132 132 108 108 108 108 132 132 133 133 108 108 133 133 109 109 109 109 133 133 134 134 109 109 134 134 110 110 110 110 134 134 135 135 110 110 135 135 111 111 111 111 135 135 136 136 111 111 136 136 112 112 112 112 136 136 137 137 112 112 137 137 113 113 113 113 137 137 138 138 113 113 138 138 114 114 114 114 138 138 139 139 114 114 139 139 115 115 115 115 139 139 140 140 115 115 140 140 116 116 116 116 140 140 141 141 116 116 141 141 117 117 117 117 141 141 142 142 117 117 142 142 118 118 118 118 142 142 143 143 118 118 143 143 119 119 119 119 143 143 120 120 119 119 120 120 96 96 144 144 1 1 0 0 144 144 2 2 1 1 144 144 3 3 2 2 144 144 4 4 3 3 144 144 5 5 4 4 144 144 6 6 5 5 144 144 7 7 6 6 144 144 8 8 7 7 144 144 9 9 8 8 144 144 10 10 9 9 144 144 11 11 10 10 144 144 12 12 11 11 144 144 13 13 12 12 144 144 14 14 13 13 144 144 15 15 14 14 144 144 16 16 15 15 144 144 17 17 16 16 144 144 18 18 17 17 144 144 19 19 18 18 144 144 20 20 19 19 144 144 21 21 20 20 144 144 22 22 21 21 144 144 23 23 22 22 144 144 0 0 23 23 145 145 120 120 121 121 145 145 121 121 122 122 145 145 122 122 123 123 145 145 123 123 124 124 145 145 124 124 125 125 145 145 125 125 126 126 145 145 126 126 127 127 145 145 127 127 128 128 145 145 128 128 129 129 145 145 129 129 130 130 145 145 130 130 131 131 145 145 131 131 132 132 145 145 132 132 133 133 145 145 133 133 134 134 145 145 134 134 135 135 145 145 135 135 136 136 145 145 136 136 137 137 145 145 137 137 138 138 145 145 138 138 139 139 145 145 139 139 140 140 145 145 140 140 141 141 145 145 141 141 142 142 145 145 142 142 143 143 145 145 143 143 120 120 146 146 170 170 171 171 146 146 171 171 147 147 147 147 171 171 172 172 147 147 172 172 148 148 148 148 172 172 173 173 148 148 173 173 149 149 149 149 173 173 174 174 149 149 174 174 150 150 150 150 174 174 175 175 150 150 175 175 151 151 151 151 175 175 176 176 151 151 176 176 152 152 152 152 176 176 177 177 152 152 177 177 153 153 153 153 177 177 178 178 153 153 178 178 154 154 154 154 178 178 179 179 154 154 179 179 155 155 155 155 179 179 180 180 155 155 180 180 156 156 156 156 180 180 181 181 156 156 181 181 157 157 157 157 181 181 182 182 157 157 182 182 158 158 158 158 182 182 183 183 158 158 183 183 159 159 159 159 183 183 184 184 159 159 184 184 160 160 160 160 184 184 185 185 160 160 185 185 161 161 161 161 185 185 186 186 161 161 186 186 162 162 162 162 186 186 187 187 162 162 187 187 163 163 163 163 187 187 188 188 163 163 188 188 164 164 164 164 188 188 189 189 164 164 189 189 165 165 165 165 189 189 190 190 165 165 190 190 166 166 166 166 190 190 191 191 166 166 191 191 167 167 167 167 191 191 192 192 167 167 192 192 168 168 168 168 192 192 193 193 168 168 193 193 169 169 169 169 193 193 170 170 169 169 170 170 146 146 194 194 170 170 171 171 194 194 171 171 172 172 194 194 172 172 173 173 194 194 173 173 174 174 194 194 174 174 175 175 194 194 175 175 176 176 194 194 176 176 177 177 194 194 177 177 178 178 194 194 178 178 179 179 194 194 179 179 180 180 194 194 180 180 181 181 194 194 181 181 182 182 194 194 182 182 183 183 194 194 183 183 184 184 194 194 184 184 185 185 194 194 185 185 186 186 194 194 186 186 187 187 194 194 187 187 188 188 194 194 188 188 189 189 194 194 189 189 190 190 194 194 190 190 191 191 194 194 191 191 192 192 194 194 192 192 193 193 194 194 193 193 170 170 195 195 219 219 220 220 195 195 220 220 196 196 196 196 220 220 221 221 196 196 221 221 197 197 197 197 221 221 222 222 197 197 222 222 198 198 198 198 222 222 223 223 198 198 223 223 199 199 199 199 223 223 224 224 199 199 224 224 200 200 200 200 224 224 225 225 200 200 225 225 201 201 201 201 225 225 226 226 201 201 226 226 202 202 202 202 226 226 227 227 202 202 227 227 203 203 203 203 227 227 228 228 203 203 228 228 204 204 204 204 228 228 229 229 204 204 229 229 205 205 205 205 229 229 230 230 205 205 230 230 206 206 206 206 230 230 231 231 206 206 231 231 207 207 207 207 231 231 232 232 207 207 232 232 208 208 208 208 232 232 233 233 208 208 233 233 209 209 209 209 233 233 234 234 209 209 234 234 210 210 210 210 234 234 235 235 210 210 235 235 211 211 211 211 235 235 236 236 211 211 236 236 212 212 212 212 236 236 237 237 212 212 237 237 213 213 213 213 237 237 238 238 213 213 238 238 214 214 214 214 238 238 239 239 214 214 239 239 215 215 215 215 239 239 240 240 215 215 240 240 216 216 216 216 240 240 241 241 216 216 241 241 217 217 217 217 241 241 242 242 217 217 242 242 218 218 218 218 242 242 219 219 218 218 219 219 195 195 243 243 219 219 220 220 243 243 220 220 221 221 243 243 221 221 222 222 243 243 222 222 223 223 243 243 223 223 224 224 243 243 224 224 225 225 243 243 225 225 226 226 243 243 226 226 227 227 243 243 227 227 228 228 243 243 228 228 229 229 243 243 229 229 230 230 243 243 230 230 231 231 243 243 231 231 232 232 243 243 232 232 233 233 243 243 233 233 234 234 243 243 234 234 235 235 243 243 235 235 236 236 243 243 236 236 237 237 243 243 237 237 238 238 243 243 238 238 239 239 243 243 239 239 240 240 243 243 240 240 241 241 243 243 241 241 242 242 243 243 242 242 219 219</p>
        </triangles>
      </mesh>
    </geometry>
    <geometry id="snorkel_roamer_medium_v11-mesh" name="snorkel_roamer_medium_v11">
      <mesh>
        <source id="snorkel_roamer_medium_v11-pos">
          <float_array id="snorkel_roamer_medium_v11-pos-array" count="804">-0.93000 -1.16816 1.06084 -0.94006 -1.17029 1.06268 -0.94943 -1.17172 1.06706 -0.95747 -1.17235 1.07368 -0.96365 -1.17214 1.08210 -0.96753 -1.17110 1.09174 -0.96885 -1.16931 1.10194 -0.96753 -1.16688 1.11201 -0.96365 -1.16398 1.12126 -0.95747 -1.16081 1.12906 -0.94943 -1.15759 1.13488 -0.94006 -1.15453 1.13833 -0.93000 -1.15184 1.13916 -0.91994 -1.14971 1.13732 -0.91057 -1.14828 1.13294 -0.90253 -1.14765 1.12632 -0.89635 -1.14786 1.11790 -0.89247 -1.14890 1.10826 -0.89115 -1.15069 1.09806 -0.89247 -1.15312 1.08799 -0.89635 -1.15602 1.07874 -0.90253 -1.15919 1.07094 -0.91057 -1.16241 1.06512 -0.91994 -1.16547 1.06167 -0.99000 -0.89811 1.01652 -1.00021 -0.90029 1.01672 -1.00972 -0.90382 1.01919 -1.01789 -0.90844 1.02376 -1.02416 -0.91386 1.03012 -1.02810 -0.91969 1.03783 -1.02945 -0.92555 1.04637 -1.02810 -0.93102 1.05516 -1.02416 -0.93575 1.06360 -1.01789 -0.93940 1.07111 -1.00972 -0.94173 1.07718 -1.00021 -0.94258 1.08140 -0.99000 -0.94189 1.08348 -0.97979 -0.93971 1.08328 -0.97028 -0.93618 1.08081 -0.96211 -0.93156 1.07624 -0.95584 -0.92614 1.06988 -0.95190 -0.92031 1.06217 -0.95055 -0.91445 1.05363 -0.95190 -0.90898 1.04484 -0.95584 -0.90425 1.03640 -0.96211 -0.90060 1.02889 -0.97028 -0.89827 1.02282 -0.97979 -0.89742 1.01860 -0.99000 -0.82224 1.28681 -1.00035 -0.82347 1.28741 -1.01000 -0.82720 1.28886 -1.01828 -0.83316 1.29108 -1.02464 -0.84095 1.29390 -1.02863 -0.85003 1.29714 -1.03000 -0.85980 1.30057 -1.02863 -0.86958 1.30397 -1.02464 -0.87871 1.30709 -1.01828 -0.88656 1.30973 -1.01000 -0.89260 1.31171 -1.00035 -0.89642 1.31289 -0.99000 -0.89776 1.31319 -0.97965 -0.89653 1.31259 -0.97000 -0.89280 1.31114 -0.96172 -0.88684 1.30892 -0.95536 -0.87905 1.30610 -0.95137 -0.86997 1.30286 -0.95000 -0.86020 1.29943 -0.95137 -0.85042 1.29603 -0.95536 -0.84129 1.29291 -0.96172 -0.83344 1.29027 -0.97000 -0.82740 1.28829 -0.97965 -0.82358 1.28711 -0.98000 -0.68375 1.58308 -0.99035 -0.68492 1.58380 -1.00000 -0.68848 1.58562 -1.00828 -0.69419 1.58843 -1.01464 -0.70166 1.59202 -1.01863 -0.71037 1.59615 -1.02000 -0.71974 1.60055 -1.01863 -0.72913 1.60491 -1.01464 -0.73790 1.60893 -1.00828 -0.74545 1.61235 -1.00000 -0.75126 1.61492 -0.99035 -0.75495 1.61648 -0.98000 -0.75625 1.61692 -0.96965 -0.75508 1.61620 -0.96000 -0.75152 1.61438 -0.95172 -0.74581 1.61157 -0.94536 -0.73834 1.60798 -0.94137 -0.72963 1.60385 -0.94000 -0.72026 1.59945 -0.94137 -0.71087 1.59509 -0.94536 -0.70210 1.59107 -0.95172 -0.69455 1.58765 -0.96000 -0.68874 1.58508 -0.96965 -0.68505 1.58352 -0.98000 -0.54095 1.89134 -0.99035 -0.54228 1.89163 -1.00000 -0.54618 1.89250 -1.00828 -0.55239 1.89387 -1.01464 -0.56047 1.89567 -1.01864 -0.56989 1.89776 -1.02000 -0.58000 1.90000 -1.01864 -0.59011 1.90224 -1.01464 -0.59953 1.90433 -1.00828 -0.60761 1.90613 -1.00000 -0.61382 1.90750 -0.99035 -0.61772 1.90837 -0.98000 -0.61905 1.90866 -0.96965 -0.61772 1.90837 -0.96000 -0.61382 1.90750 -0.95172 -0.60761 1.90613 -0.94536 -0.59953 1.90433 -0.94136 -0.59011 1.90224 -0.94000 -0.58000 1.90000 -0.94136 -0.56989 1.89776 -0.94536 -0.56047 1.89567 -0.95172 -0.55239 1.89387 -0.96000 -0.54618 1.89250 -0.96965 -0.54228 1.89163 -0.98000 -0.54000 2.40000 -0.99035 -0.54136 2.40000 -1.00000 -0.54536 2.40000 -1.00828 -0.55172 2.40000 -1.01464 -0.56000 2.40000 -1.01864 -0.56965 2.40000 -1.02000 -0.58000 2.40000 -1.01864 -0.59035 2.40000 -1.01464 -0.60000 2.40000 -1.00828 -0.60828 2.40000 -1.00000 -0.61464 2.40000 -0.99035 -0.61864 2.40000 -0.98000 -0.62000 2.40000 -0.96965 -0.61864 2.40000 -0.96000 -0.61464 2.40000 -0.95172 -0.60828 2.40000 -0.94536 -0.60000 2.40000 -0.94136 -0.59035 2.40000 -0.94000 -0.58000 2.40000 -0.94136 -0.56965 2.40000 -0.94536 -0.56000 2.40000 -0.95172 -0.55172 2.40000 -0.96000 -0.54536 2.40000 -0.96965 -0.54136 2.40000 -0.98000 -0.53520 3.02587 -0.99160 -0.53673 3.02498 -1.00240 -0.54120 3.02240 -1.01168 -0.54832 3.01829 -1.01880 -0.55760 3.01293 -1.02327 -0.56840 3.00669 -1.02480 -0.58000 3.00000 -1.02327 -0.59160 2.99331 -1.01880 -0.60240 2.98707 -1.01168 -0.61168 2.98171 -1.00240 -0.61880 2.97760 -0.99160 -0.62327 2.97502 -0.98000 -0.62480 2.97413 -0.96840 -0.62327 2.97502 -0.95760 -0.61880 2.97760 -0.94832 -0.61168 2.98171 -0.94120 -0.60240 2.98707 -0.93673 -0.59160 2.99331 -0.93520 -0.58000 3.00000 -0.93673 -0.56840 3.00669 -0.94120 -0.55760 3.01293 -0.94832 -0.54832 3.01829 -0.95760 -0.54120 3.02240 -0.96840 -0.53673 3.02498 -0.93000 -1.16000 1.10000 -0.98000 -0.58000 3.00000 -0.98700 -0.77600 1.49400 -0.98700 -0.77962 1.49352 -0.98700 -0.78300 1.49212 -0.98700 -0.78590 1.48990 -0.98700 -0.78812 1.48700 -0.98700 -0.78952 1.48362 -0.98700 -0.79000 1.48000 -0.98700 -0.78952 1.47638 -0.98700 -0.78812 1.47300 -0.98700 -0.78590 1.47010 -0.98700 -0.78300 1.46788 -0.98700 -0.77962 1.46648 -0.98700 -0.77600 1.46600 -0.98700 -0.77238 1.46648 -0.98700 -0.76900 1.46788 -0.98700 -0.76610 1.47010 -0.98700 -0.76388 1.47300 -0.98700 -0.76248 1.47638 -0.98700 -0.76200 1.48000 -0.98700 -0.76248 1.48362 -0.98700 -0.76388 1.48700 -0.98700 -0.76610 1.48990 -0.98700 -0.76900 1.49212 -0.98700 -0.77238 1.49352 -0.92700 -0.77600 1.49400 -0.92700 -0.77962 1.49352 -0.92700 -0.78300 1.49212 -0.92700 -0.78590 1.48990 -0.92700 -0.78812 1.48700 -0.92700 -0.78952 1.48362 -0.92700 -0.79000 1.48000 -0.92700 -0.78952 1.47638 -0.92700 -0.78812 1.47300 -0.92700 -0.78590 1.47010 -0.92700 -0.78300 1.46788 -0.92700 -0.77962 1.46648 -0.92700 -0.77600 1.46600 -0.92700 -0.77238 1.46648 -0.92700 -0.76900 1.46788 -0.92700 -0.76610 1.47010 -0.92700 -0.76388 1.47300 -0.92700 -0.76248 1.47638 -0.92700 -0.76200 1.48000 -0.92700 -0.76248 1.48362 -0.92700 -0.76388 1.48700 -0.92700 -0.76610 1.48990 -0.92700 -0.76900 1.49212 -0.92700 -0.77238 1.49352 -0.92700 -0.77600 1.48000 -0.98200 -0.63600 1.79400 -0.98200 -0.63962 1.79352 -0.98200 -0.64300 1.79212 -0.98200 -0.64590 1.78990 -0.98200 -0.64812 1.78700 -0.98200 -0.64952 1.78362 -0.98200 -0.65000 1.78000 -0.98200 -0.64952 1.77638 -0.98200 -0.64812 1.77300 -0.98200 -0.64590 1.77010 -0.98200 -0.64300 1.76788 -0.98200 -0.63962 1.76648 -0.98200 -0.63600 1.76600 -0.98200 -0.63238 1.76648 -0.98200 -0.62900 1.76788 -0.98200 -0.62610 1.77010 -0.98200 -0.62388 1.77300 -0.98200 -0.62248 1.77638 -0.98200 -0.62200 1.78000 -0.98200 -0.62248 1.78362 -0.98200 -0.62388 1.78700 -0.98200 -0.62610 1.78990 -0.98200 -0.62900 1.79212 -0.98200 -0.63238 1.79352 -0.92200 -0.63600 1.79400 -0.92200 -0.63962 1.79352 -0.92200 -0.64300 1.79212 -0.92200 -0.64590 1.78990 -0.92200 -0.64812 1.78700 -0.92200 -0.64952 1.78362 -0.92200 -0.65000 1.78000 -0.92200 -0.64952 1.77638 -0.92200 -0.64812 1.77300 -0.92200 -0.64590 1.77010 -0.92200 -0.64300 1.76788 -0.92200 -0.63962 1.76648 -0.92200 -0.63600 1.76600 -0.92200 -0.63238 1.76648 -0.92200 -0.62900 1.76788 -0.92200 -0.62610 1.77010 -0.92200 -0.62388 1.77300 -0.92200 -0.62248 1.77638 -0.92200 -0.62200 1.78000 -0.92200 -0.62248 1.78362 -0.92200 -0.62388 1.78700 -0.92200 -0.62610 1.78990 -0.92200 -0.62900 1.79212 -0.92200 -0.63238 1.79352 -0.92200 -0.63600 1.78000</float_array>
          <technique_common>
            <accessor source="#snorkel_roamer_medium_v11-pos-array" count="268" stride="3">
              <param name="X" type="float"/><param name="Y" type="float"/><param name="Z" type="float"/>
            </accessor>
          </technique_common>
        </source>
        <source id="snorkel_roamer_medium_v11-nrm">
          <float_array id="snorkel_roamer_medium_v11-nrm-array" count="804">0.00000 -0.20395 -0.97898 -0.25140 -0.25724 -0.93307 -0.48567 -0.29300 -0.82358 -0.68684 -0.30878 -0.65796 -0.84120 -0.30353 -0.44750 -0.93823 -0.27759 -0.20655 -0.97133 -0.23273 0.04849 -0.93823 -0.17201 0.30021 -0.84120 -0.09957 0.53148 -0.68684 -0.02035 0.72653 -0.48567 0.06026 0.87206 -0.25140 0.13677 0.95817 -0.00000 0.20395 0.97898 0.25140 0.25724 0.93307 0.48567 0.29300 0.82358 0.68684 0.30878 0.65796 0.84120 0.30353 0.44750 0.93823 0.27759 0.20655 0.97133 0.23273 -0.04849 0.93823 0.17201 -0.30021 0.84120 0.09957 -0.53148 0.68684 0.02035 -0.72653 0.48567 -0.06026 -0.87206 0.25140 -0.13677 -0.95817 0.00000 0.54722 -0.83699 -0.25524 0.49268 -0.83194 -0.49309 0.40456 -0.77019 -0.69733 0.28888 -0.65595 -0.85405 0.15351 -0.49702 -0.95257 0.00767 -0.30421 -0.98618 -0.13868 -0.09067 -0.95257 -0.27559 0.12905 -0.85405 -0.39371 0.33997 -0.69733 -0.48500 0.52773 -0.49309 -0.54325 0.67952 -0.25524 -0.56447 0.78500 -0.00000 -0.54722 0.83699 0.25524 -0.49268 0.83194 0.49309 -0.40456 0.77019 0.69733 -0.28888 0.65595 0.85405 -0.15351 0.49702 0.95257 -0.00767 0.30421 0.98618 0.13868 0.09067 0.95257 0.27559 -0.12905 0.85405 0.39371 -0.33997 0.69733 0.48500 -0.52773 0.49309 0.54325 -0.67952 0.25524 0.56447 -0.78500 0.00000 0.94406 -0.32977 -0.25879 0.91319 -0.31483 -0.49994 0.82008 -0.27843 -0.70703 0.67109 -0.22305 -0.86593 0.47636 -0.15248 -0.96581 0.24917 -0.07151 -0.99988 0.00500 0.01433 -0.96581 -0.23951 0.09919 -0.86593 -0.46770 0.17729 -0.70703 -0.66401 0.24331 -0.49994 -0.81508 0.29275 -0.25879 -0.91060 0.32224 -0.00000 -0.94406 0.32977 0.25879 -0.91319 0.31483 0.49994 -0.82008 0.27843 0.70703 -0.67109 0.22305 0.86593 -0.47636 0.15248 0.96581 -0.24917 0.07151 0.99988 -0.00500 -0.01433 0.96581 0.23951 -0.09919 0.86593 0.46770 -0.17729 0.70703 0.66401 -0.24331 0.49994 0.81508 -0.29275 0.25879 0.91060 -0.32224 0.00000 0.90618 -0.42289 -0.25879 0.87696 -0.40493 -0.49994 0.78797 -0.35939 -0.70703 0.64528 -0.28935 -0.86593 0.45862 -0.19959 -0.96582 0.24070 -0.09624 -0.99989 0.00638 0.01368 -0.96582 -0.22837 0.12267 -0.86593 -0.44756 0.22329 -0.70703 -0.63625 0.30870 -0.49994 -0.78159 0.37307 -0.25879 -0.87365 0.41202 -0.00000 -0.90618 0.42289 0.25879 -0.87696 0.40493 0.49994 -0.78797 0.35939 0.70703 -0.64528 0.28935 0.86593 -0.45862 0.19959 0.96582 -0.24070 0.09624 0.99989 -0.00638 -0.01368 0.96582 0.22837 -0.12267 0.86593 0.44756 -0.22329 0.70703 0.63625 -0.30870 0.49994 0.78159 -0.37307 0.25879 0.87365 -0.41202 0.00000 0.97626 -0.21658 -0.25882 0.94300 -0.20920 -0.50000 0.84547 -0.18757 -0.70711 0.69032 -0.15315 -0.86603 0.48813 -0.10829 -0.96593 0.25268 -0.05606 -1.00000 0.00000 -0.00000 -0.96593 -0.25268 0.05606 -0.86603 -0.48813 0.10829 -0.70711 -0.69032 0.15315 -0.50000 -0.84547 0.18757 -0.25882 -0.94300 0.20920 -0.00000 -0.97626 0.21658 0.25882 -0.94300 0.20920 0.50000 -0.84547 0.18757 0.70711 -0.69032 0.15315 0.86603 -0.48813 0.10829 0.96593 -0.25268 0.05606 1.00000 -0.00000 0.00000 0.96593 0.25268 -0.05606 0.86603 0.48813 -0.10829 0.70711 0.69032 -0.15315 0.50000 0.84547 -0.18757 0.25882 0.94300 -0.20920 0.00000 1.00000 0.00000 -0.25882 0.96593 0.00000 -0.50000 0.86603 0.00000 -0.70711 0.70711 0.00000 -0.86603 0.50000 0.00000 -0.96593 0.25882 0.00000 -1.00000 0.00000 0.00000 -0.96593 -0.25882 0.00000 -0.86603 -0.50000 0.00000 -0.70711 -0.70711 0.00000 -0.50000 -0.86603 0.00000 -0.25882 -0.96593 0.00000 -0.00000 -1.00000 0.00000 0.25882 -0.96593 -0.00000 0.50000 -0.86603 -0.00000 0.70711 -0.70711 -0.00000 0.86603 -0.50000 -0.00000 0.96593 -0.25882 -0.00000 1.00000 -0.00000 -0.00000 0.96593 0.25882 0.00000 0.86603 0.50000 0.00000 0.70711 0.70711 0.00000 0.50000 0.86603 0.00000 0.25882 0.96593 0.00000 0.00000 1.00000 0.00000 -0.25882 0.96593 0.00000 -0.50000 0.86603 0.00000 -0.70711 0.70711 0.00000 -0.86603 0.50000 0.00000 -0.96593 0.25882 0.00000 -1.00000 0.00000 0.00000 -0.96593 -0.25882 0.00000 -0.86603 -0.50000 0.00000 -0.70711 -0.70711 0.00000 -0.50000 -0.86603 0.00000 -0.25882 -0.96593 0.00000 -0.00000 -1.00000 0.00000 0.25882 -0.96593 -0.00000 0.50000 -0.86603 -0.00000 0.70711 -0.70711 -0.00000 0.86603 -0.50000 -0.00000 0.96593 -0.25882 -0.00000 1.00000 -0.00000 -0.00000 0.96593 0.25882 0.00000 0.86603 0.50000 0.00000 0.70711 0.70711 0.00000 0.50000 0.86603 0.00000 0.25882 0.96593 0.00000 0.23773 -0.95091 0.19811 0.00000 -0.50001 0.86602 0.00000 0.00000 1.00000 0.00000 -0.25882 0.96593 0.00000 -0.50000 0.86603 0.00000 -0.70711 0.70711 0.00000 -0.86603 0.50000 0.00000 -0.96593 0.25882 0.00000 -1.00000 0.00000 0.00000 -0.96593 -0.25882 0.00000 -0.86603 -0.50000 0.00000 -0.70711 -0.70711 0.00000 -0.50000 -0.86603 0.00000 -0.25882 -0.96593 0.00000 -0.00000 -1.00000 -0.00000 0.25882 -0.96593 -0.00000 0.50000 -0.86603 -0.00000 0.70711 -0.70711 -0.00000 0.86603 -0.50000 -0.00000 0.96593 -0.25882 -0.00000 1.00000 -0.00000 0.00000 0.96593 0.25882 0.00000 0.86603 0.50000 0.00000 0.70711 0.70711 0.00000 0.50000 0.86603 0.00000 0.25882 0.96593 0.00000 0.00000 1.00000 0.00000 -0.25882 0.96593 0.00000 -0.50000 0.86603 0.00000 -0.70711 0.70711 0.00000 -0.86603 0.50000 0.00000 -0.96593 0.25882 0.00000 -1.00000 0.00000 0.00000 -0.96593 -0.25882 0.00000 -0.86603 -0.50000 0.00000 -0.70711 -0.70711 0.00000 -0.50000 -0.86603 0.00000 -0.25882 -0.96593 0.00000 -0.00000 -1.00000 -0.00000 0.25882 -0.96593 -0.00000 0.50000 -0.86603 -0.00000 0.70711 -0.70711 -0.00000 0.86603 -0.50000 -0.00000 0.96593 -0.25882 -0.00000 1.00000 -0.00000 0.00000 0.96593 0.25882 0.00000 0.86603 0.50000 0.00000 0.70711 0.70711 0.00000 0.50000 0.86603 0.00000 0.25882 0.96593 1.00000 0.00000 0.00000 0.00000 0.00000 1.00000 0.00000 -0.25882 0.96593 0.00000 -0.50000 0.86603 0.00000 -0.70711 0.70711 0.00000 -0.86603 0.50000 0.00000 -0.96593 0.25882 0.00000 -1.00000 0.00000 0.00000 -0.96593 -0.25882 0.00000 -0.86603 -0.50000 0.00000 -0.70711 -0.70711 0.00000 -0.50000 -0.86603 0.00000 -0.25882 -0.96593 0.00000 -0.00000 -1.00000 -0.00000 0.25882 -0.96593 -0.00000 0.50000 -0.86603 -0.00000 0.70711 -0.70711 -0.00000 0.86603 -0.50000 -0.00000 0.96593 -0.25882 -0.00000 1.00000 -0.00000 0.00000 0.96593 0.25882 0.00000 0.86603 0.50000 0.00000 0.70711 0.70711 0.00000 0.50000 0.86603 0.00000 0.25882 0.96593 0.00000 0.00000 1.00000 0.00000 -0.25882 0.96593 0.00000 -0.50000 0.86603 0.00000 -0.70711 0.70711 0.00000 -0.86603 0.50000 0.00000 -0.96593 0.25882 0.00000 -1.00000 0.00000 0.00000 -0.96593 -0.25882 0.00000 -0.86603 -0.50000 0.00000 -0.70711 -0.70711 0.00000 -0.50000 -0.86603 0.00000 -0.25882 -0.96593 0.00000 -0.00000 -1.00000 -0.00000 0.25882 -0.96593 -0.00000 0.50000 -0.86603 -0.00000 0.70711 -0.70711 -0.00000 0.86603 -0.50000 -0.00000 0.96593 -0.25882 -0.00000 1.00000 -0.00000 0.00000 0.96593 0.25882 0.00000 0.86603 0.50000 0.00000 0.70711 0.70711 0.00000 0.50000 0.86603 0.00000 0.25882 0.96593 1.00000 0.00000 0.00000</float_array>
          <technique_common>
            <accessor source="#snorkel_roamer_medium_v11-nrm-array" count="268" stride="3">
              <param name="X" type="float"/><param name="Y" type="float"/><param name="Z" type="float"/>
            </accessor>
          </technique_common>
        </source>
        <vertices id="snorkel_roamer_medium_v11-vtx"><input semantic="POSITION" source="#snorkel_roamer_medium_v11-pos"/></vertices>
        <triangles material="snorkel_black" count="480">
          <input semantic="VERTEX" source="#snorkel_roamer_medium_v11-vtx" offset="0"/>
          <input semantic="NORMAL" source="#snorkel_roamer_medium_v11-nrm" offset="1"/>
          <p>0 0 24 24 25 25 0 0 25 25 1 1 1 1 25 25 26 26 1 1 26 26 2 2 2 2 26 26 27 27 2 2 27 27 3 3 3 3 27 27 28 28 3 3 28 28 4 4 4 4 28 28 29 29 4 4 29 29 5 5 5 5 29 29 30 30 5 5 30 30 6 6 6 6 30 30 31 31 6 6 31 31 7 7 7 7 31 31 32 32 7 7 32 32 8 8 8 8 32 32 33 33 8 8 33 33 9 9 9 9 33 33 34 34 9 9 34 34 10 10 10 10 34 34 35 35 10 10 35 35 11 11 11 11 35 35 36 36 11 11 36 36 12 12 12 12 36 36 37 37 12 12 37 37 13 13 13 13 37 37 38 38 13 13 38 38 14 14 14 14 38 38 39 39 14 14 39 39 15 15 15 15 39 39 40 40 15 15 40 40 16 16 16 16 40 40 41 41 16 16 41 41 17 17 17 17 41 41 42 42 17 17 42 42 18 18 18 18 42 42 43 43 18 18 43 43 19 19 19 19 43 43 44 44 19 19 44 44 20 20 20 20 44 44 45 45 20 20 45 45 21 21 21 21 45 45 46 46 21 21 46 46 22 22 22 22 46 46 47 47 22 22 47 47 23 23 23 23 47 47 24 24 23 23 24 24 0 0 24 24 48 48 49 49 24 24 49 49 25 25 25 25 49 49 50 50 25 25 50 50 26 26 26 26 50 50 51 51 26 26 51 51 27 27 27 27 51 51 52 52 27 27 52 52 28 28 28 28 52 52 53 53 28 28 53 53 29 29 29 29 53 53 54 54 29 29 54 54 30 30 30 30 54 54 55 55 30 30 55 55 31 31 31 31 55 55 56 56 31 31 56 56 32 32 32 32 56 56 57 57 32 32 57 57 33 33 33 33 57 57 58 58 33 33 58 58 34 34 34 34 58 58 59 59 34 34 59 59 35 35 35 35 59 59 60 60 35 35 60 60 36 36 36 36 60 60 61 61 36 36 61 61 37 37 37 37 61 61 62 62 37 37 62 62 38 38 38 38 62 62 63 63 38 38 63 63 39 39 39 39 63 63 64 64 39 39 64 64 40 40 40 40 64 64 65 65 40 40 65 65 41 41 41 41 65 65 66 66 41 41 66 66 42 42 42 42 66 66 67 67 42 42 67 67 43 43 43 43 67 67 68 68 43 43 68 68 44 44 44 44 68 68 69 69 44 44 69 69 45 45 45 45 69 69 70 70 45 45 70 70 46 46 46 46 70 70 71 71 46 46 71 71 47 47 47 47 71 71 48 48 47 47 48 48 24 24 48 48 72 72 73 73 48 48 73 73 49 49 49 49 73 73 74 74 49 49 74 74 50 50 50 50 74 74 75 75 50 50 75 75 51 51 51 51 75 75 76 76 51 51 76 76 52 52 52 52 76 76 77 77 52 52 77 77 53 53 53 53 77 77 78 78 53 53 78 78 54 54 54 54 78 78 79 79 54 54 79 79 55 55 55 55 79 79 80 80 55 55 80 80 56 56 56 56 80 80 81 81 56 56 81 81 57 57 57 57 81 81 82 82 57 57 82 82 58 58 58 58 82 82 83 83 58 58 83 83 59 59 59 59 83 83 84 84 59 59 84 84 60 60 60 60 84 84 85 85 60 60 85 85 61 61 61 61 85 85 86 86 61 61 86 86 62 62 62 62 86 86 87 87 62 62 87 87 63 63 63 63 87 87 88 88 63 63 88 88 64 64 64 64 88 88 89 89 64 64 89 89 65 65 65 65 89 89 90 90 65 65 90 90 66 66 66 66 90 90 91 91 66 66 91 91 67 67 67 67 91 91 92 92 67 67 92 92 68 68 68 68 92 92 93 93 68 68 93 93 69 69 69 69 93 93 94 94 69 69 94 94 70 70 70 70 94 94 95 95 70 70 95 95 71 71 71 71 95 95 72 72 71 71 72 72 48 48 72 72 96 96 97 97 72 72 97 97 73 73 73 73 97 97 98 98 73 73 98 98 74 74 74 74 98 98 99 99 74 74 99 99 75 75 75 75 99 99 100 100 75 75 100 100 76 76 76 76 100 100 101 101 76 76 101 101 77 77 77 77 101 101 102 102 77 77 102 102 78 78 78 78 102 102 103 103 78 78 103 103 79 79 79 79 103 103 104 104 79 79 104 104 80 80 80 80 104 104 105 105 80 80 105 105 81 81 81 81 105 105 106 106 81 81 106 106 82 82 82 82 106 106 107 107 82 82 107 107 83 83 83 83 107 107 108 108 83 83 108 108 84 84 84 84 108 108 109 109 84 84 109 109 85 85 85 85 109 109 110 110 85 85 110 110 86 86 86 86 110 110 111 111 86 86 111 111 87 87 87 87 111 111 112 112 87 87 112 112 88 88 88 88 112 112 113 113 88 88 113 113 89 89 89 89 113 113 114 114 89 89 114 114 90 90 90 90 114 114 115 115 90 90 115 115 91 91 91 91 115 115 116 116 91 91 116 116 92 92 92 92 116 116 117 117 92 92 117 117 93 93 93 93 117 117 118 118 93 93 118 118 94 94 94 94 118 118 119 119 94 94 119 119 95 95 95 95 119 119 96 96 95 95 96 96 72 72 96 96 120 120 121 121 96 96 121 121 97 97 97 97 121 121 122 122 97 97 122 122 98 98 98 98 122 122 123 123 98 98 123 123 99 99 99 99 123 123 124 124 99 99 124 124 100 100 100 100 124 124 125 125 100 100 125 125 101 101 101 101 125 125 126 126 101 101 126 126 102 102 102 102 126 126 127 127 102 102 127 127 103 103 103 103 127 127 128 128 103 103 128 128 104 104 104 104 128 128 129 129 104 104 129 129 105 105 105 105 129 129 130 130 105 105 130 130 106 106 106 106 130 130 131 131 106 106 131 131 107 107 107 107 131 131 132 132 107 107 132 132 108 108 108 108 132 132 133 133 108 108 133 133 109 109 109 109 133 133 134 134 109 109 134 134 110 110 110 110 134 134 135 135 110 110 135 135 111 111 111 111 135 135 136 136 111 111 136 136 112 112 112 112 136 136 137 137 112 112 137 137 113 113 113 113 137 137 138 138 113 113 138 138 114 114 114 114 138 138 139 139 114 114 139 139 115 115 115 115 139 139 140 140 115 115 140 140 116 116 116 116 140 140 141 141 116 116 141 141 117 117 117 117 141 141 142 142 117 117 142 142 118 118 118 118 142 142 143 143 118 118 143 143 119 119 119 119 143 143 120 120 119 119 120 120 96 96 120 120 144 144 145 145 120 120 145 145 121 121 121 121 145 145 146 146 121 121 146 146 122 122 122 122 146 146 147 147 122 122 147 147 123 123 123 123 147 147 148 148 123 123 148 148 124 124 124 124 148 148 149 149 124 124 149 149 125 125 125 125 149 149 150 150 125 125 150 150 126 126 126 126 150 150 151 151 126 126 151 151 127 127 127 127 151 151 152 152 127 127 152 152 128 128 128 128 152 152 153 153 128 128 153 153 129 129 129 129 153 153 154 154 129 129 154 154 130 130 130 130 154 154 155 155 130 130 155 155 131 131 131 131 155 155 156 156 131 131 156 156 132 132 132 132 156 156 157 157 132 132 157 157 133 133 133 133 157 157 158 158 133 133 158 158 134 134 134 134 158 158 159 159 134 134 159 159 135 135 135 135 159 159 160 160 135 135 160 160 136 136 136 136 160 160 161 161 136 136 161 161 137 137 137 137 161 161 162 162 137 137 162 162 138 138 138 138 162 162 163 163 138 138 163 163 139 139 139 139 163 163 164 164 139 139 164 164 140 140 140 140 164 164 165 165 140 140 165 165 141 141 141 141 165 165 166 166 141 141 166 166 142 142 142 142 166 166 167 167 142 142 167 167 143 143 143 143 167 167 144 144 143 143 144 144 120 120 168 168 1 1 0 0 168 168 2 2 1 1 168 168 3 3 2 2 168 168 4 4 3 3 168 168 5 5 4 4 168 168 6 6 5 5 168 168 7 7 6 6 168 168 8 8 7 7 168 168 9 9 8 8 168 168 10 10 9 9 168 168 11 11 10 10 168 168 12 12 11 11 168 168 13 13 12 12 168 168 14 14 13 13 168 168 15 15 14 14 168 168 16 16 15 15 168 168 17 17 16 16 168 168 18 18 17 17 168 168 19 19 18 18 168 168 20 20 19 19 168 168 21 21 20 20 168 168 22 22 21 21 168 168 23 23 22 22 168 168 0 0 23 23 169 169 144 144 145 145 169 169 145 145 146 146 169 169 146 146 147 147 169 169 147 147 148 148 169 169 148 148 149 149 169 169 149 149 150 150 169 169 150 150 151 151 169 169 151 151 152 152 169 169 152 152 153 153 169 169 153 153 154 154 169 169 154 154 155 155 169 169 155 155 156 156 169 169 156 156 157 157 169 169 157 157 158 158 169 169 158 158 159 159 169 169 159 159 160 160 169 169 160 160 161 161 169 169 161 161 162 162 169 169 162 162 163 163 169 169 163 163 164 164 169 169 164 164 165 165 169 169 165 165 166 166 169 169 166 166 167 167 169 169 167 167 144 144 170 170 194 194 195 195 170 170 195 195 171 171 171 171 195 195 196 196 171 171 196 196 172 172 172 172 196 196 197 197 172 172 197 197 173 173 173 173 197 197 198 198 173 173 198 198 174 174 174 174 198 198 199 199 174 174 199 199 175 175 175 175 199 199 200 200 175 175 200 200 176 176 176 176 200 200 201 201 176 176 201 201 177 177 177 177 201 201 202 202 177 177 202 202 178 178 178 178 202 202 203 203 178 178 203 203 179 179 179 179 203 203 204 204 179 179 204 204 180 180 180 180 204 204 205 205 180 180 205 205 181 181 181 181 205 205 206 206 181 181 206 206 182 182 182 182 206 206 207 207 182 182 207 207 183 183 183 183 207 207 208 208 183 183 208 208 184 184 184 184 208 208 209 209 184 184 209 209 185 185 185 185 209 209 210 210 185 185 210 210 186 186 186 186 210 210 211 211 186 186 211 211 187 187 187 187 211 211 212 212 187 187 212 212 188 188 188 188 212 212 213 213 188 188 213 213 189 189 189 189 213 213 214 214 189 189 214 214 190 190 190 190 214 214 215 215 190 190 215 215 191 191 191 191 215 215 216 216 191 191 216 216 192 192 192 192 216 216 217 217 192 192 217 217 193 193 193 193 217 217 194 194 193 193 194 194 170 170 218 218 194 194 195 195 218 218 195 195 196 196 218 218 196 196 197 197 218 218 197 197 198 198 218 218 198 198 199 199 218 218 199 199 200 200 218 218 200 200 201 201 218 218 201 201 202 202 218 218 202 202 203 203 218 218 203 203 204 204 218 218 204 204 205 205 218 218 205 205 206 206 218 218 206 206 207 207 218 218 207 207 208 208 218 218 208 208 209 209 218 218 209 209 210 210 218 218 210 210 211 211 218 218 211 211 212 212 218 218 212 212 213 213 218 218 213 213 214 214 218 218 214 214 215 215 218 218 215 215 216 216 218 218 216 216 217 217 218 218 217 217 194 194 219 219 243 243 244 244 219 219 244 244 220 220 220 220 244 244 245 245 220 220 245 245 221 221 221 221 245 245 246 246 221 221 246 246 222 222 222 222 246 246 247 247 222 222 247 247 223 223 223 223 247 247 248 248 223 223 248 248 224 224 224 224 248 248 249 249 224 224 249 249 225 225 225 225 249 249 250 250 225 225 250 250 226 226 226 226 250 250 251 251 226 226 251 251 227 227 227 227 251 251 252 252 227 227 252 252 228 228 228 228 252 252 253 253 228 228 253 253 229 229 229 229 253 253 254 254 229 229 254 254 230 230 230 230 254 254 255 255 230 230 255 255 231 231 231 231 255 255 256 256 231 231 256 256 232 232 232 232 256 256 257 257 232 232 257 257 233 233 233 233 257 257 258 258 233 233 258 258 234 234 234 234 258 258 259 259 234 234 259 259 235 235 235 235 259 259 260 260 235 235 260 260 236 236 236 236 260 260 261 261 236 236 261 261 237 237 237 237 261 261 262 262 237 237 262 262 238 238 238 238 262 262 263 263 238 238 263 263 239 239 239 239 263 263 264 264 239 239 264 264 240 240 240 240 264 264 265 265 240 240 265 265 241 241 241 241 265 265 266 266 241 241 266 266 242 242 242 242 266 266 243 243 242 242 243 243 219 219 267 267 243 243 244 244 267 267 244 244 245 245 267 267 245 245 246 246 267 267 246 246 247 247 267 267 247 247 248 248 267 267 248 248 249 249 267 267 249 249 250 250 267 267 250 250 251 251 267 267 251 251 252 252 267 267 252 252 253 253 267 267 253 253 254 254 267 267 254 254 255 255 267 267 255 255 256 256 267 267 256 256 257 257 267 267 257 257 258 258 267 267 258 258 259 259 267 267 259 259 260 260 267 267 260 260 261 261 267 267 261 261 262 262 267 267 262 262 263 263 267 267 263 263 264 264 267 267 264 264 265 265 267 267 265 265 266 266 267 267 266 266 243 243</p>
        </triangles>
      </mesh>
    </geometry>
    <geometry id="snorkel_roamer_tall_v11-mesh" name="snorkel_roamer_tall_v11">
      <mesh>
        <source id="snorkel_roamer_tall_v11-pos">
          <float_array id="snorkel_roamer_tall_v11-pos-array" count="1092">-0.93000 -1.16816 1.06084 -0.94006 -1.17029 1.06268 -0.94943 -1.17172 1.06706 -0.95747 -1.17235 1.07368 -0.96365 -1.17214 1.08210 -0.96753 -1.17110 1.09174 -0.96885 -1.16931 1.10194 -0.96753 -1.16688 1.11201 -0.96365 -1.16398 1.12126 -0.95747 -1.16081 1.12906 -0.94943 -1.15759 1.13488 -0.94006 -1.15453 1.13833 -0.93000 -1.15184 1.13916 -0.91994 -1.14971 1.13732 -0.91057 -1.14828 1.13294 -0.90253 -1.14765 1.12632 -0.89635 -1.14786 1.11790 -0.89247 -1.14890 1.10826 -0.89115 -1.15069 1.09806 -0.89247 -1.15312 1.08799 -0.89635 -1.15602 1.07874 -0.90253 -1.15919 1.07094 -0.91057 -1.16241 1.06512 -0.91994 -1.16547 1.06167 -0.99000 -0.89811 1.01652 -1.00021 -0.90029 1.01672 -1.00972 -0.90382 1.01919 -1.01789 -0.90844 1.02376 -1.02416 -0.91386 1.03012 -1.02810 -0.91969 1.03783 -1.02945 -0.92555 1.04637 -1.02810 -0.93102 1.05516 -1.02416 -0.93575 1.06360 -1.01789 -0.93940 1.07111 -1.00972 -0.94173 1.07718 -1.00021 -0.94258 1.08140 -0.99000 -0.94189 1.08348 -0.97979 -0.93971 1.08328 -0.97028 -0.93618 1.08081 -0.96211 -0.93156 1.07624 -0.95584 -0.92614 1.06988 -0.95190 -0.92031 1.06217 -0.95055 -0.91445 1.05363 -0.95190 -0.90898 1.04484 -0.95584 -0.90425 1.03640 -0.96211 -0.90060 1.02889 -0.97028 -0.89827 1.02282 -0.97979 -0.89742 1.01860 -0.99000 -0.82224 1.28681 -1.00035 -0.82347 1.28741 -1.01000 -0.82720 1.28886 -1.01828 -0.83316 1.29108 -1.02464 -0.84095 1.29390 -1.02863 -0.85003 1.29714 -1.03000 -0.85980 1.30057 -1.02863 -0.86958 1.30397 -1.02464 -0.87871 1.30709 -1.01828 -0.88656 1.30973 -1.01000 -0.89260 1.31171 -1.00035 -0.89642 1.31289 -0.99000 -0.89776 1.31319 -0.97965 -0.89653 1.31259 -0.97000 -0.89280 1.31114 -0.96172 -0.88684 1.30892 -0.95536 -0.87905 1.30610 -0.95137 -0.86997 1.30286 -0.95000 -0.86020 1.29943 -0.95137 -0.85042 1.29603 -0.95536 -0.84129 1.29291 -0.96172 -0.83344 1.29027 -0.97000 -0.82740 1.28829 -0.97965 -0.82358 1.28711 -0.98000 -0.68375 1.58308 -0.99035 -0.68492 1.58380 -1.00000 -0.68848 1.58562 -1.00828 -0.69419 1.58843 -1.01464 -0.70166 1.59202 -1.01863 -0.71037 1.59615 -1.02000 -0.71974 1.60055 -1.01863 -0.72913 1.60491 -1.01464 -0.73790 1.60893 -1.00828 -0.74545 1.61235 -1.00000 -0.75126 1.61492 -0.99035 -0.75495 1.61648 -0.98000 -0.75625 1.61692 -0.96965 -0.75508 1.61620 -0.96000 -0.75152 1.61438 -0.95172 -0.74581 1.61157 -0.94536 -0.73834 1.60798 -0.94137 -0.72963 1.60385 -0.94000 -0.72026 1.59945 -0.94137 -0.71087 1.59509 -0.94536 -0.70210 1.59107 -0.95172 -0.69455 1.58765 -0.96000 -0.68874 1.58508 -0.96965 -0.68505 1.58352 -0.98000 -0.54095 1.89134 -0.99035 -0.54228 1.89163 -1.00000 -0.54618 1.89250 -1.00828 -0.55239 1.89387 -1.01464 -0.56047 1.89567 -1.01864 -0.56989 1.89776 -1.02000 -0.58000 1.90000 -1.01864 -0.59011 1.90224 -1.01464 -0.59953 1.90433 -1.00828 -0.60761 1.90613 -1.00000 -0.61382 1.90750 -0.99035 -0.61772 1.90837 -0.98000 -0.61905 1.90866 -0.96965 -0.61772 1.90837 -0.96000 -0.61382 1.90750 -0.95172 -0.60761 1.90613 -0.94536 -0.59953 1.90433 -0.94136 -0.59011 1.90224 -0.94000 -0.58000 1.90000 -0.94136 -0.56989 1.89776 -0.94536 -0.56047 1.89567 -0.95172 -0.55239 1.89387 -0.96000 -0.54618 1.89250 -0.96965 -0.54228 1.89163 -0.98000 -0.54000 2.40000 -0.99035 -0.54136 2.40000 -1.00000 -0.54536 2.40000 -1.00828 -0.55172 2.40000 -1.01464 -0.56000 2.40000 -1.01864 -0.56965 2.40000 -1.02000 -0.58000 2.40000 -1.01864 -0.59035 2.40000 -1.01464 -0.60000 2.40000 -1.00828 -0.60828 2.40000 -1.00000 -0.61464 2.40000 -0.99035 -0.61864 2.40000 -0.98000 -0.62000 2.40000 -0.96965 -0.61864 2.40000 -0.96000 -0.61464 2.40000 -0.95172 -0.60828 2.40000 -0.94536 -0.60000 2.40000 -0.94136 -0.59035 2.40000 -0.94000 -0.58000 2.40000 -0.94136 -0.56965 2.40000 -0.94536 -0.56000 2.40000 -0.95172 -0.55172 2.40000 -0.96000 -0.54536 2.40000 -0.96965 -0.54136 2.40000 -0.98000 -0.54000 2.90000 -0.99035 -0.54136 2.90000 -1.00000 -0.54536 2.90000 -1.00828 -0.55172 2.90000 -1.01464 -0.56000 2.90000 -1.01864 -0.56965 2.90000 -1.02000 -0.58000 2.90000 -1.01864 -0.59035 2.90000 -1.01464 -0.60000 2.90000 -1.00828 -0.60828 2.90000 -1.00000 -0.61464 2.90000 -0.99035 -0.61864 2.90000 -0.98000 -0.62000 2.90000 -0.96965 -0.61864 2.90000 -0.96000 -0.61464 2.90000 -0.95172 -0.60828 2.90000 -0.94536 -0.60000 2.90000 -0.94136 -0.59035 2.90000 -0.94000 -0.58000 2.90000 -0.94136 -0.56965 2.90000 -0.94536 -0.56000 2.90000 -0.95172 -0.55172 2.90000 -0.96000 -0.54536 2.90000 -0.96965 -0.54136 2.90000 -0.98000 -0.54000 3.40000 -0.99035 -0.54136 3.40000 -1.00000 -0.54536 3.40000 -1.00828 -0.55172 3.40000 -1.01464 -0.56000 3.40000 -1.01864 -0.56965 3.40000 -1.02000 -0.58000 3.40000 -1.01864 -0.59035 3.40000 -1.01464 -0.60000 3.40000 -1.00828 -0.60828 3.40000 -1.00000 -0.61464 3.40000 -0.99035 -0.61864 3.40000 -0.98000 -0.62000 3.40000 -0.96965 -0.61864 3.40000 -0.96000 -0.61464 3.40000 -0.95172 -0.60828 3.40000 -0.94536 -0.60000 3.40000 -0.94136 -0.59035 3.40000 -0.94000 -0.58000 3.40000 -0.94136 -0.56965 3.40000 -0.94536 -0.56000 3.40000 -0.95172 -0.55172 3.40000 -0.96000 -0.54536 3.40000 -0.96965 -0.54136 3.40000 -0.98000 -0.54000 3.90000 -0.99035 -0.54136 3.90000 -1.00000 -0.54536 3.90000 -1.00828 -0.55172 3.90000 -1.01464 -0.56000 3.90000 -1.01864 -0.56965 3.90000 -1.02000 -0.58000 3.90000 -1.01864 -0.59035 3.90000 -1.01464 -0.60000 3.90000 -1.00828 -0.60828 3.90000 -1.00000 -0.61464 3.90000 -0.99035 -0.61864 3.90000 -0.98000 -0.62000 3.90000 -0.96965 -0.61864 3.90000 -0.96000 -0.61464 3.90000 -0.95172 -0.60828 3.90000 -0.94536 -0.60000 3.90000 -0.94136 -0.59035 3.90000 -0.94000 -0.58000 3.90000 -0.94136 -0.56965 3.90000 -0.94536 -0.56000 3.90000 -0.95172 -0.55172 3.90000 -0.96000 -0.54536 3.90000 -0.96965 -0.54136 3.90000 -0.98000 -0.54000 4.40000 -0.99035 -0.54136 4.40000 -1.00000 -0.54536 4.40000 -1.00828 -0.55172 4.40000 -1.01464 -0.56000 4.40000 -1.01864 -0.56965 4.40000 -1.02000 -0.58000 4.40000 -1.01864 -0.59035 4.40000 -1.01464 -0.60000 4.40000 -1.00828 -0.60828 4.40000 -1.00000 -0.61464 4.40000 -0.99035 -0.61864 4.40000 -0.98000 -0.62000 4.40000 -0.96965 -0.61864 4.40000 -0.96000 -0.61464 4.40000 -0.95172 -0.60828 4.40000 -0.94536 -0.60000 4.40000 -0.94136 -0.59035 4.40000 -0.94000 -0.58000 4.40000 -0.94136 -0.56965 4.40000 -0.94536 -0.56000 4.40000 -0.95172 -0.55172 4.40000 -0.96000 -0.54536 4.40000 -0.96965 -0.54136 4.40000 -0.98000 -0.53520 5.02587 -0.99160 -0.53673 5.02498 -1.00240 -0.54120 5.02240 -1.01168 -0.54832 5.01829 -1.01880 -0.55760 5.01293 -1.02327 -0.56840 5.00669 -1.02480 -0.58000 5.00000 -1.02327 -0.59160 4.99331 -1.01880 -0.60240 4.98707 -1.01168 -0.61168 4.98171 -1.00240 -0.61880 4.97760 -0.99160 -0.62327 4.97502 -0.98000 -0.62480 4.97413 -0.96840 -0.62327 4.97502 -0.95760 -0.61880 4.97760 -0.94832 -0.61168 4.98171 -0.94120 -0.60240 4.98707 -0.93673 -0.59160 4.99331 -0.93520 -0.58000 5.00000 -0.93673 -0.56840 5.00669 -0.94120 -0.55760 5.01293 -0.94832 -0.54832 5.01829 -0.95760 -0.54120 5.02240 -0.96840 -0.53673 5.02498 -0.93000 -1.16000 1.10000 -0.98000 -0.58000 5.00000 -0.98700 -0.77600 1.49400 -0.98700 -0.77962 1.49352 -0.98700 -0.78300 1.49212 -0.98700 -0.78590 1.48990 -0.98700 -0.78812 1.48700 -0.98700 -0.78952 1.48362 -0.98700 -0.79000 1.48000 -0.98700 -0.78952 1.47638 -0.98700 -0.78812 1.47300 -0.98700 -0.78590 1.47010 -0.98700 -0.78300 1.46788 -0.98700 -0.77962 1.46648 -0.98700 -0.77600 1.46600 -0.98700 -0.77238 1.46648 -0.98700 -0.76900 1.46788 -0.98700 -0.76610 1.47010 -0.98700 -0.76388 1.47300 -0.98700 -0.76248 1.47638 -0.98700 -0.76200 1.48000 -0.98700 -0.76248 1.48362 -0.98700 -0.76388 1.48700 -0.98700 -0.76610 1.48990 -0.98700 -0.76900 1.49212 -0.98700 -0.77238 1.49352 -0.92700 -0.77600 1.49400 -0.92700 -0.77962 1.49352 -0.92700 -0.78300 1.49212 -0.92700 -0.78590 1.48990 -0.92700 -0.78812 1.48700 -0.92700 -0.78952 1.48362 -0.92700 -0.79000 1.48000 -0.92700 -0.78952 1.47638 -0.92700 -0.78812 1.47300 -0.92700 -0.78590 1.47010 -0.92700 -0.78300 1.46788 -0.92700 -0.77962 1.46648 -0.92700 -0.77600 1.46600 -0.92700 -0.77238 1.46648 -0.92700 -0.76900 1.46788 -0.92700 -0.76610 1.47010 -0.92700 -0.76388 1.47300 -0.92700 -0.76248 1.47638 -0.92700 -0.76200 1.48000 -0.92700 -0.76248 1.48362 -0.92700 -0.76388 1.48700 -0.92700 -0.76610 1.48990 -0.92700 -0.76900 1.49212 -0.92700 -0.77238 1.49352 -0.92700 -0.77600 1.48000 -0.98200 -0.63600 1.79400 -0.98200 -0.63962 1.79352 -0.98200 -0.64300 1.79212 -0.98200 -0.64590 1.78990 -0.98200 -0.64812 1.78700 -0.98200 -0.64952 1.78362 -0.98200 -0.65000 1.78000 -0.98200 -0.64952 1.77638 -0.98200 -0.64812 1.77300 -0.98200 -0.64590 1.77010 -0.98200 -0.64300 1.76788 -0.98200 -0.63962 1.76648 -0.98200 -0.63600 1.76600 -0.98200 -0.63238 1.76648 -0.98200 -0.62900 1.76788 -0.98200 -0.62610 1.77010 -0.98200 -0.62388 1.77300 -0.98200 -0.62248 1.77638 -0.98200 -0.62200 1.78000 -0.98200 -0.62248 1.78362 -0.98200 -0.62388 1.78700 -0.98200 -0.62610 1.78990 -0.98200 -0.62900 1.79212 -0.98200 -0.63238 1.79352 -0.92200 -0.63600 1.79400 -0.92200 -0.63962 1.79352 -0.92200 -0.64300 1.79212 -0.92200 -0.64590 1.78990 -0.92200 -0.64812 1.78700 -0.92200 -0.64952 1.78362 -0.92200 -0.65000 1.78000 -0.92200 -0.64952 1.77638 -0.92200 -0.64812 1.77300 -0.92200 -0.64590 1.77010 -0.92200 -0.64300 1.76788 -0.92200 -0.63962 1.76648 -0.92200 -0.63600 1.76600 -0.92200 -0.63238 1.76648 -0.92200 -0.62900 1.76788 -0.92200 -0.62610 1.77010 -0.92200 -0.62388 1.77300 -0.92200 -0.62248 1.77638 -0.92200 -0.62200 1.78000 -0.92200 -0.62248 1.78362 -0.92200 -0.62388 1.78700 -0.92200 -0.62610 1.78990 -0.92200 -0.62900 1.79212 -0.92200 -0.63238 1.79352 -0.92200 -0.63600 1.78000</float_array>
          <technique_common>
            <accessor source="#snorkel_roamer_tall_v11-pos-array" count="364" stride="3">
              <param name="X" type="float"/><param name="Y" type="float"/><param name="Z" type="float"/>
            </accessor>
          </technique_common>
        </source>
        <source id="snorkel_roamer_tall_v11-nrm">
          <float_array id="snorkel_roamer_tall_v11-nrm-array" count="1092">0.00000 -0.20395 -0.97898 -0.25140 -0.25724 -0.93307 -0.48567 -0.29300 -0.82358 -0.68684 -0.30878 -0.65796 -0.84120 -0.30353 -0.44750 -0.93823 -0.27759 -0.20655 -0.97133 -0.23273 0.04849 -0.93823 -0.17201 0.30021 -0.84120 -0.09957 0.53148 -0.68684 -0.02035 0.72653 -0.48567 0.06026 0.87206 -0.25140 0.13677 0.95817 -0.00000 0.20395 0.97898 0.25140 0.25724 0.93307 0.48567 0.29300 0.82358 0.68684 0.30878 0.65796 0.84120 0.30353 0.44750 0.93823 0.27759 0.20655 0.97133 0.23273 -0.04849 0.93823 0.17201 -0.30021 0.84120 0.09957 -0.53148 0.68684 0.02035 -0.72653 0.48567 -0.06026 -0.87206 0.25140 -0.13677 -0.95817 0.00000 0.54722 -0.83699 -0.25524 0.49268 -0.83194 -0.49309 0.40456 -0.77019 -0.69733 0.28888 -0.65595 -0.85405 0.15351 -0.49702 -0.95257 0.00767 -0.30421 -0.98618 -0.13868 -0.09067 -0.95257 -0.27559 0.12905 -0.85405 -0.39371 0.33997 -0.69733 -0.48500 0.52773 -0.49309 -0.54325 0.67952 -0.25524 -0.56447 0.78500 -0.00000 -0.54722 0.83699 0.25524 -0.49268 0.83194 0.49309 -0.40456 0.77019 0.69733 -0.28888 0.65595 0.85405 -0.15351 0.49702 0.95257 -0.00767 0.30421 0.98618 0.13868 0.09067 0.95257 0.27559 -0.12905 0.85405 0.39371 -0.33997 0.69733 0.48500 -0.52773 0.49309 0.54325 -0.67952 0.25524 0.56447 -0.78500 0.00000 0.94406 -0.32977 -0.25879 0.91319 -0.31483 -0.49994 0.82008 -0.27843 -0.70703 0.67109 -0.22305 -0.86593 0.47636 -0.15248 -0.96581 0.24917 -0.07151 -0.99988 0.00500 0.01433 -0.96581 -0.23951 0.09919 -0.86593 -0.46770 0.17729 -0.70703 -0.66401 0.24331 -0.49994 -0.81508 0.29275 -0.25879 -0.91060 0.32224 -0.00000 -0.94406 0.32977 0.25879 -0.91319 0.31483 0.49994 -0.82008 0.27843 0.70703 -0.67109 0.22305 0.86593 -0.47636 0.15248 0.96581 -0.24917 0.07151 0.99988 -0.00500 -0.01433 0.96581 0.23951 -0.09919 0.86593 0.46770 -0.17729 0.70703 0.66401 -0.24331 0.49994 0.81508 -0.29275 0.25879 0.91060 -0.32224 0.00000 0.90618 -0.42289 -0.25879 0.87696 -0.40493 -0.49994 0.78797 -0.35939 -0.70703 0.64528 -0.28935 -0.86593 0.45862 -0.19959 -0.96582 0.24070 -0.09624 -0.99989 0.00638 0.01368 -0.96582 -0.22837 0.12267 -0.86593 -0.44756 0.22329 -0.70703 -0.63625 0.30870 -0.49994 -0.78159 0.37307 -0.25879 -0.87365 0.41202 -0.00000 -0.90618 0.42289 0.25879 -0.87696 0.40493 0.49994 -0.78797 0.35939 0.70703 -0.64528 0.28935 0.86593 -0.45862 0.19959 0.96582 -0.24070 0.09624 0.99989 -0.00638 -0.01368 0.96582 0.22837 -0.12267 0.86593 0.44756 -0.22329 0.70703 0.63625 -0.30870 0.49994 0.78159 -0.37307 0.25879 0.87365 -0.41202 0.00000 0.97626 -0.21658 -0.25882 0.94300 -0.20920 -0.50000 0.84547 -0.18757 -0.70711 0.69032 -0.15315 -0.86603 0.48813 -0.10829 -0.96593 0.25268 -0.05606 -1.00000 0.00000 -0.00000 -0.96593 -0.25268 0.05606 -0.86603 -0.48813 0.10829 -0.70711 -0.69032 0.15315 -0.50000 -0.84547 0.18757 -0.25882 -0.94300 0.20920 -0.00000 -0.97626 0.21658 0.25882 -0.94300 0.20920 0.50000 -0.84547 0.18757 0.70711 -0.69032 0.15315 0.86603 -0.48813 0.10829 0.96593 -0.25268 0.05606 1.00000 -0.00000 0.00000 0.96593 0.25268 -0.05606 0.86603 0.48813 -0.10829 0.70711 0.69032 -0.15315 0.50000 0.84547 -0.18757 0.25882 0.94300 -0.20920 0.00000 1.00000 0.00000 -0.25882 0.96593 0.00000 -0.50000 0.86603 0.00000 -0.70711 0.70711 0.00000 -0.86603 0.50000 0.00000 -0.96593 0.25882 0.00000 -1.00000 0.00000 0.00000 -0.96593 -0.25882 0.00000 -0.86603 -0.50000 0.00000 -0.70711 -0.70711 0.00000 -0.50000 -0.86603 0.00000 -0.25882 -0.96593 0.00000 -0.00000 -1.00000 0.00000 0.25882 -0.96593 -0.00000 0.50000 -0.86603 -0.00000 0.70711 -0.70711 -0.00000 0.86603 -0.50000 -0.00000 0.96593 -0.25882 -0.00000 1.00000 -0.00000 -0.00000 0.96593 0.25882 0.00000 0.86603 0.50000 0.00000 0.70711 0.70711 0.00000 0.50000 0.86603 0.00000 0.25882 0.96593 0.00000 0.00000 1.00000 0.00000 -0.25882 0.96593 0.00000 -0.50000 0.86603 0.00000 -0.70711 0.70711 0.00000 -0.86603 0.50000 0.00000 -0.96593 0.25882 0.00000 -1.00000 0.00000 0.00000 -0.96593 -0.25882 0.00000 -0.86603 -0.50000 0.00000 -0.70711 -0.70711 0.00000 -0.50000 -0.86603 0.00000 -0.25882 -0.96593 0.00000 -0.00000 -1.00000 0.00000 0.25882 -0.96593 -0.00000 0.50000 -0.86603 -0.00000 0.70711 -0.70711 -0.00000 0.86603 -0.50000 -0.00000 0.96593 -0.25882 -0.00000 1.00000 -0.00000 -0.00000 0.96593 0.25882 0.00000 0.86603 0.50000 0.00000 0.70711 0.70711 0.00000 0.50000 0.86603 0.00000 0.25882 0.96593 0.00000 0.00000 1.00000 0.00000 -0.25882 0.96593 0.00000 -0.50000 0.86603 0.00000 -0.70711 0.70711 0.00000 -0.86603 0.50000 0.00000 -0.96593 0.25882 0.00000 -1.00000 0.00000 0.00000 -0.96593 -0.25882 0.00000 -0.86603 -0.50000 0.00000 -0.70711 -0.70711 0.00000 -0.50000 -0.86603 0.00000 -0.25882 -0.96593 0.00000 -0.00000 -1.00000 0.00000 0.25882 -0.96593 -0.00000 0.50000 -0.86603 -0.00000 0.70711 -0.70711 -0.00000 0.86603 -0.50000 -0.00000 0.96593 -0.25882 -0.00000 1.00000 -0.00000 -0.00000 0.96593 0.25882 0.00000 0.86603 0.50000 0.00000 0.70711 0.70711 0.00000 0.50000 0.86603 0.00000 0.25882 0.96593 0.00000 0.00000 1.00000 0.00000 -0.25882 0.96593 0.00000 -0.50000 0.86603 0.00000 -0.70711 0.70711 0.00000 -0.86603 0.50000 0.00000 -0.96593 0.25882 0.00000 -1.00000 0.00000 0.00000 -0.96593 -0.25882 0.00000 -0.86603 -0.50000 0.00000 -0.70711 -0.70711 0.00000 -0.50000 -0.86603 0.00000 -0.25882 -0.96593 0.00000 -0.00000 -1.00000 0.00000 0.25882 -0.96593 -0.00000 0.50000 -0.86603 -0.00000 0.70711 -0.70711 -0.00000 0.86603 -0.50000 -0.00000 0.96593 -0.25882 -0.00000 1.00000 -0.00000 -0.00000 0.96593 0.25882 0.00000 0.86603 0.50000 0.00000 0.70711 0.70711 0.00000 0.50000 0.86603 0.00000 0.25882 0.96593 0.00000 0.00000 1.00000 0.00000 -0.25882 0.96593 0.00000 -0.50000 0.86603 0.00000 -0.70711 0.70711 0.00000 -0.86603 0.50000 0.00000 -0.96593 0.25882 0.00000 -1.00000 0.00000 0.00000 -0.96593 -0.25882 0.00000 -0.86603 -0.50000 0.00000 -0.70711 -0.70711 0.00000 -0.50000 -0.86603 0.00000 -0.25882 -0.96593 0.00000 -0.00000 -1.00000 0.00000 0.25882 -0.96593 -0.00000 0.50000 -0.86603 -0.00000 0.70711 -0.70711 -0.00000 0.86603 -0.50000 -0.00000 0.96593 -0.25882 -0.00000 1.00000 -0.00000 -0.00000 0.96593 0.25882 0.00000 0.86603 0.50000 0.00000 0.70711 0.70711 0.00000 0.50000 0.86603 0.00000 0.25882 0.96593 0.00000 0.00000 1.00000 0.00000 -0.25882 0.96593 0.00000 -0.50000 0.86603 0.00000 -0.70711 0.70711 0.00000 -0.86603 0.50000 0.00000 -0.96593 0.25882 0.00000 -1.00000 0.00000 0.00000 -0.96593 -0.25882 0.00000 -0.86603 -0.50000 0.00000 -0.70711 -0.70711 0.00000 -0.50000 -0.86603 0.00000 -0.25882 -0.96593 0.00000 -0.00000 -1.00000 0.00000 0.25882 -0.96593 -0.00000 0.50000 -0.86603 -0.00000 0.70711 -0.70711 -0.00000 0.86603 -0.50000 -0.00000 0.96593 -0.25882 -0.00000 1.00000 -0.00000 -0.00000 0.96593 0.25882 0.00000 0.86603 0.50000 0.00000 0.70711 0.70711 0.00000 0.50000 0.86603 0.00000 0.25882 0.96593 0.00000 0.23773 -0.95091 0.19811 0.00000 -0.50001 0.86602 0.00000 0.00000 1.00000 0.00000 -0.25882 0.96593 0.00000 -0.50000 0.86603 0.00000 -0.70711 0.70711 0.00000 -0.86603 0.50000 0.00000 -0.96593 0.25882 0.00000 -1.00000 0.00000 0.00000 -0.96593 -0.25882 0.00000 -0.86603 -0.50000 0.00000 -0.70711 -0.70711 0.00000 -0.50000 -0.86603 0.00000 -0.25882 -0.96593 0.00000 -0.00000 -1.00000 -0.00000 0.25882 -0.96593 -0.00000 0.50000 -0.86603 -0.00000 0.70711 -0.70711 -0.00000 0.86603 -0.50000 -0.00000 0.96593 -0.25882 -0.00000 1.00000 -0.00000 0.00000 0.96593 0.25882 0.00000 0.86603 0.50000 0.00000 0.70711 0.70711 0.00000 0.50000 0.86603 0.00000 0.25882 0.96593 0.00000 0.00000 1.00000 0.00000 -0.25882 0.96593 0.00000 -0.50000 0.86603 0.00000 -0.70711 0.70711 0.00000 -0.86603 0.50000 0.00000 -0.96593 0.25882 0.00000 -1.00000 0.00000 0.00000 -0.96593 -0.25882 0.00000 -0.86603 -0.50000 0.00000 -0.70711 -0.70711 0.00000 -0.50000 -0.86603 0.00000 -0.25882 -0.96593 0.00000 -0.00000 -1.00000 -0.00000 0.25882 -0.96593 -0.00000 0.50000 -0.86603 -0.00000 0.70711 -0.70711 -0.00000 0.86603 -0.50000 -0.00000 0.96593 -0.25882 -0.00000 1.00000 -0.00000 0.00000 0.96593 0.25882 0.00000 0.86603 0.50000 0.00000 0.70711 0.70711 0.00000 0.50000 0.86603 0.00000 0.25882 0.96593 1.00000 0.00000 0.00000 0.00000 0.00000 1.00000 0.00000 -0.25882 0.96593 0.00000 -0.50000 0.86603 0.00000 -0.70711 0.70711 0.00000 -0.86603 0.50000 0.00000 -0.96593 0.25882 0.00000 -1.00000 0.00000 0.00000 -0.96593 -0.25882 0.00000 -0.86603 -0.50000 0.00000 -0.70711 -0.70711 0.00000 -0.50000 -0.86603 0.00000 -0.25882 -0.96593 0.00000 -0.00000 -1.00000 -0.00000 0.25882 -0.96593 -0.00000 0.50000 -0.86603 -0.00000 0.70711 -0.70711 -0.00000 0.86603 -0.50000 -0.00000 0.96593 -0.25882 -0.00000 1.00000 -0.00000 0.00000 0.96593 0.25882 0.00000 0.86603 0.50000 0.00000 0.70711 0.70711 0.00000 0.50000 0.86603 0.00000 0.25882 0.96593 0.00000 0.00000 1.00000 0.00000 -0.25882 0.96593 0.00000 -0.50000 0.86603 0.00000 -0.70711 0.70711 0.00000 -0.86603 0.50000 0.00000 -0.96593 0.25882 0.00000 -1.00000 0.00000 0.00000 -0.96593 -0.25882 0.00000 -0.86603 -0.50000 0.00000 -0.70711 -0.70711 0.00000 -0.50000 -0.86603 0.00000 -0.25882 -0.96593 0.00000 -0.00000 -1.00000 -0.00000 0.25882 -0.96593 -0.00000 0.50000 -0.86603 -0.00000 0.70711 -0.70711 -0.00000 0.86603 -0.50000 -0.00000 0.96593 -0.25882 -0.00000 1.00000 -0.00000 0.00000 0.96593 0.25882 0.00000 0.86603 0.50000 0.00000 0.70711 0.70711 0.00000 0.50000 0.86603 0.00000 0.25882 0.96593 1.00000 0.00000 0.00000</float_array>
          <technique_common>
            <accessor source="#snorkel_roamer_tall_v11-nrm-array" count="364" stride="3">
              <param name="X" type="float"/><param name="Y" type="float"/><param name="Z" type="float"/>
            </accessor>
          </technique_common>
        </source>
        <vertices id="snorkel_roamer_tall_v11-vtx"><input semantic="POSITION" source="#snorkel_roamer_tall_v11-pos"/></vertices>
        <triangles material="snorkel_black" count="672">
          <input semantic="VERTEX" source="#snorkel_roamer_tall_v11-vtx" offset="0"/>
          <input semantic="NORMAL" source="#snorkel_roamer_tall_v11-nrm" offset="1"/>
          <p>0 0 24 24 25 25 0 0 25 25 1 1 1 1 25 25 26 26 1 1 26 26 2 2 2 2 26 26 27 27 2 2 27 27 3 3 3 3 27 27 28 28 3 3 28 28 4 4 4 4 28 28 29 29 4 4 29 29 5 5 5 5 29 29 30 30 5 5 30 30 6 6 6 6 30 30 31 31 6 6 31 31 7 7 7 7 31 31 32 32 7 7 32 32 8 8 8 8 32 32 33 33 8 8 33 33 9 9 9 9 33 33 34 34 9 9 34 34 10 10 10 10 34 34 35 35 10 10 35 35 11 11 11 11 35 35 36 36 11 11 36 36 12 12 12 12 36 36 37 37 12 12 37 37 13 13 13 13 37 37 38 38 13 13 38 38 14 14 14 14 38 38 39 39 14 14 39 39 15 15 15 15 39 39 40 40 15 15 40 40 16 16 16 16 40 40 41 41 16 16 41 41 17 17 17 17 41 41 42 42 17 17 42 42 18 18 18 18 42 42 43 43 18 18 43 43 19 19 19 19 43 43 44 44 19 19 44 44 20 20 20 20 44 44 45 45 20 20 45 45 21 21 21 21 45 45 46 46 21 21 46 46 22 22 22 22 46 46 47 47 22 22 47 47 23 23 23 23 47 47 24 24 23 23 24 24 0 0 24 24 48 48 49 49 24 24 49 49 25 25 25 25 49 49 50 50 25 25 50 50 26 26 26 26 50 50 51 51 26 26 51 51 27 27 27 27 51 51 52 52 27 27 52 52 28 28 28 28 52 52 53 53 28 28 53 53 29 29 29 29 53 53 54 54 29 29 54 54 30 30 30 30 54 54 55 55 30 30 55 55 31 31 31 31 55 55 56 56 31 31 56 56 32 32 32 32 56 56 57 57 32 32 57 57 33 33 33 33 57 57 58 58 33 33 58 58 34 34 34 34 58 58 59 59 34 34 59 59 35 35 35 35 59 59 60 60 35 35 60 60 36 36 36 36 60 60 61 61 36 36 61 61 37 37 37 37 61 61 62 62 37 37 62 62 38 38 38 38 62 62 63 63 38 38 63 63 39 39 39 39 63 63 64 64 39 39 64 64 40 40 40 40 64 64 65 65 40 40 65 65 41 41 41 41 65 65 66 66 41 41 66 66 42 42 42 42 66 66 67 67 42 42 67 67 43 43 43 43 67 67 68 68 43 43 68 68 44 44 44 44 68 68 69 69 44 44 69 69 45 45 45 45 69 69 70 70 45 45 70 70 46 46 46 46 70 70 71 71 46 46 71 71 47 47 47 47 71 71 48 48 47 47 48 48 24 24 48 48 72 72 73 73 48 48 73 73 49 49 49 49 73 73 74 74 49 49 74 74 50 50 50 50 74 74 75 75 50 50 75 75 51 51 51 51 75 75 76 76 51 51 76 76 52 52 52 52 76 76 77 77 52 52 77 77 53 53 53 53 77 77 78 78 53 53 78 78 54 54 54 54 78 78 79 79 54 54 79 79 55 55 55 55 79 79 80 80 55 55 80 80 56 56 56 56 80 80 81 81 56 56 81 81 57 57 57 57 81 81 82 82 57 57 82 82 58 58 58 58 82 82 83 83 58 58 83 83 59 59 59 59 83 83 84 84 59 59 84 84 60 60 60 60 84 84 85 85 60 60 85 85 61 61 61 61 85 85 86 86 61 61 86 86 62 62 62 62 86 86 87 87 62 62 87 87 63 63 63 63 87 87 88 88 63 63 88 88 64 64 64 64 88 88 89 89 64 64 89 89 65 65 65 65 89 89 90 90 65 65 90 90 66 66 66 66 90 90 91 91 66 66 91 91 67 67 67 67 91 91 92 92 67 67 92 92 68 68 68 68 92 92 93 93 68 68 93 93 69 69 69 69 93 93 94 94 69 69 94 94 70 70 70 70 94 94 95 95 70 70 95 95 71 71 71 71 95 95 72 72 71 71 72 72 48 48 72 72 96 96 97 97 72 72 97 97 73 73 73 73 97 97 98 98 73 73 98 98 74 74 74 74 98 98 99 99 74 74 99 99 75 75 75 75 99 99 100 100 75 75 100 100 76 76 76 76 100 100 101 101 76 76 101 101 77 77 77 77 101 101 102 102 77 77 102 102 78 78 78 78 102 102 103 103 78 78 103 103 79 79 79 79 103 103 104 104 79 79 104 104 80 80 80 80 104 104 105 105 80 80 105 105 81 81 81 81 105 105 106 106 81 81 106 106 82 82 82 82 106 106 107 107 82 82 107 107 83 83 83 83 107 107 108 108 83 83 108 108 84 84 84 84 108 108 109 109 84 84 109 109 85 85 85 85 109 109 110 110 85 85 110 110 86 86 86 86 110 110 111 111 86 86 111 111 87 87 87 87 111 111 112 112 87 87 112 112 88 88 88 88 112 112 113 113 88 88 113 113 89 89 89 89 113 113 114 114 89 89 114 114 90 90 90 90 114 114 115 115 90 90 115 115 91 91 91 91 115 115 116 116 91 91 116 116 92 92 92 92 116 116 117 117 92 92 117 117 93 93 93 93 117 117 118 118 93 93 118 118 94 94 94 94 118 118 119 119 94 94 119 119 95 95 95 95 119 119 96 96 95 95 96 96 72 72 96 96 120 120 121 121 96 96 121 121 97 97 97 97 121 121 122 122 97 97 122 122 98 98 98 98 122 122 123 123 98 98 123 123 99 99 99 99 123 123 124 124 99 99 124 124 100 100 100 100 124 124 125 125 100 100 125 125 101 101 101 101 125 125 126 126 101 101 126 126 102 102 102 102 126 126 127 127 102 102 127 127 103 103 103 103 127 127 128 128 103 103 128 128 104 104 104 104 128 128 129 129 104 104 129 129 105 105 105 105 129 129 130 130 105 105 130 130 106 106 106 106 130 130 131 131 106 106 131 131 107 107 107 107 131 131 132 132 107 107 132 132 108 108 108 108 132 132 133 133 108 108 133 133 109 109 109 109 133 133 134 134 109 109 134 134 110 110 110 110 134 134 135 135 110 110 135 135 111 111 111 111 135 135 136 136 111 111 136 136 112 112 112 112 136 136 137 137 112 112 137 137 113 113 113 113 137 137 138 138 113 113 138 138 114 114 114 114 138 138 139 139 114 114 139 139 115 115 115 115 139 139 140 140 115 115 140 140 116 116 116 116 140 140 141 141 116 116 141 141 117 117 117 117 141 141 142 142 117 117 142 142 118 118 118 118 142 142 143 143 118 118 143 143 119 119 119 119 143 143 120 120 119 119 120 120 96 96 120 120 144 144 145 145 120 120 145 145 121 121 121 121 145 145 146 146 121 121 146 146 122 122 122 122 146 146 147 147 122 122 147 147 123 123 123 123 147 147 148 148 123 123 148 148 124 124 124 124 148 148 149 149 124 124 149 149 125 125 125 125 149 149 150 150 125 125 150 150 126 126 126 126 150 150 151 151 126 126 151 151 127 127 127 127 151 151 152 152 127 127 152 152 128 128 128 128 152 152 153 153 128 128 153 153 129 129 129 129 153 153 154 154 129 129 154 154 130 130 130 130 154 154 155 155 130 130 155 155 131 131 131 131 155 155 156 156 131 131 156 156 132 132 132 132 156 156 157 157 132 132 157 157 133 133 133 133 157 157 158 158 133 133 158 158 134 134 134 134 158 158 159 159 134 134 159 159 135 135 135 135 159 159 160 160 135 135 160 160 136 136 136 136 160 160 161 161 136 136 161 161 137 137 137 137 161 161 162 162 137 137 162 162 138 138 138 138 162 162 163 163 138 138 163 163 139 139 139 139 163 163 164 164 139 139 164 164 140 140 140 140 164 164 165 165 140 140 165 165 141 141 141 141 165 165 166 166 141 141 166 166 142 142 142 142 166 166 167 167 142 142 167 167 143 143 143 143 167 167 144 144 143 143 144 144 120 120 144 144 168 168 169 169 144 144 169 169 145 145 145 145 169 169 170 170 145 145 170 170 146 146 146 146 170 170 171 171 146 146 171 171 147 147 147 147 171 171 172 172 147 147 172 172 148 148 148 148 172 172 173 173 148 148 173 173 149 149 149 149 173 173 174 174 149 149 174 174 150 150 150 150 174 174 175 175 150 150 175 175 151 151 151 151 175 175 176 176 151 151 176 176 152 152 152 152 176 176 177 177 152 152 177 177 153 153 153 153 177 177 178 178 153 153 178 178 154 154 154 154 178 178 179 179 154 154 179 179 155 155 155 155 179 179 180 180 155 155 180 180 156 156 156 156 180 180 181 181 156 156 181 181 157 157 157 157 181 181 182 182 157 157 182 182 158 158 158 158 182 182 183 183 158 158 183 183 159 159 159 159 183 183 184 184 159 159 184 184 160 160 160 160 184 184 185 185 160 160 185 185 161 161 161 161 185 185 186 186 161 161 186 186 162 162 162 162 186 186 187 187 162 162 187 187 163 163 163 163 187 187 188 188 163 163 188 188 164 164 164 164 188 188 189 189 164 164 189 189 165 165 165 165 189 189 190 190 165 165 190 190 166 166 166 166 190 190 191 191 166 166 191 191 167 167 167 167 191 191 168 168 167 167 168 168 144 144 168 168 192 192 193 193 168 168 193 193 169 169 169 169 193 193 194 194 169 169 194 194 170 170 170 170 194 194 195 195 170 170 195 195 171 171 171 171 195 195 196 196 171 171 196 196 172 172 172 172 196 196 197 197 172 172 197 197 173 173 173 173 197 197 198 198 173 173 198 198 174 174 174 174 198 198 199 199 174 174 199 199 175 175 175 175 199 199 200 200 175 175 200 200 176 176 176 176 200 200 201 201 176 176 201 201 177 177 177 177 201 201 202 202 177 177 202 202 178 178 178 178 202 202 203 203 178 178 203 203 179 179 179 179 203 203 204 204 179 179 204 204 180 180 180 180 204 204 205 205 180 180 205 205 181 181 181 181 205 205 206 206 181 181 206 206 182 182 182 182 206 206 207 207 182 182 207 207 183 183 183 183 207 207 208 208 183 183 208 208 184 184 184 184 208 208 209 209 184 184 209 209 185 185 185 185 209 209 210 210 185 185 210 210 186 186 186 186 210 210 211 211 186 186 211 211 187 187 187 187 211 211 212 212 187 187 212 212 188 188 188 188 212 212 213 213 188 188 213 213 189 189 189 189 213 213 214 214 189 189 214 214 190 190 190 190 214 214 215 215 190 190 215 215 191 191 191 191 215 215 192 192 191 191 192 192 168 168 192 192 216 216 217 217 192 192 217 217 193 193 193 193 217 217 218 218 193 193 218 218 194 194 194 194 218 218 219 219 194 194 219 219 195 195 195 195 219 219 220 220 195 195 220 220 196 196 196 196 220 220 221 221 196 196 221 221 197 197 197 197 221 221 222 222 197 197 222 222 198 198 198 198 222 222 223 223 198 198 223 223 199 199 199 199 223 223 224 224 199 199 224 224 200 200 200 200 224 224 225 225 200 200 225 225 201 201 201 201 225 225 226 226 201 201 226 226 202 202 202 202 226 226 227 227 202 202 227 227 203 203 203 203 227 227 228 228 203 203 228 228 204 204 204 204 228 228 229 229 204 204 229 229 205 205 205 205 229 229 230 230 205 205 230 230 206 206 206 206 230 230 231 231 206 206 231 231 207 207 207 207 231 231 232 232 207 207 232 232 208 208 208 208 232 232 233 233 208 208 233 233 209 209 209 209 233 233 234 234 209 209 234 234 210 210 210 210 234 234 235 235 210 210 235 235 211 211 211 211 235 235 236 236 211 211 236 236 212 212 212 212 236 236 237 237 212 212 237 237 213 213 213 213 237 237 238 238 213 213 238 238 214 214 214 214 238 238 239 239 214 214 239 239 215 215 215 215 239 239 216 216 215 215 216 216 192 192 216 216 240 240 241 241 216 216 241 241 217 217 217 217 241 241 242 242 217 217 242 242 218 218 218 218 242 242 243 243 218 218 243 243 219 219 219 219 243 243 244 244 219 219 244 244 220 220 220 220 244 244 245 245 220 220 245 245 221 221 221 221 245 245 246 246 221 221 246 246 222 222 222 222 246 246 247 247 222 222 247 247 223 223 223 223 247 247 248 248 223 223 248 248 224 224 224 224 248 248 249 249 224 224 249 249 225 225 225 225 249 249 250 250 225 225 250 250 226 226 226 226 250 250 251 251 226 226 251 251 227 227 227 227 251 251 252 252 227 227 252 252 228 228 228 228 252 252 253 253 228 228 253 253 229 229 229 229 253 253 254 254 229 229 254 254 230 230 230 230 254 254 255 255 230 230 255 255 231 231 231 231 255 255 256 256 231 231 256 256 232 232 232 232 256 256 257 257 232 232 257 257 233 233 233 233 257 257 258 258 233 233 258 258 234 234 234 234 258 258 259 259 234 234 259 259 235 235 235 235 259 259 260 260 235 235 260 260 236 236 236 236 260 260 261 261 236 236 261 261 237 237 237 237 261 261 262 262 237 237 262 262 238 238 238 238 262 262 263 263 238 238 263 263 239 239 239 239 263 263 240 240 239 239 240 240 216 216 264 264 1 1 0 0 264 264 2 2 1 1 264 264 3 3 2 2 264 264 4 4 3 3 264 264 5 5 4 4 264 264 6 6 5 5 264 264 7 7 6 6 264 264 8 8 7 7 264 264 9 9 8 8 264 264 10 10 9 9 264 264 11 11 10 10 264 264 12 12 11 11 264 264 13 13 12 12 264 264 14 14 13 13 264 264 15 15 14 14 264 264 16 16 15 15 264 264 17 17 16 16 264 264 18 18 17 17 264 264 19 19 18 18 264 264 20 20 19 19 264 264 21 21 20 20 264 264 22 22 21 21 264 264 23 23 22 22 264 264 0 0 23 23 265 265 240 240 241 241 265 265 241 241 242 242 265 265 242 242 243 243 265 265 243 243 244 244 265 265 244 244 245 245 265 265 245 245 246 246 265 265 246 246 247 247 265 265 247 247 248 248 265 265 248 248 249 249 265 265 249 249 250 250 265 265 250 250 251 251 265 265 251 251 252 252 265 265 252 252 253 253 265 265 253 253 254 254 265 265 254 254 255 255 265 265 255 255 256 256 265 265 256 256 257 257 265 265 257 257 258 258 265 265 258 258 259 259 265 265 259 259 260 260 265 265 260 260 261 261 265 265 261 261 262 262 265 265 262 262 263 263 265 265 263 263 240 240 266 266 290 290 291 291 266 266 291 291 267 267 267 267 291 291 292 292 267 267 292 292 268 268 268 268 292 292 293 293 268 268 293 293 269 269 269 269 293 293 294 294 269 269 294 294 270 270 270 270 294 294 295 295 270 270 295 295 271 271 271 271 295 295 296 296 271 271 296 296 272 272 272 272 296 296 297 297 272 272 297 297 273 273 273 273 297 297 298 298 273 273 298 298 274 274 274 274 298 298 299 299 274 274 299 299 275 275 275 275 299 299 300 300 275 275 300 300 276 276 276 276 300 300 301 301 276 276 301 301 277 277 277 277 301 301 302 302 277 277 302 302 278 278 278 278 302 302 303 303 278 278 303 303 279 279 279 279 303 303 304 304 279 279 304 304 280 280 280 280 304 304 305 305 280 280 305 305 281 281 281 281 305 305 306 306 281 281 306 306 282 282 282 282 306 306 307 307 282 282 307 307 283 283 283 283 307 307 308 308 283 283 308 308 284 284 284 284 308 308 309 309 284 284 309 309 285 285 285 285 309 309 310 310 285 285 310 310 286 286 286 286 310 310 311 311 286 286 311 311 287 287 287 287 311 311 312 312 287 287 312 312 288 288 288 288 312 312 313 313 288 288 313 313 289 289 289 289 313 313 290 290 289 289 290 290 266 266 314 314 290 290 291 291 314 314 291 291 292 292 314 314 292 292 293 293 314 314 293 293 294 294 314 314 294 294 295 295 314 314 295 295 296 296 314 314 296 296 297 297 314 314 297 297 298 298 314 314 298 298 299 299 314 314 299 299 300 300 314 314 300 300 301 301 314 314 301 301 302 302 314 314 302 302 303 303 314 314 303 303 304 304 314 314 304 304 305 305 314 314 305 305 306 306 314 314 306 306 307 307 314 314 307 307 308 308 314 314 308 308 309 309 314 314 309 309 310 310 314 314 310 310 311 311 314 314 311 311 312 312 314 314 312 312 313 313 314 314 313 313 290 290 315 315 339 339 340 340 315 315 340 340 316 316 316 316 340 340 341 341 316 316 341 341 317 317 317 317 341 341 342 342 317 317 342 342 318 318 318 318 342 342 343 343 318 318 343 343 319 319 319 319 343 343 344 344 319 319 344 344 320 320 320 320 344 344 345 345 320 320 345 345 321 321 321 321 345 345 346 346 321 321 346 346 322 322 322 322 346 346 347 347 322 322 347 347 323 323 323 323 347 347 348 348 323 323 348 348 324 324 324 324 348 348 349 349 324 324 349 349 325 325 325 325 349 349 350 350 325 325 350 350 326 326 326 326 350 350 351 351 326 326 351 351 327 327 327 327 351 351 352 352 327 327 352 352 328 328 328 328 352 352 353 353 328 328 353 353 329 329 329 329 353 353 354 354 329 329 354 354 330 330 330 330 354 354 355 355 330 330 355 355 331 331 331 331 355 355 356 356 331 331 356 356 332 332 332 332 356 356 357 357 332 332 357 357 333 333 333 333 357 357 358 358 333 333 358 358 334 334 334 334 358 358 359 359 334 334 359 359 335 335 335 335 359 359 360 360 335 335 360 360 336 336 336 336 360 360 361 361 336 336 361 361 337 337 337 337 361 361 362 362 337 337 362 362 338 338 338 338 362 362 339 339 338 338 339 339 315 315 363 363 339 339 340 340 363 363 340 340 341 341 363 363 341 341 342 342 363 363 342 342 343 343 363 363 343 343 344 344 363 363 344 344 345 345 363 363 345 345 346 346 363 363 346 346 347 347 363 363 347 347 348 348 363 363 348 348 349 349 363 363 349 349 350 350 363 363 350 350 351 351 363 363 351 351 352 352 363 363 352 352 353 353 363 363 353 353 354 354 363 363 354 354 355 355 363 363 355 355 356 356 363 363 356 356 357 357 363 363 357 357 358 358 363 363 358 358 359 359 363 363 359 359 360 360 363 363 360 360 361 361 363 363 361 361 362 362 363 363 362 362 339 339</p>
        </triangles>
      </mesh>
    </geometry>
  </library_geometries>
  <library_visual_scenes>
    <visual_scene id="Scene" name="Scene">
      <node id="snorkel_roamer_small_v11" name="snorkel_roamer_small_v11" type="NODE">
        <matrix sid="transform">1 0 0 0 0 1 0 0 0 0 1 0 0 0 0 1</matrix>
        <instance_geometry url="#snorkel_roamer_small_v11-mesh" name="snorkel_roamer_small_v11">
          <bind_material><technique_common>
            <instance_material symbol="snorkel_black" target="#snorkel_black-material"/>
          </technique_common></bind_material>
        </instance_geometry>
      </node>
      <node id="snorkel_roamer_medium_v11" name="snorkel_roamer_medium_v11" type="NODE">
        <matrix sid="transform">1 0 0 0 0 1 0 0 0 0 1 0 0 0 0 1</matrix>
        <instance_geometry url="#snorkel_roamer_medium_v11-mesh" name="snorkel_roamer_medium_v11">
          <bind_material><technique_common>
            <instance_material symbol="snorkel_black" target="#snorkel_black-material"/>
          </technique_common></bind_material>
        </instance_geometry>
      </node>
      <node id="snorkel_roamer_tall_v11" name="snorkel_roamer_tall_v11" type="NODE">
        <matrix sid="transform">1 0 0 0 0 1 0 0 0 0 1 0 0 0 0 1</matrix>
        <instance_geometry url="#snorkel_roamer_tall_v11-mesh" name="snorkel_roamer_tall_v11">
          <bind_material><technique_common>
            <instance_material symbol="snorkel_black" target="#snorkel_black-material"/>
          </technique_common></bind_material>
        </instance_geometry>
      </node>
    </visual_scene>
  </library_visual_scenes>
  <scene><instance_visual_scene url="#Scene"/></scene>
</COLLADA>
