<?xml version="1.0" encoding="utf-8"?>
<COLLADA xmlns="http://www.collada.org/2005/11/COLLADASchema" version="1.4.1">
  <asset>
    <contributor><authoring_tool>generate_snorkel_dae.py</authoring_tool></contributor>
    <unit name="meter" meter="1"/>
    <up_axis>Z_UP</up_axis>
  </asset>
  <library_effects>
    <effect id="snorkel_black-effect">
      <profile_COMMON><technique sid="common"><phong>
        <diffuse><color sid="diffuse">0.03 0.03 0.03 1</color></diffuse>
        <specular><color sid="specular">0.15 0.15 0.15 1</color></specular>
        <shininess><float sid="shininess">25</float></shininess>
      </phong></technique></profile_COMMON>
    </effect>
  </library_effects>
  <library_materials>
    <material id="snorkel_black-material" name="snorkel_black">
      <instance_effect url="#snorkel_black-effect"/>
    </material>
  </library_materials>
  <library_geometries>
    <geometry id="snorkel_small_v4-mesh" name="snorkel_small_v4">
      <mesh>
        <source id="snorkel_small_v4-pos">
          <float_array id="snorkel_small_v4-pos-array" count="732">-0.90000 -1.14735 0.93205 -0.90975 -1.15107 0.93225 -0.91884 -1.15541 0.93502 -0.92665 -1.16005 0.94017 -0.93264 -1.16469 0.94735 -0.93640 -1.16901 0.95608 -0.93769 -1.17272 0.96576 -0.93640 -1.17556 0.97573 -0.93264 -1.17734 0.98530 -0.92665 -1.17794 0.99383 -0.91884 -1.17731 1.00074 -0.90975 -1.17551 1.00556 -0.90000 -1.17265 1.00795 -0.89025 -1.16893 1.00775 -0.88116 -1.16459 1.00498 -0.87335 -1.15995 0.99983 -0.86736 -1.15531 0.99265 -0.86360 -1.15099 0.98392 -0.86231 -1.14728 0.97424 -0.86360 -1.14444 0.96427 -0.86736 -1.14266 0.95470 -0.87335 -1.14206 0.94617 -0.88116 -1.14269 0.93926 -0.89025 -1.14449 0.93444 -0.99000 -0.89008 1.02345 -1.00016 -0.89243 1.02286 -1.00962 -0.89666 1.02411 -1.01775 -0.90248 1.02713 -1.02399 -0.90949 1.03171 -1.02791 -0.91722 1.03753 -1.02924 -0.92514 1.04421 -1.02791 -0.93271 1.05128 -1.02399 -0.93941 1.05826 -1.01775 -0.94479 1.06468 -1.00962 -0.94848 1.07009 -1.00016 -0.95023 1.07414 -0.99000 -0.94992 1.07655 -0.97984 -0.94757 1.07714 -0.97038 -0.94334 1.07589 -0.96225 -0.93752 1.07287 -0.95601 -0.93051 1.06829 -0.95209 -0.92278 1.06247 -0.95076 -0.91486 1.05579 -0.95209 -0.90729 1.04872 -0.95601 -0.90059 1.04174 -0.96225 -0.89521 1.03532 -0.97038 -0.89152 1.02991 -0.97984 -0.88977 1.02586 -0.99000 -0.82253 1.28600 -1.00035 -0.82377 1.28657 -1.01000 -0.82749 1.28804 -1.01828 -0.83342 1.29034 -1.02464 -0.84116 1.29329 -1.02864 -0.85018 1.29670 -1.03000 -0.85987 1.30033 -1.02864 -0.86958 1.30395 -1.02464 -0.87863 1.30729 -1.01828 -0.88641 1.31014 -1.01000 -0.89239 1.31229 -1.00035 -0.89616 1.31361 -0.99000 -0.89747 1.31400 -0.97965 -0.89623 1.31343 -0.97000 -0.89251 1.31196 -0.96172 -0.88658 1.30966 -0.95536 -0.87884 1.30671 -0.95136 -0.86982 1.30330 -0.95000 -0.86013 1.29967 -0.95136 -0.85042 1.29605 -0.95536 -0.84137 1.29271 -0.96172 -0.83359 1.28986 -0.97000 -0.82761 1.28771 -0.97965 -0.82384 1.28639 -0.98500 -0.69385 1.53288 -0.99535 -0.69501 1.53361 -1.00500 -0.69856 1.53546 -1.01328 -0.70425 1.53829 -1.01964 -0.71169 1.54192 -1.02363 -0.72039 1.54611 -1.02500 -0.72974 1.55056 -1.02363 -0.73910 1.55497 -1.01964 -0.74785 1.55904 -1.01328 -0.75538 1.56250 -1.00500 -0.76118 1.56510 -0.99535 -0.76485 1.56668 -0.98500 -0.76615 1.56712 -0.97465 -0.76499 1.56639 -0.96500 -0.76144 1.56454 -0.95672 -0.75575 1.56171 -0.95036 -0.74831 1.55808 -0.94637 -0.73961 1.55389 -0.94500 -0.73026 1.54944 -0.94637 -0.72090 1.54503 -0.95036 -0.71215 1.54096 -0.95672 -0.70462 1.53750 -0.96500 -0.69882 1.53490 -0.97465 -0.69515 1.53332 -0.98000 -0.54082 1.89196 -0.99035 -0.54214 1.89230 -1.00000 -0.54604 1.89317 -1.00828 -0.55226 1.89450 -1.01464 -0.56036 1.89621 -1.01864 -0.56981 1.89817 -1.02000 -0.57995 1.90026 -1.01864 -0.59009 1.90234 -1.01464 -0.59954 1.90425 -1.00828 -0.60767 1.90587 -1.00000 -0.61391 1.90710 -0.99035 -0.61783 1.90784 -0.98000 -0.61918 1.90804 -0.96965 -0.61786 1.90770 -0.96000 -0.61396 1.90683 -0.95172 -0.60774 1.90550 -0.94536 -0.59964 1.90379 -0.94136 -0.59019 1.90183 -0.94000 -0.58005 1.89974 -0.94136 -0.56991 1.89766 -0.94536 -0.56046 1.89575 -0.95172 -0.55233 1.89413 -0.96000 -0.54609 1.89290 -0.96965 -0.54217 1.89216 -0.98000 -0.53520 2.02587 -0.99160 -0.53673 2.02498 -1.00240 -0.54120 2.02240 -1.01168 -0.54832 2.01829 -1.01880 -0.55760 2.01293 -1.02327 -0.56840 2.00669 -1.02480 -0.58000 2.00000 -1.02327 -0.59160 1.99331 -1.01880 -0.60240 1.98707 -1.01168 -0.61168 1.98171 -1.00240 -0.61880 1.97760 -0.99160 -0.62327 1.97502 -0.98000 -0.62480 1.97413 -0.96840 -0.62327 1.97502 -0.95760 -0.61880 1.97760 -0.94832 -0.61168 1.98171 -0.94120 -0.60240 1.98707 -0.93673 -0.59160 1.99331 -0.93520 -0.58000 2.00000 -0.93673 -0.56840 2.00669 -0.94120 -0.55760 2.01293 -0.94832 -0.54832 2.01829 -0.95760 -0.54120 2.02240 -0.96840 -0.53673 2.02498 -0.90000 -1.16000 0.97000 -0.98000 -0.58000 2.00000 -0.98700 -0.77600 1.49400 -0.98700 -0.77962 1.49352 -0.98700 -0.78300 1.49212 -0.98700 -0.78590 1.48990 -0.98700 -0.78812 1.48700 -0.98700 -0.78952 1.48362 -0.98700 -0.79000 1.48000 -0.98700 -0.78952 1.47638 -0.98700 -0.78812 1.47300 -0.98700 -0.78590 1.47010 -0.98700 -0.78300 1.46788 -0.98700 -0.77962 1.46648 -0.98700 -0.77600 1.46600 -0.98700 -0.77238 1.46648 -0.98700 -0.76900 1.46788 -0.98700 -0.76610 1.47010 -0.98700 -0.76388 1.47300 -0.98700 -0.76248 1.47638 -0.98700 -0.76200 1.48000 -0.98700 -0.76248 1.48362 -0.98700 -0.76388 1.48700 -0.98700 -0.76610 1.48990 -0.98700 -0.76900 1.49212 -0.98700 -0.77238 1.49352 -0.92700 -0.77600 1.49400 -0.92700 -0.77962 1.49352 -0.92700 -0.78300 1.49212 -0.92700 -0.78590 1.48990 -0.92700 -0.78812 1.48700 -0.92700 -0.78952 1.48362 -0.92700 -0.79000 1.48000 -0.92700 -0.78952 1.47638 -0.92700 -0.78812 1.47300 -0.92700 -0.78590 1.47010 -0.92700 -0.78300 1.46788 -0.92700 -0.77962 1.46648 -0.92700 -0.77600 1.46600 -0.92700 -0.77238 1.46648 -0.92700 -0.76900 1.46788 -0.92700 -0.76610 1.47010 -0.92700 -0.76388 1.47300 -0.92700 -0.76248 1.47638 -0.92700 -0.76200 1.48000 -0.92700 -0.76248 1.48362 -0.92700 -0.76388 1.48700 -0.92700 -0.76610 1.48990 -0.92700 -0.76900 1.49212 -0.92700 -0.77238 1.49352 -0.92700 -0.77600 1.48000 -0.98200 -0.63600 1.79400 -0.98200 -0.63962 1.79352 -0.98200 -0.64300 1.79212 -0.98200 -0.64590 1.78990 -0.98200 -0.64812 1.78700 -0.98200 -0.64952 1.78362 -0.98200 -0.65000 1.78000 -0.98200 -0.64952 1.77638 -0.98200 -0.64812 1.77300 -0.98200 -0.64590 1.77010 -0.98200 -0.64300 1.76788 -0.98200 -0.63962 1.76648 -0.98200 -0.63600 1.76600 -0.98200 -0.63238 1.76648 -0.98200 -0.62900 1.76788 -0.98200 -0.62610 1.77010 -0.98200 -0.62388 1.77300 -0.98200 -0.62248 1.77638 -0.98200 -0.62200 1.78000 -0.98200 -0.62248 1.78362 -0.98200 -0.62388 1.78700 -0.98200 -0.62610 1.78990 -0.98200 -0.62900 1.79212 -0.98200 -0.63238 1.79352 -0.92200 -0.63600 1.79400 -0.92200 -0.63962 1.79352 -0.92200 -0.64300 1.79212 -0.92200 -0.64590 1.78990 -0.92200 -0.64812 1.78700 -0.92200 -0.64952 1.78362 -0.92200 -0.65000 1.78000 -0.92200 -0.64952 1.77638 -0.92200 -0.64812 1.77300 -0.92200 -0.64590 1.77010 -0.92200 -0.64300 1.76788 -0.92200 -0.63962 1.76648 -0.92200 -0.63600 1.76600 -0.92200 -0.63238 1.76648 -0.92200 -0.62900 1.76788 -0.92200 -0.62610 1.77010 -0.92200 -0.62388 1.77300 -0.92200 -0.62248 1.77638 -0.92200 -0.62200 1.78000 -0.92200 -0.62248 1.78362 -0.92200 -0.62388 1.78700 -0.92200 -0.62610 1.78990 -0.92200 -0.62900 1.79212 -0.92200 -0.63238 1.79352 -0.92200 -0.63600 1.78000</float_array>
          <technique_common>
            <accessor source="#snorkel_small_v4-pos-array" count="244" stride="3">
              <param name="X" type="float"/><param name="Y" type="float"/><param name="Z" type="float"/>
            </accessor>
          </technique_common>
        </source>
        <source id="snorkel_small_v4-nrm">
          <float_array id="snorkel_small_v4-nrm-array" count="732">0.00000 0.31623 -0.94868 -0.24385 0.22315 -0.94379 -0.47108 0.11487 -0.87458 -0.66620 -0.00124 -0.74577 -0.81593 -0.11726 -0.56613 -0.91005 -0.22530 -0.34792 -0.94215 -0.31798 -0.10599 -0.91005 -0.38899 0.14316 -0.81593 -0.43349 0.38255 -0.66620 -0.44845 0.59587 -0.47108 -0.43285 0.76859 -0.24385 -0.38775 0.88892 -0.00000 -0.31623 0.94868 0.24385 -0.22315 0.94379 0.47108 -0.11487 0.87458 0.66620 0.00124 0.74577 0.81593 0.11726 0.56613 0.91005 0.22530 0.34792 0.94215 0.31798 0.10599 0.91005 0.38899 -0.14316 0.81593 0.43349 -0.38255 0.66620 0.44845 -0.59587 0.47108 0.43285 -0.76859 0.24385 0.38775 -0.88892 0.00000 0.74799 -0.66371 -0.25392 0.68924 -0.67858 -0.49054 0.58353 -0.64720 -0.69373 0.43804 -0.57172 -0.84964 0.26270 -0.45728 -0.94765 0.06946 -0.31167 -0.98108 -0.12851 -0.14483 -0.94765 -0.31773 0.03189 -0.84964 -0.48529 0.20643 -0.69373 -0.61978 0.36690 -0.49054 -0.71204 0.50237 -0.25392 -0.75577 0.60361 -0.00000 -0.74799 0.66371 0.25392 -0.68924 0.67858 0.49054 -0.58353 0.64720 0.69373 -0.43804 0.57172 0.84964 -0.26270 0.45728 0.94765 -0.06946 0.31167 0.98108 0.12851 0.14483 0.94765 0.31773 -0.03189 0.84964 0.48529 -0.20643 0.69373 0.61978 -0.36690 0.49054 0.71204 -0.50237 0.25392 0.75577 -0.60361 0.00000 0.93677 -0.34995 -0.25881 0.90566 -0.33586 -0.49998 0.81283 -0.29888 -0.70708 0.66461 -0.24154 -0.86599 0.47109 -0.16773 -0.96589 0.24547 -0.08249 -0.99996 0.00313 0.00837 -0.96589 -0.23943 0.09866 -0.86599 -0.46567 0.18223 -0.70708 -0.66018 0.25338 -0.49998 -0.80970 0.30726 -0.25881 -0.90404 0.34020 -0.00000 -0.93677 0.34995 0.25881 -0.90566 0.33586 0.49998 -0.81283 0.29888 0.70708 -0.66461 0.24154 0.86599 -0.47109 0.16773 0.96589 -0.24547 0.08249 0.99996 -0.00313 -0.00837 0.96589 0.23943 -0.09866 0.86599 0.46567 -0.18223 0.70708 0.66018 -0.25338 0.49998 0.80970 -0.30726 0.25881 0.90404 -0.34020 0.00000 0.90381 -0.42793 -0.25879 0.87472 -0.40974 -0.49994 0.78603 -0.36362 -0.70702 0.64376 -0.29272 -0.86592 0.45763 -0.20188 -0.96581 0.24031 -0.09727 -0.99988 0.00661 0.01396 -0.96581 -0.22754 0.12424 -0.86592 -0.44618 0.22606 -0.70702 -0.63442 0.31247 -0.49994 -0.77942 0.37758 -0.25879 -0.87130 0.41696 -0.00000 -0.90381 0.42793 0.25879 -0.87472 0.40974 0.49994 -0.78603 0.36362 0.70702 -0.64376 0.29272 0.86592 -0.45763 0.20188 0.96581 -0.24031 0.09727 0.99988 -0.00661 -0.01396 0.96581 0.22754 -0.12424 0.86592 0.44618 -0.22606 0.70702 0.63442 -0.31247 0.49994 0.77942 -0.37758 0.25879 0.87130 -0.41696 0.00000 0.97958 -0.20106 -0.25881 0.94655 -0.19251 -0.49999 0.84901 -0.17084 -0.70709 0.69362 -0.13753 -0.86601 0.49096 -0.09484 -0.96590 0.25484 -0.04570 -0.99998 0.00135 0.00656 -0.96590 -0.25223 0.05838 -0.86601 -0.48862 0.10621 -0.70709 -0.69171 0.14681 -0.49999 -0.84767 0.17740 -0.25881 -0.94585 0.19591 -0.00000 -0.97958 0.20106 0.25881 -0.94655 0.19251 0.49999 -0.84901 0.17084 0.70709 -0.69362 0.13753 0.86601 -0.49096 0.09484 0.96590 -0.25484 0.04570 0.99998 -0.00135 -0.00656 0.96590 0.25223 -0.05838 0.86601 0.48862 -0.10621 0.70709 0.69171 -0.14681 0.49999 0.84767 -0.17740 0.25881 0.94585 -0.19591 0.00000 1.00000 0.00000 -0.25882 0.96593 0.00000 -0.50000 0.86603 0.00000 -0.70711 0.70711 0.00000 -0.86603 0.50000 0.00000 -0.96593 0.25882 0.00000 -1.00000 0.00000 0.00000 -0.96593 -0.25882 0.00000 -0.86603 -0.50000 0.00000 -0.70711 -0.70711 0.00000 -0.50000 -0.86603 0.00000 -0.25882 -0.96593 0.00000 -0.00000 -1.00000 0.00000 0.25882 -0.96593 -0.00000 0.50000 -0.86603 -0.00000 0.70711 -0.70711 -0.00000 0.86603 -0.50000 -0.00000 0.96593 -0.25882 -0.00000 1.00000 -0.00000 -0.00000 0.96593 0.25882 0.00000 0.86603 0.50000 0.00000 0.70711 0.70711 0.00000 0.50000 0.86603 0.00000 0.25882 0.96593 0.00000 0.33518 -0.89381 -0.29794 0.00000 -0.50001 0.86602 0.00000 0.00000 1.00000 0.00000 -0.25882 0.96593 0.00000 -0.50000 0.86603 0.00000 -0.70711 0.70711 0.00000 -0.86603 0.50000 0.00000 -0.96593 0.25882 0.00000 -1.00000 0.00000 0.00000 -0.96593 -0.25882 0.00000 -0.86603 -0.50000 0.00000 -0.70711 -0.70711 0.00000 -0.50000 -0.86603 0.00000 -0.25882 -0.96593 0.00000 -0.00000 -1.00000 -0.00000 0.25882 -0.96593 -0.00000 0.50000 -0.86603 -0.00000 0.70711 -0.70711 -0.00000 0.86603 -0.50000 -0.00000 0.96593 -0.25882 -0.00000 1.00000 -0.00000 0.00000 0.96593 0.25882 0.00000 0.86603 0.50000 0.00000 0.70711 0.70711 0.00000 0.50000 0.86603 0.00000 0.25882 0.96593 0.00000 0.00000 1.00000 0.00000 -0.25882 0.96593 0.00000 -0.50000 0.86603 0.00000 -0.70711 0.70711 0.00000 -0.86603 0.50000 0.00000 -0.96593 0.25882 0.00000 -1.00000 0.00000 0.00000 -0.96593 -0.25882 0.00000 -0.86603 -0.50000 0.00000 -0.70711 -0.70711 0.00000 -0.50000 -0.86603 0.00000 -0.25882 -0.96593 0.00000 -0.00000 -1.00000 -0.00000 0.25882 -0.96593 -0.00000 0.50000 -0.86603 -0.00000 0.70711 -0.70711 -0.00000 0.86603 -0.50000 -0.00000 0.96593 -0.25882 -0.00000 1.00000 -0.00000 0.00000 0.96593 0.25882 0.00000 0.86603 0.50000 0.00000 0.70711 0.70711 0.00000 0.50000 0.86603 0.00000 0.25882 0.96593 1.00000 0.00000 0.00000 0.00000 0.00000 1.00000 0.00000 -0.25882 0.96593 0.00000 -0.50000 0.86603 0.00000 -0.70711 0.70711 0.00000 -0.86603 0.50000 0.00000 -0.96593 0.25882 0.00000 -1.00000 0.00000 0.00000 -0.96593 -0.25882 0.00000 -0.86603 -0.50000 0.00000 -0.70711 -0.70711 0.00000 -0.50000 -0.86603 0.00000 -0.25882 -0.96593 0.00000 -0.00000 -1.00000 -0.00000 0.25882 -0.96593 -0.00000 0.50000 -0.86603 -0.00000 0.70711 -0.70711 -0.00000 0.86603 -0.50000 -0.00000 0.96593 -0.25882 -0.00000 1.00000 -0.00000 0.00000 0.96593 0.25882 0.00000 0.86603 0.50000 0.00000 0.70711 0.70711 0.00000 0.50000 0.86603 0.00000 0.25882 0.96593 0.00000 0.00000 1.00000 0.00000 -0.25882 0.96593 0.00000 -0.50000 0.86603 0.00000 -0.70711 0.70711 0.00000 -0.86603 0.50000 0.00000 -0.96593 0.25882 0.00000 -1.00000 0.00000 0.00000 -0.96593 -0.25882 0.00000 -0.86603 -0.50000 0.00000 -0.70711 -0.70711 0.00000 -0.50000 -0.86603 0.00000 -0.25882 -0.96593 0.00000 -0.00000 -1.00000 -0.00000 0.25882 -0.96593 -0.00000 0.50000 -0.86603 -0.00000 0.70711 -0.70711 -0.00000 0.86603 -0.50000 -0.00000 0.96593 -0.25882 -0.00000 1.00000 -0.00000 0.00000 0.96593 0.25882 0.00000 0.86603 0.50000 0.00000 0.70711 0.70711 0.00000 0.50000 0.86603 0.00000 0.25882 0.96593 1.00000 0.00000 0.00000</float_array>
          <technique_common>
            <accessor source="#snorkel_small_v4-nrm-array" count="244" stride="3">
              <param name="X" type="float"/><param name="Y" type="float"/><param name="Z" type="float"/>
            </accessor>
          </technique_common>
        </source>
        <vertices id="snorkel_small_v4-vtx"><input semantic="POSITION" source="#snorkel_small_v4-pos"/></vertices>
        <triangles material="snorkel_black" count="432">
          <input semantic="VERTEX" source="#snorkel_small_v4-vtx" offset="0"/>
          <input semantic="NORMAL" source="#snorkel_small_v4-nrm" offset="1"/>
          <p>0 0 24 24 25 25 0 0 25 25 1 1 1 1 25 25 26 26 1 1 26 26 2 2 2 2 26 26 27 27 2 2 27 27 3 3 3 3 27 27 28 28 3 3 28 28 4 4 4 4 28 28 29 29 4 4 29 29 5 5 5 5 29 29 30 30 5 5 30 30 6 6 6 6 30 30 31 31 6 6 31 31 7 7 7 7 31 31 32 32 7 7 32 32 8 8 8 8 32 32 33 33 8 8 33 33 9 9 9 9 33 33 34 34 9 9 34 34 10 10 10 10 34 34 35 35 10 10 35 35 11 11 11 11 35 35 36 36 11 11 36 36 12 12 12 12 36 36 37 37 12 12 37 37 13 13 13 13 37 37 38 38 13 13 38 38 14 14 14 14 38 38 39 39 14 14 39 39 15 15 15 15 39 39 40 40 15 15 40 40 16 16 16 16 40 40 41 41 16 16 41 41 17 17 17 17 41 41 42 42 17 17 42 42 18 18 18 18 42 42 43 43 18 18 43 43 19 19 19 19 43 43 44 44 19 19 44 44 20 20 20 20 44 44 45 45 20 20 45 45 21 21 21 21 45 45 46 46 21 21 46 46 22 22 22 22 46 46 47 47 22 22 47 47 23 23 23 23 47 47 24 24 23 23 24 24 0 0 24 24 48 48 49 49 24 24 49 49 25 25 25 25 49 49 50 50 25 25 50 50 26 26 26 26 50 50 51 51 26 26 51 51 27 27 27 27 51 51 52 52 27 27 52 52 28 28 28 28 52 52 53 53 28 28 53 53 29 29 29 29 53 53 54 54 29 29 54 54 30 30 30 30 54 54 55 55 30 30 55 55 31 31 31 31 55 55 56 56 31 31 56 56 32 32 32 32 56 56 57 57 32 32 57 57 33 33 33 33 57 57 58 58 33 33 58 58 34 34 34 34 58 58 59 59 34 34 59 59 35 35 35 35 59 59 60 60 35 35 60 60 36 36 36 36 60 60 61 61 36 36 61 61 37 37 37 37 61 61 62 62 37 37 62 62 38 38 38 38 62 62 63 63 38 38 63 63 39 39 39 39 63 63 64 64 39 39 64 64 40 40 40 40 64 64 65 65 40 40 65 65 41 41 41 41 65 65 66 66 41 41 66 66 42 42 42 42 66 66 67 67 42 42 67 67 43 43 43 43 67 67 68 68 43 43 68 68 44 44 44 44 68 68 69 69 44 44 69 69 45 45 45 45 69 69 70 70 45 45 70 70 46 46 46 46 70 70 71 71 46 46 71 71 47 47 47 47 71 71 48 48 47 47 48 48 24 24 48 48 72 72 73 73 48 48 73 73 49 49 49 49 73 73 74 74 49 49 74 74 50 50 50 50 74 74 75 75 50 50 75 75 51 51 51 51 75 75 76 76 51 51 76 76 52 52 52 52 76 76 77 77 52 52 77 77 53 53 53 53 77 77 78 78 53 53 78 78 54 54 54 54 78 78 79 79 54 54 79 79 55 55 55 55 79 79 80 80 55 55 80 80 56 56 56 56 80 80 81 81 56 56 81 81 57 57 57 57 81 81 82 82 57 57 82 82 58 58 58 58 82 82 83 83 58 58 83 83 59 59 59 59 83 83 84 84 59 59 84 84 60 60 60 60 84 84 85 85 60 60 85 85 61 61 61 61 85 85 86 86 61 61 86 86 62 62 62 62 86 86 87 87 62 62 87 87 63 63 63 63 87 87 88 88 63 63 88 88 64 64 64 64 88 88 89 89 64 64 89 89 65 65 65 65 89 89 90 90 65 65 90 90 66 66 66 66 90 90 91 91 66 66 91 91 67 67 67 67 91 91 92 92 67 67 92 92 68 68 68 68 92 92 93 93 68 68 93 93 69 69 69 69 93 93 94 94 69 69 94 94 70 70 70 70 94 94 95 95 70 70 95 95 71 71 71 71 95 95 72 72 71 71 72 72 48 48 72 72 96 96 97 97 72 72 97 97 73 73 73 73 97 97 98 98 73 73 98 98 74 74 74 74 98 98 99 99 74 74 99 99 75 75 75 75 99 99 100 100 75 75 100 100 76 76 76 76 100 100 101 101 76 76 101 101 77 77 77 77 101 101 102 102 77 77 102 102 78 78 78 78 102 102 103 103 78 78 103 103 79 79 79 79 103 103 104 104 79 79 104 104 80 80 80 80 104 104 105 105 80 80 105 105 81 81 81 81 105 105 106 106 81 81 106 106 82 82 82 82 106 106 107 107 82 82 107 107 83 83 83 83 107 107 108 108 83 83 108 108 84 84 84 84 108 108 109 109 84 84 109 109 85 85 85 85 109 109 110 110 85 85 110 110 86 86 86 86 110 110 111 111 86 86 111 111 87 87 87 87 111 111 112 112 87 87 112 112 88 88 88 88 112 112 113 113 88 88 113 113 89 89 89 89 113 113 114 114 89 89 114 114 90 90 90 90 114 114 115 115 90 90 115 115 91 91 91 91 115 115 116 116 91 91 116 116 92 92 92 92 116 116 117 117 92 92 117 117 93 93 93 93 117 117 118 118 93 93 118 118 94 94 94 94 118 118 119 119 94 94 119 119 95 95 95 95 119 119 96 96 95 95 96 96 72 72 96 96 120 120 121 121 96 96 121 121 97 97 97 97 121 121 122 122 97 97 122 122 98 98 98 98 122 122 123 123 98 98 123 123 99 99 99 99 123 123 124 124 99 99 124 124 100 100 100 100 124 124 125 125 100 100 125 125 101 101 101 101 125 125 126 126 101 101 126 126 102 102 102 102 126 126 127 127 102 102 127 127 103 103 103 103 127 127 128 128 103 103 128 128 104 104 104 104 128 128 129 129 104 104 129 129 105 105 105 105 129 129 130 130 105 105 130 130 106 106 106 106 130 130 131 131 106 106 131 131 107 107 107 107 131 131 132 132 107 107 132 132 108 108 108 108 132 132 133 133 108 108 133 133 109 109 109 109 133 133 134 134 109 109 134 134 110 110 110 110 134 134 135 135 110 110 135 135 111 111 111 111 135 135 136 136 111 111 136 136 112 112 112 112 136 136 137 137 112 112 137 137 113 113 113 113 137 137 138 138 113 113 138 138 114 114 114 114 138 138 139 139 114 114 139 139 115 115 115 115 139 139 140 140 115 115 140 140 116 116 116 116 140 140 141 141 116 116 141 141 117 117 117 117 141 141 142 142 117 117 142 142 118 118 118 118 142 142 143 143 118 118 143 143 119 119 119 119 143 143 120 120 119 119 120 120 96 96 144 144 1 1 0 0 144 144 2 2 1 1 144 144 3 3 2 2 144 144 4 4 3 3 144 144 5 5 4 4 144 144 6 6 5 5 144 144 7 7 6 6 144 144 8 8 7 7 144 144 9 9 8 8 144 144 10 10 9 9 144 144 11 11 10 10 144 144 12 12 11 11 144 144 13 13 12 12 144 144 14 14 13 13 144 144 15 15 14 14 144 144 16 16 15 15 144 144 17 17 16 16 144 144 18 18 17 17 144 144 19 19 18 18 144 144 20 20 19 19 144 144 21 21 20 20 144 144 22 22 21 21 144 144 23 23 22 22 144 144 0 0 23 23 145 145 120 120 121 121 145 145 121 121 122 122 145 145 122 122 123 123 145 145 123 123 124 124 145 145 124 124 125 125 145 145 125 125 126 126 145 145 126 126 127 127 145 145 127 127 128 128 145 145 128 128 129 129 145 145 129 129 130 130 145 145 130 130 131 131 145 145 131 131 132 132 145 145 132 132 133 133 145 145 133 133 134 134 145 145 134 134 135 135 145 145 135 135 136 136 145 145 136 136 137 137 145 145 137 137 138 138 145 145 138 138 139 139 145 145 139 139 140 140 145 145 140 140 141 141 145 145 141 141 142 142 145 145 142 142 143 143 145 145 143 143 120 120 146 146 170 170 171 171 146 146 171 171 147 147 147 147 171 171 172 172 147 147 172 172 148 148 148 148 172 172 173 173 148 148 173 173 149 149 149 149 173 173 174 174 149 149 174 174 150 150 150 150 174 174 175 175 150 150 175 175 151 151 151 151 175 175 176 176 151 151 176 176 152 152 152 152 176 176 177 177 152 152 177 177 153 153 153 153 177 177 178 178 153 153 178 178 154 154 154 154 178 178 179 179 154 154 179 179 155 155 155 155 179 179 180 180 155 155 180 180 156 156 156 156 180 180 181 181 156 156 181 181 157 157 157 157 181 181 182 182 157 157 182 182 158 158 158 158 182 182 183 183 158 158 183 183 159 159 159 159 183 183 184 184 159 159 184 184 160 160 160 160 184 184 185 185 160 160 185 185 161 161 161 161 185 185 186 186 161 161 186 186 162 162 162 162 186 186 187 187 162 162 187 187 163 163 163 163 187 187 188 188 163 163 188 188 164 164 164 164 188 188 189 189 164 164 189 189 165 165 165 165 189 189 190 190 165 165 190 190 166 166 166 166 190 190 191 191 166 166 191 191 167 167 167 167 191 191 192 192 167 167 192 192 168 168 168 168 192 192 193 193 168 168 193 193 169 169 169 169 193 193 170 170 169 169 170 170 146 146 194 194 170 170 171 171 194 194 171 171 172 172 194 194 172 172 173 173 194 194 173 173 174 174 194 194 174 174 175 175 194 194 175 175 176 176 194 194 176 176 177 177 194 194 177 177 178 178 194 194 178 178 179 179 194 194 179 179 180 180 194 194 180 180 181 181 194 194 181 181 182 182 194 194 182 182 183 183 194 194 183 183 184 184 194 194 184 184 185 185 194 194 185 185 186 186 194 194 186 186 187 187 194 194 187 187 188 188 194 194 188 188 189 189 194 194 189 189 190 190 194 194 190 190 191 191 194 194 191 191 192 192 194 194 192 192 193 193 194 194 193 193 170 170 195 195 219 219 220 220 195 195 220 220 196 196 196 196 220 220 221 221 196 196 221 221 197 197 197 197 221 221 222 222 197 197 222 222 198 198 198 198 222 222 223 223 198 198 223 223 199 199 199 199 223 223 224 224 199 199 224 224 200 200 200 200 224 224 225 225 200 200 225 225 201 201 201 201 225 225 226 226 201 201 226 226 202 202 202 202 226 226 227 227 202 202 227 227 203 203 203 203 227 227 228 228 203 203 228 228 204 204 204 204 228 228 229 229 204 204 229 229 205 205 205 205 229 229 230 230 205 205 230 230 206 206 206 206 230 230 231 231 206 206 231 231 207 207 207 207 231 231 232 232 207 207 232 232 208 208 208 208 232 232 233 233 208 208 233 233 209 209 209 209 233 233 234 234 209 209 234 234 210 210 210 210 234 234 235 235 210 210 235 235 211 211 211 211 235 235 236 236 211 211 236 236 212 212 212 212 236 236 237 237 212 212 237 237 213 213 213 213 237 237 238 238 213 213 238 238 214 214 214 214 238 238 239 239 214 214 239 239 215 215 215 215 239 239 240 240 215 215 240 240 216 216 216 216 240 240 241 241 216 216 241 241 217 217 217 217 241 241 242 242 217 217 242 242 218 218 218 218 242 242 219 219 218 218 219 219 195 195 243 243 219 219 220 220 243 243 220 220 221 221 243 243 221 221 222 222 243 243 222 222 223 223 243 243 223 223 224 224 243 243 224 224 225 225 243 243 225 225 226 226 243 243 226 226 227 227 243 243 227 227 228 228 243 243 228 228 229 229 243 243 229 229 230 230 243 243 230 230 231 231 243 243 231 231 232 232 243 243 232 232 233 233 243 243 233 233 234 234 243 243 234 234 235 235 243 243 235 235 236 236 243 243 236 236 237 237 243 243 237 237 238 238 243 243 238 238 239 239 243 243 239 239 240 240 243 243 240 240 241 241 243 243 241 241 242 242 243 243 242 242 219 219</p>
        </triangles>
      </mesh>
    </geometry>
    <geometry id="snorkel_medium_v4-mesh" name="snorkel_medium_v4">
      <mesh>
        <source id="snorkel_medium_v4-pos">
          <float_array id="snorkel_medium_v4-pos-array" count="732">-0.90000 -1.14735 0.93205 -0.90975 -1.15107 0.93225 -0.91884 -1.15541 0.93502 -0.92665 -1.16005 0.94017 -0.93264 -1.16469 0.94735 -0.93640 -1.16901 0.95608 -0.93769 -1.17272 0.96576 -0.93640 -1.17556 0.97573 -0.93264 -1.17734 0.98530 -0.92665 -1.17794 0.99383 -0.91884 -1.17731 1.00074 -0.90975 -1.17551 1.00556 -0.90000 -1.17265 1.00795 -0.89025 -1.16893 1.00775 -0.88116 -1.16459 1.00498 -0.87335 -1.15995 0.99983 -0.86736 -1.15531 0.99265 -0.86360 -1.15099 0.98392 -0.86231 -1.14728 0.97424 -0.86360 -1.14444 0.96427 -0.86736 -1.14266 0.95470 -0.87335 -1.14206 0.94617 -0.88116 -1.14269 0.93926 -0.89025 -1.14449 0.93444 -0.99000 -0.89008 1.02345 -1.00016 -0.89243 1.02286 -1.00962 -0.89666 1.02411 -1.01775 -0.90248 1.02713 -1.02399 -0.90949 1.03171 -1.02791 -0.91722 1.03753 -1.02924 -0.92514 1.04421 -1.02791 -0.93271 1.05128 -1.02399 -0.93941 1.05826 -1.01775 -0.94479 1.06468 -1.00962 -0.94848 1.07009 -1.00016 -0.95023 1.07414 -0.99000 -0.94992 1.07655 -0.97984 -0.94757 1.07714 -0.97038 -0.94334 1.07589 -0.96225 -0.93752 1.07287 -0.95601 -0.93051 1.06829 -0.95209 -0.92278 1.06247 -0.95076 -0.91486 1.05579 -0.95209 -0.90729 1.04872 -0.95601 -0.90059 1.04174 -0.96225 -0.89521 1.03532 -0.97038 -0.89152 1.02991 -0.97984 -0.88977 1.02586 -0.99000 -0.82253 1.28600 -1.00035 -0.82377 1.28657 -1.01000 -0.82749 1.28804 -1.01828 -0.83342 1.29034 -1.02464 -0.84116 1.29329 -1.02864 -0.85018 1.29670 -1.03000 -0.85987 1.30033 -1.02864 -0.86958 1.30395 -1.02464 -0.87863 1.30729 -1.01828 -0.88641 1.31014 -1.01000 -0.89239 1.31229 -1.00035 -0.89616 1.31361 -0.99000 -0.89747 1.31400 -0.97965 -0.89623 1.31343 -0.97000 -0.89251 1.31196 -0.96172 -0.88658 1.30966 -0.95536 -0.87884 1.30671 -0.95136 -0.86982 1.30330 -0.95000 -0.86013 1.29967 -0.95136 -0.85042 1.29605 -0.95536 -0.84137 1.29271 -0.96172 -0.83359 1.28986 -0.97000 -0.82761 1.28771 -0.97965 -0.82384 1.28639 -0.98500 -0.69385 1.53288 -0.99535 -0.69501 1.53361 -1.00500 -0.69856 1.53546 -1.01328 -0.70425 1.53829 -1.01964 -0.71169 1.54192 -1.02363 -0.72039 1.54611 -1.02500 -0.72974 1.55056 -1.02363 -0.73910 1.55497 -1.01964 -0.74785 1.55904 -1.01328 -0.75538 1.56250 -1.00500 -0.76118 1.56510 -0.99535 -0.76485 1.56668 -0.98500 -0.76615 1.56712 -0.97465 -0.76499 1.56639 -0.96500 -0.76144 1.56454 -0.95672 -0.75575 1.56171 -0.95036 -0.74831 1.55808 -0.94637 -0.73961 1.55389 -0.94500 -0.73026 1.54944 -0.94637 -0.72090 1.54503 -0.95036 -0.71215 1.54096 -0.95672 -0.70462 1.53750 -0.96500 -0.69882 1.53490 -0.97465 -0.69515 1.53332 -0.98000 -0.54082 1.89196 -0.99035 -0.54214 1.89230 -1.00000 -0.54604 1.89317 -1.00828 -0.55226 1.89450 -1.01464 -0.56036 1.89621 -1.01864 -0.56981 1.89817 -1.02000 -0.57995 1.90026 -1.01864 -0.59009 1.90234 -1.01464 -0.59954 1.90425 -1.00828 -0.60767 1.90587 -1.00000 -0.61391 1.90710 -0.99035 -0.61783 1.90784 -0.98000 -0.61918 1.90804 -0.96965 -0.61786 1.90770 -0.96000 -0.61396 1.90683 -0.95172 -0.60774 1.90550 -0.94536 -0.59964 1.90379 -0.94136 -0.59019 1.90183 -0.94000 -0.58005 1.89974 -0.94136 -0.56991 1.89766 -0.94536 -0.56046 1.89575 -0.95172 -0.55233 1.89413 -0.96000 -0.54609 1.89290 -0.96965 -0.54217 1.89216 -0.98000 -0.53520 2.47587 -0.99160 -0.53673 2.47498 -1.00240 -0.54120 2.47240 -1.01168 -0.54832 2.46829 -1.01880 -0.55760 2.46293 -1.02327 -0.56840 2.45669 -1.02480 -0.58000 2.45000 -1.02327 -0.59160 2.44331 -1.01880 -0.60240 2.43707 -1.01168 -0.61168 2.43171 -1.00240 -0.61880 2.42760 -0.99160 -0.62327 2.42502 -0.98000 -0.62480 2.42413 -0.96840 -0.62327 2.42502 -0.95760 -0.61880 2.42760 -0.94832 -0.61168 2.43171 -0.94120 -0.60240 2.43707 -0.93673 -0.59160 2.44331 -0.93520 -0.58000 2.45000 -0.93673 -0.56840 2.45669 -0.94120 -0.55760 2.46293 -0.94832 -0.54832 2.46829 -0.95760 -0.54120 2.47240 -0.96840 -0.53673 2.47498 -0.90000 -1.16000 0.97000 -0.98000 -0.58000 2.45000 -0.98700 -0.77600 1.49400 -0.98700 -0.77962 1.49352 -0.98700 -0.78300 1.49212 -0.98700 -0.78590 1.48990 -0.98700 -0.78812 1.48700 -0.98700 -0.78952 1.48362 -0.98700 -0.79000 1.48000 -0.98700 -0.78952 1.47638 -0.98700 -0.78812 1.47300 -0.98700 -0.78590 1.47010 -0.98700 -0.78300 1.46788 -0.98700 -0.77962 1.46648 -0.98700 -0.77600 1.46600 -0.98700 -0.77238 1.46648 -0.98700 -0.76900 1.46788 -0.98700 -0.76610 1.47010 -0.98700 -0.76388 1.47300 -0.98700 -0.76248 1.47638 -0.98700 -0.76200 1.48000 -0.98700 -0.76248 1.48362 -0.98700 -0.76388 1.48700 -0.98700 -0.76610 1.48990 -0.98700 -0.76900 1.49212 -0.98700 -0.77238 1.49352 -0.92700 -0.77600 1.49400 -0.92700 -0.77962 1.49352 -0.92700 -0.78300 1.49212 -0.92700 -0.78590 1.48990 -0.92700 -0.78812 1.48700 -0.92700 -0.78952 1.48362 -0.92700 -0.79000 1.48000 -0.92700 -0.78952 1.47638 -0.92700 -0.78812 1.47300 -0.92700 -0.78590 1.47010 -0.92700 -0.78300 1.46788 -0.92700 -0.77962 1.46648 -0.92700 -0.77600 1.46600 -0.92700 -0.77238 1.46648 -0.92700 -0.76900 1.46788 -0.92700 -0.76610 1.47010 -0.92700 -0.76388 1.47300 -0.92700 -0.76248 1.47638 -0.92700 -0.76200 1.48000 -0.92700 -0.76248 1.48362 -0.92700 -0.76388 1.48700 -0.92700 -0.76610 1.48990 -0.92700 -0.76900 1.49212 -0.92700 -0.77238 1.49352 -0.92700 -0.77600 1.48000 -0.98200 -0.63600 1.79400 -0.98200 -0.63962 1.79352 -0.98200 -0.64300 1.79212 -0.98200 -0.64590 1.78990 -0.98200 -0.64812 1.78700 -0.98200 -0.64952 1.78362 -0.98200 -0.65000 1.78000 -0.98200 -0.64952 1.77638 -0.98200 -0.64812 1.77300 -0.98200 -0.64590 1.77010 -0.98200 -0.64300 1.76788 -0.98200 -0.63962 1.76648 -0.98200 -0.63600 1.76600 -0.98200 -0.63238 1.76648 -0.98200 -0.62900 1.76788 -0.98200 -0.62610 1.77010 -0.98200 -0.62388 1.77300 -0.98200 -0.62248 1.77638 -0.98200 -0.62200 1.78000 -0.98200 -0.62248 1.78362 -0.98200 -0.62388 1.78700 -0.98200 -0.62610 1.78990 -0.98200 -0.62900 1.79212 -0.98200 -0.63238 1.79352 -0.92200 -0.63600 1.79400 -0.92200 -0.63962 1.79352 -0.92200 -0.64300 1.79212 -0.92200 -0.64590 1.78990 -0.92200 -0.64812 1.78700 -0.92200 -0.64952 1.78362 -0.92200 -0.65000 1.78000 -0.92200 -0.64952 1.77638 -0.92200 -0.64812 1.77300 -0.92200 -0.64590 1.77010 -0.92200 -0.64300 1.76788 -0.92200 -0.63962 1.76648 -0.92200 -0.63600 1.76600 -0.92200 -0.63238 1.76648 -0.92200 -0.62900 1.76788 -0.92200 -0.62610 1.77010 -0.92200 -0.62388 1.77300 -0.92200 -0.62248 1.77638 -0.92200 -0.62200 1.78000 -0.92200 -0.62248 1.78362 -0.92200 -0.62388 1.78700 -0.92200 -0.62610 1.78990 -0.92200 -0.62900 1.79212 -0.92200 -0.63238 1.79352 -0.92200 -0.63600 1.78000</float_array>
          <technique_common>
            <accessor source="#snorkel_medium_v4-pos-array" count="244" stride="3">
              <param name="X" type="float"/><param name="Y" type="float"/><param name="Z" type="float"/>
            </accessor>
          </technique_common>
        </source>
        <source id="snorkel_medium_v4-nrm">
          <float_array id="snorkel_medium_v4-nrm-array" count="732">0.00000 0.31623 -0.94868 -0.24385 0.22315 -0.94379 -0.47108 0.11487 -0.87458 -0.66620 -0.00124 -0.74577 -0.81593 -0.11726 -0.56613 -0.91005 -0.22530 -0.34792 -0.94215 -0.31798 -0.10599 -0.91005 -0.38899 0.14316 -0.81593 -0.43349 0.38255 -0.66620 -0.44845 0.59587 -0.47108 -0.43285 0.76859 -0.24385 -0.38775 0.88892 -0.00000 -0.31623 0.94868 0.24385 -0.22315 0.94379 0.47108 -0.11487 0.87458 0.66620 0.00124 0.74577 0.81593 0.11726 0.56613 0.91005 0.22530 0.34792 0.94215 0.31798 0.10599 0.91005 0.38899 -0.14316 0.81593 0.43349 -0.38255 0.66620 0.44845 -0.59587 0.47108 0.43285 -0.76859 0.24385 0.38775 -0.88892 0.00000 0.74799 -0.66371 -0.25392 0.68924 -0.67858 -0.49054 0.58353 -0.64720 -0.69373 0.43804 -0.57172 -0.84964 0.26270 -0.45728 -0.94765 0.06946 -0.31167 -0.98108 -0.12851 -0.14483 -0.94765 -0.31773 0.03189 -0.84964 -0.48529 0.20643 -0.69373 -0.61978 0.36690 -0.49054 -0.71204 0.50237 -0.25392 -0.75577 0.60361 -0.00000 -0.74799 0.66371 0.25392 -0.68924 0.67858 0.49054 -0.58353 0.64720 0.69373 -0.43804 0.57172 0.84964 -0.26270 0.45728 0.94765 -0.06946 0.31167 0.98108 0.12851 0.14483 0.94765 0.31773 -0.03189 0.84964 0.48529 -0.20643 0.69373 0.61978 -0.36690 0.49054 0.71204 -0.50237 0.25392 0.75577 -0.60361 0.00000 0.93677 -0.34995 -0.25881 0.90566 -0.33586 -0.49998 0.81283 -0.29888 -0.70708 0.66461 -0.24154 -0.86599 0.47109 -0.16773 -0.96589 0.24547 -0.08249 -0.99996 0.00313 0.00837 -0.96589 -0.23943 0.09866 -0.86599 -0.46567 0.18223 -0.70708 -0.66018 0.25338 -0.49998 -0.80970 0.30726 -0.25881 -0.90404 0.34020 -0.00000 -0.93677 0.34995 0.25881 -0.90566 0.33586 0.49998 -0.81283 0.29888 0.70708 -0.66461 0.24154 0.86599 -0.47109 0.16773 0.96589 -0.24547 0.08249 0.99996 -0.00313 -0.00837 0.96589 0.23943 -0.09866 0.86599 0.46567 -0.18223 0.70708 0.66018 -0.25338 0.49998 0.80970 -0.30726 0.25881 0.90404 -0.34020 0.00000 0.90381 -0.42793 -0.25879 0.87472 -0.40974 -0.49994 0.78603 -0.36362 -0.70702 0.64376 -0.29272 -0.86592 0.45763 -0.20188 -0.96581 0.24031 -0.09727 -0.99988 0.00661 0.01396 -0.96581 -0.22754 0.12424 -0.86592 -0.44618 0.22606 -0.70702 -0.63442 0.31247 -0.49994 -0.77942 0.37758 -0.25879 -0.87130 0.41696 -0.00000 -0.90381 0.42793 0.25879 -0.87472 0.40974 0.49994 -0.78603 0.36362 0.70702 -0.64376 0.29272 0.86592 -0.45763 0.20188 0.96581 -0.24031 0.09727 0.99988 -0.00661 -0.01396 0.96581 0.22754 -0.12424 0.86592 0.44618 -0.22606 0.70702 0.63442 -0.31247 0.49994 0.77942 -0.37758 0.25879 0.87130 -0.41696 0.00000 0.97958 -0.20106 -0.25881 0.94655 -0.19251 -0.49999 0.84901 -0.17084 -0.70709 0.69362 -0.13753 -0.86601 0.49096 -0.09484 -0.96590 0.25484 -0.04570 -0.99998 0.00135 0.00656 -0.96590 -0.25223 0.05838 -0.86601 -0.48862 0.10621 -0.70709 -0.69171 0.14681 -0.49999 -0.84767 0.17740 -0.25881 -0.94585 0.19591 -0.00000 -0.97958 0.20106 0.25881 -0.94655 0.19251 0.49999 -0.84901 0.17084 0.70709 -0.69362 0.13753 0.86601 -0.49096 0.09484 0.96590 -0.25484 0.04570 0.99998 -0.00135 -0.00656 0.96590 0.25223 -0.05838 0.86601 0.48862 -0.10621 0.70709 0.69171 -0.14681 0.49999 0.84767 -0.17740 0.25881 0.94585 -0.19591 0.00000 1.00000 0.00000 -0.25882 0.96593 0.00000 -0.50000 0.86603 0.00000 -0.70711 0.70711 0.00000 -0.86603 0.50000 0.00000 -0.96593 0.25882 0.00000 -1.00000 0.00000 0.00000 -0.96593 -0.25882 0.00000 -0.86603 -0.50000 0.00000 -0.70711 -0.70711 0.00000 -0.50000 -0.86603 0.00000 -0.25882 -0.96593 0.00000 -0.00000 -1.00000 0.00000 0.25882 -0.96593 -0.00000 0.50000 -0.86603 -0.00000 0.70711 -0.70711 -0.00000 0.86603 -0.50000 -0.00000 0.96593 -0.25882 -0.00000 1.00000 -0.00000 -0.00000 0.96593 0.25882 0.00000 0.86603 0.50000 0.00000 0.70711 0.70711 0.00000 0.50000 0.86603 0.00000 0.25882 0.96593 0.00000 0.33518 -0.89381 -0.29794 0.00000 -0.50001 0.86602 0.00000 0.00000 1.00000 0.00000 -0.25882 0.96593 0.00000 -0.50000 0.86603 0.00000 -0.70711 0.70711 0.00000 -0.86603 0.50000 0.00000 -0.96593 0.25882 0.00000 -1.00000 0.00000 0.00000 -0.96593 -0.25882 0.00000 -0.86603 -0.50000 0.00000 -0.70711 -0.70711 0.00000 -0.50000 -0.86603 0.00000 -0.25882 -0.96593 0.00000 -0.00000 -1.00000 -0.00000 0.25882 -0.96593 -0.00000 0.50000 -0.86603 -0.00000 0.70711 -0.70711 -0.00000 0.86603 -0.50000 -0.00000 0.96593 -0.25882 -0.00000 1.00000 -0.00000 0.00000 0.96593 0.25882 0.00000 0.86603 0.50000 0.00000 0.70711 0.70711 0.00000 0.50000 0.86603 0.00000 0.25882 0.96593 0.00000 0.00000 1.00000 0.00000 -0.25882 0.96593 0.00000 -0.50000 0.86603 0.00000 -0.70711 0.70711 0.00000 -0.86603 0.50000 0.00000 -0.96593 0.25882 0.00000 -1.00000 0.00000 0.00000 -0.96593 -0.25882 0.00000 -0.86603 -0.50000 0.00000 -0.70711 -0.70711 0.00000 -0.50000 -0.86603 0.00000 -0.25882 -0.96593 0.00000 -0.00000 -1.00000 -0.00000 0.25882 -0.96593 -0.00000 0.50000 -0.86603 -0.00000 0.70711 -0.70711 -0.00000 0.86603 -0.50000 -0.00000 0.96593 -0.25882 -0.00000 1.00000 -0.00000 0.00000 0.96593 0.25882 0.00000 0.86603 0.50000 0.00000 0.70711 0.70711 0.00000 0.50000 0.86603 0.00000 0.25882 0.96593 1.00000 0.00000 0.00000 0.00000 0.00000 1.00000 0.00000 -0.25882 0.96593 0.00000 -0.50000 0.86603 0.00000 -0.70711 0.70711 0.00000 -0.86603 0.50000 0.00000 -0.96593 0.25882 0.00000 -1.00000 0.00000 0.00000 -0.96593 -0.25882 0.00000 -0.86603 -0.50000 0.00000 -0.70711 -0.70711 0.00000 -0.50000 -0.86603 0.00000 -0.25882 -0.96593 0.00000 -0.00000 -1.00000 -0.00000 0.25882 -0.96593 -0.00000 0.50000 -0.86603 -0.00000 0.70711 -0.70711 -0.00000 0.86603 -0.50000 -0.00000 0.96593 -0.25882 -0.00000 1.00000 -0.00000 0.00000 0.96593 0.25882 0.00000 0.86603 0.50000 0.00000 0.70711 0.70711 0.00000 0.50000 0.86603 0.00000 0.25882 0.96593 0.00000 0.00000 1.00000 0.00000 -0.25882 0.96593 0.00000 -0.50000 0.86603 0.00000 -0.70711 0.70711 0.00000 -0.86603 0.50000 0.00000 -0.96593 0.25882 0.00000 -1.00000 0.00000 0.00000 -0.96593 -0.25882 0.00000 -0.86603 -0.50000 0.00000 -0.70711 -0.70711 0.00000 -0.50000 -0.86603 0.00000 -0.25882 -0.96593 0.00000 -0.00000 -1.00000 -0.00000 0.25882 -0.96593 -0.00000 0.50000 -0.86603 -0.00000 0.70711 -0.70711 -0.00000 0.86603 -0.50000 -0.00000 0.96593 -0.25882 -0.00000 1.00000 -0.00000 0.00000 0.96593 0.25882 0.00000 0.86603 0.50000 0.00000 0.70711 0.70711 0.00000 0.50000 0.86603 0.00000 0.25882 0.96593 1.00000 0.00000 0.00000</float_array>
          <technique_common>
            <accessor source="#snorkel_medium_v4-nrm-array" count="244" stride="3">
              <param name="X" type="float"/><param name="Y" type="float"/><param name="Z" type="float"/>
            </accessor>
          </technique_common>
        </source>
        <vertices id="snorkel_medium_v4-vtx"><input semantic="POSITION" source="#snorkel_medium_v4-pos"/></vertices>
        <triangles material="snorkel_black" count="432">
          <input semantic="VERTEX" source="#snorkel_medium_v4-vtx" offset="0"/>
          <input semantic="NORMAL" source="#snorkel_medium_v4-nrm" offset="1"/>
          <p>0 0 24 24 25 25 0 0 25 25 1 1 1 1 25 25 26 26 1 1 26 26 2 2 2 2 26 26 27 27 2 2 27 27 3 3 3 3 27 27 28 28 3 3 28 28 4 4 4 4 28 28 29 29 4 4 29 29 5 5 5 5 29 29 30 30 5 5 30 30 6 6 6 6 30 30 31 31 6 6 31 31 7 7 7 7 31 31 32 32 7 7 32 32 8 8 8 8 32 32 33 33 8 8 33 33 9 9 9 9 33 33 34 34 9 9 34 34 10 10 10 10 34 34 35 35 10 10 35 35 11 11 11 11 35 35 36 36 11 11 36 36 12 12 12 12 36 36 37 37 12 12 37 37 13 13 13 13 37 37 38 38 13 13 38 38 14 14 14 14 38 38 39 39 14 14 39 39 15 15 15 15 39 39 40 40 15 15 40 40 16 16 16 16 40 40 41 41 16 16 41 41 17 17 17 17 41 41 42 42 17 17 42 42 18 18 18 18 42 42 43 43 18 18 43 43 19 19 19 19 43 43 44 44 19 19 44 44 20 20 20 20 44 44 45 45 20 20 45 45 21 21 21 21 45 45 46 46 21 21 46 46 22 22 22 22 46 46 47 47 22 22 47 47 23 23 23 23 47 47 24 24 23 23 24 24 0 0 24 24 48 48 49 49 24 24 49 49 25 25 25 25 49 49 50 50 25 25 50 50 26 26 26 26 50 50 51 51 26 26 51 51 27 27 27 27 51 51 52 52 27 27 52 52 28 28 28 28 52 52 53 53 28 28 53 53 29 29 29 29 53 53 54 54 29 29 54 54 30 30 30 30 54 54 55 55 30 30 55 55 31 31 31 31 55 55 56 56 31 31 56 56 32 32 32 32 56 56 57 57 32 32 57 57 33 33 33 33 57 57 58 58 33 33 58 58 34 34 34 34 58 58 59 59 34 34 59 59 35 35 35 35 59 59 60 60 35 35 60 60 36 36 36 36 60 60 61 61 36 36 61 61 37 37 37 37 61 61 62 62 37 37 62 62 38 38 38 38 62 62 63 63 38 38 63 63 39 39 39 39 63 63 64 64 39 39 64 64 40 40 40 40 64 64 65 65 40 40 65 65 41 41 41 41 65 65 66 66 41 41 66 66 42 42 42 42 66 66 67 67 42 42 67 67 43 43 43 43 67 67 68 68 43 43 68 68 44 44 44 44 68 68 69 69 44 44 69 69 45 45 45 45 69 69 70 70 45 45 70 70 46 46 46 46 70 70 71 71 46 46 71 71 47 47 47 47 71 71 48 48 47 47 48 48 24 24 48 48 72 72 73 73 48 48 73 73 49 49 49 49 73 73 74 74 49 49 74 74 50 50 50 50 74 74 75 75 50 50 75 75 51 51 51 51 75 75 76 76 51 51 76 76 52 52 52 52 76 76 77 77 52 52 77 77 53 53 53 53 77 77 78 78 53 53 78 78 54 54 54 54 78 78 79 79 54 54 79 79 55 55 55 55 79 79 80 80 55 55 80 80 56 56 56 56 80 80 81 81 56 56 81 81 57 57 57 57 81 81 82 82 57 57 82 82 58 58 58 58 82 82 83 83 58 58 83 83 59 59 59 59 83 83 84 84 59 59 84 84 60 60 60 60 84 84 85 85 60 60 85 85 61 61 61 61 85 85 86 86 61 61 86 86 62 62 62 62 86 86 87 87 62 62 87 87 63 63 63 63 87 87 88 88 63 63 88 88 64 64 64 64 88 88 89 89 64 64 89 89 65 65 65 65 89 89 90 90 65 65 90 90 66 66 66 66 90 90 91 91 66 66 91 91 67 67 67 67 91 91 92 92 67 67 92 92 68 68 68 68 92 92 93 93 68 68 93 93 69 69 69 69 93 93 94 94 69 69 94 94 70 70 70 70 94 94 95 95 70 70 95 95 71 71 71 71 95 95 72 72 71 71 72 72 48 48 72 72 96 96 97 97 72 72 97 97 73 73 73 73 97 97 98 98 73 73 98 98 74 74 74 74 98 98 99 99 74 74 99 99 75 75 75 75 99 99 100 100 75 75 100 100 76 76 76 76 100 100 101 101 76 76 101 101 77 77 77 77 101 101 102 102 77 77 102 102 78 78 78 78 102 102 103 103 78 78 103 103 79 79 79 79 103 103 104 104 79 79 104 104 80 80 80 80 104 104 105 105 80 80 105 105 81 81 81 81 105 105 106 106 81 81 106 106 82 82 82 82 106 106 107 107 82 82 107 107 83 83 83 83 107 107 108 108 83 83 108 108 84 84 84 84 108 108 109 109 84 84 109 109 85 85 85 85 109 109 110 110 85 85 110 110 86 86 86 86 110 110 111 111 86 86 111 111 87 87 87 87 111 111 112 112 87 87 112 112 88 88 88 88 112 112 113 113 88 88 113 113 89 89 89 89 113 113 114 114 89 89 114 114 90 90 90 90 114 114 115 115 90 90 115 115 91 91 91 91 115 115 116 116 91 91 116 116 92 92 92 92 116 116 117 117 92 92 117 117 93 93 93 93 117 117 118 118 93 93 118 118 94 94 94 94 118 118 119 119 94 94 119 119 95 95 95 95 119 119 96 96 95 95 96 96 72 72 96 96 120 120 121 121 96 96 121 121 97 97 97 97 121 121 122 122 97 97 122 122 98 98 98 98 122 122 123 123 98 98 123 123 99 99 99 99 123 123 124 124 99 99 124 124 100 100 100 100 124 124 125 125 100 100 125 125 101 101 101 101 125 125 126 126 101 101 126 126 102 102 102 102 126 126 127 127 102 102 127 127 103 103 103 103 127 127 128 128 103 103 128 128 104 104 104 104 128 128 129 129 104 104 129 129 105 105 105 105 129 129 130 130 105 105 130 130 106 106 106 106 130 130 131 131 106 106 131 131 107 107 107 107 131 131 132 132 107 107 132 132 108 108 108 108 132 132 133 133 108 108 133 133 109 109 109 109 133 133 134 134 109 109 134 134 110 110 110 110 134 134 135 135 110 110 135 135 111 111 111 111 135 135 136 136 111 111 136 136 112 112 112 112 136 136 137 137 112 112 137 137 113 113 113 113 137 137 138 138 113 113 138 138 114 114 114 114 138 138 139 139 114 114 139 139 115 115 115 115 139 139 140 140 115 115 140 140 116 116 116 116 140 140 141 141 116 116 141 141 117 117 117 117 141 141 142 142 117 117 142 142 118 118 118 118 142 142 143 143 118 118 143 143 119 119 119 119 143 143 120 120 119 119 120 120 96 96 144 144 1 1 0 0 144 144 2 2 1 1 144 144 3 3 2 2 144 144 4 4 3 3 144 144 5 5 4 4 144 144 6 6 5 5 144 144 7 7 6 6 144 144 8 8 7 7 144 144 9 9 8 8 144 144 10 10 9 9 144 144 11 11 10 10 144 144 12 12 11 11 144 144 13 13 12 12 144 144 14 14 13 13 144 144 15 15 14 14 144 144 16 16 15 15 144 144 17 17 16 16 144 144 18 18 17 17 144 144 19 19 18 18 144 144 20 20 19 19 144 144 21 21 20 20 144 144 22 22 21 21 144 144 23 23 22 22 144 144 0 0 23 23 145 145 120 120 121 121 145 145 121 121 122 122 145 145 122 122 123 123 145 145 123 123 124 124 145 145 124 124 125 125 145 145 125 125 126 126 145 145 126 126 127 127 145 145 127 127 128 128 145 145 128 128 129 129 145 145 129 129 130 130 145 145 130 130 131 131 145 145 131 131 132 132 145 145 132 132 133 133 145 145 133 133 134 134 145 145 134 134 135 135 145 145 135 135 136 136 145 145 136 136 137 137 145 145 137 137 138 138 145 145 138 138 139 139 145 145 139 139 140 140 145 145 140 140 141 141 145 145 141 141 142 142 145 145 142 142 143 143 145 145 143 143 120 120 146 146 170 170 171 171 146 146 171 171 147 147 147 147 171 171 172 172 147 147 172 172 148 148 148 148 172 172 173 173 148 148 173 173 149 149 149 149 173 173 174 174 149 149 174 174 150 150 150 150 174 174 175 175 150 150 175 175 151 151 151 151 175 175 176 176 151 151 176 176 152 152 152 152 176 176 177 177 152 152 177 177 153 153 153 153 177 177 178 178 153 153 178 178 154 154 154 154 178 178 179 179 154 154 179 179 155 155 155 155 179 179 180 180 155 155 180 180 156 156 156 156 180 180 181 181 156 156 181 181 157 157 157 157 181 181 182 182 157 157 182 182 158 158 158 158 182 182 183 183 158 158 183 183 159 159 159 159 183 183 184 184 159 159 184 184 160 160 160 160 184 184 185 185 160 160 185 185 161 161 161 161 185 185 186 186 161 161 186 186 162 162 162 162 186 186 187 187 162 162 187 187 163 163 163 163 187 187 188 188 163 163 188 188 164 164 164 164 188 188 189 189 164 164 189 189 165 165 165 165 189 189 190 190 165 165 190 190 166 166 166 166 190 190 191 191 166 166 191 191 167 167 167 167 191 191 192 192 167 167 192 192 168 168 168 168 192 192 193 193 168 168 193 193 169 169 169 169 193 193 170 170 169 169 170 170 146 146 194 194 170 170 171 171 194 194 171 171 172 172 194 194 172 172 173 173 194 194 173 173 174 174 194 194 174 174 175 175 194 194 175 175 176 176 194 194 176 176 177 177 194 194 177 177 178 178 194 194 178 178 179 179 194 194 179 179 180 180 194 194 180 180 181 181 194 194 181 181 182 182 194 194 182 182 183 183 194 194 183 183 184 184 194 194 184 184 185 185 194 194 185 185 186 186 194 194 186 186 187 187 194 194 187 187 188 188 194 194 188 188 189 189 194 194 189 189 190 190 194 194 190 190 191 191 194 194 191 191 192 192 194 194 192 192 193 193 194 194 193 193 170 170 195 195 219 219 220 220 195 195 220 220 196 196 196 196 220 220 221 221 196 196 221 221 197 197 197 197 221 221 222 222 197 197 222 222 198 198 198 198 222 222 223 223 198 198 223 223 199 199 199 199 223 223 224 224 199 199 224 224 200 200 200 200 224 224 225 225 200 200 225 225 201 201 201 201 225 225 226 226 201 201 226 226 202 202 202 202 226 226 227 227 202 202 227 227 203 203 203 203 227 227 228 228 203 203 228 228 204 204 204 204 228 228 229 229 204 204 229 229 205 205 205 205 229 229 230 230 205 205 230 230 206 206 206 206 230 230 231 231 206 206 231 231 207 207 207 207 231 231 232 232 207 207 232 232 208 208 208 208 232 232 233 233 208 208 233 233 209 209 209 209 233 233 234 234 209 209 234 234 210 210 210 210 234 234 235 235 210 210 235 235 211 211 211 211 235 235 236 236 211 211 236 236 212 212 212 212 236 236 237 237 212 212 237 237 213 213 213 213 237 237 238 238 213 213 238 238 214 214 214 214 238 238 239 239 214 214 239 239 215 215 215 215 239 239 240 240 215 215 240 240 216 216 216 216 240 240 241 241 216 216 241 241 217 217 217 217 241 241 242 242 217 217 242 242 218 218 218 218 242 242 219 219 218 218 219 219 195 195 243 243 219 219 220 220 243 243 220 220 221 221 243 243 221 221 222 222 243 243 222 222 223 223 243 243 223 223 224 224 243 243 224 224 225 225 243 243 225 225 226 226 243 243 226 226 227 227 243 243 227 227 228 228 243 243 228 228 229 229 243 243 229 229 230 230 243 243 230 230 231 231 243 243 231 231 232 232 243 243 232 232 233 233 243 243 233 233 234 234 243 243 234 234 235 235 243 243 235 235 236 236 243 243 236 236 237 237 243 243 237 237 238 238 243 243 238 238 239 239 243 243 239 239 240 240 243 243 240 240 241 241 243 243 241 241 242 242 243 243 242 242 219 219</p>
        </triangles>
      </mesh>
    </geometry>
    <geometry id="snorkel_tall_v4-mesh" name="snorkel_tall_v4">
      <mesh>
        <source id="snorkel_tall_v4-pos">
          <float_array id="snorkel_tall_v4-pos-array" count="732">-0.90000 -1.14735 0.93205 -0.90975 -1.15107 0.93225 -0.91884 -1.15541 0.93502 -0.92665 -1.16005 0.94017 -0.93264 -1.16469 0.94735 -0.93640 -1.16901 0.95608 -0.93769 -1.17272 0.96576 -0.93640 -1.17556 0.97573 -0.93264 -1.17734 0.98530 -0.92665 -1.17794 0.99383 -0.91884 -1.17731 1.00074 -0.90975 -1.17551 1.00556 -0.90000 -1.17265 1.00795 -0.89025 -1.16893 1.00775 -0.88116 -1.16459 1.00498 -0.87335 -1.15995 0.99983 -0.86736 -1.15531 0.99265 -0.86360 -1.15099 0.98392 -0.86231 -1.14728 0.97424 -0.86360 -1.14444 0.96427 -0.86736 -1.14266 0.95470 -0.87335 -1.14206 0.94617 -0.88116 -1.14269 0.93926 -0.89025 -1.14449 0.93444 -0.99000 -0.89008 1.02345 -1.00016 -0.89243 1.02286 -1.00962 -0.89666 1.02411 -1.01775 -0.90248 1.02713 -1.02399 -0.90949 1.03171 -1.02791 -0.91722 1.03753 -1.02924 -0.92514 1.04421 -1.02791 -0.93271 1.05128 -1.02399 -0.93941 1.05826 -1.01775 -0.94479 1.06468 -1.00962 -0.94848 1.07009 -1.00016 -0.95023 1.07414 -0.99000 -0.94992 1.07655 -0.97984 -0.94757 1.07714 -0.97038 -0.94334 1.07589 -0.96225 -0.93752 1.07287 -0.95601 -0.93051 1.06829 -0.95209 -0.92278 1.06247 -0.95076 -0.91486 1.05579 -0.95209 -0.90729 1.04872 -0.95601 -0.90059 1.04174 -0.96225 -0.89521 1.03532 -0.97038 -0.89152 1.02991 -0.97984 -0.88977 1.02586 -0.99000 -0.82253 1.28600 -1.00035 -0.82377 1.28657 -1.01000 -0.82749 1.28804 -1.01828 -0.83342 1.29034 -1.02464 -0.84116 1.29329 -1.02864 -0.85018 1.29670 -1.03000 -0.85987 1.30033 -1.02864 -0.86958 1.30395 -1.02464 -0.87863 1.30729 -1.01828 -0.88641 1.31014 -1.01000 -0.89239 1.31229 -1.00035 -0.89616 1.31361 -0.99000 -0.89747 1.31400 -0.97965 -0.89623 1.31343 -0.97000 -0.89251 1.31196 -0.96172 -0.88658 1.30966 -0.95536 -0.87884 1.30671 -0.95136 -0.86982 1.30330 -0.95000 -0.86013 1.29967 -0.95136 -0.85042 1.29605 -0.95536 -0.84137 1.29271 -0.96172 -0.83359 1.28986 -0.97000 -0.82761 1.28771 -0.97965 -0.82384 1.28639 -0.98500 -0.69385 1.53288 -0.99535 -0.69501 1.53361 -1.00500 -0.69856 1.53546 -1.01328 -0.70425 1.53829 -1.01964 -0.71169 1.54192 -1.02363 -0.72039 1.54611 -1.02500 -0.72974 1.55056 -1.02363 -0.73910 1.55497 -1.01964 -0.74785 1.55904 -1.01328 -0.75538 1.56250 -1.00500 -0.76118 1.56510 -0.99535 -0.76485 1.56668 -0.98500 -0.76615 1.56712 -0.97465 -0.76499 1.56639 -0.96500 -0.76144 1.56454 -0.95672 -0.75575 1.56171 -0.95036 -0.74831 1.55808 -0.94637 -0.73961 1.55389 -0.94500 -0.73026 1.54944 -0.94637 -0.72090 1.54503 -0.95036 -0.71215 1.54096 -0.95672 -0.70462 1.53750 -0.96500 -0.69882 1.53490 -0.97465 -0.69515 1.53332 -0.98000 -0.54082 1.89196 -0.99035 -0.54214 1.89230 -1.00000 -0.54604 1.89317 -1.00828 -0.55226 1.89450 -1.01464 -0.56036 1.89621 -1.01864 -0.56981 1.89817 -1.02000 -0.57995 1.90026 -1.01864 -0.59009 1.90234 -1.01464 -0.59954 1.90425 -1.00828 -0.60767 1.90587 -1.00000 -0.61391 1.90710 -0.99035 -0.61783 1.90784 -0.98000 -0.61918 1.90804 -0.96965 -0.61786 1.90770 -0.96000 -0.61396 1.90683 -0.95172 -0.60774 1.90550 -0.94536 -0.59964 1.90379 -0.94136 -0.59019 1.90183 -0.94000 -0.58005 1.89974 -0.94136 -0.56991 1.89766 -0.94536 -0.56046 1.89575 -0.95172 -0.55233 1.89413 -0.96000 -0.54609 1.89290 -0.96965 -0.54217 1.89216 -0.98000 -0.53520 3.02587 -0.99160 -0.53673 3.02498 -1.00240 -0.54120 3.02240 -1.01168 -0.54832 3.01829 -1.01880 -0.55760 3.01293 -1.02327 -0.56840 3.00669 -1.02480 -0.58000 3.00000 -1.02327 -0.59160 2.99331 -1.01880 -0.60240 2.98707 -1.01168 -0.61168 2.98171 -1.00240 -0.61880 2.97760 -0.99160 -0.62327 2.97502 -0.98000 -0.62480 2.97413 -0.96840 -0.62327 2.97502 -0.95760 -0.61880 2.97760 -0.94832 -0.61168 2.98171 -0.94120 -0.60240 2.98707 -0.93673 -0.59160 2.99331 -0.93520 -0.58000 3.00000 -0.93673 -0.56840 3.00669 -0.94120 -0.55760 3.01293 -0.94832 -0.54832 3.01829 -0.95760 -0.54120 3.02240 -0.96840 -0.53673 3.02498 -0.90000 -1.16000 0.97000 -0.98000 -0.58000 3.00000 -0.98700 -0.77600 1.49400 -0.98700 -0.77962 1.49352 -0.98700 -0.78300 1.49212 -0.98700 -0.78590 1.48990 -0.98700 -0.78812 1.48700 -0.98700 -0.78952 1.48362 -0.98700 -0.79000 1.48000 -0.98700 -0.78952 1.47638 -0.98700 -0.78812 1.47300 -0.98700 -0.78590 1.47010 -0.98700 -0.78300 1.46788 -0.98700 -0.77962 1.46648 -0.98700 -0.77600 1.46600 -0.98700 -0.77238 1.46648 -0.98700 -0.76900 1.46788 -0.98700 -0.76610 1.47010 -0.98700 -0.76388 1.47300 -0.98700 -0.76248 1.47638 -0.98700 -0.76200 1.48000 -0.98700 -0.76248 1.48362 -0.98700 -0.76388 1.48700 -0.98700 -0.76610 1.48990 -0.98700 -0.76900 1.49212 -0.98700 -0.77238 1.49352 -0.92700 -0.77600 1.49400 -0.92700 -0.77962 1.49352 -0.92700 -0.78300 1.49212 -0.92700 -0.78590 1.48990 -0.92700 -0.78812 1.48700 -0.92700 -0.78952 1.48362 -0.92700 -0.79000 1.48000 -0.92700 -0.78952 1.47638 -0.92700 -0.78812 1.47300 -0.92700 -0.78590 1.47010 -0.92700 -0.78300 1.46788 -0.92700 -0.77962 1.46648 -0.92700 -0.77600 1.46600 -0.92700 -0.77238 1.46648 -0.92700 -0.76900 1.46788 -0.92700 -0.76610 1.47010 -0.92700 -0.76388 1.47300 -0.92700 -0.76248 1.47638 -0.92700 -0.76200 1.48000 -0.92700 -0.76248 1.48362 -0.92700 -0.76388 1.48700 -0.92700 -0.76610 1.48990 -0.92700 -0.76900 1.49212 -0.92700 -0.77238 1.49352 -0.92700 -0.77600 1.48000 -0.98200 -0.63600 1.79400 -0.98200 -0.63962 1.79352 -0.98200 -0.64300 1.79212 -0.98200 -0.64590 1.78990 -0.98200 -0.64812 1.78700 -0.98200 -0.64952 1.78362 -0.98200 -0.65000 1.78000 -0.98200 -0.64952 1.77638 -0.98200 -0.64812 1.77300 -0.98200 -0.64590 1.77010 -0.98200 -0.64300 1.76788 -0.98200 -0.63962 1.76648 -0.98200 -0.63600 1.76600 -0.98200 -0.63238 1.76648 -0.98200 -0.62900 1.76788 -0.98200 -0.62610 1.77010 -0.98200 -0.62388 1.77300 -0.98200 -0.62248 1.77638 -0.98200 -0.62200 1.78000 -0.98200 -0.62248 1.78362 -0.98200 -0.62388 1.78700 -0.98200 -0.62610 1.78990 -0.98200 -0.62900 1.79212 -0.98200 -0.63238 1.79352 -0.92200 -0.63600 1.79400 -0.92200 -0.63962 1.79352 -0.92200 -0.64300 1.79212 -0.92200 -0.64590 1.78990 -0.92200 -0.64812 1.78700 -0.92200 -0.64952 1.78362 -0.92200 -0.65000 1.78000 -0.92200 -0.64952 1.77638 -0.92200 -0.64812 1.77300 -0.92200 -0.64590 1.77010 -0.92200 -0.64300 1.76788 -0.92200 -0.63962 1.76648 -0.92200 -0.63600 1.76600 -0.92200 -0.63238 1.76648 -0.92200 -0.62900 1.76788 -0.92200 -0.62610 1.77010 -0.92200 -0.62388 1.77300 -0.92200 -0.62248 1.77638 -0.92200 -0.62200 1.78000 -0.92200 -0.62248 1.78362 -0.92200 -0.62388 1.78700 -0.92200 -0.62610 1.78990 -0.92200 -0.62900 1.79212 -0.92200 -0.63238 1.79352 -0.92200 -0.63600 1.78000</float_array>
          <technique_common>
            <accessor source="#snorkel_tall_v4-pos-array" count="244" stride="3">
              <param name="X" type="float"/><param name="Y" type="float"/><param name="Z" type="float"/>
            </accessor>
          </technique_common>
        </source>
        <source id="snorkel_tall_v4-nrm">
          <float_array id="snorkel_tall_v4-nrm-array" count="732">0.00000 0.31623 -0.94868 -0.24385 0.22315 -0.94379 -0.47108 0.11487 -0.87458 -0.66620 -0.00124 -0.74577 -0.81593 -0.11726 -0.56613 -0.91005 -0.22530 -0.34792 -0.94215 -0.31798 -0.10599 -0.91005 -0.38899 0.14316 -0.81593 -0.43349 0.38255 -0.66620 -0.44845 0.59587 -0.47108 -0.43285 0.76859 -0.24385 -0.38775 0.88892 -0.00000 -0.31623 0.94868 0.24385 -0.22315 0.94379 0.47108 -0.11487 0.87458 0.66620 0.00124 0.74577 0.81593 0.11726 0.56613 0.91005 0.22530 0.34792 0.94215 0.31798 0.10599 0.91005 0.38899 -0.14316 0.81593 0.43349 -0.38255 0.66620 0.44845 -0.59587 0.47108 0.43285 -0.76859 0.24385 0.38775 -0.88892 0.00000 0.74799 -0.66371 -0.25392 0.68924 -0.67858 -0.49054 0.58353 -0.64720 -0.69373 0.43804 -0.57172 -0.84964 0.26270 -0.45728 -0.94765 0.06946 -0.31167 -0.98108 -0.12851 -0.14483 -0.94765 -0.31773 0.03189 -0.84964 -0.48529 0.20643 -0.69373 -0.61978 0.36690 -0.49054 -0.71204 0.50237 -0.25392 -0.75577 0.60361 -0.00000 -0.74799 0.66371 0.25392 -0.68924 0.67858 0.49054 -0.58353 0.64720 0.69373 -0.43804 0.57172 0.84964 -0.26270 0.45728 0.94765 -0.06946 0.31167 0.98108 0.12851 0.14483 0.94765 0.31773 -0.03189 0.84964 0.48529 -0.20643 0.69373 0.61978 -0.36690 0.49054 0.71204 -0.50237 0.25392 0.75577 -0.60361 0.00000 0.93677 -0.34995 -0.25881 0.90566 -0.33586 -0.49998 0.81283 -0.29888 -0.70708 0.66461 -0.24154 -0.86599 0.47109 -0.16773 -0.96589 0.24547 -0.08249 -0.99996 0.00313 0.00837 -0.96589 -0.23943 0.09866 -0.86599 -0.46567 0.18223 -0.70708 -0.66018 0.25338 -0.49998 -0.80970 0.30726 -0.25881 -0.90404 0.34020 -0.00000 -0.93677 0.34995 0.25881 -0.90566 0.33586 0.49998 -0.81283 0.29888 0.70708 -0.66461 0.24154 0.86599 -0.47109 0.16773 0.96589 -0.24547 0.08249 0.99996 -0.00313 -0.00837 0.96589 0.23943 -0.09866 0.86599 0.46567 -0.18223 0.70708 0.66018 -0.25338 0.49998 0.80970 -0.30726 0.25881 0.90404 -0.34020 0.00000 0.90381 -0.42793 -0.25879 0.87472 -0.40974 -0.49994 0.78603 -0.36362 -0.70702 0.64376 -0.29272 -0.86592 0.45763 -0.20188 -0.96581 0.24031 -0.09727 -0.99988 0.00661 0.01396 -0.96581 -0.22754 0.12424 -0.86592 -0.44618 0.22606 -0.70702 -0.63442 0.31247 -0.49994 -0.77942 0.37758 -0.25879 -0.87130 0.41696 -0.00000 -0.90381 0.42793 0.25879 -0.87472 0.40974 0.49994 -0.78603 0.36362 0.70702 -0.64376 0.29272 0.86592 -0.45763 0.20188 0.96581 -0.24031 0.09727 0.99988 -0.00661 -0.01396 0.96581 0.22754 -0.12424 0.86592 0.44618 -0.22606 0.70702 0.63442 -0.31247 0.49994 0.77942 -0.37758 0.25879 0.87130 -0.41696 0.00000 0.97958 -0.20106 -0.25881 0.94655 -0.19251 -0.49999 0.84901 -0.17084 -0.70709 0.69362 -0.13753 -0.86601 0.49096 -0.09484 -0.96590 0.25484 -0.04570 -0.99998 0.00135 0.00656 -0.96590 -0.25223 0.05838 -0.86601 -0.48862 0.10621 -0.70709 -0.69171 0.14681 -0.49999 -0.84767 0.17740 -0.25881 -0.94585 0.19591 -0.00000 -0.97958 0.20106 0.25881 -0.94655 0.19251 0.49999 -0.84901 0.17084 0.70709 -0.69362 0.13753 0.86601 -0.49096 0.09484 0.96590 -0.25484 0.04570 0.99998 -0.00135 -0.00656 0.96590 0.25223 -0.05838 0.86601 0.48862 -0.10621 0.70709 0.69171 -0.14681 0.49999 0.84767 -0.17740 0.25881 0.94585 -0.19591 0.00000 1.00000 0.00000 -0.25882 0.96593 0.00000 -0.50000 0.86603 0.00000 -0.70711 0.70711 0.00000 -0.86603 0.50000 0.00000 -0.96593 0.25882 0.00000 -1.00000 0.00000 0.00000 -0.96593 -0.25882 0.00000 -0.86603 -0.50000 0.00000 -0.70711 -0.70711 0.00000 -0.50000 -0.86603 0.00000 -0.25882 -0.96593 0.00000 -0.00000 -1.00000 0.00000 0.25882 -0.96593 -0.00000 0.50000 -0.86603 -0.00000 0.70711 -0.70711 -0.00000 0.86603 -0.50000 -0.00000 0.96593 -0.25882 -0.00000 1.00000 -0.00000 -0.00000 0.96593 0.25882 0.00000 0.86603 0.50000 0.00000 0.70711 0.70711 0.00000 0.50000 0.86603 0.00000 0.25882 0.96593 0.00000 0.33518 -0.89381 -0.29794 0.00000 -0.50001 0.86602 0.00000 0.00000 1.00000 0.00000 -0.25882 0.96593 0.00000 -0.50000 0.86603 0.00000 -0.70711 0.70711 0.00000 -0.86603 0.50000 0.00000 -0.96593 0.25882 0.00000 -1.00000 0.00000 0.00000 -0.96593 -0.25882 0.00000 -0.86603 -0.50000 0.00000 -0.70711 -0.70711 0.00000 -0.50000 -0.86603 0.00000 -0.25882 -0.96593 0.00000 -0.00000 -1.00000 -0.00000 0.25882 -0.96593 -0.00000 0.50000 -0.86603 -0.00000 0.70711 -0.70711 -0.00000 0.86603 -0.50000 -0.00000 0.96593 -0.25882 -0.00000 1.00000 -0.00000 0.00000 0.96593 0.25882 0.00000 0.86603 0.50000 0.00000 0.70711 0.70711 0.00000 0.50000 0.86603 0.00000 0.25882 0.96593 0.00000 0.00000 1.00000 0.00000 -0.25882 0.96593 0.00000 -0.50000 0.86603 0.00000 -0.70711 0.70711 0.00000 -0.86603 0.50000 0.00000 -0.96593 0.25882 0.00000 -1.00000 0.00000 0.00000 -0.96593 -0.25882 0.00000 -0.86603 -0.50000 0.00000 -0.70711 -0.70711 0.00000 -0.50000 -0.86603 0.00000 -0.25882 -0.96593 0.00000 -0.00000 -1.00000 -0.00000 0.25882 -0.96593 -0.00000 0.50000 -0.86603 -0.00000 0.70711 -0.70711 -0.00000 0.86603 -0.50000 -0.00000 0.96593 -0.25882 -0.00000 1.00000 -0.00000 0.00000 0.96593 0.25882 0.00000 0.86603 0.50000 0.00000 0.70711 0.70711 0.00000 0.50000 0.86603 0.00000 0.25882 0.96593 1.00000 0.00000 0.00000 0.00000 0.00000 1.00000 0.00000 -0.25882 0.96593 0.00000 -0.50000 0.86603 0.00000 -0.70711 0.70711 0.00000 -0.86603 0.50000 0.00000 -0.96593 0.25882 0.00000 -1.00000 0.00000 0.00000 -0.96593 -0.25882 0.00000 -0.86603 -0.50000 0.00000 -0.70711 -0.70711 0.00000 -0.50000 -0.86603 0.00000 -0.25882 -0.96593 0.00000 -0.00000 -1.00000 -0.00000 0.25882 -0.96593 -0.00000 0.50000 -0.86603 -0.00000 0.70711 -0.70711 -0.00000 0.86603 -0.50000 -0.00000 0.96593 -0.25882 -0.00000 1.00000 -0.00000 0.00000 0.96593 0.25882 0.00000 0.86603 0.50000 0.00000 0.70711 0.70711 0.00000 0.50000 0.86603 0.00000 0.25882 0.96593 0.00000 0.00000 1.00000 0.00000 -0.25882 0.96593 0.00000 -0.50000 0.86603 0.00000 -0.70711 0.70711 0.00000 -0.86603 0.50000 0.00000 -0.96593 0.25882 0.00000 -1.00000 0.00000 0.00000 -0.96593 -0.25882 0.00000 -0.86603 -0.50000 0.00000 -0.70711 -0.70711 0.00000 -0.50000 -0.86603 0.00000 -0.25882 -0.96593 0.00000 -0.00000 -1.00000 -0.00000 0.25882 -0.96593 -0.00000 0.50000 -0.86603 -0.00000 0.70711 -0.70711 -0.00000 0.86603 -0.50000 -0.00000 0.96593 -0.25882 -0.00000 1.00000 -0.00000 0.00000 0.96593 0.25882 0.00000 0.86603 0.50000 0.00000 0.70711 0.70711 0.00000 0.50000 0.86603 0.00000 0.25882 0.96593 1.00000 0.00000 0.00000</float_array>
          <technique_common>
            <accessor source="#snorkel_tall_v4-nrm-array" count="244" stride="3">
              <param name="X" type="float"/><param name="Y" type="float"/><param name="Z" type="float"/>
            </accessor>
          </technique_common>
        </source>
        <vertices id="snorkel_tall_v4-vtx"><input semantic="POSITION" source="#snorkel_tall_v4-pos"/></vertices>
        <triangles material="snorkel_black" count="432">
          <input semantic="VERTEX" source="#snorkel_tall_v4-vtx" offset="0"/>
          <input semantic="NORMAL" source="#snorkel_tall_v4-nrm" offset="1"/>
          <p>0 0 24 24 25 25 0 0 25 25 1 1 1 1 25 25 26 26 1 1 26 26 2 2 2 2 26 26 27 27 2 2 27 27 3 3 3 3 27 27 28 28 3 3 28 28 4 4 4 4 28 28 29 29 4 4 29 29 5 5 5 5 29 29 30 30 5 5 30 30 6 6 6 6 30 30 31 31 6 6 31 31 7 7 7 7 31 31 32 32 7 7 32 32 8 8 8 8 32 32 33 33 8 8 33 33 9 9 9 9 33 33 34 34 9 9 34 34 10 10 10 10 34 34 35 35 10 10 35 35 11 11 11 11 35 35 36 36 11 11 36 36 12 12 12 12 36 36 37 37 12 12 37 37 13 13 13 13 37 37 38 38 13 13 38 38 14 14 14 14 38 38 39 39 14 14 39 39 15 15 15 15 39 39 40 40 15 15 40 40 16 16 16 16 40 40 41 41 16 16 41 41 17 17 17 17 41 41 42 42 17 17 42 42 18 18 18 18 42 42 43 43 18 18 43 43 19 19 19 19 43 43 44 44 19 19 44 44 20 20 20 20 44 44 45 45 20 20 45 45 21 21 21 21 45 45 46 46 21 21 46 46 22 22 22 22 46 46 47 47 22 22 47 47 23 23 23 23 47 47 24 24 23 23 24 24 0 0 24 24 48 48 49 49 24 24 49 49 25 25 25 25 49 49 50 50 25 25 50 50 26 26 26 26 50 50 51 51 26 26 51 51 27 27 27 27 51 51 52 52 27 27 52 52 28 28 28 28 52 52 53 53 28 28 53 53 29 29 29 29 53 53 54 54 29 29 54 54 30 30 30 30 54 54 55 55 30 30 55 55 31 31 31 31 55 55 56 56 31 31 56 56 32 32 32 32 56 56 57 57 32 32 57 57 33 33 33 33 57 57 58 58 33 33 58 58 34 34 34 34 58 58 59 59 34 34 59 59 35 35 35 35 59 59 60 60 35 35 60 60 36 36 36 36 60 60 61 61 36 36 61 61 37 37 37 37 61 61 62 62 37 37 62 62 38 38 38 38 62 62 63 63 38 38 63 63 39 39 39 39 63 63 64 64 39 39 64 64 40 40 40 40 64 64 65 65 40 40 65 65 41 41 41 41 65 65 66 66 41 41 66 66 42 42 42 42 66 66 67 67 42 42 67 67 43 43 43 43 67 67 68 68 43 43 68 68 44 44 44 44 68 68 69 69 44 44 69 69 45 45 45 45 69 69 70 70 45 45 70 70 46 46 46 46 70 70 71 71 46 46 71 71 47 47 47 47 71 71 48 48 47 47 48 48 24 24 48 48 72 72 73 73 48 48 73 73 49 49 49 49 73 73 74 74 49 49 74 74 50 50 50 50 74 74 75 75 50 50 75 75 51 51 51 51 75 75 76 76 51 51 76 76 52 52 52 52 76 76 77 77 52 52 77 77 53 53 53 53 77 77 78 78 53 53 78 78 54 54 54 54 78 78 79 79 54 54 79 79 55 55 55 55 79 79 80 80 55 55 80 80 56 56 56 56 80 80 81 81 56 56 81 81 57 57 57 57 81 81 82 82 57 57 82 82 58 58 58 58 82 82 83 83 58 58 83 83 59 59 59 59 83 83 84 84 59 59 84 84 60 60 60 60 84 84 85 85 60 60 85 85 61 61 61 61 85 85 86 86 61 61 86 86 62 62 62 62 86 86 87 87 62 62 87 87 63 63 63 63 87 87 88 88 63 63 88 88 64 64 64 64 88 88 89 89 64 64 89 89 65 65 65 65 89 89 90 90 65 65 90 90 66 66 66 66 90 90 91 91 66 66 91 91 67 67 67 67 91 91 92 92 67 67 92 92 68 68 68 68 92 92 93 93 68 68 93 93 69 69 69 69 93 93 94 94 69 69 94 94 70 70 70 70 94 94 95 95 70 70 95 95 71 71 71 71 95 95 72 72 71 71 72 72 48 48 72 72 96 96 97 97 72 72 97 97 73 73 73 73 97 97 98 98 73 73 98 98 74 74 74 74 98 98 99 99 74 74 99 99 75 75 75 75 99 99 100 100 75 75 100 100 76 76 76 76 100 100 101 101 76 76 101 101 77 77 77 77 101 101 102 102 77 77 102 102 78 78 78 78 102 102 103 103 78 78 103 103 79 79 79 79 103 103 104 104 79 79 104 104 80 80 80 80 104 104 105 105 80 80 105 105 81 81 81 81 105 105 106 106 81 81 106 106 82 82 82 82 106 106 107 107 82 82 107 107 83 83 83 83 107 107 108 108 83 83 108 108 84 84 84 84 108 108 109 109 84 84 109 109 85 85 85 85 109 109 110 110 85 85 110 110 86 86 86 86 110 110 111 111 86 86 111 111 87 87 87 87 111 111 112 112 87 87 112 112 88 88 88 88 112 112 113 113 88 88 113 113 89 89 89 89 113 113 114 114 89 89 114 114 90 90 90 90 114 114 115 115 90 90 115 115 91 91 91 91 115 115 116 116 91 91 116 116 92 92 92 92 116 116 117 117 92 92 117 117 93 93 93 93 117 117 118 118 93 93 118 118 94 94 94 94 118 118 119 119 94 94 119 119 95 95 95 95 119 119 96 96 95 95 96 96 72 72 96 96 120 120 121 121 96 96 121 121 97 97 97 97 121 121 122 122 97 97 122 122 98 98 98 98 122 122 123 123 98 98 123 123 99 99 99 99 123 123 124 124 99 99 124 124 100 100 100 100 124 124 125 125 100 100 125 125 101 101 101 101 125 125 126 126 101 101 126 126 102 102 102 102 126 126 127 127 102 102 127 127 103 103 103 103 127 127 128 128 103 103 128 128 104 104 104 104 128 128 129 129 104 104 129 129 105 105 105 105 129 129 130 130 105 105 130 130 106 106 106 106 130 130 131 131 106 106 131 131 107 107 107 107 131 131 132 132 107 107 132 132 108 108 108 108 132 132 133 133 108 108 133 133 109 109 109 109 133 133 134 134 109 109 134 134 110 110 110 110 134 134 135 135 110 110 135 135 111 111 111 111 135 135 136 136 111 111 136 136 112 112 112 112 136 136 137 137 112 112 137 137 113 113 113 113 137 137 138 138 113 113 138 138 114 114 114 114 138 138 139 139 114 114 139 139 115 115 115 115 139 139 140 140 115 115 140 140 116 116 116 116 140 140 141 141 116 116 141 141 117 117 117 117 141 141 142 142 117 117 142 142 118 118 118 118 142 142 143 143 118 118 143 143 119 119 119 119 143 143 120 120 119 119 120 120 96 96 144 144 1 1 0 0 144 144 2 2 1 1 144 144 3 3 2 2 144 144 4 4 3 3 144 144 5 5 4 4 144 144 6 6 5 5 144 144 7 7 6 6 144 144 8 8 7 7 144 144 9 9 8 8 144 144 10 10 9 9 144 144 11 11 10 10 144 144 12 12 11 11 144 144 13 13 12 12 144 144 14 14 13 13 144 144 15 15 14 14 144 144 16 16 15 15 144 144 17 17 16 16 144 144 18 18 17 17 144 144 19 19 18 18 144 144 20 20 19 19 144 144 21 21 20 20 144 144 22 22 21 21 144 144 23 23 22 22 144 144 0 0 23 23 145 145 120 120 121 121 145 145 121 121 122 122 145 145 122 122 123 123 145 145 123 123 124 124 145 145 124 124 125 125 145 145 125 125 126 126 145 145 126 126 127 127 145 145 127 127 128 128 145 145 128 128 129 129 145 145 129 129 130 130 145 145 130 130 131 131 145 145 131 131 132 132 145 145 132 132 133 133 145 145 133 133 134 134 145 145 134 134 135 135 145 145 135 135 136 136 145 145 136 136 137 137 145 145 137 137 138 138 145 145 138 138 139 139 145 145 139 139 140 140 145 145 140 140 141 141 145 145 141 141 142 142 145 145 142 142 143 143 145 145 143 143 120 120 146 146 170 170 171 171 146 146 171 171 147 147 147 147 171 171 172 172 147 147 172 172 148 148 148 148 172 172 173 173 148 148 173 173 149 149 149 149 173 173 174 174 149 149 174 174 150 150 150 150 174 174 175 175 150 150 175 175 151 151 151 151 175 175 176 176 151 151 176 176 152 152 152 152 176 176 177 177 152 152 177 177 153 153 153 153 177 177 178 178 153 153 178 178 154 154 154 154 178 178 179 179 154 154 179 179 155 155 155 155 179 179 180 180 155 155 180 180 156 156 156 156 180 180 181 181 156 156 181 181 157 157 157 157 181 181 182 182 157 157 182 182 158 158 158 158 182 182 183 183 158 158 183 183 159 159 159 159 183 183 184 184 159 159 184 184 160 160 160 160 184 184 185 185 160 160 185 185 161 161 161 161 185 185 186 186 161 161 186 186 162 162 162 162 186 186 187 187 162 162 187 187 163 163 163 163 187 187 188 188 163 163 188 188 164 164 164 164 188 188 189 189 164 164 189 189 165 165 165 165 189 189 190 190 165 165 190 190 166 166 166 166 190 190 191 191 166 166 191 191 167 167 167 167 191 191 192 192 167 167 192 192 168 168 168 168 192 192 193 193 168 168 193 193 169 169 169 169 193 193 170 170 169 169 170 170 146 146 194 194 170 170 171 171 194 194 171 171 172 172 194 194 172 172 173 173 194 194 173 173 174 174 194 194 174 174 175 175 194 194 175 175 176 176 194 194 176 176 177 177 194 194 177 177 178 178 194 194 178 178 179 179 194 194 179 179 180 180 194 194 180 180 181 181 194 194 181 181 182 182 194 194 182 182 183 183 194 194 183 183 184 184 194 194 184 184 185 185 194 194 185 185 186 186 194 194 186 186 187 187 194 194 187 187 188 188 194 194 188 188 189 189 194 194 189 189 190 190 194 194 190 190 191 191 194 194 191 191 192 192 194 194 192 192 193 193 194 194 193 193 170 170 195 195 219 219 220 220 195 195 220 220 196 196 196 196 220 220 221 221 196 196 221 221 197 197 197 197 221 221 222 222 197 197 222 222 198 198 198 198 222 222 223 223 198 198 223 223 199 199 199 199 223 223 224 224 199 199 224 224 200 200 200 200 224 224 225 225 200 200 225 225 201 201 201 201 225 225 226 226 201 201 226 226 202 202 202 202 226 226 227 227 202 202 227 227 203 203 203 203 227 227 228 228 203 203 228 228 204 204 204 204 228 228 229 229 204 204 229 229 205 205 205 205 229 229 230 230 205 205 230 230 206 206 206 206 230 230 231 231 206 206 231 231 207 207 207 207 231 231 232 232 207 207 232 232 208 208 208 208 232 232 233 233 208 208 233 233 209 209 209 209 233 233 234 234 209 209 234 234 210 210 210 210 234 234 235 235 210 210 235 235 211 211 211 211 235 235 236 236 211 211 236 236 212 212 212 212 236 236 237 237 212 212 237 237 213 213 213 213 237 237 238 238 213 213 238 238 214 214 214 214 238 238 239 239 214 214 239 239 215 215 215 215 239 239 240 240 215 215 240 240 216 216 216 216 240 240 241 241 216 216 241 241 217 217 217 217 241 241 242 242 217 217 242 242 218 218 218 218 242 242 219 219 218 218 219 219 195 195 243 243 219 219 220 220 243 243 220 220 221 221 243 243 221 221 222 222 243 243 222 222 223 223 243 243 223 223 224 224 243 243 224 224 225 225 243 243 225 225 226 226 243 243 226 226 227 227 243 243 227 227 228 228 243 243 228 228 229 229 243 243 229 229 230 230 243 243 230 230 231 231 243 243 231 231 232 232 243 243 232 232 233 233 243 243 233 233 234 234 243 243 234 234 235 235 243 243 235 235 236 236 243 243 236 236 237 237 243 243 237 237 238 238 243 243 238 238 239 239 243 243 239 239 240 240 243 243 240 240 241 241 243 243 241 241 242 242 243 243 242 242 219 219</p>
        </triangles>
      </mesh>
    </geometry>
  </library_geometries>
  <library_visual_scenes>
    <visual_scene id="Scene" name="Scene">
      <node id="snorkel_small_v4" name="snorkel_small_v4" type="NODE">
        <matrix sid="transform">1 0 0 0 0 1 0 0 0 0 1 0 0 0 0 1</matrix>
        <instance_geometry url="#snorkel_small_v4-mesh" name="snorkel_small_v4">
          <bind_material><technique_common>
            <instance_material symbol="snorkel_black" target="#snorkel_black-material"/>
          </technique_common></bind_material>
        </instance_geometry>
      </node>
      <node id="snorkel_medium_v4" name="snorkel_medium_v4" type="NODE">
        <matrix sid="transform">1 0 0 0 0 1 0 0 0 0 1 0 0 0 0 1</matrix>
        <instance_geometry url="#snorkel_medium_v4-mesh" name="snorkel_medium_v4">
          <bind_material><technique_common>
            <instance_material symbol="snorkel_black" target="#snorkel_black-material"/>
          </technique_common></bind_material>
        </instance_geometry>
      </node>
      <node id="snorkel_tall_v4" name="snorkel_tall_v4" type="NODE">
        <matrix sid="transform">1 0 0 0 0 1 0 0 0 0 1 0 0 0 0 1</matrix>
        <instance_geometry url="#snorkel_tall_v4-mesh" name="snorkel_tall_v4">
          <bind_material><technique_common>
            <instance_material symbol="snorkel_black" target="#snorkel_black-material"/>
          </technique_common></bind_material>
        </instance_geometry>
      </node>
    </visual_scene>
  </library_visual_scenes>
  <scene><instance_visual_scene url="#Scene"/></scene>
</COLLADA>
