<?xml version="1.0" encoding="utf-8"?>
<COLLADA xmlns="http://www.collada.org/2005/11/COLLADASchema" version="1.4.1">
  <asset>
    <contributor><authoring_tool>generate_snorkel_dae.py</authoring_tool></contributor>
    <unit name="meter" meter="1"/>
    <up_axis>Z_UP</up_axis>
  </asset>
  <library_effects>
    <effect id="snorkel_black-effect">
      <profile_COMMON><technique sid="common"><phong>
        <diffuse><color sid="diffuse">0.03 0.03 0.03 1</color></diffuse>
        <specular><color sid="specular">0.15 0.15 0.15 1</color></specular>
        <shininess><float sid="shininess">25</float></shininess>
      </phong></technique></profile_COMMON>
    </effect>
  </library_effects>
  <library_materials>
    <material id="snorkel_black-material" name="snorkel_black">
      <instance_effect url="#snorkel_black-effect"/>
    </material>
  </library_materials>
  <library_geometries>
    <geometry id="snorkel_small-mesh" name="snorkel_small">
      <mesh>
        <source id="snorkel_small-pos">
          <float_array id="snorkel_small-pos-array" count="618">-0.90000 -1.15046 0.92910 -0.91240 -1.15465 0.93023 -0.92359 -1.15936 0.93526 -0.93247 -1.16414 0.94368 -0.93817 -1.16851 0.95469 -0.94013 -1.17205 0.96719 -0.93817 -1.17441 0.97996 -0.93247 -1.17536 0.99177 -0.92359 -1.17481 1.00144 -0.91240 -1.17280 1.00803 -0.90000 -1.16954 1.01090 -0.88760 -1.16535 1.00977 -0.87641 -1.16064 1.00474 -0.86753 -1.15586 0.99632 -0.86183 -1.15149 0.98531 -0.85987 -1.14795 0.97281 -0.86183 -1.14559 0.96004 -0.86753 -1.14464 0.94823 -0.87641 -1.14519 0.93856 -0.88760 -1.14720 0.93197 -0.99500 -0.84853 0.99960 -1.00783 -0.85096 1.00104 -1.01941 -0.85427 1.00631 -1.02860 -0.85814 1.01487 -1.03450 -0.86219 1.02589 -1.03653 -0.86603 1.03829 -1.03450 -0.86928 1.05086 -1.02860 -0.87162 1.06237 -1.01941 -0.87282 1.07168 -1.00783 -0.87277 1.07790 -0.99500 -0.87147 1.08040 -0.98217 -0.86904 1.07896 -0.97059 -0.86573 1.07369 -0.96140 -0.86186 1.06513 -0.95550 -0.85781 1.05411 -0.95347 -0.85397 1.04171 -0.95550 -0.85072 1.02914 -0.96140 -0.84838 1.01763 -0.97059 -0.84718 1.00832 -0.98217 -0.84723 1.00210 -0.99500 -0.71166 1.04901 -1.00798 -0.71304 1.05052 -1.01969 -0.71707 1.05492 -1.02898 -0.72334 1.06178 -1.03494 -0.73124 1.07042 -1.03700 -0.74000 1.08000 -1.03494 -0.74876 1.08958 -1.02898 -0.75666 1.09822 -1.01969 -0.76293 1.10508 -1.00798 -0.76696 1.10948 -0.99500 -0.76834 1.11099 -0.98202 -0.76696 1.10948 -0.97031 -0.76293 1.10508 -0.96102 -0.75666 1.09822 -0.95506 -0.74876 1.08958 -0.95300 -0.74000 1.08000 -0.95506 -0.73124 1.07042 -0.96102 -0.72334 1.06178 -0.97031 -0.71707 1.05492 -0.98202 -0.71304 1.05052 -0.99500 -0.63176 1.22322 -1.00798 -0.63364 1.22404 -1.01969 -0.63911 1.22642 -1.02898 -0.64763 1.23014 -1.03494 -0.65836 1.23481 -1.03700 -0.67026 1.24000 -1.03494 -0.68215 1.24519 -1.02898 -0.69289 1.24986 -1.01969 -0.70140 1.25358 -1.00798 -0.70687 1.25596 -0.99500 -0.70876 1.25678 -0.98202 -0.70687 1.25596 -0.97031 -0.70140 1.25358 -0.96102 -0.69289 1.24986 -0.95506 -0.68215 1.24519 -0.95300 -0.67026 1.24000 -0.95506 -0.65836 1.23481 -0.96102 -0.64763 1.23014 -0.97031 -0.63911 1.22642 -0.98202 -0.63364 1.22404 -0.90000 -1.16000 0.97000 -0.99500 -0.67026 1.24000 -0.99500 -0.63488 1.29470 -1.01416 -0.63567 1.29177 -1.03144 -0.63795 1.28327 -1.04516 -0.64150 1.27002 -1.05397 -0.64597 1.25333 -1.05700 -0.65094 1.23482 -1.05397 -0.65590 1.21631 -1.04516 -0.66037 1.19962 -1.03144 -0.66393 1.18637 -1.01416 -0.66621 1.17787 -0.99500 -0.66699 1.17494 -0.97584 -0.66621 1.17787 -0.95856 -0.66393 1.18637 -0.94484 -0.66037 1.19962 -0.93603 -0.65590 1.21631 -0.93300 -0.65094 1.23482 -0.93603 -0.64597 1.25333 -0.94484 -0.64150 1.27002 -0.95856 -0.63795 1.28327 -0.97584 -0.63567 1.29177 -0.99500 -0.81842 1.34391 -1.01416 -0.81921 1.34098 -1.03144 -0.82149 1.33248 -1.04516 -0.82504 1.31923 -1.05397 -0.82951 1.30254 -1.05700 -0.83448 1.28403 -1.05397 -0.83944 1.26552 -1.04516 -0.84391 1.24883 -1.03144 -0.84747 1.23558 -1.01416 -0.84975 1.22708 -0.99500 -0.85053 1.22415 -0.97584 -0.84975 1.22708 -0.95856 -0.84747 1.23558 -0.94484 -0.84391 1.24883 -0.93603 -0.83944 1.26552 -0.93300 -0.83448 1.28403 -0.93603 -0.82951 1.30254 -0.94484 -0.82504 1.31923 -0.95856 -0.82149 1.33248 -0.97584 -0.81921 1.34098 -0.99500 -0.65094 1.23482 -0.99500 -0.83448 1.28403 -0.99500 -0.72256 1.13600 -0.99500 -0.72751 1.13522 -0.99500 -0.73197 1.13294 -0.99500 -0.73551 1.12940 -0.99500 -0.73778 1.12494 -0.99500 -0.73856 1.12000 -0.99500 -0.73778 1.11506 -0.99500 -0.73551 1.11060 -0.99500 -0.73197 1.10706 -0.99500 -0.72751 1.10478 -0.99500 -0.72256 1.10400 -0.99500 -0.71762 1.10478 -0.99500 -0.71316 1.10706 -0.99500 -0.70962 1.11060 -0.99500 -0.70735 1.11506 -0.99500 -0.70656 1.12000 -0.99500 -0.70735 1.12494 -0.99500 -0.70962 1.12940 -0.99500 -0.71316 1.13294 -0.99500 -0.71762 1.13522 -0.91000 -0.72256 1.13600 -0.91000 -0.72751 1.13522 -0.91000 -0.73197 1.13294 -0.91000 -0.73551 1.12940 -0.91000 -0.73778 1.12494 -0.91000 -0.73856 1.12000 -0.91000 -0.73778 1.11506 -0.91000 -0.73551 1.11060 -0.91000 -0.73197 1.10706 -0.91000 -0.72751 1.10478 -0.91000 -0.72256 1.10400 -0.91000 -0.71762 1.10478 -0.91000 -0.71316 1.10706 -0.91000 -0.70962 1.11060 -0.91000 -0.70735 1.11506 -0.91000 -0.70656 1.12000 -0.91000 -0.70735 1.12494 -0.91000 -0.70962 1.12940 -0.91000 -0.71316 1.13294 -0.91000 -0.71762 1.13522 -0.91000 -0.72256 1.12000 -0.99500 -0.68769 1.21600 -0.99500 -0.69264 1.21522 -0.99500 -0.69710 1.21294 -0.99500 -0.70064 1.20940 -0.99500 -0.70291 1.20494 -0.99500 -0.70369 1.20000 -0.99500 -0.70291 1.19506 -0.99500 -0.70064 1.19060 -0.99500 -0.69710 1.18706 -0.99500 -0.69264 1.18478 -0.99500 -0.68769 1.18400 -0.99500 -0.68275 1.18478 -0.99500 -0.67829 1.18706 -0.99500 -0.67475 1.19060 -0.99500 -0.67248 1.19506 -0.99500 -0.67169 1.20000 -0.99500 -0.67248 1.20494 -0.99500 -0.67475 1.20940 -0.99500 -0.67829 1.21294 -0.99500 -0.68275 1.21522 -0.91000 -0.68769 1.21600 -0.91000 -0.69264 1.21522 -0.91000 -0.69710 1.21294 -0.91000 -0.70064 1.20940 -0.91000 -0.70291 1.20494 -0.91000 -0.70369 1.20000 -0.91000 -0.70291 1.19506 -0.91000 -0.70064 1.19060 -0.91000 -0.69710 1.18706 -0.91000 -0.69264 1.18478 -0.91000 -0.68769 1.18400 -0.91000 -0.68275 1.18478 -0.91000 -0.67829 1.18706 -0.91000 -0.67475 1.19060 -0.91000 -0.67248 1.19506 -0.91000 -0.67169 1.20000 -0.91000 -0.67248 1.20494 -0.91000 -0.67475 1.20940 -0.91000 -0.67829 1.21294 -0.91000 -0.68275 1.21522 -0.91000 -0.68769 1.20000</float_array>
          <technique_common>
            <accessor source="#snorkel_small-pos-array" count="206" stride="3">
              <param name="X" type="float"/><param name="Y" type="float"/><param name="Z" type="float"/>
            </accessor>
          </technique_common>
        </source>
        <source id="snorkel_small-nrm">
          <float_array id="snorkel_small-nrm-array" count="618">0.00000 0.22723 -0.97384 -0.29529 0.12743 -0.94687 -0.56168 0.01515 -0.82721 -0.77309 -0.09861 -0.62658 -0.90882 -0.20272 -0.36462 -0.95559 -0.28698 -0.06696 -0.90882 -0.34315 0.23725 -0.77309 -0.36573 0.51824 -0.56168 -0.35252 0.74849 -0.29529 -0.30479 0.90549 -0.00000 -0.22723 0.97384 0.29529 -0.12743 0.94687 0.56168 -0.01515 0.82721 0.77309 0.09861 0.62658 0.90882 0.20272 0.36462 0.95559 0.28698 0.06696 0.90882 0.34315 -0.23725 0.77309 0.36573 -0.51824 0.56168 0.35252 -0.74849 0.29529 0.30479 -0.90549 0.00000 0.27303 -0.96201 -0.30556 0.21533 -0.92751 -0.58121 0.13654 -0.80222 -0.79997 0.04439 -0.59840 -0.94042 -0.05210 -0.33601 -0.98881 -0.14350 -0.04073 -0.94042 -0.22084 0.25854 -0.79997 -0.27657 0.53250 -0.58121 -0.30523 0.75434 -0.30556 -0.30401 0.90234 -0.00000 -0.27303 0.96201 0.30556 -0.21533 0.92751 0.58121 -0.13654 0.80222 0.79997 -0.04439 0.59840 0.94042 0.05210 0.33601 0.98881 0.14350 0.04073 0.94042 0.22084 -0.25854 0.79997 0.27657 -0.53250 0.58121 0.30523 -0.75434 0.30556 0.30401 -0.90234 0.00000 0.67484 -0.73797 -0.30902 0.64181 -0.70185 -0.58779 0.54595 -0.59703 -0.80902 0.39666 -0.43377 -0.95106 0.20854 -0.22804 -1.00000 0.00000 -0.00000 -0.95106 -0.20854 0.22804 -0.80902 -0.39666 0.43377 -0.58779 -0.54595 0.59703 -0.30902 -0.64181 0.70185 -0.00000 -0.67484 0.73797 0.30902 -0.64181 0.70185 0.58779 -0.54595 0.59703 0.80902 -0.39666 0.43377 0.95106 -0.20854 0.22804 1.00000 -0.00000 0.00000 0.95106 0.20854 -0.22804 0.80902 0.39666 -0.43377 0.58779 0.54595 -0.59703 0.30902 0.64181 -0.70185 0.00000 0.91670 -0.39959 -0.30902 0.87183 -0.38003 -0.58779 0.74162 -0.32327 -0.80902 0.53882 -0.23487 -0.95106 0.28327 -0.12348 -1.00000 0.00000 -0.00000 -0.95106 -0.28327 0.12348 -0.80902 -0.53882 0.23487 -0.58779 -0.74162 0.32327 -0.30902 -0.87183 0.38003 -0.00000 -0.91670 0.39959 0.30902 -0.87183 0.38003 0.58779 -0.74162 0.32327 0.80902 -0.53882 0.23487 0.95106 -0.28327 0.12348 1.00000 -0.00000 0.00000 0.95106 0.28327 -0.12348 0.80902 0.53882 -0.23487 0.58779 0.74162 -0.32327 0.30902 0.87183 -0.38003 0.29469 -0.93060 -0.21714 0.00000 0.39959 0.91670 -0.00000 0.25897 0.96589 -0.30902 0.24629 0.91861 -0.58779 0.20951 0.78142 -0.80902 0.15222 0.56773 -0.95106 0.08003 0.29848 -1.00000 0.00000 0.00000 -0.95106 -0.08003 -0.29848 -0.80902 -0.15222 -0.56773 -0.58779 -0.20951 -0.78142 -0.30902 -0.24629 -0.91861 -0.00000 -0.25897 -0.96589 0.30902 -0.24629 -0.91861 0.58779 -0.20951 -0.78142 0.80902 -0.15222 -0.56773 0.95106 -0.08003 -0.29848 1.00000 -0.00000 -0.00000 0.95106 0.08003 0.29848 0.80902 0.15222 0.56773 0.58779 0.20951 0.78142 0.30902 0.24629 0.91861 -0.00000 0.25897 0.96589 -0.30902 0.24629 0.91861 -0.58779 0.20951 0.78142 -0.80902 0.15222 0.56773 -0.95106 0.08003 0.29848 -1.00000 0.00000 0.00000 -0.95106 -0.08003 -0.29848 -0.80902 -0.15222 -0.56773 -0.58779 -0.20951 -0.78142 -0.30902 -0.24629 -0.91861 -0.00000 -0.25897 -0.96589 0.30902 -0.24629 -0.91861 0.58779 -0.20951 -0.78142 0.80902 -0.15222 -0.56773 0.95106 -0.08003 -0.29848 1.00000 -0.00000 -0.00000 0.95106 0.08003 0.29848 0.80902 0.15222 0.56773 0.58779 0.20951 0.78142 0.30902 0.24629 0.91861 -0.00000 0.96589 -0.25897 0.00000 -0.96589 0.25897 0.00000 0.00000 1.00000 0.00000 -0.30902 0.95106 0.00000 -0.58779 0.80902 0.00000 -0.80902 0.58779 0.00000 -0.95106 0.30902 0.00000 -1.00000 0.00000 0.00000 -0.95106 -0.30902 0.00000 -0.80902 -0.58779 0.00000 -0.58779 -0.80902 0.00000 -0.30902 -0.95106 0.00000 -0.00000 -1.00000 -0.00000 0.30902 -0.95106 -0.00000 0.58779 -0.80902 -0.00000 0.80902 -0.58779 -0.00000 0.95106 -0.30902 -0.00000 1.00000 -0.00000 0.00000 0.95106 0.30902 0.00000 0.80902 0.58779 0.00000 0.58779 0.80902 0.00000 0.30902 0.95106 0.00000 0.00000 1.00000 0.00000 -0.30902 0.95106 0.00000 -0.58779 0.80902 0.00000 -0.80902 0.58779 0.00000 -0.95106 0.30902 0.00000 -1.00000 0.00000 0.00000 -0.95106 -0.30902 0.00000 -0.80902 -0.58779 0.00000 -0.58779 -0.80902 0.00000 -0.30902 -0.95106 0.00000 -0.00000 -1.00000 -0.00000 0.30902 -0.95106 -0.00000 0.58779 -0.80902 -0.00000 0.80902 -0.58779 -0.00000 0.95106 -0.30902 -0.00000 1.00000 -0.00000 0.00000 0.95106 0.30902 0.00000 0.80902 0.58779 0.00000 0.58779 0.80902 0.00000 0.30902 0.95106 1.00000 0.00000 0.00000 0.00000 0.00000 1.00000 0.00000 -0.30902 0.95106 0.00000 -0.58779 0.80902 0.00000 -0.80902 0.58779 0.00000 -0.95106 0.30902 0.00000 -1.00000 0.00000 0.00000 -0.95106 -0.30902 0.00000 -0.80902 -0.58779 0.00000 -0.58779 -0.80902 0.00000 -0.30902 -0.95106 0.00000 -0.00000 -1.00000 -0.00000 0.30902 -0.95106 -0.00000 0.58779 -0.80902 -0.00000 0.80902 -0.58779 -0.00000 0.95106 -0.30902 -0.00000 1.00000 -0.00000 0.00000 0.95106 0.30902 0.00000 0.80902 0.58779 0.00000 0.58779 0.80902 0.00000 0.30902 0.95106 0.00000 0.00000 1.00000 0.00000 -0.30902 0.95106 0.00000 -0.58779 0.80902 0.00000 -0.80902 0.58779 0.00000 -0.95106 0.30902 0.00000 -1.00000 0.00000 0.00000 -0.95106 -0.30902 0.00000 -0.80902 -0.58779 0.00000 -0.58779 -0.80902 0.00000 -0.30902 -0.95106 0.00000 -0.00000 -1.00000 -0.00000 0.30902 -0.95106 -0.00000 0.58779 -0.80902 -0.00000 0.80902 -0.58779 -0.00000 0.95106 -0.30902 -0.00000 1.00000 -0.00000 0.00000 0.95106 0.30902 0.00000 0.80902 0.58779 0.00000 0.58779 0.80902 0.00000 0.30902 0.95106 1.00000 0.00000 0.00000</float_array>
          <technique_common>
            <accessor source="#snorkel_small-nrm-array" count="206" stride="3">
              <param name="X" type="float"/><param name="Y" type="float"/><param name="Z" type="float"/>
            </accessor>
          </technique_common>
        </source>
        <vertices id="snorkel_small-vtx"><input semantic="POSITION" source="#snorkel_small-pos"/></vertices>
        <triangles material="snorkel_black" count="360">
          <input semantic="VERTEX" source="#snorkel_small-vtx" offset="0"/>
          <input semantic="NORMAL" source="#snorkel_small-nrm" offset="1"/>
          <p>0 0 20 20 21 21 0 0 21 21 1 1 1 1 21 21 22 22 1 1 22 22 2 2 2 2 22 22 23 23 2 2 23 23 3 3 3 3 23 23 24 24 3 3 24 24 4 4 4 4 24 24 25 25 4 4 25 25 5 5 5 5 25 25 26 26 5 5 26 26 6 6 6 6 26 26 27 27 6 6 27 27 7 7 7 7 27 27 28 28 7 7 28 28 8 8 8 8 28 28 29 29 8 8 29 29 9 9 9 9 29 29 30 30 9 9 30 30 10 10 10 10 30 30 31 31 10 10 31 31 11 11 11 11 31 31 32 32 11 11 32 32 12 12 12 12 32 32 33 33 12 12 33 33 13 13 13 13 33 33 34 34 13 13 34 34 14 14 14 14 34 34 35 35 14 14 35 35 15 15 15 15 35 35 36 36 15 15 36 36 16 16 16 16 36 36 37 37 16 16 37 37 17 17 17 17 37 37 38 38 17 17 38 38 18 18 18 18 38 38 39 39 18 18 39 39 19 19 19 19 39 39 20 20 19 19 20 20 0 0 20 20 40 40 41 41 20 20 41 41 21 21 21 21 41 41 42 42 21 21 42 42 22 22 22 22 42 42 43 43 22 22 43 43 23 23 23 23 43 43 44 44 23 23 44 44 24 24 24 24 44 44 45 45 24 24 45 45 25 25 25 25 45 45 46 46 25 25 46 46 26 26 26 26 46 46 47 47 26 26 47 47 27 27 27 27 47 47 48 48 27 27 48 48 28 28 28 28 48 48 49 49 28 28 49 49 29 29 29 29 49 49 50 50 29 29 50 50 30 30 30 30 50 50 51 51 30 30 51 51 31 31 31 31 51 51 52 52 31 31 52 52 32 32 32 32 52 52 53 53 32 32 53 53 33 33 33 33 53 53 54 54 33 33 54 54 34 34 34 34 54 54 55 55 34 34 55 55 35 35 35 35 55 55 56 56 35 35 56 56 36 36 36 36 56 56 57 57 36 36 57 57 37 37 37 37 57 57 58 58 37 37 58 58 38 38 38 38 58 58 59 59 38 38 59 59 39 39 39 39 59 59 40 40 39 39 40 40 20 20 40 40 60 60 61 61 40 40 61 61 41 41 41 41 61 61 62 62 41 41 62 62 42 42 42 42 62 62 63 63 42 42 63 63 43 43 43 43 63 63 64 64 43 43 64 64 44 44 44 44 64 64 65 65 44 44 65 65 45 45 45 45 65 65 66 66 45 45 66 66 46 46 46 46 66 66 67 67 46 46 67 67 47 47 47 47 67 67 68 68 47 47 68 68 48 48 48 48 68 68 69 69 48 48 69 69 49 49 49 49 69 69 70 70 49 49 70 70 50 50 50 50 70 70 71 71 50 50 71 71 51 51 51 51 71 71 72 72 51 51 72 72 52 52 52 52 72 72 73 73 52 52 73 73 53 53 53 53 73 73 74 74 53 53 74 74 54 54 54 54 74 74 75 75 54 54 75 75 55 55 55 55 75 75 76 76 55 55 76 76 56 56 56 56 76 76 77 77 56 56 77 77 57 57 57 57 77 77 78 78 57 57 78 78 58 58 58 58 78 78 79 79 58 58 79 79 59 59 59 59 79 79 60 60 59 59 60 60 40 40 80 80 1 1 0 0 80 80 2 2 1 1 80 80 3 3 2 2 80 80 4 4 3 3 80 80 5 5 4 4 80 80 6 6 5 5 80 80 7 7 6 6 80 80 8 8 7 7 80 80 9 9 8 8 80 80 10 10 9 9 80 80 11 11 10 10 80 80 12 12 11 11 80 80 13 13 12 12 80 80 14 14 13 13 80 80 15 15 14 14 80 80 16 16 15 15 80 80 17 17 16 16 80 80 18 18 17 17 80 80 19 19 18 18 80 80 0 0 19 19 81 81 60 60 61 61 81 81 61 61 62 62 81 81 62 62 63 63 81 81 63 63 64 64 81 81 64 64 65 65 81 81 65 65 66 66 81 81 66 66 67 67 81 81 67 67 68 68 81 81 68 68 69 69 81 81 69 69 70 70 81 81 70 70 71 71 81 81 71 71 72 72 81 81 72 72 73 73 81 81 73 73 74 74 81 81 74 74 75 75 81 81 75 75 76 76 81 81 76 76 77 77 81 81 77 77 78 78 81 81 78 78 79 79 81 81 79 79 60 60 82 82 102 102 103 103 82 82 103 103 83 83 83 83 103 103 104 104 83 83 104 104 84 84 84 84 104 104 105 105 84 84 105 105 85 85 85 85 105 105 106 106 85 85 106 106 86 86 86 86 106 106 107 107 86 86 107 107 87 87 87 87 107 107 108 108 87 87 108 108 88 88 88 88 108 108 109 109 88 88 109 109 89 89 89 89 109 109 110 110 89 89 110 110 90 90 90 90 110 110 111 111 90 90 111 111 91 91 91 91 111 111 112 112 91 91 112 112 92 92 92 92 112 112 113 113 92 92 113 113 93 93 93 93 113 113 114 114 93 93 114 114 94 94 94 94 114 114 115 115 94 94 115 115 95 95 95 95 115 115 116 116 95 95 116 116 96 96 96 96 116 116 117 117 96 96 117 117 97 97 97 97 117 117 118 118 97 97 118 118 98 98 98 98 118 118 119 119 98 98 119 119 99 99 99 99 119 119 120 120 99 99 120 120 100 100 100 100 120 120 121 121 100 100 121 121 101 101 101 101 121 121 102 102 101 101 102 102 82 82 122 122 83 83 82 82 122 122 84 84 83 83 122 122 85 85 84 84 122 122 86 86 85 85 122 122 87 87 86 86 122 122 88 88 87 87 122 122 89 89 88 88 122 122 90 90 89 89 122 122 91 91 90 90 122 122 92 92 91 91 122 122 93 93 92 92 122 122 94 94 93 93 122 122 95 95 94 94 122 122 96 96 95 95 122 122 97 97 96 96 122 122 98 98 97 97 122 122 99 99 98 98 122 122 100 100 99 99 122 122 101 101 100 100 122 122 82 82 101 101 123 123 102 102 103 103 123 123 103 103 104 104 123 123 104 104 105 105 123 123 105 105 106 106 123 123 106 106 107 107 123 123 107 107 108 108 123 123 108 108 109 109 123 123 109 109 110 110 123 123 110 110 111 111 123 123 111 111 112 112 123 123 112 112 113 113 123 123 113 113 114 114 123 123 114 114 115 115 123 123 115 115 116 116 123 123 116 116 117 117 123 123 117 117 118 118 123 123 118 118 119 119 123 123 119 119 120 120 123 123 120 120 121 121 123 123 121 121 102 102 124 124 144 144 145 145 124 124 145 145 125 125 125 125 145 145 146 146 125 125 146 146 126 126 126 126 146 146 147 147 126 126 147 147 127 127 127 127 147 147 148 148 127 127 148 148 128 128 128 128 148 148 149 149 128 128 149 149 129 129 129 129 149 149 150 150 129 129 150 150 130 130 130 130 150 150 151 151 130 130 151 151 131 131 131 131 151 151 152 152 131 131 152 152 132 132 132 132 152 152 153 153 132 132 153 153 133 133 133 133 153 153 154 154 133 133 154 154 134 134 134 134 154 154 155 155 134 134 155 155 135 135 135 135 155 155 156 156 135 135 156 156 136 136 136 136 156 156 157 157 136 136 157 157 137 137 137 137 157 157 158 158 137 137 158 158 138 138 138 138 158 158 159 159 138 138 159 159 139 139 139 139 159 159 160 160 139 139 160 160 140 140 140 140 160 160 161 161 140 140 161 161 141 141 141 141 161 161 162 162 141 141 162 162 142 142 142 142 162 162 163 163 142 142 163 163 143 143 143 143 163 163 144 144 143 143 144 144 124 124 164 164 144 144 145 145 164 164 145 145 146 146 164 164 146 146 147 147 164 164 147 147 148 148 164 164 148 148 149 149 164 164 149 149 150 150 164 164 150 150 151 151 164 164 151 151 152 152 164 164 152 152 153 153 164 164 153 153 154 154 164 164 154 154 155 155 164 164 155 155 156 156 164 164 156 156 157 157 164 164 157 157 158 158 164 164 158 158 159 159 164 164 159 159 160 160 164 164 160 160 161 161 164 164 161 161 162 162 164 164 162 162 163 163 164 164 163 163 144 144 165 165 185 185 186 186 165 165 186 186 166 166 166 166 186 186 187 187 166 166 187 187 167 167 167 167 187 187 188 188 167 167 188 188 168 168 168 168 188 188 189 189 168 168 189 189 169 169 169 169 189 189 190 190 169 169 190 190 170 170 170 170 190 190 191 191 170 170 191 191 171 171 171 171 191 191 192 192 171 171 192 192 172 172 172 172 192 192 193 193 172 172 193 193 173 173 173 173 193 193 194 194 173 173 194 194 174 174 174 174 194 194 195 195 174 174 195 195 175 175 175 175 195 195 196 196 175 175 196 196 176 176 176 176 196 196 197 197 176 176 197 197 177 177 177 177 197 197 198 198 177 177 198 198 178 178 178 178 198 198 199 199 178 178 199 199 179 179 179 179 199 199 200 200 179 179 200 200 180 180 180 180 200 200 201 201 180 180 201 201 181 181 181 181 201 201 202 202 181 181 202 202 182 182 182 182 202 202 203 203 182 182 203 203 183 183 183 183 203 203 204 204 183 183 204 204 184 184 184 184 204 204 185 185 184 184 185 185 165 165 205 205 185 185 186 186 205 205 186 186 187 187 205 205 187 187 188 188 205 205 188 188 189 189 205 205 189 189 190 190 205 205 190 190 191 191 205 205 191 191 192 192 205 205 192 192 193 193 205 205 193 193 194 194 205 205 194 194 195 195 205 205 195 195 196 196 205 205 196 196 197 197 205 205 197 197 198 198 205 205 198 198 199 199 205 205 199 199 200 200 205 205 200 200 201 201 205 205 201 201 202 202 205 205 202 202 203 203 205 205 203 203 204 204 205 205 204 204 185 185</p>
        </triangles>
      </mesh>
    </geometry>
    <geometry id="snorkel_medium-mesh" name="snorkel_medium">
      <mesh>
        <source id="snorkel_medium-pos">
          <float_array id="snorkel_medium-pos-array" count="618">-0.90000 -1.15046 0.92910 -0.91240 -1.15465 0.93023 -0.92359 -1.15936 0.93526 -0.93247 -1.16414 0.94368 -0.93817 -1.16851 0.95469 -0.94013 -1.17205 0.96719 -0.93817 -1.17441 0.97996 -0.93247 -1.17536 0.99177 -0.92359 -1.17481 1.00144 -0.91240 -1.17280 1.00803 -0.90000 -1.16954 1.01090 -0.88760 -1.16535 1.00977 -0.87641 -1.16064 1.00474 -0.86753 -1.15586 0.99632 -0.86183 -1.15149 0.98531 -0.85987 -1.14795 0.97281 -0.86183 -1.14559 0.96004 -0.86753 -1.14464 0.94823 -0.87641 -1.14519 0.93856 -0.88760 -1.14720 0.93197 -0.99500 -0.84853 0.99960 -1.00783 -0.85096 1.00104 -1.01941 -0.85427 1.00631 -1.02860 -0.85814 1.01487 -1.03450 -0.86219 1.02589 -1.03653 -0.86603 1.03829 -1.03450 -0.86928 1.05086 -1.02860 -0.87162 1.06237 -1.01941 -0.87282 1.07168 -1.00783 -0.87277 1.07790 -0.99500 -0.87147 1.08040 -0.98217 -0.86904 1.07896 -0.97059 -0.86573 1.07369 -0.96140 -0.86186 1.06513 -0.95550 -0.85781 1.05411 -0.95347 -0.85397 1.04171 -0.95550 -0.85072 1.02914 -0.96140 -0.84838 1.01763 -0.97059 -0.84718 1.00832 -0.98217 -0.84723 1.00210 -0.99500 -0.71166 1.04901 -1.00798 -0.71304 1.05052 -1.01969 -0.71707 1.05492 -1.02898 -0.72334 1.06178 -1.03494 -0.73124 1.07042 -1.03700 -0.74000 1.08000 -1.03494 -0.74876 1.08958 -1.02898 -0.75666 1.09822 -1.01969 -0.76293 1.10508 -1.00798 -0.76696 1.10948 -0.99500 -0.76834 1.11099 -0.98202 -0.76696 1.10948 -0.97031 -0.76293 1.10508 -0.96102 -0.75666 1.09822 -0.95506 -0.74876 1.08958 -0.95300 -0.74000 1.08000 -0.95506 -0.73124 1.07042 -0.96102 -0.72334 1.06178 -0.97031 -0.71707 1.05492 -0.98202 -0.71304 1.05052 -0.99500 -0.50099 1.52322 -1.00798 -0.50287 1.52404 -1.01969 -0.50834 1.52642 -1.02898 -0.51686 1.53014 -1.03494 -0.52759 1.53481 -1.03700 -0.53949 1.54000 -1.03494 -0.55138 1.54519 -1.02898 -0.56212 1.54986 -1.01969 -0.57064 1.55358 -1.00798 -0.57610 1.55596 -0.99500 -0.57799 1.55678 -0.98202 -0.57610 1.55596 -0.97031 -0.57064 1.55358 -0.96102 -0.56212 1.54986 -0.95506 -0.55138 1.54519 -0.95300 -0.53949 1.54000 -0.95506 -0.52759 1.53481 -0.96102 -0.51686 1.53014 -0.97031 -0.50834 1.52642 -0.98202 -0.50287 1.52404 -0.90000 -1.16000 0.97000 -0.99500 -0.53949 1.54000 -0.99500 -0.50411 1.59470 -1.01416 -0.50490 1.59177 -1.03144 -0.50718 1.58327 -1.04516 -0.51073 1.57002 -1.05397 -0.51521 1.55333 -1.05700 -0.52017 1.53482 -1.05397 -0.52513 1.51631 -1.04516 -0.52960 1.49962 -1.03144 -0.53316 1.48637 -1.01416 -0.53544 1.47787 -0.99500 -0.53622 1.47494 -0.97584 -0.53544 1.47787 -0.95856 -0.53316 1.48637 -0.94484 -0.52960 1.49962 -0.93603 -0.52513 1.51631 -0.93300 -0.52017 1.53482 -0.93603 -0.51521 1.55333 -0.94484 -0.51073 1.57002 -0.95856 -0.50718 1.58327 -0.97584 -0.50490 1.59177 -0.99500 -0.68765 1.64391 -1.01416 -0.68844 1.64098 -1.03144 -0.69072 1.63248 -1.04516 -0.69427 1.61923 -1.05397 -0.69875 1.60254 -1.05700 -0.70371 1.58403 -1.05397 -0.70867 1.56552 -1.04516 -0.71314 1.54883 -1.03144 -0.71670 1.53558 -1.01416 -0.71898 1.52708 -0.99500 -0.71976 1.52415 -0.97584 -0.71898 1.52708 -0.95856 -0.71670 1.53558 -0.94484 -0.71314 1.54883 -0.93603 -0.70867 1.56552 -0.93300 -0.70371 1.58403 -0.93603 -0.69875 1.60254 -0.94484 -0.69427 1.61923 -0.95856 -0.69072 1.63248 -0.97584 -0.68844 1.64098 -0.99500 -0.52017 1.53482 -0.99500 -0.70371 1.58403 -0.99500 -0.68987 1.21100 -0.99500 -0.69482 1.21022 -0.99500 -0.69928 1.20794 -0.99500 -0.70282 1.20440 -0.99500 -0.70509 1.19994 -0.99500 -0.70587 1.19500 -0.99500 -0.70509 1.19006 -0.99500 -0.70282 1.18560 -0.99500 -0.69928 1.18206 -0.99500 -0.69482 1.17978 -0.99500 -0.68987 1.17900 -0.99500 -0.68493 1.17978 -0.99500 -0.68047 1.18206 -0.99500 -0.67693 1.18560 -0.99500 -0.67465 1.19006 -0.99500 -0.67387 1.19500 -0.99500 -0.67465 1.19994 -0.99500 -0.67693 1.20440 -0.99500 -0.68047 1.20794 -0.99500 -0.68493 1.21022 -0.91000 -0.68987 1.21100 -0.91000 -0.69482 1.21022 -0.91000 -0.69928 1.20794 -0.91000 -0.70282 1.20440 -0.91000 -0.70509 1.19994 -0.91000 -0.70587 1.19500 -0.91000 -0.70509 1.19006 -0.91000 -0.70282 1.18560 -0.91000 -0.69928 1.18206 -0.91000 -0.69482 1.17978 -0.91000 -0.68987 1.17900 -0.91000 -0.68493 1.17978 -0.91000 -0.68047 1.18206 -0.91000 -0.67693 1.18560 -0.91000 -0.67465 1.19006 -0.91000 -0.67387 1.19500 -0.91000 -0.67465 1.19994 -0.91000 -0.67693 1.20440 -0.91000 -0.68047 1.20794 -0.91000 -0.68493 1.21022 -0.91000 -0.68987 1.19500 -0.99500 -0.58962 1.44100 -0.99500 -0.59456 1.44022 -0.99500 -0.59902 1.43794 -0.99500 -0.60256 1.43440 -0.99500 -0.60483 1.42994 -0.99500 -0.60562 1.42500 -0.99500 -0.60483 1.42006 -0.99500 -0.60256 1.41560 -0.99500 -0.59902 1.41206 -0.99500 -0.59456 1.40978 -0.99500 -0.58962 1.40900 -0.99500 -0.58467 1.40978 -0.99500 -0.58021 1.41206 -0.99500 -0.57667 1.41560 -0.99500 -0.57440 1.42006 -0.99500 -0.57362 1.42500 -0.99500 -0.57440 1.42994 -0.99500 -0.57667 1.43440 -0.99500 -0.58021 1.43794 -0.99500 -0.58467 1.44022 -0.91000 -0.58962 1.44100 -0.91000 -0.59456 1.44022 -0.91000 -0.59902 1.43794 -0.91000 -0.60256 1.43440 -0.91000 -0.60483 1.42994 -0.91000 -0.60562 1.42500 -0.91000 -0.60483 1.42006 -0.91000 -0.60256 1.41560 -0.91000 -0.59902 1.41206 -0.91000 -0.59456 1.40978 -0.91000 -0.58962 1.40900 -0.91000 -0.58467 1.40978 -0.91000 -0.58021 1.41206 -0.91000 -0.57667 1.41560 -0.91000 -0.57440 1.42006 -0.91000 -0.57362 1.42500 -0.91000 -0.57440 1.42994 -0.91000 -0.57667 1.43440 -0.91000 -0.58021 1.43794 -0.91000 -0.58467 1.44022 -0.91000 -0.58962 1.42500</float_array>
          <technique_common>
            <accessor source="#snorkel_medium-pos-array" count="206" stride="3">
              <param name="X" type="float"/><param name="Y" type="float"/><param name="Z" type="float"/>
            </accessor>
          </technique_common>
        </source>
        <source id="snorkel_medium-nrm">
          <float_array id="snorkel_medium-nrm-array" count="618">0.00000 0.22723 -0.97384 -0.29529 0.12743 -0.94687 -0.56168 0.01515 -0.82721 -0.77309 -0.09861 -0.62658 -0.90882 -0.20272 -0.36462 -0.95559 -0.28698 -0.06696 -0.90882 -0.34315 0.23725 -0.77309 -0.36573 0.51824 -0.56168 -0.35252 0.74849 -0.29529 -0.30479 0.90549 -0.00000 -0.22723 0.97384 0.29529 -0.12743 0.94687 0.56168 -0.01515 0.82721 0.77309 0.09861 0.62658 0.90882 0.20272 0.36462 0.95559 0.28698 0.06696 0.90882 0.34315 -0.23725 0.77309 0.36573 -0.51824 0.56168 0.35252 -0.74849 0.29529 0.30479 -0.90549 0.00000 0.27303 -0.96201 -0.30556 0.21533 -0.92751 -0.58121 0.13654 -0.80222 -0.79997 0.04439 -0.59840 -0.94042 -0.05210 -0.33601 -0.98881 -0.14350 -0.04073 -0.94042 -0.22084 0.25854 -0.79997 -0.27657 0.53250 -0.58121 -0.30523 0.75434 -0.30556 -0.30401 0.90234 -0.00000 -0.27303 0.96201 0.30556 -0.21533 0.92751 0.58121 -0.13654 0.80222 0.79997 -0.04439 0.59840 0.94042 0.05210 0.33601 0.98881 0.14350 0.04073 0.94042 0.22084 -0.25854 0.79997 0.27657 -0.53250 0.58121 0.30523 -0.75434 0.30556 0.30401 -0.90234 0.00000 0.67484 -0.73797 -0.30902 0.64181 -0.70185 -0.58779 0.54595 -0.59703 -0.80902 0.39666 -0.43377 -0.95106 0.20854 -0.22804 -1.00000 0.00000 -0.00000 -0.95106 -0.20854 0.22804 -0.80902 -0.39666 0.43377 -0.58779 -0.54595 0.59703 -0.30902 -0.64181 0.70185 -0.00000 -0.67484 0.73797 0.30902 -0.64181 0.70185 0.58779 -0.54595 0.59703 0.80902 -0.39666 0.43377 0.95106 -0.20854 0.22804 1.00000 -0.00000 0.00000 0.95106 0.20854 -0.22804 0.80902 0.39666 -0.43377 0.58779 0.54595 -0.59703 0.30902 0.64181 -0.70185 0.00000 0.91670 -0.39959 -0.30902 0.87183 -0.38003 -0.58779 0.74162 -0.32327 -0.80902 0.53882 -0.23487 -0.95106 0.28327 -0.12348 -1.00000 0.00000 -0.00000 -0.95106 -0.28327 0.12348 -0.80902 -0.53882 0.23487 -0.58779 -0.74162 0.32327 -0.30902 -0.87183 0.38003 -0.00000 -0.91670 0.39959 0.30902 -0.87183 0.38003 0.58779 -0.74162 0.32327 0.80902 -0.53882 0.23487 0.95106 -0.28327 0.12348 1.00000 -0.00000 0.00000 0.95106 0.28327 -0.12348 0.80902 0.53882 -0.23487 0.58779 0.74162 -0.32327 0.30902 0.87183 -0.38003 0.29469 -0.93060 -0.21714 0.00000 0.39959 0.91670 -0.00000 0.25897 0.96589 -0.30902 0.24629 0.91861 -0.58779 0.20951 0.78142 -0.80902 0.15222 0.56773 -0.95106 0.08003 0.29848 -1.00000 0.00000 0.00000 -0.95106 -0.08003 -0.29848 -0.80902 -0.15222 -0.56773 -0.58779 -0.20951 -0.78142 -0.30902 -0.24629 -0.91861 -0.00000 -0.25897 -0.96589 0.30902 -0.24629 -0.91861 0.58779 -0.20951 -0.78142 0.80902 -0.15222 -0.56773 0.95106 -0.08003 -0.29848 1.00000 -0.00000 -0.00000 0.95106 0.08003 0.29848 0.80902 0.15222 0.56773 0.58779 0.20951 0.78142 0.30902 0.24629 0.91861 -0.00000 0.25897 0.96589 -0.30902 0.24629 0.91861 -0.58779 0.20951 0.78142 -0.80902 0.15222 0.56773 -0.95106 0.08003 0.29848 -1.00000 0.00000 0.00000 -0.95106 -0.08003 -0.29848 -0.80902 -0.15222 -0.56773 -0.58779 -0.20951 -0.78142 -0.30902 -0.24629 -0.91861 -0.00000 -0.25897 -0.96589 0.30902 -0.24629 -0.91861 0.58779 -0.20951 -0.78142 0.80902 -0.15222 -0.56773 0.95106 -0.08003 -0.29848 1.00000 -0.00000 -0.00000 0.95106 0.08003 0.29848 0.80902 0.15222 0.56773 0.58779 0.20951 0.78142 0.30902 0.24629 0.91861 -0.00000 0.96589 -0.25897 0.00000 -0.96589 0.25897 0.00000 0.00000 1.00000 0.00000 -0.30902 0.95106 0.00000 -0.58779 0.80902 0.00000 -0.80902 0.58779 0.00000 -0.95106 0.30902 0.00000 -1.00000 0.00000 0.00000 -0.95106 -0.30902 0.00000 -0.80902 -0.58779 0.00000 -0.58779 -0.80902 0.00000 -0.30902 -0.95106 0.00000 -0.00000 -1.00000 -0.00000 0.30902 -0.95106 -0.00000 0.58779 -0.80902 -0.00000 0.80902 -0.58779 -0.00000 0.95106 -0.30902 -0.00000 1.00000 -0.00000 0.00000 0.95106 0.30902 0.00000 0.80902 0.58779 0.00000 0.58779 0.80902 0.00000 0.30902 0.95106 0.00000 0.00000 1.00000 0.00000 -0.30902 0.95106 0.00000 -0.58779 0.80902 0.00000 -0.80902 0.58779 0.00000 -0.95106 0.30902 0.00000 -1.00000 0.00000 0.00000 -0.95106 -0.30902 0.00000 -0.80902 -0.58779 0.00000 -0.58779 -0.80902 0.00000 -0.30902 -0.95106 0.00000 -0.00000 -1.00000 -0.00000 0.30902 -0.95106 -0.00000 0.58779 -0.80902 -0.00000 0.80902 -0.58779 -0.00000 0.95106 -0.30902 -0.00000 1.00000 -0.00000 0.00000 0.95106 0.30902 0.00000 0.80902 0.58779 0.00000 0.58779 0.80902 0.00000 0.30902 0.95106 1.00000 0.00000 0.00000 0.00000 0.00000 1.00000 0.00000 -0.30902 0.95106 0.00000 -0.58779 0.80902 0.00000 -0.80902 0.58779 0.00000 -0.95106 0.30902 0.00000 -1.00000 0.00000 0.00000 -0.95106 -0.30902 0.00000 -0.80902 -0.58779 0.00000 -0.58779 -0.80902 0.00000 -0.30902 -0.95106 0.00000 -0.00000 -1.00000 -0.00000 0.30902 -0.95106 -0.00000 0.58779 -0.80902 -0.00000 0.80902 -0.58779 -0.00000 0.95106 -0.30902 -0.00000 1.00000 -0.00000 0.00000 0.95106 0.30902 0.00000 0.80902 0.58779 0.00000 0.58779 0.80902 0.00000 0.30902 0.95106 0.00000 0.00000 1.00000 0.00000 -0.30902 0.95106 0.00000 -0.58779 0.80902 0.00000 -0.80902 0.58779 0.00000 -0.95106 0.30902 0.00000 -1.00000 0.00000 0.00000 -0.95106 -0.30902 0.00000 -0.80902 -0.58779 0.00000 -0.58779 -0.80902 0.00000 -0.30902 -0.95106 0.00000 -0.00000 -1.00000 -0.00000 0.30902 -0.95106 -0.00000 0.58779 -0.80902 -0.00000 0.80902 -0.58779 -0.00000 0.95106 -0.30902 -0.00000 1.00000 -0.00000 0.00000 0.95106 0.30902 0.00000 0.80902 0.58779 0.00000 0.58779 0.80902 0.00000 0.30902 0.95106 1.00000 0.00000 0.00000</float_array>
          <technique_common>
            <accessor source="#snorkel_medium-nrm-array" count="206" stride="3">
              <param name="X" type="float"/><param name="Y" type="float"/><param name="Z" type="float"/>
            </accessor>
          </technique_common>
        </source>
        <vertices id="snorkel_medium-vtx"><input semantic="POSITION" source="#snorkel_medium-pos"/></vertices>
        <triangles material="snorkel_black" count="360">
          <input semantic="VERTEX" source="#snorkel_medium-vtx" offset="0"/>
          <input semantic="NORMAL" source="#snorkel_medium-nrm" offset="1"/>
          <p>0 0 20 20 21 21 0 0 21 21 1 1 1 1 21 21 22 22 1 1 22 22 2 2 2 2 22 22 23 23 2 2 23 23 3 3 3 3 23 23 24 24 3 3 24 24 4 4 4 4 24 24 25 25 4 4 25 25 5 5 5 5 25 25 26 26 5 5 26 26 6 6 6 6 26 26 27 27 6 6 27 27 7 7 7 7 27 27 28 28 7 7 28 28 8 8 8 8 28 28 29 29 8 8 29 29 9 9 9 9 29 29 30 30 9 9 30 30 10 10 10 10 30 30 31 31 10 10 31 31 11 11 11 11 31 31 32 32 11 11 32 32 12 12 12 12 32 32 33 33 12 12 33 33 13 13 13 13 33 33 34 34 13 13 34 34 14 14 14 14 34 34 35 35 14 14 35 35 15 15 15 15 35 35 36 36 15 15 36 36 16 16 16 16 36 36 37 37 16 16 37 37 17 17 17 17 37 37 38 38 17 17 38 38 18 18 18 18 38 38 39 39 18 18 39 39 19 19 19 19 39 39 20 20 19 19 20 20 0 0 20 20 40 40 41 41 20 20 41 41 21 21 21 21 41 41 42 42 21 21 42 42 22 22 22 22 42 42 43 43 22 22 43 43 23 23 23 23 43 43 44 44 23 23 44 44 24 24 24 24 44 44 45 45 24 24 45 45 25 25 25 25 45 45 46 46 25 25 46 46 26 26 26 26 46 46 47 47 26 26 47 47 27 27 27 27 47 47 48 48 27 27 48 48 28 28 28 28 48 48 49 49 28 28 49 49 29 29 29 29 49 49 50 50 29 29 50 50 30 30 30 30 50 50 51 51 30 30 51 51 31 31 31 31 51 51 52 52 31 31 52 52 32 32 32 32 52 52 53 53 32 32 53 53 33 33 33 33 53 53 54 54 33 33 54 54 34 34 34 34 54 54 55 55 34 34 55 55 35 35 35 35 55 55 56 56 35 35 56 56 36 36 36 36 56 56 57 57 36 36 57 57 37 37 37 37 57 57 58 58 37 37 58 58 38 38 38 38 58 58 59 59 38 38 59 59 39 39 39 39 59 59 40 40 39 39 40 40 20 20 40 40 60 60 61 61 40 40 61 61 41 41 41 41 61 61 62 62 41 41 62 62 42 42 42 42 62 62 63 63 42 42 63 63 43 43 43 43 63 63 64 64 43 43 64 64 44 44 44 44 64 64 65 65 44 44 65 65 45 45 45 45 65 65 66 66 45 45 66 66 46 46 46 46 66 66 67 67 46 46 67 67 47 47 47 47 67 67 68 68 47 47 68 68 48 48 48 48 68 68 69 69 48 48 69 69 49 49 49 49 69 69 70 70 49 49 70 70 50 50 50 50 70 70 71 71 50 50 71 71 51 51 51 51 71 71 72 72 51 51 72 72 52 52 52 52 72 72 73 73 52 52 73 73 53 53 53 53 73 73 74 74 53 53 74 74 54 54 54 54 74 74 75 75 54 54 75 75 55 55 55 55 75 75 76 76 55 55 76 76 56 56 56 56 76 76 77 77 56 56 77 77 57 57 57 57 77 77 78 78 57 57 78 78 58 58 58 58 78 78 79 79 58 58 79 79 59 59 59 59 79 79 60 60 59 59 60 60 40 40 80 80 1 1 0 0 80 80 2 2 1 1 80 80 3 3 2 2 80 80 4 4 3 3 80 80 5 5 4 4 80 80 6 6 5 5 80 80 7 7 6 6 80 80 8 8 7 7 80 80 9 9 8 8 80 80 10 10 9 9 80 80 11 11 10 10 80 80 12 12 11 11 80 80 13 13 12 12 80 80 14 14 13 13 80 80 15 15 14 14 80 80 16 16 15 15 80 80 17 17 16 16 80 80 18 18 17 17 80 80 19 19 18 18 80 80 0 0 19 19 81 81 60 60 61 61 81 81 61 61 62 62 81 81 62 62 63 63 81 81 63 63 64 64 81 81 64 64 65 65 81 81 65 65 66 66 81 81 66 66 67 67 81 81 67 67 68 68 81 81 68 68 69 69 81 81 69 69 70 70 81 81 70 70 71 71 81 81 71 71 72 72 81 81 72 72 73 73 81 81 73 73 74 74 81 81 74 74 75 75 81 81 75 75 76 76 81 81 76 76 77 77 81 81 77 77 78 78 81 81 78 78 79 79 81 81 79 79 60 60 82 82 102 102 103 103 82 82 103 103 83 83 83 83 103 103 104 104 83 83 104 104 84 84 84 84 104 104 105 105 84 84 105 105 85 85 85 85 105 105 106 106 85 85 106 106 86 86 86 86 106 106 107 107 86 86 107 107 87 87 87 87 107 107 108 108 87 87 108 108 88 88 88 88 108 108 109 109 88 88 109 109 89 89 89 89 109 109 110 110 89 89 110 110 90 90 90 90 110 110 111 111 90 90 111 111 91 91 91 91 111 111 112 112 91 91 112 112 92 92 92 92 112 112 113 113 92 92 113 113 93 93 93 93 113 113 114 114 93 93 114 114 94 94 94 94 114 114 115 115 94 94 115 115 95 95 95 95 115 115 116 116 95 95 116 116 96 96 96 96 116 116 117 117 96 96 117 117 97 97 97 97 117 117 118 118 97 97 118 118 98 98 98 98 118 118 119 119 98 98 119 119 99 99 99 99 119 119 120 120 99 99 120 120 100 100 100 100 120 120 121 121 100 100 121 121 101 101 101 101 121 121 102 102 101 101 102 102 82 82 122 122 83 83 82 82 122 122 84 84 83 83 122 122 85 85 84 84 122 122 86 86 85 85 122 122 87 87 86 86 122 122 88 88 87 87 122 122 89 89 88 88 122 122 90 90 89 89 122 122 91 91 90 90 122 122 92 92 91 91 122 122 93 93 92 92 122 122 94 94 93 93 122 122 95 95 94 94 122 122 96 96 95 95 122 122 97 97 96 96 122 122 98 98 97 97 122 122 99 99 98 98 122 122 100 100 99 99 122 122 101 101 100 100 122 122 82 82 101 101 123 123 102 102 103 103 123 123 103 103 104 104 123 123 104 104 105 105 123 123 105 105 106 106 123 123 106 106 107 107 123 123 107 107 108 108 123 123 108 108 109 109 123 123 109 109 110 110 123 123 110 110 111 111 123 123 111 111 112 112 123 123 112 112 113 113 123 123 113 113 114 114 123 123 114 114 115 115 123 123 115 115 116 116 123 123 116 116 117 117 123 123 117 117 118 118 123 123 118 118 119 119 123 123 119 119 120 120 123 123 120 120 121 121 123 123 121 121 102 102 124 124 144 144 145 145 124 124 145 145 125 125 125 125 145 145 146 146 125 125 146 146 126 126 126 126 146 146 147 147 126 126 147 147 127 127 127 127 147 147 148 148 127 127 148 148 128 128 128 128 148 148 149 149 128 128 149 149 129 129 129 129 149 149 150 150 129 129 150 150 130 130 130 130 150 150 151 151 130 130 151 151 131 131 131 131 151 151 152 152 131 131 152 152 132 132 132 132 152 152 153 153 132 132 153 153 133 133 133 133 153 153 154 154 133 133 154 154 134 134 134 134 154 154 155 155 134 134 155 155 135 135 135 135 155 155 156 156 135 135 156 156 136 136 136 136 156 156 157 157 136 136 157 157 137 137 137 137 157 157 158 158 137 137 158 158 138 138 138 138 158 158 159 159 138 138 159 159 139 139 139 139 159 159 160 160 139 139 160 160 140 140 140 140 160 160 161 161 140 140 161 161 141 141 141 141 161 161 162 162 141 141 162 162 142 142 142 142 162 162 163 163 142 142 163 163 143 143 143 143 163 163 144 144 143 143 144 144 124 124 164 164 144 144 145 145 164 164 145 145 146 146 164 164 146 146 147 147 164 164 147 147 148 148 164 164 148 148 149 149 164 164 149 149 150 150 164 164 150 150 151 151 164 164 151 151 152 152 164 164 152 152 153 153 164 164 153 153 154 154 164 164 154 154 155 155 164 164 155 155 156 156 164 164 156 156 157 157 164 164 157 157 158 158 164 164 158 158 159 159 164 164 159 159 160 160 164 164 160 160 161 161 164 164 161 161 162 162 164 164 162 162 163 163 164 164 163 163 144 144 165 165 185 185 186 186 165 165 186 186 166 166 166 166 186 186 187 187 166 166 187 187 167 167 167 167 187 187 188 188 167 167 188 188 168 168 168 168 188 188 189 189 168 168 189 189 169 169 169 169 189 189 190 190 169 169 190 190 170 170 170 170 190 190 191 191 170 170 191 191 171 171 171 171 191 191 192 192 171 171 192 192 172 172 172 172 192 192 193 193 172 172 193 193 173 173 173 173 193 193 194 194 173 173 194 194 174 174 174 174 194 194 195 195 174 174 195 195 175 175 175 175 195 195 196 196 175 175 196 196 176 176 176 176 196 196 197 197 176 176 197 197 177 177 177 177 197 197 198 198 177 177 198 198 178 178 178 178 198 198 199 199 178 178 199 199 179 179 179 179 199 199 200 200 179 179 200 200 180 180 180 180 200 200 201 201 180 180 201 201 181 181 181 181 201 201 202 202 181 181 202 202 182 182 182 182 202 202 203 203 182 182 203 203 183 183 183 183 203 203 204 204 183 183 204 204 184 184 184 184 204 204 185 185 184 184 185 185 165 165 205 205 185 185 186 186 205 205 186 186 187 187 205 205 187 187 188 188 205 205 188 188 189 189 205 205 189 189 190 190 205 205 190 190 191 191 205 205 191 191 192 192 205 205 192 192 193 193 205 205 193 193 194 194 205 205 194 194 195 195 205 205 195 195 196 196 205 205 196 196 197 197 205 205 197 197 198 198 205 205 198 198 199 199 205 205 199 199 200 200 205 205 200 200 201 201 205 205 201 201 202 202 205 205 202 202 203 203 205 205 203 203 204 204 205 205 204 204 185 185</p>
        </triangles>
      </mesh>
    </geometry>
    <geometry id="snorkel_tall-mesh" name="snorkel_tall">
      <mesh>
        <source id="snorkel_tall-pos">
          <float_array id="snorkel_tall-pos-array" count="618">-0.90000 -1.15046 0.92910 -0.91240 -1.15465 0.93023 -0.92359 -1.15936 0.93526 -0.93247 -1.16414 0.94368 -0.93817 -1.16851 0.95469 -0.94013 -1.17205 0.96719 -0.93817 -1.17441 0.97996 -0.93247 -1.17536 0.99177 -0.92359 -1.17481 1.00144 -0.91240 -1.17280 1.00803 -0.90000 -1.16954 1.01090 -0.88760 -1.16535 1.00977 -0.87641 -1.16064 1.00474 -0.86753 -1.15586 0.99632 -0.86183 -1.15149 0.98531 -0.85987 -1.14795 0.97281 -0.86183 -1.14559 0.96004 -0.86753 -1.14464 0.94823 -0.87641 -1.14519 0.93856 -0.88760 -1.14720 0.93197 -0.99500 -0.84853 0.99960 -1.00783 -0.85096 1.00104 -1.01941 -0.85427 1.00631 -1.02860 -0.85814 1.01487 -1.03450 -0.86219 1.02589 -1.03653 -0.86603 1.03829 -1.03450 -0.86928 1.05086 -1.02860 -0.87162 1.06237 -1.01941 -0.87282 1.07168 -1.00783 -0.87277 1.07790 -0.99500 -0.87147 1.08040 -0.98217 -0.86904 1.07896 -0.97059 -0.86573 1.07369 -0.96140 -0.86186 1.06513 -0.95550 -0.85781 1.05411 -0.95347 -0.85397 1.04171 -0.95550 -0.85072 1.02914 -0.96140 -0.84838 1.01763 -0.97059 -0.84718 1.00832 -0.98217 -0.84723 1.00210 -0.99500 -0.71166 1.04901 -1.00798 -0.71304 1.05052 -1.01969 -0.71707 1.05492 -1.02898 -0.72334 1.06178 -1.03494 -0.73124 1.07042 -1.03700 -0.74000 1.08000 -1.03494 -0.74876 1.08958 -1.02898 -0.75666 1.09822 -1.01969 -0.76293 1.10508 -1.00798 -0.76696 1.10948 -0.99500 -0.76834 1.11099 -0.98202 -0.76696 1.10948 -0.97031 -0.76293 1.10508 -0.96102 -0.75666 1.09822 -0.95506 -0.74876 1.08958 -0.95300 -0.74000 1.08000 -0.95506 -0.73124 1.07042 -0.96102 -0.72334 1.06178 -0.97031 -0.71707 1.05492 -0.98202 -0.71304 1.05052 -0.99500 -0.36150 1.84322 -1.00798 -0.36338 1.84404 -1.01969 -0.36885 1.84642 -1.02898 -0.37737 1.85014 -1.03494 -0.38810 1.85481 -1.03700 -0.40000 1.86000 -1.03494 -0.41190 1.86519 -1.02898 -0.42263 1.86986 -1.01969 -0.43115 1.87358 -1.00798 -0.43662 1.87596 -0.99500 -0.43850 1.87678 -0.98202 -0.43662 1.87596 -0.97031 -0.43115 1.87358 -0.96102 -0.42263 1.86986 -0.95506 -0.41190 1.86519 -0.95300 -0.40000 1.86000 -0.95506 -0.38810 1.85481 -0.96102 -0.37737 1.85014 -0.97031 -0.36885 1.84642 -0.98202 -0.36338 1.84404 -0.90000 -1.16000 0.97000 -0.99500 -0.40000 1.86000 -0.99500 -0.36462 1.91470 -1.01416 -0.36541 1.91177 -1.03144 -0.36769 1.90327 -1.04516 -0.37124 1.89002 -1.05397 -0.37572 1.87333 -1.05700 -0.38068 1.85482 -1.05397 -0.38564 1.83631 -1.04516 -0.39012 1.81962 -1.03144 -0.39367 1.80637 -1.01416 -0.39595 1.79787 -0.99500 -0.39674 1.79494 -0.97584 -0.39595 1.79787 -0.95856 -0.39367 1.80637 -0.94484 -0.39012 1.81962 -0.93603 -0.38564 1.83631 -0.93300 -0.38068 1.85482 -0.93603 -0.37572 1.87333 -0.94484 -0.37124 1.89002 -0.95856 -0.36769 1.90327 -0.97584 -0.36541 1.91177 -0.99500 -0.54816 1.96391 -1.01416 -0.54895 1.96098 -1.03144 -0.55123 1.95248 -1.04516 -0.55478 1.93923 -1.05397 -0.55926 1.92254 -1.05700 -0.56422 1.90403 -1.05397 -0.56918 1.88552 -1.04516 -0.57366 1.86883 -1.03144 -0.57721 1.85558 -1.01416 -0.57949 1.84708 -0.99500 -0.58028 1.84415 -0.97584 -0.57949 1.84708 -0.95856 -0.57721 1.85558 -0.94484 -0.57366 1.86883 -0.93603 -0.56918 1.88552 -0.93300 -0.56422 1.90403 -0.93603 -0.55926 1.92254 -0.94484 -0.55478 1.93923 -0.95856 -0.55123 1.95248 -0.97584 -0.54895 1.96098 -0.99500 -0.38068 1.85482 -0.99500 -0.56422 1.90403 -0.99500 -0.65500 1.29100 -0.99500 -0.65994 1.29022 -0.99500 -0.66440 1.28794 -0.99500 -0.66794 1.28440 -0.99500 -0.67022 1.27994 -0.99500 -0.67100 1.27500 -0.99500 -0.67022 1.27006 -0.99500 -0.66794 1.26560 -0.99500 -0.66440 1.26206 -0.99500 -0.65994 1.25978 -0.99500 -0.65500 1.25900 -0.99500 -0.65006 1.25978 -0.99500 -0.64560 1.26206 -0.99500 -0.64206 1.26560 -0.99500 -0.63978 1.27006 -0.99500 -0.63900 1.27500 -0.99500 -0.63978 1.27994 -0.99500 -0.64206 1.28440 -0.99500 -0.64560 1.28794 -0.99500 -0.65006 1.29022 -0.91000 -0.65500 1.29100 -0.91000 -0.65994 1.29022 -0.91000 -0.66440 1.28794 -0.91000 -0.66794 1.28440 -0.91000 -0.67022 1.27994 -0.91000 -0.67100 1.27500 -0.91000 -0.67022 1.27006 -0.91000 -0.66794 1.26560 -0.91000 -0.66440 1.26206 -0.91000 -0.65994 1.25978 -0.91000 -0.65500 1.25900 -0.91000 -0.65006 1.25978 -0.91000 -0.64560 1.26206 -0.91000 -0.64206 1.26560 -0.91000 -0.63978 1.27006 -0.91000 -0.63900 1.27500 -0.91000 -0.63978 1.27994 -0.91000 -0.64206 1.28440 -0.91000 -0.64560 1.28794 -0.91000 -0.65006 1.29022 -0.91000 -0.65500 1.27500 -0.99500 -0.48500 1.68100 -0.99500 -0.48994 1.68022 -0.99500 -0.49440 1.67794 -0.99500 -0.49794 1.67440 -0.99500 -0.50022 1.66994 -0.99500 -0.50100 1.66500 -0.99500 -0.50022 1.66006 -0.99500 -0.49794 1.65560 -0.99500 -0.49440 1.65206 -0.99500 -0.48994 1.64978 -0.99500 -0.48500 1.64900 -0.99500 -0.48006 1.64978 -0.99500 -0.47560 1.65206 -0.99500 -0.47206 1.65560 -0.99500 -0.46978 1.66006 -0.99500 -0.46900 1.66500 -0.99500 -0.46978 1.66994 -0.99500 -0.47206 1.67440 -0.99500 -0.47560 1.67794 -0.99500 -0.48006 1.68022 -0.91000 -0.48500 1.68100 -0.91000 -0.48994 1.68022 -0.91000 -0.49440 1.67794 -0.91000 -0.49794 1.67440 -0.91000 -0.50022 1.66994 -0.91000 -0.50100 1.66500 -0.91000 -0.50022 1.66006 -0.91000 -0.49794 1.65560 -0.91000 -0.49440 1.65206 -0.91000 -0.48994 1.64978 -0.91000 -0.48500 1.64900 -0.91000 -0.48006 1.64978 -0.91000 -0.47560 1.65206 -0.91000 -0.47206 1.65560 -0.91000 -0.46978 1.66006 -0.91000 -0.46900 1.66500 -0.91000 -0.46978 1.66994 -0.91000 -0.47206 1.67440 -0.91000 -0.47560 1.67794 -0.91000 -0.48006 1.68022 -0.91000 -0.48500 1.66500</float_array>
          <technique_common>
            <accessor source="#snorkel_tall-pos-array" count="206" stride="3">
              <param name="X" type="float"/><param name="Y" type="float"/><param name="Z" type="float"/>
            </accessor>
          </technique_common>
        </source>
        <source id="snorkel_tall-nrm">
          <float_array id="snorkel_tall-nrm-array" count="618">0.00000 0.22723 -0.97384 -0.29529 0.12743 -0.94687 -0.56168 0.01515 -0.82721 -0.77309 -0.09861 -0.62658 -0.90882 -0.20272 -0.36462 -0.95559 -0.28698 -0.06696 -0.90882 -0.34315 0.23725 -0.77309 -0.36573 0.51824 -0.56168 -0.35252 0.74849 -0.29529 -0.30479 0.90549 -0.00000 -0.22723 0.97384 0.29529 -0.12743 0.94687 0.56168 -0.01515 0.82721 0.77309 0.09861 0.62658 0.90882 0.20272 0.36462 0.95559 0.28698 0.06696 0.90882 0.34315 -0.23725 0.77309 0.36573 -0.51824 0.56168 0.35252 -0.74849 0.29529 0.30479 -0.90549 0.00000 0.27303 -0.96201 -0.30556 0.21533 -0.92751 -0.58121 0.13654 -0.80222 -0.79997 0.04439 -0.59840 -0.94042 -0.05210 -0.33601 -0.98881 -0.14350 -0.04073 -0.94042 -0.22084 0.25854 -0.79997 -0.27657 0.53250 -0.58121 -0.30523 0.75434 -0.30556 -0.30401 0.90234 -0.00000 -0.27303 0.96201 0.30556 -0.21533 0.92751 0.58121 -0.13654 0.80222 0.79997 -0.04439 0.59840 0.94042 0.05210 0.33601 0.98881 0.14350 0.04073 0.94042 0.22084 -0.25854 0.79997 0.27657 -0.53250 0.58121 0.30523 -0.75434 0.30556 0.30401 -0.90234 0.00000 0.67484 -0.73797 -0.30902 0.64181 -0.70185 -0.58779 0.54595 -0.59703 -0.80902 0.39666 -0.43377 -0.95106 0.20854 -0.22804 -1.00000 0.00000 -0.00000 -0.95106 -0.20854 0.22804 -0.80902 -0.39666 0.43377 -0.58779 -0.54595 0.59703 -0.30902 -0.64181 0.70185 -0.00000 -0.67484 0.73797 0.30902 -0.64181 0.70185 0.58779 -0.54595 0.59703 0.80902 -0.39666 0.43377 0.95106 -0.20854 0.22804 1.00000 -0.00000 0.00000 0.95106 0.20854 -0.22804 0.80902 0.39666 -0.43377 0.58779 0.54595 -0.59703 0.30902 0.64181 -0.70185 0.00000 0.91670 -0.39959 -0.30902 0.87183 -0.38003 -0.58779 0.74162 -0.32327 -0.80902 0.53882 -0.23487 -0.95106 0.28327 -0.12348 -1.00000 0.00000 -0.00000 -0.95106 -0.28327 0.12348 -0.80902 -0.53882 0.23487 -0.58779 -0.74162 0.32327 -0.30902 -0.87183 0.38003 -0.00000 -0.91670 0.39959 0.30902 -0.87183 0.38003 0.58779 -0.74162 0.32327 0.80902 -0.53882 0.23487 0.95106 -0.28327 0.12348 1.00000 -0.00000 0.00000 0.95106 0.28327 -0.12348 0.80902 0.53882 -0.23487 0.58779 0.74162 -0.32327 0.30902 0.87183 -0.38003 0.29469 -0.93060 -0.21714 0.00000 0.39959 0.91670 -0.00000 0.25897 0.96589 -0.30902 0.24629 0.91861 -0.58779 0.20951 0.78142 -0.80902 0.15222 0.56773 -0.95106 0.08003 0.29848 -1.00000 0.00000 0.00000 -0.95106 -0.08003 -0.29848 -0.80902 -0.15222 -0.56773 -0.58779 -0.20951 -0.78142 -0.30902 -0.24629 -0.91861 -0.00000 -0.25897 -0.96589 0.30902 -0.24629 -0.91861 0.58779 -0.20951 -0.78142 0.80902 -0.15222 -0.56773 0.95106 -0.08003 -0.29848 1.00000 -0.00000 -0.00000 0.95106 0.08003 0.29848 0.80902 0.15222 0.56773 0.58779 0.20951 0.78142 0.30902 0.24629 0.91861 -0.00000 0.25897 0.96589 -0.30902 0.24629 0.91861 -0.58779 0.20951 0.78142 -0.80902 0.15222 0.56773 -0.95106 0.08003 0.29848 -1.00000 0.00000 0.00000 -0.95106 -0.08003 -0.29848 -0.80902 -0.15222 -0.56773 -0.58779 -0.20951 -0.78142 -0.30902 -0.24629 -0.91861 -0.00000 -0.25897 -0.96589 0.30902 -0.24629 -0.91861 0.58779 -0.20951 -0.78142 0.80902 -0.15222 -0.56773 0.95106 -0.08003 -0.29848 1.00000 -0.00000 -0.00000 0.95106 0.08003 0.29848 0.80902 0.15222 0.56773 0.58779 0.20951 0.78142 0.30902 0.24629 0.91861 -0.00000 0.96589 -0.25897 0.00000 -0.96589 0.25897 0.00000 0.00000 1.00000 0.00000 -0.30902 0.95106 0.00000 -0.58779 0.80902 0.00000 -0.80902 0.58779 0.00000 -0.95106 0.30902 0.00000 -1.00000 0.00000 0.00000 -0.95106 -0.30902 0.00000 -0.80902 -0.58779 0.00000 -0.58779 -0.80902 0.00000 -0.30902 -0.95106 0.00000 -0.00000 -1.00000 -0.00000 0.30902 -0.95106 -0.00000 0.58779 -0.80902 -0.00000 0.80902 -0.58779 -0.00000 0.95106 -0.30902 -0.00000 1.00000 -0.00000 0.00000 0.95106 0.30902 0.00000 0.80902 0.58779 0.00000 0.58779 0.80902 0.00000 0.30902 0.95106 0.00000 0.00000 1.00000 0.00000 -0.30902 0.95106 0.00000 -0.58779 0.80902 0.00000 -0.80902 0.58779 0.00000 -0.95106 0.30902 0.00000 -1.00000 0.00000 0.00000 -0.95106 -0.30902 0.00000 -0.80902 -0.58779 0.00000 -0.58779 -0.80902 0.00000 -0.30902 -0.95106 0.00000 -0.00000 -1.00000 -0.00000 0.30902 -0.95106 -0.00000 0.58779 -0.80902 -0.00000 0.80902 -0.58779 -0.00000 0.95106 -0.30902 -0.00000 1.00000 -0.00000 0.00000 0.95106 0.30902 0.00000 0.80902 0.58779 0.00000 0.58779 0.80902 0.00000 0.30902 0.95106 1.00000 0.00000 0.00000 0.00000 0.00000 1.00000 0.00000 -0.30902 0.95106 0.00000 -0.58779 0.80902 0.00000 -0.80902 0.58779 0.00000 -0.95106 0.30902 0.00000 -1.00000 0.00000 0.00000 -0.95106 -0.30902 0.00000 -0.80902 -0.58779 0.00000 -0.58779 -0.80902 0.00000 -0.30902 -0.95106 0.00000 -0.00000 -1.00000 -0.00000 0.30902 -0.95106 -0.00000 0.58779 -0.80902 -0.00000 0.80902 -0.58779 -0.00000 0.95106 -0.30902 -0.00000 1.00000 -0.00000 0.00000 0.95106 0.30902 0.00000 0.80902 0.58779 0.00000 0.58779 0.80902 0.00000 0.30902 0.95106 0.00000 0.00000 1.00000 0.00000 -0.30902 0.95106 0.00000 -0.58779 0.80902 0.00000 -0.80902 0.58779 0.00000 -0.95106 0.30902 0.00000 -1.00000 0.00000 0.00000 -0.95106 -0.30902 0.00000 -0.80902 -0.58779 0.00000 -0.58779 -0.80902 0.00000 -0.30902 -0.95106 0.00000 -0.00000 -1.00000 -0.00000 0.30902 -0.95106 -0.00000 0.58779 -0.80902 -0.00000 0.80902 -0.58779 -0.00000 0.95106 -0.30902 -0.00000 1.00000 -0.00000 0.00000 0.95106 0.30902 0.00000 0.80902 0.58779 0.00000 0.58779 0.80902 0.00000 0.30902 0.95106 1.00000 0.00000 0.00000</float_array>
          <technique_common>
            <accessor source="#snorkel_tall-nrm-array" count="206" stride="3">
              <param name="X" type="float"/><param name="Y" type="float"/><param name="Z" type="float"/>
            </accessor>
          </technique_common>
        </source>
        <vertices id="snorkel_tall-vtx"><input semantic="POSITION" source="#snorkel_tall-pos"/></vertices>
        <triangles material="snorkel_black" count="360">
          <input semantic="VERTEX" source="#snorkel_tall-vtx" offset="0"/>
          <input semantic="NORMAL" source="#snorkel_tall-nrm" offset="1"/>
          <p>0 0 20 20 21 21 0 0 21 21 1 1 1 1 21 21 22 22 1 1 22 22 2 2 2 2 22 22 23 23 2 2 23 23 3 3 3 3 23 23 24 24 3 3 24 24 4 4 4 4 24 24 25 25 4 4 25 25 5 5 5 5 25 25 26 26 5 5 26 26 6 6 6 6 26 26 27 27 6 6 27 27 7 7 7 7 27 27 28 28 7 7 28 28 8 8 8 8 28 28 29 29 8 8 29 29 9 9 9 9 29 29 30 30 9 9 30 30 10 10 10 10 30 30 31 31 10 10 31 31 11 11 11 11 31 31 32 32 11 11 32 32 12 12 12 12 32 32 33 33 12 12 33 33 13 13 13 13 33 33 34 34 13 13 34 34 14 14 14 14 34 34 35 35 14 14 35 35 15 15 15 15 35 35 36 36 15 15 36 36 16 16 16 16 36 36 37 37 16 16 37 37 17 17 17 17 37 37 38 38 17 17 38 38 18 18 18 18 38 38 39 39 18 18 39 39 19 19 19 19 39 39 20 20 19 19 20 20 0 0 20 20 40 40 41 41 20 20 41 41 21 21 21 21 41 41 42 42 21 21 42 42 22 22 22 22 42 42 43 43 22 22 43 43 23 23 23 23 43 43 44 44 23 23 44 44 24 24 24 24 44 44 45 45 24 24 45 45 25 25 25 25 45 45 46 46 25 25 46 46 26 26 26 26 46 46 47 47 26 26 47 47 27 27 27 27 47 47 48 48 27 27 48 48 28 28 28 28 48 48 49 49 28 28 49 49 29 29 29 29 49 49 50 50 29 29 50 50 30 30 30 30 50 50 51 51 30 30 51 51 31 31 31 31 51 51 52 52 31 31 52 52 32 32 32 32 52 52 53 53 32 32 53 53 33 33 33 33 53 53 54 54 33 33 54 54 34 34 34 34 54 54 55 55 34 34 55 55 35 35 35 35 55 55 56 56 35 35 56 56 36 36 36 36 56 56 57 57 36 36 57 57 37 37 37 37 57 57 58 58 37 37 58 58 38 38 38 38 58 58 59 59 38 38 59 59 39 39 39 39 59 59 40 40 39 39 40 40 20 20 40 40 60 60 61 61 40 40 61 61 41 41 41 41 61 61 62 62 41 41 62 62 42 42 42 42 62 62 63 63 42 42 63 63 43 43 43 43 63 63 64 64 43 43 64 64 44 44 44 44 64 64 65 65 44 44 65 65 45 45 45 45 65 65 66 66 45 45 66 66 46 46 46 46 66 66 67 67 46 46 67 67 47 47 47 47 67 67 68 68 47 47 68 68 48 48 48 48 68 68 69 69 48 48 69 69 49 49 49 49 69 69 70 70 49 49 70 70 50 50 50 50 70 70 71 71 50 50 71 71 51 51 51 51 71 71 72 72 51 51 72 72 52 52 52 52 72 72 73 73 52 52 73 73 53 53 53 53 73 73 74 74 53 53 74 74 54 54 54 54 74 74 75 75 54 54 75 75 55 55 55 55 75 75 76 76 55 55 76 76 56 56 56 56 76 76 77 77 56 56 77 77 57 57 57 57 77 77 78 78 57 57 78 78 58 58 58 58 78 78 79 79 58 58 79 79 59 59 59 59 79 79 60 60 59 59 60 60 40 40 80 80 1 1 0 0 80 80 2 2 1 1 80 80 3 3 2 2 80 80 4 4 3 3 80 80 5 5 4 4 80 80 6 6 5 5 80 80 7 7 6 6 80 80 8 8 7 7 80 80 9 9 8 8 80 80 10 10 9 9 80 80 11 11 10 10 80 80 12 12 11 11 80 80 13 13 12 12 80 80 14 14 13 13 80 80 15 15 14 14 80 80 16 16 15 15 80 80 17 17 16 16 80 80 18 18 17 17 80 80 19 19 18 18 80 80 0 0 19 19 81 81 60 60 61 61 81 81 61 61 62 62 81 81 62 62 63 63 81 81 63 63 64 64 81 81 64 64 65 65 81 81 65 65 66 66 81 81 66 66 67 67 81 81 67 67 68 68 81 81 68 68 69 69 81 81 69 69 70 70 81 81 70 70 71 71 81 81 71 71 72 72 81 81 72 72 73 73 81 81 73 73 74 74 81 81 74 74 75 75 81 81 75 75 76 76 81 81 76 76 77 77 81 81 77 77 78 78 81 81 78 78 79 79 81 81 79 79 60 60 82 82 102 102 103 103 82 82 103 103 83 83 83 83 103 103 104 104 83 83 104 104 84 84 84 84 104 104 105 105 84 84 105 105 85 85 85 85 105 105 106 106 85 85 106 106 86 86 86 86 106 106 107 107 86 86 107 107 87 87 87 87 107 107 108 108 87 87 108 108 88 88 88 88 108 108 109 109 88 88 109 109 89 89 89 89 109 109 110 110 89 89 110 110 90 90 90 90 110 110 111 111 90 90 111 111 91 91 91 91 111 111 112 112 91 91 112 112 92 92 92 92 112 112 113 113 92 92 113 113 93 93 93 93 113 113 114 114 93 93 114 114 94 94 94 94 114 114 115 115 94 94 115 115 95 95 95 95 115 115 116 116 95 95 116 116 96 96 96 96 116 116 117 117 96 96 117 117 97 97 97 97 117 117 118 118 97 97 118 118 98 98 98 98 118 118 119 119 98 98 119 119 99 99 99 99 119 119 120 120 99 99 120 120 100 100 100 100 120 120 121 121 100 100 121 121 101 101 101 101 121 121 102 102 101 101 102 102 82 82 122 122 83 83 82 82 122 122 84 84 83 83 122 122 85 85 84 84 122 122 86 86 85 85 122 122 87 87 86 86 122 122 88 88 87 87 122 122 89 89 88 88 122 122 90 90 89 89 122 122 91 91 90 90 122 122 92 92 91 91 122 122 93 93 92 92 122 122 94 94 93 93 122 122 95 95 94 94 122 122 96 96 95 95 122 122 97 97 96 96 122 122 98 98 97 97 122 122 99 99 98 98 122 122 100 100 99 99 122 122 101 101 100 100 122 122 82 82 101 101 123 123 102 102 103 103 123 123 103 103 104 104 123 123 104 104 105 105 123 123 105 105 106 106 123 123 106 106 107 107 123 123 107 107 108 108 123 123 108 108 109 109 123 123 109 109 110 110 123 123 110 110 111 111 123 123 111 111 112 112 123 123 112 112 113 113 123 123 113 113 114 114 123 123 114 114 115 115 123 123 115 115 116 116 123 123 116 116 117 117 123 123 117 117 118 118 123 123 118 118 119 119 123 123 119 119 120 120 123 123 120 120 121 121 123 123 121 121 102 102 124 124 144 144 145 145 124 124 145 145 125 125 125 125 145 145 146 146 125 125 146 146 126 126 126 126 146 146 147 147 126 126 147 147 127 127 127 127 147 147 148 148 127 127 148 148 128 128 128 128 148 148 149 149 128 128 149 149 129 129 129 129 149 149 150 150 129 129 150 150 130 130 130 130 150 150 151 151 130 130 151 151 131 131 131 131 151 151 152 152 131 131 152 152 132 132 132 132 152 152 153 153 132 132 153 153 133 133 133 133 153 153 154 154 133 133 154 154 134 134 134 134 154 154 155 155 134 134 155 155 135 135 135 135 155 155 156 156 135 135 156 156 136 136 136 136 156 156 157 157 136 136 157 157 137 137 137 137 157 157 158 158 137 137 158 158 138 138 138 138 158 158 159 159 138 138 159 159 139 139 139 139 159 159 160 160 139 139 160 160 140 140 140 140 160 160 161 161 140 140 161 161 141 141 141 141 161 161 162 162 141 141 162 162 142 142 142 142 162 162 163 163 142 142 163 163 143 143 143 143 163 163 144 144 143 143 144 144 124 124 164 164 144 144 145 145 164 164 145 145 146 146 164 164 146 146 147 147 164 164 147 147 148 148 164 164 148 148 149 149 164 164 149 149 150 150 164 164 150 150 151 151 164 164 151 151 152 152 164 164 152 152 153 153 164 164 153 153 154 154 164 164 154 154 155 155 164 164 155 155 156 156 164 164 156 156 157 157 164 164 157 157 158 158 164 164 158 158 159 159 164 164 159 159 160 160 164 164 160 160 161 161 164 164 161 161 162 162 164 164 162 162 163 163 164 164 163 163 144 144 165 165 185 185 186 186 165 165 186 186 166 166 166 166 186 186 187 187 166 166 187 187 167 167 167 167 187 187 188 188 167 167 188 188 168 168 168 168 188 188 189 189 168 168 189 189 169 169 169 169 189 189 190 190 169 169 190 190 170 170 170 170 190 190 191 191 170 170 191 191 171 171 171 171 191 191 192 192 171 171 192 192 172 172 172 172 192 192 193 193 172 172 193 193 173 173 173 173 193 193 194 194 173 173 194 194 174 174 174 174 194 194 195 195 174 174 195 195 175 175 175 175 195 195 196 196 175 175 196 196 176 176 176 176 196 196 197 197 176 176 197 197 177 177 177 177 197 197 198 198 177 177 198 198 178 178 178 178 198 198 199 199 178 178 199 199 179 179 179 179 199 199 200 200 179 179 200 200 180 180 180 180 200 200 201 201 180 180 201 201 181 181 181 181 201 201 202 202 181 181 202 202 182 182 182 182 202 202 203 203 182 182 203 203 183 183 183 183 203 203 204 204 183 183 204 204 184 184 184 184 204 204 185 185 184 184 185 185 165 165 205 205 185 185 186 186 205 205 186 186 187 187 205 205 187 187 188 188 205 205 188 188 189 189 205 205 189 189 190 190 205 205 190 190 191 191 205 205 191 191 192 192 205 205 192 192 193 193 205 205 193 193 194 194 205 205 194 194 195 195 205 205 195 195 196 196 205 205 196 196 197 197 205 205 197 197 198 198 205 205 198 198 199 199 205 205 199 199 200 200 205 205 200 200 201 201 205 205 201 201 202 202 205 205 202 202 203 203 205 205 203 203 204 204 205 205 204 204 185 185</p>
        </triangles>
      </mesh>
    </geometry>
  </library_geometries>
  <library_visual_scenes>
    <visual_scene id="Scene" name="Scene">
      <node id="snorkel_small" name="snorkel_small" type="NODE">
        <matrix sid="transform">1 0 0 0 0 1 0 0 0 0 1 0 0 0 0 1</matrix>
        <instance_geometry url="#snorkel_small-mesh" name="snorkel_small">
          <bind_material><technique_common>
            <instance_material symbol="snorkel_black" target="#snorkel_black-material"/>
          </technique_common></bind_material>
        </instance_geometry>
      </node>
      <node id="snorkel_medium" name="snorkel_medium" type="NODE">
        <matrix sid="transform">1 0 0 0 0 1 0 0 0 0 1 0 0 0 0 1</matrix>
        <instance_geometry url="#snorkel_medium-mesh" name="snorkel_medium">
          <bind_material><technique_common>
            <instance_material symbol="snorkel_black" target="#snorkel_black-material"/>
          </technique_common></bind_material>
        </instance_geometry>
      </node>
      <node id="snorkel_tall" name="snorkel_tall" type="NODE">
        <matrix sid="transform">1 0 0 0 0 1 0 0 0 0 1 0 0 0 0 1</matrix>
        <instance_geometry url="#snorkel_tall-mesh" name="snorkel_tall">
          <bind_material><technique_common>
            <instance_material symbol="snorkel_black" target="#snorkel_black-material"/>
          </technique_common></bind_material>
        </instance_geometry>
      </node>
    </visual_scene>
  </library_visual_scenes>
  <scene><instance_visual_scene url="#Scene"/></scene>
</COLLADA>
