<?xml version="1.0" encoding="utf-8"?>
<COLLADA xmlns="http://www.collada.org/2005/11/COLLADASchema" version="1.4.1">
  <asset>
    <contributor><authoring_tool>generate_snorkel_dae.py</authoring_tool></contributor>
    <unit name="meter" meter="1"/>
    <up_axis>Z_UP</up_axis>
  </asset>
  <library_effects>
    <effect id="snorkel_black-effect">
      <profile_COMMON><technique sid="common"><phong>
        <diffuse><color sid="diffuse">0.03 0.03 0.03 1</color></diffuse>
        <specular><color sid="specular">0.15 0.15 0.15 1</color></specular>
        <shininess><float sid="shininess">25</float></shininess>
      </phong></technique></profile_COMMON>
    </effect>
  </library_effects>
  <library_materials>
    <material id="snorkel_black-material" name="snorkel_black">
      <instance_effect url="#snorkel_black-effect"/>
    </material>
  </library_materials>
  <library_geometries>
    <geometry id="snorkel_bolide_small_v11-mesh" name="snorkel_bolide_small_v11">
      <mesh>
        <source id="snorkel_bolide_small_v11-pos">
          <float_array id="snorkel_bolide_small_v11-pos-array" count="804">-0.72000 -0.81927 0.67561 -0.72966 -0.81794 0.67188 -0.73867 -0.81880 0.66667 -0.74640 -0.82178 0.66032 -0.75234 -0.82668 0.65326 -0.75607 -0.83318 0.64598 -0.75734 -0.84082 0.63898 -0.75607 -0.84908 0.63273 -0.75234 -0.85741 0.62765 -0.74640 -0.86524 0.62410 -0.73867 -0.87202 0.62231 -0.72966 -0.87731 0.62241 -0.72000 -0.88073 0.62439 -0.71034 -0.88206 0.62812 -0.70133 -0.88120 0.63333 -0.69360 -0.87822 0.63968 -0.68766 -0.87332 0.64674 -0.68393 -0.86682 0.65402 -0.68266 -0.85918 0.66102 -0.68393 -0.85092 0.66727 -0.68766 -0.84259 0.67235 -0.69360 -0.83476 0.67590 -0.70133 -0.82798 0.67769 -0.71034 -0.82269 0.67759 -0.78000 -0.91311 0.75453 -0.78973 -0.91573 0.75181 -0.79881 -0.92069 0.75032 -0.80659 -0.92764 0.75018 -0.81257 -0.93612 0.75139 -0.81633 -0.94554 0.75387 -0.81761 -0.95527 0.75744 -0.81633 -0.96463 0.76187 -0.81257 -0.97300 0.76686 -0.80659 -0.97981 0.77206 -0.79881 -0.98458 0.77712 -0.78973 -0.98699 0.78169 -0.78000 -0.98689 0.78547 -0.77027 -0.98427 0.78819 -0.76119 -0.97931 0.78968 -0.75341 -0.97236 0.78982 -0.74743 -0.96388 0.78861 -0.74367 -0.95446 0.78613 -0.74239 -0.94473 0.78256 -0.74367 -0.93537 0.77813 -0.74743 -0.92700 0.77314 -0.75341 -0.92019 0.76794 -0.76119 -0.91542 0.76288 -0.77027 -0.91301 0.75831 -0.78000 -0.52940 0.81571 -0.79035 -0.52988 0.81701 -0.79999 -0.53173 0.82056 -0.80828 -0.53483 0.82612 -0.81463 -0.53896 0.83330 -0.81863 -0.54384 0.84162 -0.81999 -0.54915 0.85051 -0.81863 -0.55451 0.85937 -0.81463 -0.55956 0.86759 -0.80828 -0.56396 0.87461 -0.79999 -0.56741 0.87995 -0.79035 -0.56968 0.88325 -0.78000 -0.57060 0.88429 -0.76965 -0.57012 0.88299 -0.76001 -0.56827 0.87944 -0.75172 -0.56517 0.87388 -0.74537 -0.56104 0.86670 -0.74137 -0.55616 0.85838 -0.74001 -0.55085 0.84949 -0.74137 -0.54549 0.84063 -0.74537 -0.54044 0.83241 -0.75172 -0.53604 0.82539 -0.76001 -0.53259 0.82005 -0.76965 -0.53032 0.81675 -0.77000 -0.38404 0.98967 -0.78035 -0.38494 0.99072 -0.78999 -0.38789 0.99343 -0.79828 -0.39269 0.99760 -0.80463 -0.39901 1.00296 -0.80863 -0.40641 1.00914 -0.80999 -0.41441 1.01573 -0.80863 -0.42244 1.02226 -0.80463 -0.42997 1.02829 -0.79828 -0.43647 1.03342 -0.78999 -0.44151 1.03730 -0.78035 -0.44475 1.03965 -0.77000 -0.44596 1.04033 -0.75965 -0.44506 1.03928 -0.75001 -0.44211 1.03657 -0.74172 -0.43731 1.03240 -0.73537 -0.43099 1.02704 -0.73137 -0.42359 1.02086 -0.73001 -0.41559 1.01427 -0.73137 -0.40756 1.00774 -0.73537 -0.40003 1.00171 -0.74172 -0.39353 0.99658 -0.75001 -0.38849 0.99270 -0.75965 -0.38525 0.99035 -0.77000 -0.24233 1.16655 -0.78035 -0.24361 1.16701 -0.79000 -0.24738 1.16835 -0.79828 -0.25336 1.17049 -0.80464 -0.26116 1.17328 -0.80864 -0.27025 1.17652 -0.81000 -0.28000 1.18000 -0.80864 -0.28975 1.18348 -0.80464 -0.29884 1.18672 -0.79828 -0.30664 1.18951 -0.79000 -0.31262 1.19165 -0.78035 -0.31639 1.19299 -0.77000 -0.31767 1.19345 -0.75965 -0.31639 1.19299 -0.75000 -0.31262 1.19165 -0.74172 -0.30664 1.18951 -0.73536 -0.29884 1.18672 -0.73136 -0.28975 1.18348 -0.73000 -0.28000 1.18000 -0.73136 -0.27025 1.17652 -0.73536 -0.26116 1.17328 -0.74172 -0.25336 1.17049 -0.75000 -0.24738 1.16835 -0.75965 -0.24361 1.16701 -0.77000 -0.24000 1.50000 -0.78035 -0.24136 1.50000 -0.79000 -0.24536 1.50000 -0.79828 -0.25172 1.50000 -0.80464 -0.26000 1.50000 -0.80864 -0.26965 1.50000 -0.81000 -0.28000 1.50000 -0.80864 -0.29035 1.50000 -0.80464 -0.30000 1.50000 -0.79828 -0.30828 1.50000 -0.79000 -0.31464 1.50000 -0.78035 -0.31864 1.50000 -0.77000 -0.32000 1.50000 -0.75965 -0.31864 1.50000 -0.75000 -0.31464 1.50000 -0.74172 -0.30828 1.50000 -0.73536 -0.30000 1.50000 -0.73136 -0.29035 1.50000 -0.73000 -0.28000 1.50000 -0.73136 -0.26965 1.50000 -0.73536 -0.26000 1.50000 -0.74172 -0.25172 1.50000 -0.75000 -0.24536 1.50000 -0.75965 -0.24136 1.50000 -0.77000 -0.23520 2.02587 -0.78160 -0.23673 2.02498 -0.79240 -0.24120 2.02240 -0.80168 -0.24832 2.01829 -0.80880 -0.25760 2.01293 -0.81327 -0.26840 2.00669 -0.81480 -0.28000 2.00000 -0.81327 -0.29160 1.99331 -0.80880 -0.30240 1.98707 -0.80168 -0.31168 1.98171 -0.79240 -0.31880 1.97760 -0.78160 -0.32327 1.97502 -0.77000 -0.32480 1.97413 -0.75840 -0.32327 1.97502 -0.74760 -0.31880 1.97760 -0.73832 -0.31168 1.98171 -0.73120 -0.30240 1.98707 -0.72673 -0.29160 1.99331 -0.72520 -0.28000 2.00000 -0.72673 -0.26840 2.00669 -0.73120 -0.25760 2.01293 -0.73832 -0.24832 2.01829 -0.74760 -0.24120 2.02240 -0.75840 -0.23673 2.02498 -0.72000 -0.85000 0.65000 -0.77000 -0.28000 2.00000 -0.77700 -0.46900 0.96300 -0.77700 -0.47262 0.96252 -0.77700 -0.47600 0.96112 -0.77700 -0.47890 0.95890 -0.77700 -0.48112 0.95600 -0.77700 -0.48252 0.95262 -0.77700 -0.48300 0.94900 -0.77700 -0.48252 0.94538 -0.77700 -0.48112 0.94200 -0.77700 -0.47890 0.93910 -0.77700 -0.47600 0.93688 -0.77700 -0.47262 0.93548 -0.77700 -0.46900 0.93500 -0.77700 -0.46538 0.93548 -0.77700 -0.46200 0.93688 -0.77700 -0.45910 0.93910 -0.77700 -0.45688 0.94200 -0.77700 -0.45548 0.94538 -0.77700 -0.45500 0.94900 -0.77700 -0.45548 0.95262 -0.77700 -0.45688 0.95600 -0.77700 -0.45910 0.95890 -0.77700 -0.46200 0.96112 -0.77700 -0.46538 0.96252 -0.71700 -0.46900 0.96300 -0.71700 -0.47262 0.96252 -0.71700 -0.47600 0.96112 -0.71700 -0.47890 0.95890 -0.71700 -0.48112 0.95600 -0.71700 -0.48252 0.95262 -0.71700 -0.48300 0.94900 -0.71700 -0.48252 0.94538 -0.71700 -0.48112 0.94200 -0.71700 -0.47890 0.93910 -0.71700 -0.47600 0.93688 -0.71700 -0.47262 0.93548 -0.71700 -0.46900 0.93500 -0.71700 -0.46538 0.93548 -0.71700 -0.46200 0.93688 -0.71700 -0.45910 0.93910 -0.71700 -0.45688 0.94200 -0.71700 -0.45548 0.94538 -0.71700 -0.45500 0.94900 -0.71700 -0.45548 0.95262 -0.71700 -0.45688 0.95600 -0.71700 -0.45910 0.95890 -0.71700 -0.46200 0.96112 -0.71700 -0.46538 0.96252 -0.71700 -0.46900 0.94900 -0.77200 -0.33400 1.12800 -0.77200 -0.33762 1.12752 -0.77200 -0.34100 1.12612 -0.77200 -0.34390 1.12390 -0.77200 -0.34612 1.12100 -0.77200 -0.34752 1.11762 -0.77200 -0.34800 1.11400 -0.77200 -0.34752 1.11038 -0.77200 -0.34612 1.10700 -0.77200 -0.34390 1.10410 -0.77200 -0.34100 1.10188 -0.77200 -0.33762 1.10048 -0.77200 -0.33400 1.10000 -0.77200 -0.33038 1.10048 -0.77200 -0.32700 1.10188 -0.77200 -0.32410 1.10410 -0.77200 -0.32188 1.10700 -0.77200 -0.32048 1.11038 -0.77200 -0.32000 1.11400 -0.77200 -0.32048 1.11762 -0.77200 -0.32188 1.12100 -0.77200 -0.32410 1.12390 -0.77200 -0.32700 1.12612 -0.77200 -0.33038 1.12752 -0.71200 -0.33400 1.12800 -0.71200 -0.33762 1.12752 -0.71200 -0.34100 1.12612 -0.71200 -0.34390 1.12390 -0.71200 -0.34612 1.12100 -0.71200 -0.34752 1.11762 -0.71200 -0.34800 1.11400 -0.71200 -0.34752 1.11038 -0.71200 -0.34612 1.10700 -0.71200 -0.34390 1.10410 -0.71200 -0.34100 1.10188 -0.71200 -0.33762 1.10048 -0.71200 -0.33400 1.10000 -0.71200 -0.33038 1.10048 -0.71200 -0.32700 1.10188 -0.71200 -0.32410 1.10410 -0.71200 -0.32188 1.10700 -0.71200 -0.32048 1.11038 -0.71200 -0.32000 1.11400 -0.71200 -0.32048 1.11762 -0.71200 -0.32188 1.12100 -0.71200 -0.32410 1.12390 -0.71200 -0.32700 1.12612 -0.71200 -0.33038 1.12752 -0.71200 -0.33400 1.11400</float_array>
          <technique_common>
            <accessor source="#snorkel_bolide_small_v11-pos-array" count="268" stride="3">
              <param name="X" type="float"/><param name="Y" type="float"/><param name="Z" type="float"/>
            </accessor>
          </technique_common>
        </source>
        <source id="snorkel_bolide_small_v11-nrm">
          <float_array id="snorkel_bolide_small_v11-nrm-array" count="804">-0.00000 0.76822 0.64018 -0.24161 0.80146 0.54708 -0.46675 0.78007 0.41669 -0.66009 0.70553 0.25790 -0.80844 0.58291 0.08154 -0.90170 0.42056 -0.10038 -0.93350 0.22955 -0.27546 -0.90170 0.02290 -0.43177 -0.80844 -0.18531 -0.55865 -0.66009 -0.38090 -0.64746 -0.46675 -0.55052 -0.69215 -0.24161 -0.68263 -0.68966 -0.00000 -0.76822 -0.64018 0.24161 -0.80146 -0.54708 0.46675 -0.78007 -0.41669 0.66009 -0.70553 -0.25790 0.80844 -0.58291 -0.08154 0.90170 -0.42056 0.10038 0.93350 -0.22955 0.27546 0.90170 -0.02290 0.43177 0.80844 0.18531 0.55865 0.66009 0.38090 0.64746 0.46675 0.55052 0.69215 0.24161 0.68263 0.68966 0.00000 0.92220 -0.38672 -0.24336 0.85670 -0.45480 -0.47013 0.73282 -0.49189 -0.66487 0.55900 -0.49546 -0.81429 0.34708 -0.46526 -0.90822 0.11151 -0.40335 -0.94026 -0.13166 -0.31396 -0.90822 -0.36585 -0.20318 -0.81429 -0.57512 -0.07854 -0.66487 -0.74519 0.05145 -0.47013 -0.86448 0.17793 -0.24336 -0.92485 0.29228 -0.00000 -0.92220 0.38672 0.24336 -0.85670 0.45480 0.47013 -0.73282 0.49189 0.66487 -0.55900 0.49546 0.81429 -0.34708 0.46526 0.90822 -0.11151 0.40335 0.94026 0.13166 0.31396 0.90822 0.36585 0.20318 0.81429 0.57512 0.07854 0.66487 0.74519 -0.05145 0.47013 0.86448 -0.17793 0.24336 0.92485 -0.29228 0.00000 0.51502 -0.85718 -0.25874 0.50300 -0.82465 -0.49985 0.45669 -0.73593 -0.70689 0.37926 -0.59705 -0.86576 0.27599 -0.41749 -0.96563 0.15391 -0.20947 -0.99969 0.02134 0.01282 -0.96563 -0.11269 0.23424 -0.86576 -0.23903 0.43969 -0.70689 -0.34909 0.61518 -0.49985 -0.43536 0.74875 -0.25874 -0.49195 0.83129 -0.00000 -0.51502 0.85718 0.25874 -0.50300 0.82465 0.49985 -0.45669 0.73593 0.70689 -0.37926 0.59705 0.86576 -0.27599 0.41749 0.96563 -0.15391 0.20947 0.99969 -0.02134 -0.01282 0.96563 0.11269 -0.23424 0.86576 0.23903 -0.43969 0.70689 0.34909 -0.61518 0.49985 0.43536 -0.74875 0.25874 0.49195 -0.83129 0.00000 0.77396 -0.63324 -0.25875 0.75143 -0.60697 -0.49986 0.67769 -0.53933 -0.70691 0.55776 -0.43494 -0.86579 0.39983 -0.30091 -0.96566 0.21465 -0.14638 -0.99973 0.01484 0.01814 -0.96566 -0.18598 0.18141 -0.86579 -0.37413 0.33233 -0.70691 -0.53678 0.46059 -0.49986 -0.66285 0.55747 -0.25875 -0.74374 0.61635 -0.00000 -0.77396 0.63324 0.25875 -0.75143 0.60697 0.49986 -0.67769 0.53933 0.70691 -0.55776 0.43494 0.86579 -0.39983 0.30091 0.96566 -0.21465 0.14638 0.99973 -0.01484 -0.01814 0.96566 0.18598 -0.18141 0.86579 0.37413 -0.33233 0.70691 0.53678 -0.46059 0.49986 0.66285 -0.55747 0.25875 0.74374 -0.61635 0.00000 0.94180 -0.33619 -0.25882 0.90970 -0.32473 -0.50000 0.81562 -0.29115 -0.70711 0.66595 -0.23772 -0.86603 0.47090 -0.16809 -0.96593 0.24375 -0.08701 -1.00000 0.00000 -0.00000 -0.96593 -0.24375 0.08701 -0.86603 -0.47090 0.16809 -0.70711 -0.66595 0.23772 -0.50000 -0.81562 0.29115 -0.25882 -0.90970 0.32473 -0.00000 -0.94180 0.33619 0.25882 -0.90970 0.32473 0.50000 -0.81562 0.29115 0.70711 -0.66595 0.23772 0.86603 -0.47090 0.16809 0.96593 -0.24375 0.08701 1.00000 -0.00000 0.00000 0.96593 0.24375 -0.08701 0.86603 0.47090 -0.16809 0.70711 0.66595 -0.23772 0.50000 0.81562 -0.29115 0.25882 0.90970 -0.32473 0.00000 1.00000 0.00000 -0.25882 0.96593 0.00000 -0.50000 0.86603 0.00000 -0.70711 0.70711 0.00000 -0.86603 0.50000 0.00000 -0.96593 0.25882 0.00000 -1.00000 0.00000 0.00000 -0.96593 -0.25882 0.00000 -0.86603 -0.50000 0.00000 -0.70711 -0.70711 0.00000 -0.50000 -0.86603 0.00000 -0.25882 -0.96593 0.00000 -0.00000 -1.00000 0.00000 0.25882 -0.96593 -0.00000 0.50000 -0.86603 -0.00000 0.70711 -0.70711 -0.00000 0.86603 -0.50000 -0.00000 0.96593 -0.25882 -0.00000 1.00000 -0.00000 -0.00000 0.96593 0.25882 0.00000 0.86603 0.50000 0.00000 0.70711 0.70711 0.00000 0.50000 0.86603 0.00000 0.25882 0.96593 0.00000 0.00000 1.00000 0.00000 -0.25882 0.96593 0.00000 -0.50000 0.86603 0.00000 -0.70711 0.70711 0.00000 -0.86603 0.50000 0.00000 -0.96593 0.25882 0.00000 -1.00000 0.00000 0.00000 -0.96593 -0.25882 0.00000 -0.86603 -0.50000 0.00000 -0.70711 -0.70711 0.00000 -0.50000 -0.86603 0.00000 -0.25882 -0.96593 0.00000 -0.00000 -1.00000 0.00000 0.25882 -0.96593 -0.00000 0.50000 -0.86603 -0.00000 0.70711 -0.70711 -0.00000 0.86603 -0.50000 -0.00000 0.96593 -0.25882 -0.00000 1.00000 -0.00000 -0.00000 0.96593 0.25882 0.00000 0.86603 0.50000 0.00000 0.70711 0.70711 0.00000 0.50000 0.86603 0.00000 0.25882 0.96593 0.00000 0.35857 0.59761 -0.71714 0.00000 -0.50001 0.86602 0.00000 0.00000 1.00000 0.00000 -0.25882 0.96593 0.00000 -0.50000 0.86603 0.00000 -0.70711 0.70711 0.00000 -0.86603 0.50000 0.00000 -0.96593 0.25882 0.00000 -1.00000 0.00000 0.00000 -0.96593 -0.25882 0.00000 -0.86603 -0.50000 0.00000 -0.70711 -0.70711 0.00000 -0.50000 -0.86603 0.00000 -0.25882 -0.96593 0.00000 -0.00000 -1.00000 -0.00000 0.25882 -0.96593 -0.00000 0.50000 -0.86603 -0.00000 0.70711 -0.70711 -0.00000 0.86603 -0.50000 -0.00000 0.96593 -0.25882 -0.00000 1.00000 -0.00000 0.00000 0.96593 0.25882 0.00000 0.86603 0.50000 0.00000 0.70711 0.70711 0.00000 0.50000 0.86603 0.00000 0.25882 0.96593 0.00000 0.00000 1.00000 0.00000 -0.25882 0.96593 0.00000 -0.50000 0.86603 0.00000 -0.70711 0.70711 0.00000 -0.86603 0.50000 0.00000 -0.96593 0.25882 0.00000 -1.00000 0.00000 0.00000 -0.96593 -0.25882 0.00000 -0.86603 -0.50000 0.00000 -0.70711 -0.70711 0.00000 -0.50000 -0.86603 0.00000 -0.25882 -0.96593 0.00000 -0.00000 -1.00000 -0.00000 0.25882 -0.96593 -0.00000 0.50000 -0.86603 -0.00000 0.70711 -0.70711 -0.00000 0.86603 -0.50000 -0.00000 0.96593 -0.25882 -0.00000 1.00000 -0.00000 0.00000 0.96593 0.25882 0.00000 0.86603 0.50000 0.00000 0.70711 0.70711 0.00000 0.50000 0.86603 0.00000 0.25882 0.96593 1.00000 0.00000 0.00000 0.00000 0.00000 1.00000 0.00000 -0.25882 0.96593 0.00000 -0.50000 0.86603 0.00000 -0.70711 0.70711 0.00000 -0.86603 0.50000 0.00000 -0.96593 0.25882 0.00000 -1.00000 0.00000 0.00000 -0.96593 -0.25882 0.00000 -0.86603 -0.50000 0.00000 -0.70711 -0.70711 0.00000 -0.50000 -0.86603 0.00000 -0.25882 -0.96593 0.00000 -0.00000 -1.00000 -0.00000 0.25882 -0.96593 -0.00000 0.50000 -0.86603 -0.00000 0.70711 -0.70711 -0.00000 0.86603 -0.50000 -0.00000 0.96593 -0.25882 -0.00000 1.00000 -0.00000 0.00000 0.96593 0.25882 0.00000 0.86603 0.50000 0.00000 0.70711 0.70711 0.00000 0.50000 0.86603 0.00000 0.25882 0.96593 0.00000 0.00000 1.00000 0.00000 -0.25882 0.96593 0.00000 -0.50000 0.86603 0.00000 -0.70711 0.70711 0.00000 -0.86603 0.50000 0.00000 -0.96593 0.25882 0.00000 -1.00000 0.00000 0.00000 -0.96593 -0.25882 0.00000 -0.86603 -0.50000 0.00000 -0.70711 -0.70711 0.00000 -0.50000 -0.86603 0.00000 -0.25882 -0.96593 0.00000 -0.00000 -1.00000 -0.00000 0.25882 -0.96593 -0.00000 0.50000 -0.86603 -0.00000 0.70711 -0.70711 -0.00000 0.86603 -0.50000 -0.00000 0.96593 -0.25882 -0.00000 1.00000 -0.00000 0.00000 0.96593 0.25882 0.00000 0.86603 0.50000 0.00000 0.70711 0.70711 0.00000 0.50000 0.86603 0.00000 0.25882 0.96593 1.00000 0.00000 0.00000</float_array>
          <technique_common>
            <accessor source="#snorkel_bolide_small_v11-nrm-array" count="268" stride="3">
              <param name="X" type="float"/><param name="Y" type="float"/><param name="Z" type="float"/>
            </accessor>
          </technique_common>
        </source>
        <vertices id="snorkel_bolide_small_v11-vtx"><input semantic="POSITION" source="#snorkel_bolide_small_v11-pos"/></vertices>
        <triangles material="snorkel_black" count="480">
          <input semantic="VERTEX" source="#snorkel_bolide_small_v11-vtx" offset="0"/>
          <input semantic="NORMAL" source="#snorkel_bolide_small_v11-nrm" offset="1"/>
          <p>0 0 24 24 25 25 0 0 25 25 1 1 1 1 25 25 26 26 1 1 26 26 2 2 2 2 26 26 27 27 2 2 27 27 3 3 3 3 27 27 28 28 3 3 28 28 4 4 4 4 28 28 29 29 4 4 29 29 5 5 5 5 29 29 30 30 5 5 30 30 6 6 6 6 30 30 31 31 6 6 31 31 7 7 7 7 31 31 32 32 7 7 32 32 8 8 8 8 32 32 33 33 8 8 33 33 9 9 9 9 33 33 34 34 9 9 34 34 10 10 10 10 34 34 35 35 10 10 35 35 11 11 11 11 35 35 36 36 11 11 36 36 12 12 12 12 36 36 37 37 12 12 37 37 13 13 13 13 37 37 38 38 13 13 38 38 14 14 14 14 38 38 39 39 14 14 39 39 15 15 15 15 39 39 40 40 15 15 40 40 16 16 16 16 40 40 41 41 16 16 41 41 17 17 17 17 41 41 42 42 17 17 42 42 18 18 18 18 42 42 43 43 18 18 43 43 19 19 19 19 43 43 44 44 19 19 44 44 20 20 20 20 44 44 45 45 20 20 45 45 21 21 21 21 45 45 46 46 21 21 46 46 22 22 22 22 46 46 47 47 22 22 47 47 23 23 23 23 47 47 24 24 23 23 24 24 0 0 24 24 48 48 49 49 24 24 49 49 25 25 25 25 49 49 50 50 25 25 50 50 26 26 26 26 50 50 51 51 26 26 51 51 27 27 27 27 51 51 52 52 27 27 52 52 28 28 28 28 52 52 53 53 28 28 53 53 29 29 29 29 53 53 54 54 29 29 54 54 30 30 30 30 54 54 55 55 30 30 55 55 31 31 31 31 55 55 56 56 31 31 56 56 32 32 32 32 56 56 57 57 32 32 57 57 33 33 33 33 57 57 58 58 33 33 58 58 34 34 34 34 58 58 59 59 34 34 59 59 35 35 35 35 59 59 60 60 35 35 60 60 36 36 36 36 60 60 61 61 36 36 61 61 37 37 37 37 61 61 62 62 37 37 62 62 38 38 38 38 62 62 63 63 38 38 63 63 39 39 39 39 63 63 64 64 39 39 64 64 40 40 40 40 64 64 65 65 40 40 65 65 41 41 41 41 65 65 66 66 41 41 66 66 42 42 42 42 66 66 67 67 42 42 67 67 43 43 43 43 67 67 68 68 43 43 68 68 44 44 44 44 68 68 69 69 44 44 69 69 45 45 45 45 69 69 70 70 45 45 70 70 46 46 46 46 70 70 71 71 46 46 71 71 47 47 47 47 71 71 48 48 47 47 48 48 24 24 48 48 72 72 73 73 48 48 73 73 49 49 49 49 73 73 74 74 49 49 74 74 50 50 50 50 74 74 75 75 50 50 75 75 51 51 51 51 75 75 76 76 51 51 76 76 52 52 52 52 76 76 77 77 52 52 77 77 53 53 53 53 77 77 78 78 53 53 78 78 54 54 54 54 78 78 79 79 54 54 79 79 55 55 55 55 79 79 80 80 55 55 80 80 56 56 56 56 80 80 81 81 56 56 81 81 57 57 57 57 81 81 82 82 57 57 82 82 58 58 58 58 82 82 83 83 58 58 83 83 59 59 59 59 83 83 84 84 59 59 84 84 60 60 60 60 84 84 85 85 60 60 85 85 61 61 61 61 85 85 86 86 61 61 86 86 62 62 62 62 86 86 87 87 62 62 87 87 63 63 63 63 87 87 88 88 63 63 88 88 64 64 64 64 88 88 89 89 64 64 89 89 65 65 65 65 89 89 90 90 65 65 90 90 66 66 66 66 90 90 91 91 66 66 91 91 67 67 67 67 91 91 92 92 67 67 92 92 68 68 68 68 92 92 93 93 68 68 93 93 69 69 69 69 93 93 94 94 69 69 94 94 70 70 70 70 94 94 95 95 70 70 95 95 71 71 71 71 95 95 72 72 71 71 72 72 48 48 72 72 96 96 97 97 72 72 97 97 73 73 73 73 97 97 98 98 73 73 98 98 74 74 74 74 98 98 99 99 74 74 99 99 75 75 75 75 99 99 100 100 75 75 100 100 76 76 76 76 100 100 101 101 76 76 101 101 77 77 77 77 101 101 102 102 77 77 102 102 78 78 78 78 102 102 103 103 78 78 103 103 79 79 79 79 103 103 104 104 79 79 104 104 80 80 80 80 104 104 105 105 80 80 105 105 81 81 81 81 105 105 106 106 81 81 106 106 82 82 82 82 106 106 107 107 82 82 107 107 83 83 83 83 107 107 108 108 83 83 108 108 84 84 84 84 108 108 109 109 84 84 109 109 85 85 85 85 109 109 110 110 85 85 110 110 86 86 86 86 110 110 111 111 86 86 111 111 87 87 87 87 111 111 112 112 87 87 112 112 88 88 88 88 112 112 113 113 88 88 113 113 89 89 89 89 113 113 114 114 89 89 114 114 90 90 90 90 114 114 115 115 90 90 115 115 91 91 91 91 115 115 116 116 91 91 116 116 92 92 92 92 116 116 117 117 92 92 117 117 93 93 93 93 117 117 118 118 93 93 118 118 94 94 94 94 118 118 119 119 94 94 119 119 95 95 95 95 119 119 96 96 95 95 96 96 72 72 96 96 120 120 121 121 96 96 121 121 97 97 97 97 121 121 122 122 97 97 122 122 98 98 98 98 122 122 123 123 98 98 123 123 99 99 99 99 123 123 124 124 99 99 124 124 100 100 100 100 124 124 125 125 100 100 125 125 101 101 101 101 125 125 126 126 101 101 126 126 102 102 102 102 126 126 127 127 102 102 127 127 103 103 103 103 127 127 128 128 103 103 128 128 104 104 104 104 128 128 129 129 104 104 129 129 105 105 105 105 129 129 130 130 105 105 130 130 106 106 106 106 130 130 131 131 106 106 131 131 107 107 107 107 131 131 132 132 107 107 132 132 108 108 108 108 132 132 133 133 108 108 133 133 109 109 109 109 133 133 134 134 109 109 134 134 110 110 110 110 134 134 135 135 110 110 135 135 111 111 111 111 135 135 136 136 111 111 136 136 112 112 112 112 136 136 137 137 112 112 137 137 113 113 113 113 137 137 138 138 113 113 138 138 114 114 114 114 138 138 139 139 114 114 139 139 115 115 115 115 139 139 140 140 115 115 140 140 116 116 116 116 140 140 141 141 116 116 141 141 117 117 117 117 141 141 142 142 117 117 142 142 118 118 118 118 142 142 143 143 118 118 143 143 119 119 119 119 143 143 120 120 119 119 120 120 96 96 120 120 144 144 145 145 120 120 145 145 121 121 121 121 145 145 146 146 121 121 146 146 122 122 122 122 146 146 147 147 122 122 147 147 123 123 123 123 147 147 148 148 123 123 148 148 124 124 124 124 148 148 149 149 124 124 149 149 125 125 125 125 149 149 150 150 125 125 150 150 126 126 126 126 150 150 151 151 126 126 151 151 127 127 127 127 151 151 152 152 127 127 152 152 128 128 128 128 152 152 153 153 128 128 153 153 129 129 129 129 153 153 154 154 129 129 154 154 130 130 130 130 154 154 155 155 130 130 155 155 131 131 131 131 155 155 156 156 131 131 156 156 132 132 132 132 156 156 157 157 132 132 157 157 133 133 133 133 157 157 158 158 133 133 158 158 134 134 134 134 158 158 159 159 134 134 159 159 135 135 135 135 159 159 160 160 135 135 160 160 136 136 136 136 160 160 161 161 136 136 161 161 137 137 137 137 161 161 162 162 137 137 162 162 138 138 138 138 162 162 163 163 138 138 163 163 139 139 139 139 163 163 164 164 139 139 164 164 140 140 140 140 164 164 165 165 140 140 165 165 141 141 141 141 165 165 166 166 141 141 166 166 142 142 142 142 166 166 167 167 142 142 167 167 143 143 143 143 167 167 144 144 143 143 144 144 120 120 168 168 1 1 0 0 168 168 2 2 1 1 168 168 3 3 2 2 168 168 4 4 3 3 168 168 5 5 4 4 168 168 6 6 5 5 168 168 7 7 6 6 168 168 8 8 7 7 168 168 9 9 8 8 168 168 10 10 9 9 168 168 11 11 10 10 168 168 12 12 11 11 168 168 13 13 12 12 168 168 14 14 13 13 168 168 15 15 14 14 168 168 16 16 15 15 168 168 17 17 16 16 168 168 18 18 17 17 168 168 19 19 18 18 168 168 20 20 19 19 168 168 21 21 20 20 168 168 22 22 21 21 168 168 23 23 22 22 168 168 0 0 23 23 169 169 144 144 145 145 169 169 145 145 146 146 169 169 146 146 147 147 169 169 147 147 148 148 169 169 148 148 149 149 169 169 149 149 150 150 169 169 150 150 151 151 169 169 151 151 152 152 169 169 152 152 153 153 169 169 153 153 154 154 169 169 154 154 155 155 169 169 155 155 156 156 169 169 156 156 157 157 169 169 157 157 158 158 169 169 158 158 159 159 169 169 159 159 160 160 169 169 160 160 161 161 169 169 161 161 162 162 169 169 162 162 163 163 169 169 163 163 164 164 169 169 164 164 165 165 169 169 165 165 166 166 169 169 166 166 167 167 169 169 167 167 144 144 170 170 194 194 195 195 170 170 195 195 171 171 171 171 195 195 196 196 171 171 196 196 172 172 172 172 196 196 197 197 172 172 197 197 173 173 173 173 197 197 198 198 173 173 198 198 174 174 174 174 198 198 199 199 174 174 199 199 175 175 175 175 199 199 200 200 175 175 200 200 176 176 176 176 200 200 201 201 176 176 201 201 177 177 177 177 201 201 202 202 177 177 202 202 178 178 178 178 202 202 203 203 178 178 203 203 179 179 179 179 203 203 204 204 179 179 204 204 180 180 180 180 204 204 205 205 180 180 205 205 181 181 181 181 205 205 206 206 181 181 206 206 182 182 182 182 206 206 207 207 182 182 207 207 183 183 183 183 207 207 208 208 183 183 208 208 184 184 184 184 208 208 209 209 184 184 209 209 185 185 185 185 209 209 210 210 185 185 210 210 186 186 186 186 210 210 211 211 186 186 211 211 187 187 187 187 211 211 212 212 187 187 212 212 188 188 188 188 212 212 213 213 188 188 213 213 189 189 189 189 213 213 214 214 189 189 214 214 190 190 190 190 214 214 215 215 190 190 215 215 191 191 191 191 215 215 216 216 191 191 216 216 192 192 192 192 216 216 217 217 192 192 217 217 193 193 193 193 217 217 194 194 193 193 194 194 170 170 218 218 194 194 195 195 218 218 195 195 196 196 218 218 196 196 197 197 218 218 197 197 198 198 218 218 198 198 199 199 218 218 199 199 200 200 218 218 200 200 201 201 218 218 201 201 202 202 218 218 202 202 203 203 218 218 203 203 204 204 218 218 204 204 205 205 218 218 205 205 206 206 218 218 206 206 207 207 218 218 207 207 208 208 218 218 208 208 209 209 218 218 209 209 210 210 218 218 210 210 211 211 218 218 211 211 212 212 218 218 212 212 213 213 218 218 213 213 214 214 218 218 214 214 215 215 218 218 215 215 216 216 218 218 216 216 217 217 218 218 217 217 194 194 219 219 243 243 244 244 219 219 244 244 220 220 220 220 244 244 245 245 220 220 245 245 221 221 221 221 245 245 246 246 221 221 246 246 222 222 222 222 246 246 247 247 222 222 247 247 223 223 223 223 247 247 248 248 223 223 248 248 224 224 224 224 248 248 249 249 224 224 249 249 225 225 225 225 249 249 250 250 225 225 250 250 226 226 226 226 250 250 251 251 226 226 251 251 227 227 227 227 251 251 252 252 227 227 252 252 228 228 228 228 252 252 253 253 228 228 253 253 229 229 229 229 253 253 254 254 229 229 254 254 230 230 230 230 254 254 255 255 230 230 255 255 231 231 231 231 255 255 256 256 231 231 256 256 232 232 232 232 256 256 257 257 232 232 257 257 233 233 233 233 257 257 258 258 233 233 258 258 234 234 234 234 258 258 259 259 234 234 259 259 235 235 235 235 259 259 260 260 235 235 260 260 236 236 236 236 260 260 261 261 236 236 261 261 237 237 237 237 261 261 262 262 237 237 262 262 238 238 238 238 262 262 263 263 238 238 263 263 239 239 239 239 263 263 264 264 239 239 264 264 240 240 240 240 264 264 265 265 240 240 265 265 241 241 241 241 265 265 266 266 241 241 266 266 242 242 242 242 266 266 243 243 242 242 243 243 219 219 267 267 243 243 244 244 267 267 244 244 245 245 267 267 245 245 246 246 267 267 246 246 247 247 267 267 247 247 248 248 267 267 248 248 249 249 267 267 249 249 250 250 267 267 250 250 251 251 267 267 251 251 252 252 267 267 252 252 253 253 267 267 253 253 254 254 267 267 254 254 255 255 267 267 255 255 256 256 267 267 256 256 257 257 267 267 257 257 258 258 267 267 258 258 259 259 267 267 259 259 260 260 267 267 260 260 261 261 267 267 261 261 262 262 267 267 262 262 263 263 267 267 263 263 264 264 267 267 264 264 265 265 267 267 265 265 266 266 267 267 266 266 243 243</p>
        </triangles>
      </mesh>
    </geometry>
    <geometry id="snorkel_bolide_medium_v11-mesh" name="snorkel_bolide_medium_v11">
      <mesh>
        <source id="snorkel_bolide_medium_v11-pos">
          <float_array id="snorkel_bolide_medium_v11-pos-array" count="948">-0.72000 -0.81927 0.67561 -0.72966 -0.81794 0.67188 -0.73867 -0.81880 0.66667 -0.74640 -0.82178 0.66032 -0.75234 -0.82668 0.65326 -0.75607 -0.83318 0.64598 -0.75734 -0.84082 0.63898 -0.75607 -0.84908 0.63273 -0.75234 -0.85741 0.62765 -0.74640 -0.86524 0.62410 -0.73867 -0.87202 0.62231 -0.72966 -0.87731 0.62241 -0.72000 -0.88073 0.62439 -0.71034 -0.88206 0.62812 -0.70133 -0.88120 0.63333 -0.69360 -0.87822 0.63968 -0.68766 -0.87332 0.64674 -0.68393 -0.86682 0.65402 -0.68266 -0.85918 0.66102 -0.68393 -0.85092 0.66727 -0.68766 -0.84259 0.67235 -0.69360 -0.83476 0.67590 -0.70133 -0.82798 0.67769 -0.71034 -0.82269 0.67759 -0.78000 -0.91311 0.75453 -0.78973 -0.91573 0.75181 -0.79881 -0.92069 0.75032 -0.80659 -0.92764 0.75018 -0.81257 -0.93612 0.75139 -0.81633 -0.94554 0.75387 -0.81761 -0.95527 0.75744 -0.81633 -0.96463 0.76187 -0.81257 -0.97300 0.76686 -0.80659 -0.97981 0.77206 -0.79881 -0.98458 0.77712 -0.78973 -0.98699 0.78169 -0.78000 -0.98689 0.78547 -0.77027 -0.98427 0.78819 -0.76119 -0.97931 0.78968 -0.75341 -0.97236 0.78982 -0.74743 -0.96388 0.78861 -0.74367 -0.95446 0.78613 -0.74239 -0.94473 0.78256 -0.74367 -0.93537 0.77813 -0.74743 -0.92700 0.77314 -0.75341 -0.92019 0.76794 -0.76119 -0.91542 0.76288 -0.77027 -0.91301 0.75831 -0.78000 -0.52940 0.81571 -0.79035 -0.52988 0.81701 -0.79999 -0.53173 0.82056 -0.80828 -0.53483 0.82612 -0.81463 -0.53896 0.83330 -0.81863 -0.54384 0.84162 -0.81999 -0.54915 0.85051 -0.81863 -0.55451 0.85937 -0.81463 -0.55956 0.86759 -0.80828 -0.56396 0.87461 -0.79999 -0.56741 0.87995 -0.79035 -0.56968 0.88325 -0.78000 -0.57060 0.88429 -0.76965 -0.57012 0.88299 -0.76001 -0.56827 0.87944 -0.75172 -0.56517 0.87388 -0.74537 -0.56104 0.86670 -0.74137 -0.55616 0.85838 -0.74001 -0.55085 0.84949 -0.74137 -0.54549 0.84063 -0.74537 -0.54044 0.83241 -0.75172 -0.53604 0.82539 -0.76001 -0.53259 0.82005 -0.76965 -0.53032 0.81675 -0.77000 -0.38404 0.98967 -0.78035 -0.38494 0.99072 -0.78999 -0.38789 0.99343 -0.79828 -0.39269 0.99760 -0.80463 -0.39901 1.00296 -0.80863 -0.40641 1.00914 -0.80999 -0.41441 1.01573 -0.80863 -0.42244 1.02226 -0.80463 -0.42997 1.02829 -0.79828 -0.43647 1.03342 -0.78999 -0.44151 1.03730 -0.78035 -0.44475 1.03965 -0.77000 -0.44596 1.04033 -0.75965 -0.44506 1.03928 -0.75001 -0.44211 1.03657 -0.74172 -0.43731 1.03240 -0.73537 -0.43099 1.02704 -0.73137 -0.42359 1.02086 -0.73001 -0.41559 1.01427 -0.73137 -0.40756 1.00774 -0.73537 -0.40003 1.00171 -0.74172 -0.39353 0.99658 -0.75001 -0.38849 0.99270 -0.75965 -0.38525 0.99035 -0.77000 -0.24233 1.16655 -0.78035 -0.24361 1.16701 -0.79000 -0.24738 1.16835 -0.79828 -0.25336 1.17049 -0.80464 -0.26116 1.17328 -0.80864 -0.27025 1.17652 -0.81000 -0.28000 1.18000 -0.80864 -0.28975 1.18348 -0.80464 -0.29884 1.18672 -0.79828 -0.30664 1.18951 -0.79000 -0.31262 1.19165 -0.78035 -0.31639 1.19299 -0.77000 -0.31767 1.19345 -0.75965 -0.31639 1.19299 -0.75000 -0.31262 1.19165 -0.74172 -0.30664 1.18951 -0.73536 -0.29884 1.18672 -0.73136 -0.28975 1.18348 -0.73000 -0.28000 1.18000 -0.73136 -0.27025 1.17652 -0.73536 -0.26116 1.17328 -0.74172 -0.25336 1.17049 -0.75000 -0.24738 1.16835 -0.75965 -0.24361 1.16701 -0.77000 -0.24000 1.68000 -0.78035 -0.24136 1.68000 -0.79000 -0.24536 1.68000 -0.79828 -0.25172 1.68000 -0.80464 -0.26000 1.68000 -0.80864 -0.26965 1.68000 -0.81000 -0.28000 1.68000 -0.80864 -0.29035 1.68000 -0.80464 -0.30000 1.68000 -0.79828 -0.30828 1.68000 -0.79000 -0.31464 1.68000 -0.78035 -0.31864 1.68000 -0.77000 -0.32000 1.68000 -0.75965 -0.31864 1.68000 -0.75000 -0.31464 1.68000 -0.74172 -0.30828 1.68000 -0.73536 -0.30000 1.68000 -0.73136 -0.29035 1.68000 -0.73000 -0.28000 1.68000 -0.73136 -0.26965 1.68000 -0.73536 -0.26000 1.68000 -0.74172 -0.25172 1.68000 -0.75000 -0.24536 1.68000 -0.75965 -0.24136 1.68000 -0.77000 -0.24000 2.18000 -0.78035 -0.24136 2.18000 -0.79000 -0.24536 2.18000 -0.79828 -0.25172 2.18000 -0.80464 -0.26000 2.18000 -0.80864 -0.26965 2.18000 -0.81000 -0.28000 2.18000 -0.80864 -0.29035 2.18000 -0.80464 -0.30000 2.18000 -0.79828 -0.30828 2.18000 -0.79000 -0.31464 2.18000 -0.78035 -0.31864 2.18000 -0.77000 -0.32000 2.18000 -0.75965 -0.31864 2.18000 -0.75000 -0.31464 2.18000 -0.74172 -0.30828 2.18000 -0.73536 -0.30000 2.18000 -0.73136 -0.29035 2.18000 -0.73000 -0.28000 2.18000 -0.73136 -0.26965 2.18000 -0.73536 -0.26000 2.18000 -0.74172 -0.25172 2.18000 -0.75000 -0.24536 2.18000 -0.75965 -0.24136 2.18000 -0.77000 -0.24000 2.50000 -0.78035 -0.24136 2.50000 -0.79000 -0.24536 2.50000 -0.79828 -0.25172 2.50000 -0.80464 -0.26000 2.50000 -0.80864 -0.26965 2.50000 -0.81000 -0.28000 2.50000 -0.80864 -0.29035 2.50000 -0.80464 -0.30000 2.50000 -0.79828 -0.30828 2.50000 -0.79000 -0.31464 2.50000 -0.78035 -0.31864 2.50000 -0.77000 -0.32000 2.50000 -0.75965 -0.31864 2.50000 -0.75000 -0.31464 2.50000 -0.74172 -0.30828 2.50000 -0.73536 -0.30000 2.50000 -0.73136 -0.29035 2.50000 -0.73000 -0.28000 2.50000 -0.73136 -0.26965 2.50000 -0.73536 -0.26000 2.50000 -0.74172 -0.25172 2.50000 -0.75000 -0.24536 2.50000 -0.75965 -0.24136 2.50000 -0.77000 -0.23520 3.02587 -0.78160 -0.23673 3.02498 -0.79240 -0.24120 3.02240 -0.80168 -0.24832 3.01829 -0.80880 -0.25760 3.01293 -0.81327 -0.26840 3.00669 -0.81480 -0.28000 3.00000 -0.81327 -0.29160 2.99331 -0.80880 -0.30240 2.98707 -0.80168 -0.31168 2.98171 -0.79240 -0.31880 2.97760 -0.78160 -0.32327 2.97502 -0.77000 -0.32480 2.97413 -0.75840 -0.32327 2.97502 -0.74760 -0.31880 2.97760 -0.73832 -0.31168 2.98171 -0.73120 -0.30240 2.98707 -0.72673 -0.29160 2.99331 -0.72520 -0.28000 3.00000 -0.72673 -0.26840 3.00669 -0.73120 -0.25760 3.01293 -0.73832 -0.24832 3.01829 -0.74760 -0.24120 3.02240 -0.75840 -0.23673 3.02498 -0.72000 -0.85000 0.65000 -0.77000 -0.28000 3.00000 -0.77700 -0.46900 0.96300 -0.77700 -0.47262 0.96252 -0.77700 -0.47600 0.96112 -0.77700 -0.47890 0.95890 -0.77700 -0.48112 0.95600 -0.77700 -0.48252 0.95262 -0.77700 -0.48300 0.94900 -0.77700 -0.48252 0.94538 -0.77700 -0.48112 0.94200 -0.77700 -0.47890 0.93910 -0.77700 -0.47600 0.93688 -0.77700 -0.47262 0.93548 -0.77700 -0.46900 0.93500 -0.77700 -0.46538 0.93548 -0.77700 -0.46200 0.93688 -0.77700 -0.45910 0.93910 -0.77700 -0.45688 0.94200 -0.77700 -0.45548 0.94538 -0.77700 -0.45500 0.94900 -0.77700 -0.45548 0.95262 -0.77700 -0.45688 0.95600 -0.77700 -0.45910 0.95890 -0.77700 -0.46200 0.96112 -0.77700 -0.46538 0.96252 -0.71700 -0.46900 0.96300 -0.71700 -0.47262 0.96252 -0.71700 -0.47600 0.96112 -0.71700 -0.47890 0.95890 -0.71700 -0.48112 0.95600 -0.71700 -0.48252 0.95262 -0.71700 -0.48300 0.94900 -0.71700 -0.48252 0.94538 -0.71700 -0.48112 0.94200 -0.71700 -0.47890 0.93910 -0.71700 -0.47600 0.93688 -0.71700 -0.47262 0.93548 -0.71700 -0.46900 0.93500 -0.71700 -0.46538 0.93548 -0.71700 -0.46200 0.93688 -0.71700 -0.45910 0.93910 -0.71700 -0.45688 0.94200 -0.71700 -0.45548 0.94538 -0.71700 -0.45500 0.94900 -0.71700 -0.45548 0.95262 -0.71700 -0.45688 0.95600 -0.71700 -0.45910 0.95890 -0.71700 -0.46200 0.96112 -0.71700 -0.46538 0.96252 -0.71700 -0.46900 0.94900 -0.77200 -0.33400 1.12800 -0.77200 -0.33762 1.12752 -0.77200 -0.34100 1.12612 -0.77200 -0.34390 1.12390 -0.77200 -0.34612 1.12100 -0.77200 -0.34752 1.11762 -0.77200 -0.34800 1.11400 -0.77200 -0.34752 1.11038 -0.77200 -0.34612 1.10700 -0.77200 -0.34390 1.10410 -0.77200 -0.34100 1.10188 -0.77200 -0.33762 1.10048 -0.77200 -0.33400 1.10000 -0.77200 -0.33038 1.10048 -0.77200 -0.32700 1.10188 -0.77200 -0.32410 1.10410 -0.77200 -0.32188 1.10700 -0.77200 -0.32048 1.11038 -0.77200 -0.32000 1.11400 -0.77200 -0.32048 1.11762 -0.77200 -0.32188 1.12100 -0.77200 -0.32410 1.12390 -0.77200 -0.32700 1.12612 -0.77200 -0.33038 1.12752 -0.71200 -0.33400 1.12800 -0.71200 -0.33762 1.12752 -0.71200 -0.34100 1.12612 -0.71200 -0.34390 1.12390 -0.71200 -0.34612 1.12100 -0.71200 -0.34752 1.11762 -0.71200 -0.34800 1.11400 -0.71200 -0.34752 1.11038 -0.71200 -0.34612 1.10700 -0.71200 -0.34390 1.10410 -0.71200 -0.34100 1.10188 -0.71200 -0.33762 1.10048 -0.71200 -0.33400 1.10000 -0.71200 -0.33038 1.10048 -0.71200 -0.32700 1.10188 -0.71200 -0.32410 1.10410 -0.71200 -0.32188 1.10700 -0.71200 -0.32048 1.11038 -0.71200 -0.32000 1.11400 -0.71200 -0.32048 1.11762 -0.71200 -0.32188 1.12100 -0.71200 -0.32410 1.12390 -0.71200 -0.32700 1.12612 -0.71200 -0.33038 1.12752 -0.71200 -0.33400 1.11400</float_array>
          <technique_common>
            <accessor source="#snorkel_bolide_medium_v11-pos-array" count="316" stride="3">
              <param name="X" type="float"/><param name="Y" type="float"/><param name="Z" type="float"/>
            </accessor>
          </technique_common>
        </source>
        <source id="snorkel_bolide_medium_v11-nrm">
          <float_array id="snorkel_bolide_medium_v11-nrm-array" count="948">-0.00000 0.76822 0.64018 -0.24161 0.80146 0.54708 -0.46675 0.78007 0.41669 -0.66009 0.70553 0.25790 -0.80844 0.58291 0.08154 -0.90170 0.42056 -0.10038 -0.93350 0.22955 -0.27546 -0.90170 0.02290 -0.43177 -0.80844 -0.18531 -0.55865 -0.66009 -0.38090 -0.64746 -0.46675 -0.55052 -0.69215 -0.24161 -0.68263 -0.68966 -0.00000 -0.76822 -0.64018 0.24161 -0.80146 -0.54708 0.46675 -0.78007 -0.41669 0.66009 -0.70553 -0.25790 0.80844 -0.58291 -0.08154 0.90170 -0.42056 0.10038 0.93350 -0.22955 0.27546 0.90170 -0.02290 0.43177 0.80844 0.18531 0.55865 0.66009 0.38090 0.64746 0.46675 0.55052 0.69215 0.24161 0.68263 0.68966 0.00000 0.92220 -0.38672 -0.24336 0.85670 -0.45480 -0.47013 0.73282 -0.49189 -0.66487 0.55900 -0.49546 -0.81429 0.34708 -0.46526 -0.90822 0.11151 -0.40335 -0.94026 -0.13166 -0.31396 -0.90822 -0.36585 -0.20318 -0.81429 -0.57512 -0.07854 -0.66487 -0.74519 0.05145 -0.47013 -0.86448 0.17793 -0.24336 -0.92485 0.29228 -0.00000 -0.92220 0.38672 0.24336 -0.85670 0.45480 0.47013 -0.73282 0.49189 0.66487 -0.55900 0.49546 0.81429 -0.34708 0.46526 0.90822 -0.11151 0.40335 0.94026 0.13166 0.31396 0.90822 0.36585 0.20318 0.81429 0.57512 0.07854 0.66487 0.74519 -0.05145 0.47013 0.86448 -0.17793 0.24336 0.92485 -0.29228 0.00000 0.51502 -0.85718 -0.25874 0.50300 -0.82465 -0.49985 0.45669 -0.73593 -0.70689 0.37926 -0.59705 -0.86576 0.27599 -0.41749 -0.96563 0.15391 -0.20947 -0.99969 0.02134 0.01282 -0.96563 -0.11269 0.23424 -0.86576 -0.23903 0.43969 -0.70689 -0.34909 0.61518 -0.49985 -0.43536 0.74875 -0.25874 -0.49195 0.83129 -0.00000 -0.51502 0.85718 0.25874 -0.50300 0.82465 0.49985 -0.45669 0.73593 0.70689 -0.37926 0.59705 0.86576 -0.27599 0.41749 0.96563 -0.15391 0.20947 0.99969 -0.02134 -0.01282 0.96563 0.11269 -0.23424 0.86576 0.23903 -0.43969 0.70689 0.34909 -0.61518 0.49985 0.43536 -0.74875 0.25874 0.49195 -0.83129 0.00000 0.77396 -0.63324 -0.25875 0.75143 -0.60697 -0.49986 0.67769 -0.53933 -0.70691 0.55776 -0.43494 -0.86579 0.39983 -0.30091 -0.96566 0.21465 -0.14638 -0.99973 0.01484 0.01814 -0.96566 -0.18598 0.18141 -0.86579 -0.37413 0.33233 -0.70691 -0.53678 0.46059 -0.49986 -0.66285 0.55747 -0.25875 -0.74374 0.61635 -0.00000 -0.77396 0.63324 0.25875 -0.75143 0.60697 0.49986 -0.67769 0.53933 0.70691 -0.55776 0.43494 0.86579 -0.39983 0.30091 0.96566 -0.21465 0.14638 0.99973 -0.01484 -0.01814 0.96566 0.18598 -0.18141 0.86579 0.37413 -0.33233 0.70691 0.53678 -0.46059 0.49986 0.66285 -0.55747 0.25875 0.74374 -0.61635 0.00000 0.94180 -0.33619 -0.25882 0.90970 -0.32473 -0.50000 0.81562 -0.29115 -0.70711 0.66595 -0.23772 -0.86603 0.47090 -0.16809 -0.96593 0.24375 -0.08701 -1.00000 0.00000 -0.00000 -0.96593 -0.24375 0.08701 -0.86603 -0.47090 0.16809 -0.70711 -0.66595 0.23772 -0.50000 -0.81562 0.29115 -0.25882 -0.90970 0.32473 -0.00000 -0.94180 0.33619 0.25882 -0.90970 0.32473 0.50000 -0.81562 0.29115 0.70711 -0.66595 0.23772 0.86603 -0.47090 0.16809 0.96593 -0.24375 0.08701 1.00000 -0.00000 0.00000 0.96593 0.24375 -0.08701 0.86603 0.47090 -0.16809 0.70711 0.66595 -0.23772 0.50000 0.81562 -0.29115 0.25882 0.90970 -0.32473 0.00000 1.00000 0.00000 -0.25882 0.96593 0.00000 -0.50000 0.86603 0.00000 -0.70711 0.70711 0.00000 -0.86603 0.50000 0.00000 -0.96593 0.25882 0.00000 -1.00000 0.00000 0.00000 -0.96593 -0.25882 0.00000 -0.86603 -0.50000 0.00000 -0.70711 -0.70711 0.00000 -0.50000 -0.86603 0.00000 -0.25882 -0.96593 0.00000 -0.00000 -1.00000 0.00000 0.25882 -0.96593 -0.00000 0.50000 -0.86603 -0.00000 0.70711 -0.70711 -0.00000 0.86603 -0.50000 -0.00000 0.96593 -0.25882 -0.00000 1.00000 -0.00000 -0.00000 0.96593 0.25882 0.00000 0.86603 0.50000 0.00000 0.70711 0.70711 0.00000 0.50000 0.86603 0.00000 0.25882 0.96593 0.00000 0.00000 1.00000 0.00000 -0.25882 0.96593 0.00000 -0.50000 0.86603 0.00000 -0.70711 0.70711 0.00000 -0.86603 0.50000 0.00000 -0.96593 0.25882 0.00000 -1.00000 0.00000 0.00000 -0.96593 -0.25882 0.00000 -0.86603 -0.50000 0.00000 -0.70711 -0.70711 0.00000 -0.50000 -0.86603 0.00000 -0.25882 -0.96593 0.00000 -0.00000 -1.00000 0.00000 0.25882 -0.96593 -0.00000 0.50000 -0.86603 -0.00000 0.70711 -0.70711 -0.00000 0.86603 -0.50000 -0.00000 0.96593 -0.25882 -0.00000 1.00000 -0.00000 -0.00000 0.96593 0.25882 0.00000 0.86603 0.50000 0.00000 0.70711 0.70711 0.00000 0.50000 0.86603 0.00000 0.25882 0.96593 0.00000 0.00000 1.00000 0.00000 -0.25882 0.96593 0.00000 -0.50000 0.86603 0.00000 -0.70711 0.70711 0.00000 -0.86603 0.50000 0.00000 -0.96593 0.25882 0.00000 -1.00000 0.00000 0.00000 -0.96593 -0.25882 0.00000 -0.86603 -0.50000 0.00000 -0.70711 -0.70711 0.00000 -0.50000 -0.86603 0.00000 -0.25882 -0.96593 0.00000 -0.00000 -1.00000 0.00000 0.25882 -0.96593 -0.00000 0.50000 -0.86603 -0.00000 0.70711 -0.70711 -0.00000 0.86603 -0.50000 -0.00000 0.96593 -0.25882 -0.00000 1.00000 -0.00000 -0.00000 0.96593 0.25882 0.00000 0.86603 0.50000 0.00000 0.70711 0.70711 0.00000 0.50000 0.86603 0.00000 0.25882 0.96593 0.00000 0.00000 1.00000 0.00000 -0.25882 0.96593 0.00000 -0.50000 0.86603 0.00000 -0.70711 0.70711 0.00000 -0.86603 0.50000 0.00000 -0.96593 0.25882 0.00000 -1.00000 0.00000 0.00000 -0.96593 -0.25882 0.00000 -0.86603 -0.50000 0.00000 -0.70711 -0.70711 0.00000 -0.50000 -0.86603 0.00000 -0.25882 -0.96593 0.00000 -0.00000 -1.00000 0.00000 0.25882 -0.96593 -0.00000 0.50000 -0.86603 -0.00000 0.70711 -0.70711 -0.00000 0.86603 -0.50000 -0.00000 0.96593 -0.25882 -0.00000 1.00000 -0.00000 -0.00000 0.96593 0.25882 0.00000 0.86603 0.50000 0.00000 0.70711 0.70711 0.00000 0.50000 0.86603 0.00000 0.25882 0.96593 0.00000 0.35857 0.59761 -0.71714 0.00000 -0.50001 0.86602 0.00000 0.00000 1.00000 0.00000 -0.25882 0.96593 0.00000 -0.50000 0.86603 0.00000 -0.70711 0.70711 0.00000 -0.86603 0.50000 0.00000 -0.96593 0.25882 0.00000 -1.00000 0.00000 0.00000 -0.96593 -0.25882 0.00000 -0.86603 -0.50000 0.00000 -0.70711 -0.70711 0.00000 -0.50000 -0.86603 0.00000 -0.25882 -0.96593 0.00000 -0.00000 -1.00000 -0.00000 0.25882 -0.96593 -0.00000 0.50000 -0.86603 -0.00000 0.70711 -0.70711 -0.00000 0.86603 -0.50000 -0.00000 0.96593 -0.25882 -0.00000 1.00000 -0.00000 0.00000 0.96593 0.25882 0.00000 0.86603 0.50000 0.00000 0.70711 0.70711 0.00000 0.50000 0.86603 0.00000 0.25882 0.96593 0.00000 0.00000 1.00000 0.00000 -0.25882 0.96593 0.00000 -0.50000 0.86603 0.00000 -0.70711 0.70711 0.00000 -0.86603 0.50000 0.00000 -0.96593 0.25882 0.00000 -1.00000 0.00000 0.00000 -0.96593 -0.25882 0.00000 -0.86603 -0.50000 0.00000 -0.70711 -0.70711 0.00000 -0.50000 -0.86603 0.00000 -0.25882 -0.96593 0.00000 -0.00000 -1.00000 -0.00000 0.25882 -0.96593 -0.00000 0.50000 -0.86603 -0.00000 0.70711 -0.70711 -0.00000 0.86603 -0.50000 -0.00000 0.96593 -0.25882 -0.00000 1.00000 -0.00000 0.00000 0.96593 0.25882 0.00000 0.86603 0.50000 0.00000 0.70711 0.70711 0.00000 0.50000 0.86603 0.00000 0.25882 0.96593 1.00000 0.00000 0.00000 0.00000 0.00000 1.00000 0.00000 -0.25882 0.96593 0.00000 -0.50000 0.86603 0.00000 -0.70711 0.70711 0.00000 -0.86603 0.50000 0.00000 -0.96593 0.25882 0.00000 -1.00000 0.00000 0.00000 -0.96593 -0.25882 0.00000 -0.86603 -0.50000 0.00000 -0.70711 -0.70711 0.00000 -0.50000 -0.86603 0.00000 -0.25882 -0.96593 0.00000 -0.00000 -1.00000 -0.00000 0.25882 -0.96593 -0.00000 0.50000 -0.86603 -0.00000 0.70711 -0.70711 -0.00000 0.86603 -0.50000 -0.00000 0.96593 -0.25882 -0.00000 1.00000 -0.00000 0.00000 0.96593 0.25882 0.00000 0.86603 0.50000 0.00000 0.70711 0.70711 0.00000 0.50000 0.86603 0.00000 0.25882 0.96593 0.00000 0.00000 1.00000 0.00000 -0.25882 0.96593 0.00000 -0.50000 0.86603 0.00000 -0.70711 0.70711 0.00000 -0.86603 0.50000 0.00000 -0.96593 0.25882 0.00000 -1.00000 0.00000 0.00000 -0.96593 -0.25882 0.00000 -0.86603 -0.50000 0.00000 -0.70711 -0.70711 0.00000 -0.50000 -0.86603 0.00000 -0.25882 -0.96593 0.00000 -0.00000 -1.00000 -0.00000 0.25882 -0.96593 -0.00000 0.50000 -0.86603 -0.00000 0.70711 -0.70711 -0.00000 0.86603 -0.50000 -0.00000 0.96593 -0.25882 -0.00000 1.00000 -0.00000 0.00000 0.96593 0.25882 0.00000 0.86603 0.50000 0.00000 0.70711 0.70711 0.00000 0.50000 0.86603 0.00000 0.25882 0.96593 1.00000 0.00000 0.00000</float_array>
          <technique_common>
            <accessor source="#snorkel_bolide_medium_v11-nrm-array" count="316" stride="3">
              <param name="X" type="float"/><param name="Y" type="float"/><param name="Z" type="float"/>
            </accessor>
          </technique_common>
        </source>
        <vertices id="snorkel_bolide_medium_v11-vtx"><input semantic="POSITION" source="#snorkel_bolide_medium_v11-pos"/></vertices>
        <triangles material="snorkel_black" count="576">
          <input semantic="VERTEX" source="#snorkel_bolide_medium_v11-vtx" offset="0"/>
          <input semantic="NORMAL" source="#snorkel_bolide_medium_v11-nrm" offset="1"/>
          <p>0 0 24 24 25 25 0 0 25 25 1 1 1 1 25 25 26 26 1 1 26 26 2 2 2 2 26 26 27 27 2 2 27 27 3 3 3 3 27 27 28 28 3 3 28 28 4 4 4 4 28 28 29 29 4 4 29 29 5 5 5 5 29 29 30 30 5 5 30 30 6 6 6 6 30 30 31 31 6 6 31 31 7 7 7 7 31 31 32 32 7 7 32 32 8 8 8 8 32 32 33 33 8 8 33 33 9 9 9 9 33 33 34 34 9 9 34 34 10 10 10 10 34 34 35 35 10 10 35 35 11 11 11 11 35 35 36 36 11 11 36 36 12 12 12 12 36 36 37 37 12 12 37 37 13 13 13 13 37 37 38 38 13 13 38 38 14 14 14 14 38 38 39 39 14 14 39 39 15 15 15 15 39 39 40 40 15 15 40 40 16 16 16 16 40 40 41 41 16 16 41 41 17 17 17 17 41 41 42 42 17 17 42 42 18 18 18 18 42 42 43 43 18 18 43 43 19 19 19 19 43 43 44 44 19 19 44 44 20 20 20 20 44 44 45 45 20 20 45 45 21 21 21 21 45 45 46 46 21 21 46 46 22 22 22 22 46 46 47 47 22 22 47 47 23 23 23 23 47 47 24 24 23 23 24 24 0 0 24 24 48 48 49 49 24 24 49 49 25 25 25 25 49 49 50 50 25 25 50 50 26 26 26 26 50 50 51 51 26 26 51 51 27 27 27 27 51 51 52 52 27 27 52 52 28 28 28 28 52 52 53 53 28 28 53 53 29 29 29 29 53 53 54 54 29 29 54 54 30 30 30 30 54 54 55 55 30 30 55 55 31 31 31 31 55 55 56 56 31 31 56 56 32 32 32 32 56 56 57 57 32 32 57 57 33 33 33 33 57 57 58 58 33 33 58 58 34 34 34 34 58 58 59 59 34 34 59 59 35 35 35 35 59 59 60 60 35 35 60 60 36 36 36 36 60 60 61 61 36 36 61 61 37 37 37 37 61 61 62 62 37 37 62 62 38 38 38 38 62 62 63 63 38 38 63 63 39 39 39 39 63 63 64 64 39 39 64 64 40 40 40 40 64 64 65 65 40 40 65 65 41 41 41 41 65 65 66 66 41 41 66 66 42 42 42 42 66 66 67 67 42 42 67 67 43 43 43 43 67 67 68 68 43 43 68 68 44 44 44 44 68 68 69 69 44 44 69 69 45 45 45 45 69 69 70 70 45 45 70 70 46 46 46 46 70 70 71 71 46 46 71 71 47 47 47 47 71 71 48 48 47 47 48 48 24 24 48 48 72 72 73 73 48 48 73 73 49 49 49 49 73 73 74 74 49 49 74 74 50 50 50 50 74 74 75 75 50 50 75 75 51 51 51 51 75 75 76 76 51 51 76 76 52 52 52 52 76 76 77 77 52 52 77 77 53 53 53 53 77 77 78 78 53 53 78 78 54 54 54 54 78 78 79 79 54 54 79 79 55 55 55 55 79 79 80 80 55 55 80 80 56 56 56 56 80 80 81 81 56 56 81 81 57 57 57 57 81 81 82 82 57 57 82 82 58 58 58 58 82 82 83 83 58 58 83 83 59 59 59 59 83 83 84 84 59 59 84 84 60 60 60 60 84 84 85 85 60 60 85 85 61 61 61 61 85 85 86 86 61 61 86 86 62 62 62 62 86 86 87 87 62 62 87 87 63 63 63 63 87 87 88 88 63 63 88 88 64 64 64 64 88 88 89 89 64 64 89 89 65 65 65 65 89 89 90 90 65 65 90 90 66 66 66 66 90 90 91 91 66 66 91 91 67 67 67 67 91 91 92 92 67 67 92 92 68 68 68 68 92 92 93 93 68 68 93 93 69 69 69 69 93 93 94 94 69 69 94 94 70 70 70 70 94 94 95 95 70 70 95 95 71 71 71 71 95 95 72 72 71 71 72 72 48 48 72 72 96 96 97 97 72 72 97 97 73 73 73 73 97 97 98 98 73 73 98 98 74 74 74 74 98 98 99 99 74 74 99 99 75 75 75 75 99 99 100 100 75 75 100 100 76 76 76 76 100 100 101 101 76 76 101 101 77 77 77 77 101 101 102 102 77 77 102 102 78 78 78 78 102 102 103 103 78 78 103 103 79 79 79 79 103 103 104 104 79 79 104 104 80 80 80 80 104 104 105 105 80 80 105 105 81 81 81 81 105 105 106 106 81 81 106 106 82 82 82 82 106 106 107 107 82 82 107 107 83 83 83 83 107 107 108 108 83 83 108 108 84 84 84 84 108 108 109 109 84 84 109 109 85 85 85 85 109 109 110 110 85 85 110 110 86 86 86 86 110 110 111 111 86 86 111 111 87 87 87 87 111 111 112 112 87 87 112 112 88 88 88 88 112 112 113 113 88 88 113 113 89 89 89 89 113 113 114 114 89 89 114 114 90 90 90 90 114 114 115 115 90 90 115 115 91 91 91 91 115 115 116 116 91 91 116 116 92 92 92 92 116 116 117 117 92 92 117 117 93 93 93 93 117 117 118 118 93 93 118 118 94 94 94 94 118 118 119 119 94 94 119 119 95 95 95 95 119 119 96 96 95 95 96 96 72 72 96 96 120 120 121 121 96 96 121 121 97 97 97 97 121 121 122 122 97 97 122 122 98 98 98 98 122 122 123 123 98 98 123 123 99 99 99 99 123 123 124 124 99 99 124 124 100 100 100 100 124 124 125 125 100 100 125 125 101 101 101 101 125 125 126 126 101 101 126 126 102 102 102 102 126 126 127 127 102 102 127 127 103 103 103 103 127 127 128 128 103 103 128 128 104 104 104 104 128 128 129 129 104 104 129 129 105 105 105 105 129 129 130 130 105 105 130 130 106 106 106 106 130 130 131 131 106 106 131 131 107 107 107 107 131 131 132 132 107 107 132 132 108 108 108 108 132 132 133 133 108 108 133 133 109 109 109 109 133 133 134 134 109 109 134 134 110 110 110 110 134 134 135 135 110 110 135 135 111 111 111 111 135 135 136 136 111 111 136 136 112 112 112 112 136 136 137 137 112 112 137 137 113 113 113 113 137 137 138 138 113 113 138 138 114 114 114 114 138 138 139 139 114 114 139 139 115 115 115 115 139 139 140 140 115 115 140 140 116 116 116 116 140 140 141 141 116 116 141 141 117 117 117 117 141 141 142 142 117 117 142 142 118 118 118 118 142 142 143 143 118 118 143 143 119 119 119 119 143 143 120 120 119 119 120 120 96 96 120 120 144 144 145 145 120 120 145 145 121 121 121 121 145 145 146 146 121 121 146 146 122 122 122 122 146 146 147 147 122 122 147 147 123 123 123 123 147 147 148 148 123 123 148 148 124 124 124 124 148 148 149 149 124 124 149 149 125 125 125 125 149 149 150 150 125 125 150 150 126 126 126 126 150 150 151 151 126 126 151 151 127 127 127 127 151 151 152 152 127 127 152 152 128 128 128 128 152 152 153 153 128 128 153 153 129 129 129 129 153 153 154 154 129 129 154 154 130 130 130 130 154 154 155 155 130 130 155 155 131 131 131 131 155 155 156 156 131 131 156 156 132 132 132 132 156 156 157 157 132 132 157 157 133 133 133 133 157 157 158 158 133 133 158 158 134 134 134 134 158 158 159 159 134 134 159 159 135 135 135 135 159 159 160 160 135 135 160 160 136 136 136 136 160 160 161 161 136 136 161 161 137 137 137 137 161 161 162 162 137 137 162 162 138 138 138 138 162 162 163 163 138 138 163 163 139 139 139 139 163 163 164 164 139 139 164 164 140 140 140 140 164 164 165 165 140 140 165 165 141 141 141 141 165 165 166 166 141 141 166 166 142 142 142 142 166 166 167 167 142 142 167 167 143 143 143 143 167 167 144 144 143 143 144 144 120 120 144 144 168 168 169 169 144 144 169 169 145 145 145 145 169 169 170 170 145 145 170 170 146 146 146 146 170 170 171 171 146 146 171 171 147 147 147 147 171 171 172 172 147 147 172 172 148 148 148 148 172 172 173 173 148 148 173 173 149 149 149 149 173 173 174 174 149 149 174 174 150 150 150 150 174 174 175 175 150 150 175 175 151 151 151 151 175 175 176 176 151 151 176 176 152 152 152 152 176 176 177 177 152 152 177 177 153 153 153 153 177 177 178 178 153 153 178 178 154 154 154 154 178 178 179 179 154 154 179 179 155 155 155 155 179 179 180 180 155 155 180 180 156 156 156 156 180 180 181 181 156 156 181 181 157 157 157 157 181 181 182 182 157 157 182 182 158 158 158 158 182 182 183 183 158 158 183 183 159 159 159 159 183 183 184 184 159 159 184 184 160 160 160 160 184 184 185 185 160 160 185 185 161 161 161 161 185 185 186 186 161 161 186 186 162 162 162 162 186 186 187 187 162 162 187 187 163 163 163 163 187 187 188 188 163 163 188 188 164 164 164 164 188 188 189 189 164 164 189 189 165 165 165 165 189 189 190 190 165 165 190 190 166 166 166 166 190 190 191 191 166 166 191 191 167 167 167 167 191 191 168 168 167 167 168 168 144 144 168 168 192 192 193 193 168 168 193 193 169 169 169 169 193 193 194 194 169 169 194 194 170 170 170 170 194 194 195 195 170 170 195 195 171 171 171 171 195 195 196 196 171 171 196 196 172 172 172 172 196 196 197 197 172 172 197 197 173 173 173 173 197 197 198 198 173 173 198 198 174 174 174 174 198 198 199 199 174 174 199 199 175 175 175 175 199 199 200 200 175 175 200 200 176 176 176 176 200 200 201 201 176 176 201 201 177 177 177 177 201 201 202 202 177 177 202 202 178 178 178 178 202 202 203 203 178 178 203 203 179 179 179 179 203 203 204 204 179 179 204 204 180 180 180 180 204 204 205 205 180 180 205 205 181 181 181 181 205 205 206 206 181 181 206 206 182 182 182 182 206 206 207 207 182 182 207 207 183 183 183 183 207 207 208 208 183 183 208 208 184 184 184 184 208 208 209 209 184 184 209 209 185 185 185 185 209 209 210 210 185 185 210 210 186 186 186 186 210 210 211 211 186 186 211 211 187 187 187 187 211 211 212 212 187 187 212 212 188 188 188 188 212 212 213 213 188 188 213 213 189 189 189 189 213 213 214 214 189 189 214 214 190 190 190 190 214 214 215 215 190 190 215 215 191 191 191 191 215 215 192 192 191 191 192 192 168 168 216 216 1 1 0 0 216 216 2 2 1 1 216 216 3 3 2 2 216 216 4 4 3 3 216 216 5 5 4 4 216 216 6 6 5 5 216 216 7 7 6 6 216 216 8 8 7 7 216 216 9 9 8 8 216 216 10 10 9 9 216 216 11 11 10 10 216 216 12 12 11 11 216 216 13 13 12 12 216 216 14 14 13 13 216 216 15 15 14 14 216 216 16 16 15 15 216 216 17 17 16 16 216 216 18 18 17 17 216 216 19 19 18 18 216 216 20 20 19 19 216 216 21 21 20 20 216 216 22 22 21 21 216 216 23 23 22 22 216 216 0 0 23 23 217 217 192 192 193 193 217 217 193 193 194 194 217 217 194 194 195 195 217 217 195 195 196 196 217 217 196 196 197 197 217 217 197 197 198 198 217 217 198 198 199 199 217 217 199 199 200 200 217 217 200 200 201 201 217 217 201 201 202 202 217 217 202 202 203 203 217 217 203 203 204 204 217 217 204 204 205 205 217 217 205 205 206 206 217 217 206 206 207 207 217 217 207 207 208 208 217 217 208 208 209 209 217 217 209 209 210 210 217 217 210 210 211 211 217 217 211 211 212 212 217 217 212 212 213 213 217 217 213 213 214 214 217 217 214 214 215 215 217 217 215 215 192 192 218 218 242 242 243 243 218 218 243 243 219 219 219 219 243 243 244 244 219 219 244 244 220 220 220 220 244 244 245 245 220 220 245 245 221 221 221 221 245 245 246 246 221 221 246 246 222 222 222 222 246 246 247 247 222 222 247 247 223 223 223 223 247 247 248 248 223 223 248 248 224 224 224 224 248 248 249 249 224 224 249 249 225 225 225 225 249 249 250 250 225 225 250 250 226 226 226 226 250 250 251 251 226 226 251 251 227 227 227 227 251 251 252 252 227 227 252 252 228 228 228 228 252 252 253 253 228 228 253 253 229 229 229 229 253 253 254 254 229 229 254 254 230 230 230 230 254 254 255 255 230 230 255 255 231 231 231 231 255 255 256 256 231 231 256 256 232 232 232 232 256 256 257 257 232 232 257 257 233 233 233 233 257 257 258 258 233 233 258 258 234 234 234 234 258 258 259 259 234 234 259 259 235 235 235 235 259 259 260 260 235 235 260 260 236 236 236 236 260 260 261 261 236 236 261 261 237 237 237 237 261 261 262 262 237 237 262 262 238 238 238 238 262 262 263 263 238 238 263 263 239 239 239 239 263 263 264 264 239 239 264 264 240 240 240 240 264 264 265 265 240 240 265 265 241 241 241 241 265 265 242 242 241 241 242 242 218 218 266 266 242 242 243 243 266 266 243 243 244 244 266 266 244 244 245 245 266 266 245 245 246 246 266 266 246 246 247 247 266 266 247 247 248 248 266 266 248 248 249 249 266 266 249 249 250 250 266 266 250 250 251 251 266 266 251 251 252 252 266 266 252 252 253 253 266 266 253 253 254 254 266 266 254 254 255 255 266 266 255 255 256 256 266 266 256 256 257 257 266 266 257 257 258 258 266 266 258 258 259 259 266 266 259 259 260 260 266 266 260 260 261 261 266 266 261 261 262 262 266 266 262 262 263 263 266 266 263 263 264 264 266 266 264 264 265 265 266 266 265 265 242 242 267 267 291 291 292 292 267 267 292 292 268 268 268 268 292 292 293 293 268 268 293 293 269 269 269 269 293 293 294 294 269 269 294 294 270 270 270 270 294 294 295 295 270 270 295 295 271 271 271 271 295 295 296 296 271 271 296 296 272 272 272 272 296 296 297 297 272 272 297 297 273 273 273 273 297 297 298 298 273 273 298 298 274 274 274 274 298 298 299 299 274 274 299 299 275 275 275 275 299 299 300 300 275 275 300 300 276 276 276 276 300 300 301 301 276 276 301 301 277 277 277 277 301 301 302 302 277 277 302 302 278 278 278 278 302 302 303 303 278 278 303 303 279 279 279 279 303 303 304 304 279 279 304 304 280 280 280 280 304 304 305 305 280 280 305 305 281 281 281 281 305 305 306 306 281 281 306 306 282 282 282 282 306 306 307 307 282 282 307 307 283 283 283 283 307 307 308 308 283 283 308 308 284 284 284 284 308 308 309 309 284 284 309 309 285 285 285 285 309 309 310 310 285 285 310 310 286 286 286 286 310 310 311 311 286 286 311 311 287 287 287 287 311 311 312 312 287 287 312 312 288 288 288 288 312 312 313 313 288 288 313 313 289 289 289 289 313 313 314 314 289 289 314 314 290 290 290 290 314 314 291 291 290 290 291 291 267 267 315 315 291 291 292 292 315 315 292 292 293 293 315 315 293 293 294 294 315 315 294 294 295 295 315 315 295 295 296 296 315 315 296 296 297 297 315 315 297 297 298 298 315 315 298 298 299 299 315 315 299 299 300 300 315 315 300 300 301 301 315 315 301 301 302 302 315 315 302 302 303 303 315 315 303 303 304 304 315 315 304 304 305 305 315 315 305 305 306 306 315 315 306 306 307 307 315 315 307 307 308 308 315 315 308 308 309 309 315 315 309 309 310 310 315 315 310 310 311 311 315 315 311 311 312 312 315 315 312 312 313 313 315 315 313 313 314 314 315 315 314 314 291 291</p>
        </triangles>
      </mesh>
    </geometry>
    <geometry id="snorkel_bolide_tall_v11-mesh" name="snorkel_bolide_tall_v11">
      <mesh>
        <source id="snorkel_bolide_tall_v11-pos">
          <float_array id="snorkel_bolide_tall_v11-pos-array" count="1236">-0.72000 -0.81927 0.67561 -0.72966 -0.81794 0.67188 -0.73867 -0.81880 0.66667 -0.74640 -0.82178 0.66032 -0.75234 -0.82668 0.65326 -0.75607 -0.83318 0.64598 -0.75734 -0.84082 0.63898 -0.75607 -0.84908 0.63273 -0.75234 -0.85741 0.62765 -0.74640 -0.86524 0.62410 -0.73867 -0.87202 0.62231 -0.72966 -0.87731 0.62241 -0.72000 -0.88073 0.62439 -0.71034 -0.88206 0.62812 -0.70133 -0.88120 0.63333 -0.69360 -0.87822 0.63968 -0.68766 -0.87332 0.64674 -0.68393 -0.86682 0.65402 -0.68266 -0.85918 0.66102 -0.68393 -0.85092 0.66727 -0.68766 -0.84259 0.67235 -0.69360 -0.83476 0.67590 -0.70133 -0.82798 0.67769 -0.71034 -0.82269 0.67759 -0.78000 -0.91311 0.75453 -0.78973 -0.91573 0.75181 -0.79881 -0.92069 0.75032 -0.80659 -0.92764 0.75018 -0.81257 -0.93612 0.75139 -0.81633 -0.94554 0.75387 -0.81761 -0.95527 0.75744 -0.81633 -0.96463 0.76187 -0.81257 -0.97300 0.76686 -0.80659 -0.97981 0.77206 -0.79881 -0.98458 0.77712 -0.78973 -0.98699 0.78169 -0.78000 -0.98689 0.78547 -0.77027 -0.98427 0.78819 -0.76119 -0.97931 0.78968 -0.75341 -0.97236 0.78982 -0.74743 -0.96388 0.78861 -0.74367 -0.95446 0.78613 -0.74239 -0.94473 0.78256 -0.74367 -0.93537 0.77813 -0.74743 -0.92700 0.77314 -0.75341 -0.92019 0.76794 -0.76119 -0.91542 0.76288 -0.77027 -0.91301 0.75831 -0.78000 -0.52940 0.81571 -0.79035 -0.52988 0.81701 -0.79999 -0.53173 0.82056 -0.80828 -0.53483 0.82612 -0.81463 -0.53896 0.83330 -0.81863 -0.54384 0.84162 -0.81999 -0.54915 0.85051 -0.81863 -0.55451 0.85937 -0.81463 -0.55956 0.86759 -0.80828 -0.56396 0.87461 -0.79999 -0.56741 0.87995 -0.79035 -0.56968 0.88325 -0.78000 -0.57060 0.88429 -0.76965 -0.57012 0.88299 -0.76001 -0.56827 0.87944 -0.75172 -0.56517 0.87388 -0.74537 -0.56104 0.86670 -0.74137 -0.55616 0.85838 -0.74001 -0.55085 0.84949 -0.74137 -0.54549 0.84063 -0.74537 -0.54044 0.83241 -0.75172 -0.53604 0.82539 -0.76001 -0.53259 0.82005 -0.76965 -0.53032 0.81675 -0.77000 -0.38404 0.98967 -0.78035 -0.38494 0.99072 -0.78999 -0.38789 0.99343 -0.79828 -0.39269 0.99760 -0.80463 -0.39901 1.00296 -0.80863 -0.40641 1.00914 -0.80999 -0.41441 1.01573 -0.80863 -0.42244 1.02226 -0.80463 -0.42997 1.02829 -0.79828 -0.43647 1.03342 -0.78999 -0.44151 1.03730 -0.78035 -0.44475 1.03965 -0.77000 -0.44596 1.04033 -0.75965 -0.44506 1.03928 -0.75001 -0.44211 1.03657 -0.74172 -0.43731 1.03240 -0.73537 -0.43099 1.02704 -0.73137 -0.42359 1.02086 -0.73001 -0.41559 1.01427 -0.73137 -0.40756 1.00774 -0.73537 -0.40003 1.00171 -0.74172 -0.39353 0.99658 -0.75001 -0.38849 0.99270 -0.75965 -0.38525 0.99035 -0.77000 -0.24233 1.16655 -0.78035 -0.24361 1.16701 -0.79000 -0.24738 1.16835 -0.79828 -0.25336 1.17049 -0.80464 -0.26116 1.17328 -0.80864 -0.27025 1.17652 -0.81000 -0.28000 1.18000 -0.80864 -0.28975 1.18348 -0.80464 -0.29884 1.18672 -0.79828 -0.30664 1.18951 -0.79000 -0.31262 1.19165 -0.78035 -0.31639 1.19299 -0.77000 -0.31767 1.19345 -0.75965 -0.31639 1.19299 -0.75000 -0.31262 1.19165 -0.74172 -0.30664 1.18951 -0.73536 -0.29884 1.18672 -0.73136 -0.28975 1.18348 -0.73000 -0.28000 1.18000 -0.73136 -0.27025 1.17652 -0.73536 -0.26116 1.17328 -0.74172 -0.25336 1.17049 -0.75000 -0.24738 1.16835 -0.75965 -0.24361 1.16701 -0.77000 -0.24000 1.68000 -0.78035 -0.24136 1.68000 -0.79000 -0.24536 1.68000 -0.79828 -0.25172 1.68000 -0.80464 -0.26000 1.68000 -0.80864 -0.26965 1.68000 -0.81000 -0.28000 1.68000 -0.80864 -0.29035 1.68000 -0.80464 -0.30000 1.68000 -0.79828 -0.30828 1.68000 -0.79000 -0.31464 1.68000 -0.78035 -0.31864 1.68000 -0.77000 -0.32000 1.68000 -0.75965 -0.31864 1.68000 -0.75000 -0.31464 1.68000 -0.74172 -0.30828 1.68000 -0.73536 -0.30000 1.68000 -0.73136 -0.29035 1.68000 -0.73000 -0.28000 1.68000 -0.73136 -0.26965 1.68000 -0.73536 -0.26000 1.68000 -0.74172 -0.25172 1.68000 -0.75000 -0.24536 1.68000 -0.75965 -0.24136 1.68000 -0.77000 -0.24000 2.18000 -0.78035 -0.24136 2.18000 -0.79000 -0.24536 2.18000 -0.79828 -0.25172 2.18000 -0.80464 -0.26000 2.18000 -0.80864 -0.26965 2.18000 -0.81000 -0.28000 2.18000 -0.80864 -0.29035 2.18000 -0.80464 -0.30000 2.18000 -0.79828 -0.30828 2.18000 -0.79000 -0.31464 2.18000 -0.78035 -0.31864 2.18000 -0.77000 -0.32000 2.18000 -0.75965 -0.31864 2.18000 -0.75000 -0.31464 2.18000 -0.74172 -0.30828 2.18000 -0.73536 -0.30000 2.18000 -0.73136 -0.29035 2.18000 -0.73000 -0.28000 2.18000 -0.73136 -0.26965 2.18000 -0.73536 -0.26000 2.18000 -0.74172 -0.25172 2.18000 -0.75000 -0.24536 2.18000 -0.75965 -0.24136 2.18000 -0.77000 -0.24000 2.68000 -0.78035 -0.24136 2.68000 -0.79000 -0.24536 2.68000 -0.79828 -0.25172 2.68000 -0.80464 -0.26000 2.68000 -0.80864 -0.26965 2.68000 -0.81000 -0.28000 2.68000 -0.80864 -0.29035 2.68000 -0.80464 -0.30000 2.68000 -0.79828 -0.30828 2.68000 -0.79000 -0.31464 2.68000 -0.78035 -0.31864 2.68000 -0.77000 -0.32000 2.68000 -0.75965 -0.31864 2.68000 -0.75000 -0.31464 2.68000 -0.74172 -0.30828 2.68000 -0.73536 -0.30000 2.68000 -0.73136 -0.29035 2.68000 -0.73000 -0.28000 2.68000 -0.73136 -0.26965 2.68000 -0.73536 -0.26000 2.68000 -0.74172 -0.25172 2.68000 -0.75000 -0.24536 2.68000 -0.75965 -0.24136 2.68000 -0.77000 -0.24000 3.18000 -0.78035 -0.24136 3.18000 -0.79000 -0.24536 3.18000 -0.79828 -0.25172 3.18000 -0.80464 -0.26000 3.18000 -0.80864 -0.26965 3.18000 -0.81000 -0.28000 3.18000 -0.80864 -0.29035 3.18000 -0.80464 -0.30000 3.18000 -0.79828 -0.30828 3.18000 -0.79000 -0.31464 3.18000 -0.78035 -0.31864 3.18000 -0.77000 -0.32000 3.18000 -0.75965 -0.31864 3.18000 -0.75000 -0.31464 3.18000 -0.74172 -0.30828 3.18000 -0.73536 -0.30000 3.18000 -0.73136 -0.29035 3.18000 -0.73000 -0.28000 3.18000 -0.73136 -0.26965 3.18000 -0.73536 -0.26000 3.18000 -0.74172 -0.25172 3.18000 -0.75000 -0.24536 3.18000 -0.75965 -0.24136 3.18000 -0.77000 -0.24000 3.68000 -0.78035 -0.24136 3.68000 -0.79000 -0.24536 3.68000 -0.79828 -0.25172 3.68000 -0.80464 -0.26000 3.68000 -0.80864 -0.26965 3.68000 -0.81000 -0.28000 3.68000 -0.80864 -0.29035 3.68000 -0.80464 -0.30000 3.68000 -0.79828 -0.30828 3.68000 -0.79000 -0.31464 3.68000 -0.78035 -0.31864 3.68000 -0.77000 -0.32000 3.68000 -0.75965 -0.31864 3.68000 -0.75000 -0.31464 3.68000 -0.74172 -0.30828 3.68000 -0.73536 -0.30000 3.68000 -0.73136 -0.29035 3.68000 -0.73000 -0.28000 3.68000 -0.73136 -0.26965 3.68000 -0.73536 -0.26000 3.68000 -0.74172 -0.25172 3.68000 -0.75000 -0.24536 3.68000 -0.75965 -0.24136 3.68000 -0.77000 -0.24000 4.18000 -0.78035 -0.24136 4.18000 -0.79000 -0.24536 4.18000 -0.79828 -0.25172 4.18000 -0.80464 -0.26000 4.18000 -0.80864 -0.26965 4.18000 -0.81000 -0.28000 4.18000 -0.80864 -0.29035 4.18000 -0.80464 -0.30000 4.18000 -0.79828 -0.30828 4.18000 -0.79000 -0.31464 4.18000 -0.78035 -0.31864 4.18000 -0.77000 -0.32000 4.18000 -0.75965 -0.31864 4.18000 -0.75000 -0.31464 4.18000 -0.74172 -0.30828 4.18000 -0.73536 -0.30000 4.18000 -0.73136 -0.29035 4.18000 -0.73000 -0.28000 4.18000 -0.73136 -0.26965 4.18000 -0.73536 -0.26000 4.18000 -0.74172 -0.25172 4.18000 -0.75000 -0.24536 4.18000 -0.75965 -0.24136 4.18000 -0.77000 -0.24000 4.50000 -0.78035 -0.24136 4.50000 -0.79000 -0.24536 4.50000 -0.79828 -0.25172 4.50000 -0.80464 -0.26000 4.50000 -0.80864 -0.26965 4.50000 -0.81000 -0.28000 4.50000 -0.80864 -0.29035 4.50000 -0.80464 -0.30000 4.50000 -0.79828 -0.30828 4.50000 -0.79000 -0.31464 4.50000 -0.78035 -0.31864 4.50000 -0.77000 -0.32000 4.50000 -0.75965 -0.31864 4.50000 -0.75000 -0.31464 4.50000 -0.74172 -0.30828 4.50000 -0.73536 -0.30000 4.50000 -0.73136 -0.29035 4.50000 -0.73000 -0.28000 4.50000 -0.73136 -0.26965 4.50000 -0.73536 -0.26000 4.50000 -0.74172 -0.25172 4.50000 -0.75000 -0.24536 4.50000 -0.75965 -0.24136 4.50000 -0.77000 -0.23520 5.02587 -0.78160 -0.23673 5.02498 -0.79240 -0.24120 5.02240 -0.80168 -0.24832 5.01829 -0.80880 -0.25760 5.01293 -0.81327 -0.26840 5.00669 -0.81480 -0.28000 5.00000 -0.81327 -0.29160 4.99331 -0.80880 -0.30240 4.98707 -0.80168 -0.31168 4.98171 -0.79240 -0.31880 4.97760 -0.78160 -0.32327 4.97502 -0.77000 -0.32480 4.97413 -0.75840 -0.32327 4.97502 -0.74760 -0.31880 4.97760 -0.73832 -0.31168 4.98171 -0.73120 -0.30240 4.98707 -0.72673 -0.29160 4.99331 -0.72520 -0.28000 5.00000 -0.72673 -0.26840 5.00669 -0.73120 -0.25760 5.01293 -0.73832 -0.24832 5.01829 -0.74760 -0.24120 5.02240 -0.75840 -0.23673 5.02498 -0.72000 -0.85000 0.65000 -0.77000 -0.28000 5.00000 -0.77700 -0.46900 0.96300 -0.77700 -0.47262 0.96252 -0.77700 -0.47600 0.96112 -0.77700 -0.47890 0.95890 -0.77700 -0.48112 0.95600 -0.77700 -0.48252 0.95262 -0.77700 -0.48300 0.94900 -0.77700 -0.48252 0.94538 -0.77700 -0.48112 0.94200 -0.77700 -0.47890 0.93910 -0.77700 -0.47600 0.93688 -0.77700 -0.47262 0.93548 -0.77700 -0.46900 0.93500 -0.77700 -0.46538 0.93548 -0.77700 -0.46200 0.93688 -0.77700 -0.45910 0.93910 -0.77700 -0.45688 0.94200 -0.77700 -0.45548 0.94538 -0.77700 -0.45500 0.94900 -0.77700 -0.45548 0.95262 -0.77700 -0.45688 0.95600 -0.77700 -0.45910 0.95890 -0.77700 -0.46200 0.96112 -0.77700 -0.46538 0.96252 -0.71700 -0.46900 0.96300 -0.71700 -0.47262 0.96252 -0.71700 -0.47600 0.96112 -0.71700 -0.47890 0.95890 -0.71700 -0.48112 0.95600 -0.71700 -0.48252 0.95262 -0.71700 -0.48300 0.94900 -0.71700 -0.48252 0.94538 -0.71700 -0.48112 0.94200 -0.71700 -0.47890 0.93910 -0.71700 -0.47600 0.93688 -0.71700 -0.47262 0.93548 -0.71700 -0.46900 0.93500 -0.71700 -0.46538 0.93548 -0.71700 -0.46200 0.93688 -0.71700 -0.45910 0.93910 -0.71700 -0.45688 0.94200 -0.71700 -0.45548 0.94538 -0.71700 -0.45500 0.94900 -0.71700 -0.45548 0.95262 -0.71700 -0.45688 0.95600 -0.71700 -0.45910 0.95890 -0.71700 -0.46200 0.96112 -0.71700 -0.46538 0.96252 -0.71700 -0.46900 0.94900 -0.77200 -0.33400 1.12800 -0.77200 -0.33762 1.12752 -0.77200 -0.34100 1.12612 -0.77200 -0.34390 1.12390 -0.77200 -0.34612 1.12100 -0.77200 -0.34752 1.11762 -0.77200 -0.34800 1.11400 -0.77200 -0.34752 1.11038 -0.77200 -0.34612 1.10700 -0.77200 -0.34390 1.10410 -0.77200 -0.34100 1.10188 -0.77200 -0.33762 1.10048 -0.77200 -0.33400 1.10000 -0.77200 -0.33038 1.10048 -0.77200 -0.32700 1.10188 -0.77200 -0.32410 1.10410 -0.77200 -0.32188 1.10700 -0.77200 -0.32048 1.11038 -0.77200 -0.32000 1.11400 -0.77200 -0.32048 1.11762 -0.77200 -0.32188 1.12100 -0.77200 -0.32410 1.12390 -0.77200 -0.32700 1.12612 -0.77200 -0.33038 1.12752 -0.71200 -0.33400 1.12800 -0.71200 -0.33762 1.12752 -0.71200 -0.34100 1.12612 -0.71200 -0.34390 1.12390 -0.71200 -0.34612 1.12100 -0.71200 -0.34752 1.11762 -0.71200 -0.34800 1.11400 -0.71200 -0.34752 1.11038 -0.71200 -0.34612 1.10700 -0.71200 -0.34390 1.10410 -0.71200 -0.34100 1.10188 -0.71200 -0.33762 1.10048 -0.71200 -0.33400 1.10000 -0.71200 -0.33038 1.10048 -0.71200 -0.32700 1.10188 -0.71200 -0.32410 1.10410 -0.71200 -0.32188 1.10700 -0.71200 -0.32048 1.11038 -0.71200 -0.32000 1.11400 -0.71200 -0.32048 1.11762 -0.71200 -0.32188 1.12100 -0.71200 -0.32410 1.12390 -0.71200 -0.32700 1.12612 -0.71200 -0.33038 1.12752 -0.71200 -0.33400 1.11400</float_array>
          <technique_common>
            <accessor source="#snorkel_bolide_tall_v11-pos-array" count="412" stride="3">
              <param name="X" type="float"/><param name="Y" type="float"/><param name="Z" type="float"/>
            </accessor>
          </technique_common>
        </source>
        <source id="snorkel_bolide_tall_v11-nrm">
          <float_array id="snorkel_bolide_tall_v11-nrm-array" count="1236">-0.00000 0.76822 0.64018 -0.24161 0.80146 0.54708 -0.46675 0.78007 0.41669 -0.66009 0.70553 0.25790 -0.80844 0.58291 0.08154 -0.90170 0.42056 -0.10038 -0.93350 0.22955 -0.27546 -0.90170 0.02290 -0.43177 -0.80844 -0.18531 -0.55865 -0.66009 -0.38090 -0.64746 -0.46675 -0.55052 -0.69215 -0.24161 -0.68263 -0.68966 -0.00000 -0.76822 -0.64018 0.24161 -0.80146 -0.54708 0.46675 -0.78007 -0.41669 0.66009 -0.70553 -0.25790 0.80844 -0.58291 -0.08154 0.90170 -0.42056 0.10038 0.93350 -0.22955 0.27546 0.90170 -0.02290 0.43177 0.80844 0.18531 0.55865 0.66009 0.38090 0.64746 0.46675 0.55052 0.69215 0.24161 0.68263 0.68966 0.00000 0.92220 -0.38672 -0.24336 0.85670 -0.45480 -0.47013 0.73282 -0.49189 -0.66487 0.55900 -0.49546 -0.81429 0.34708 -0.46526 -0.90822 0.11151 -0.40335 -0.94026 -0.13166 -0.31396 -0.90822 -0.36585 -0.20318 -0.81429 -0.57512 -0.07854 -0.66487 -0.74519 0.05145 -0.47013 -0.86448 0.17793 -0.24336 -0.92485 0.29228 -0.00000 -0.92220 0.38672 0.24336 -0.85670 0.45480 0.47013 -0.73282 0.49189 0.66487 -0.55900 0.49546 0.81429 -0.34708 0.46526 0.90822 -0.11151 0.40335 0.94026 0.13166 0.31396 0.90822 0.36585 0.20318 0.81429 0.57512 0.07854 0.66487 0.74519 -0.05145 0.47013 0.86448 -0.17793 0.24336 0.92485 -0.29228 0.00000 0.51502 -0.85718 -0.25874 0.50300 -0.82465 -0.49985 0.45669 -0.73593 -0.70689 0.37926 -0.59705 -0.86576 0.27599 -0.41749 -0.96563 0.15391 -0.20947 -0.99969 0.02134 0.01282 -0.96563 -0.11269 0.23424 -0.86576 -0.23903 0.43969 -0.70689 -0.34909 0.61518 -0.49985 -0.43536 0.74875 -0.25874 -0.49195 0.83129 -0.00000 -0.51502 0.85718 0.25874 -0.50300 0.82465 0.49985 -0.45669 0.73593 0.70689 -0.37926 0.59705 0.86576 -0.27599 0.41749 0.96563 -0.15391 0.20947 0.99969 -0.02134 -0.01282 0.96563 0.11269 -0.23424 0.86576 0.23903 -0.43969 0.70689 0.34909 -0.61518 0.49985 0.43536 -0.74875 0.25874 0.49195 -0.83129 0.00000 0.77396 -0.63324 -0.25875 0.75143 -0.60697 -0.49986 0.67769 -0.53933 -0.70691 0.55776 -0.43494 -0.86579 0.39983 -0.30091 -0.96566 0.21465 -0.14638 -0.99973 0.01484 0.01814 -0.96566 -0.18598 0.18141 -0.86579 -0.37413 0.33233 -0.70691 -0.53678 0.46059 -0.49986 -0.66285 0.55747 -0.25875 -0.74374 0.61635 -0.00000 -0.77396 0.63324 0.25875 -0.75143 0.60697 0.49986 -0.67769 0.53933 0.70691 -0.55776 0.43494 0.86579 -0.39983 0.30091 0.96566 -0.21465 0.14638 0.99973 -0.01484 -0.01814 0.96566 0.18598 -0.18141 0.86579 0.37413 -0.33233 0.70691 0.53678 -0.46059 0.49986 0.66285 -0.55747 0.25875 0.74374 -0.61635 0.00000 0.94180 -0.33619 -0.25882 0.90970 -0.32473 -0.50000 0.81562 -0.29115 -0.70711 0.66595 -0.23772 -0.86603 0.47090 -0.16809 -0.96593 0.24375 -0.08701 -1.00000 0.00000 -0.00000 -0.96593 -0.24375 0.08701 -0.86603 -0.47090 0.16809 -0.70711 -0.66595 0.23772 -0.50000 -0.81562 0.29115 -0.25882 -0.90970 0.32473 -0.00000 -0.94180 0.33619 0.25882 -0.90970 0.32473 0.50000 -0.81562 0.29115 0.70711 -0.66595 0.23772 0.86603 -0.47090 0.16809 0.96593 -0.24375 0.08701 1.00000 -0.00000 0.00000 0.96593 0.24375 -0.08701 0.86603 0.47090 -0.16809 0.70711 0.66595 -0.23772 0.50000 0.81562 -0.29115 0.25882 0.90970 -0.32473 0.00000 1.00000 0.00000 -0.25882 0.96593 0.00000 -0.50000 0.86603 0.00000 -0.70711 0.70711 0.00000 -0.86603 0.50000 0.00000 -0.96593 0.25882 0.00000 -1.00000 0.00000 0.00000 -0.96593 -0.25882 0.00000 -0.86603 -0.50000 0.00000 -0.70711 -0.70711 0.00000 -0.50000 -0.86603 0.00000 -0.25882 -0.96593 0.00000 -0.00000 -1.00000 0.00000 0.25882 -0.96593 -0.00000 0.50000 -0.86603 -0.00000 0.70711 -0.70711 -0.00000 0.86603 -0.50000 -0.00000 0.96593 -0.25882 -0.00000 1.00000 -0.00000 -0.00000 0.96593 0.25882 0.00000 0.86603 0.50000 0.00000 0.70711 0.70711 0.00000 0.50000 0.86603 0.00000 0.25882 0.96593 0.00000 0.00000 1.00000 0.00000 -0.25882 0.96593 0.00000 -0.50000 0.86603 0.00000 -0.70711 0.70711 0.00000 -0.86603 0.50000 0.00000 -0.96593 0.25882 0.00000 -1.00000 0.00000 0.00000 -0.96593 -0.25882 0.00000 -0.86603 -0.50000 0.00000 -0.70711 -0.70711 0.00000 -0.50000 -0.86603 0.00000 -0.25882 -0.96593 0.00000 -0.00000 -1.00000 0.00000 0.25882 -0.96593 -0.00000 0.50000 -0.86603 -0.00000 0.70711 -0.70711 -0.00000 0.86603 -0.50000 -0.00000 0.96593 -0.25882 -0.00000 1.00000 -0.00000 -0.00000 0.96593 0.25882 0.00000 0.86603 0.50000 0.00000 0.70711 0.70711 0.00000 0.50000 0.86603 0.00000 0.25882 0.96593 0.00000 0.00000 1.00000 0.00000 -0.25882 0.96593 0.00000 -0.50000 0.86603 0.00000 -0.70711 0.70711 0.00000 -0.86603 0.50000 0.00000 -0.96593 0.25882 0.00000 -1.00000 0.00000 0.00000 -0.96593 -0.25882 0.00000 -0.86603 -0.50000 0.00000 -0.70711 -0.70711 0.00000 -0.50000 -0.86603 0.00000 -0.25882 -0.96593 0.00000 -0.00000 -1.00000 0.00000 0.25882 -0.96593 -0.00000 0.50000 -0.86603 -0.00000 0.70711 -0.70711 -0.00000 0.86603 -0.50000 -0.00000 0.96593 -0.25882 -0.00000 1.00000 -0.00000 -0.00000 0.96593 0.25882 0.00000 0.86603 0.50000 0.00000 0.70711 0.70711 0.00000 0.50000 0.86603 0.00000 0.25882 0.96593 0.00000 0.00000 1.00000 0.00000 -0.25882 0.96593 0.00000 -0.50000 0.86603 0.00000 -0.70711 0.70711 0.00000 -0.86603 0.50000 0.00000 -0.96593 0.25882 0.00000 -1.00000 0.00000 0.00000 -0.96593 -0.25882 0.00000 -0.86603 -0.50000 0.00000 -0.70711 -0.70711 0.00000 -0.50000 -0.86603 0.00000 -0.25882 -0.96593 0.00000 -0.00000 -1.00000 0.00000 0.25882 -0.96593 -0.00000 0.50000 -0.86603 -0.00000 0.70711 -0.70711 -0.00000 0.86603 -0.50000 -0.00000 0.96593 -0.25882 -0.00000 1.00000 -0.00000 -0.00000 0.96593 0.25882 0.00000 0.86603 0.50000 0.00000 0.70711 0.70711 0.00000 0.50000 0.86603 0.00000 0.25882 0.96593 0.00000 0.00000 1.00000 0.00000 -0.25882 0.96593 0.00000 -0.50000 0.86603 0.00000 -0.70711 0.70711 0.00000 -0.86603 0.50000 0.00000 -0.96593 0.25882 0.00000 -1.00000 0.00000 0.00000 -0.96593 -0.25882 0.00000 -0.86603 -0.50000 0.00000 -0.70711 -0.70711 0.00000 -0.50000 -0.86603 0.00000 -0.25882 -0.96593 0.00000 -0.00000 -1.00000 0.00000 0.25882 -0.96593 -0.00000 0.50000 -0.86603 -0.00000 0.70711 -0.70711 -0.00000 0.86603 -0.50000 -0.00000 0.96593 -0.25882 -0.00000 1.00000 -0.00000 -0.00000 0.96593 0.25882 0.00000 0.86603 0.50000 0.00000 0.70711 0.70711 0.00000 0.50000 0.86603 0.00000 0.25882 0.96593 0.00000 0.00000 1.00000 0.00000 -0.25882 0.96593 0.00000 -0.50000 0.86603 0.00000 -0.70711 0.70711 0.00000 -0.86603 0.50000 0.00000 -0.96593 0.25882 0.00000 -1.00000 0.00000 0.00000 -0.96593 -0.25882 0.00000 -0.86603 -0.50000 0.00000 -0.70711 -0.70711 0.00000 -0.50000 -0.86603 0.00000 -0.25882 -0.96593 0.00000 -0.00000 -1.00000 0.00000 0.25882 -0.96593 -0.00000 0.50000 -0.86603 -0.00000 0.70711 -0.70711 -0.00000 0.86603 -0.50000 -0.00000 0.96593 -0.25882 -0.00000 1.00000 -0.00000 -0.00000 0.96593 0.25882 0.00000 0.86603 0.50000 0.00000 0.70711 0.70711 0.00000 0.50000 0.86603 0.00000 0.25882 0.96593 0.00000 0.00000 1.00000 0.00000 -0.25882 0.96593 0.00000 -0.50000 0.86603 0.00000 -0.70711 0.70711 0.00000 -0.86603 0.50000 0.00000 -0.96593 0.25882 0.00000 -1.00000 0.00000 0.00000 -0.96593 -0.25882 0.00000 -0.86603 -0.50000 0.00000 -0.70711 -0.70711 0.00000 -0.50000 -0.86603 0.00000 -0.25882 -0.96593 0.00000 -0.00000 -1.00000 0.00000 0.25882 -0.96593 -0.00000 0.50000 -0.86603 -0.00000 0.70711 -0.70711 -0.00000 0.86603 -0.50000 -0.00000 0.96593 -0.25882 -0.00000 1.00000 -0.00000 -0.00000 0.96593 0.25882 0.00000 0.86603 0.50000 0.00000 0.70711 0.70711 0.00000 0.50000 0.86603 0.00000 0.25882 0.96593 0.00000 0.00000 1.00000 0.00000 -0.25882 0.96593 0.00000 -0.50000 0.86603 0.00000 -0.70711 0.70711 0.00000 -0.86603 0.50000 0.00000 -0.96593 0.25882 0.00000 -1.00000 0.00000 0.00000 -0.96593 -0.25882 0.00000 -0.86603 -0.50000 0.00000 -0.70711 -0.70711 0.00000 -0.50000 -0.86603 0.00000 -0.25882 -0.96593 0.00000 -0.00000 -1.00000 0.00000 0.25882 -0.96593 -0.00000 0.50000 -0.86603 -0.00000 0.70711 -0.70711 -0.00000 0.86603 -0.50000 -0.00000 0.96593 -0.25882 -0.00000 1.00000 -0.00000 -0.00000 0.96593 0.25882 0.00000 0.86603 0.50000 0.00000 0.70711 0.70711 0.00000 0.50000 0.86603 0.00000 0.25882 0.96593 0.00000 0.35857 0.59761 -0.71714 0.00000 -0.50001 0.86602 0.00000 0.00000 1.00000 0.00000 -0.25882 0.96593 0.00000 -0.50000 0.86603 0.00000 -0.70711 0.70711 0.00000 -0.86603 0.50000 0.00000 -0.96593 0.25882 0.00000 -1.00000 0.00000 0.00000 -0.96593 -0.25882 0.00000 -0.86603 -0.50000 0.00000 -0.70711 -0.70711 0.00000 -0.50000 -0.86603 0.00000 -0.25882 -0.96593 0.00000 -0.00000 -1.00000 -0.00000 0.25882 -0.96593 -0.00000 0.50000 -0.86603 -0.00000 0.70711 -0.70711 -0.00000 0.86603 -0.50000 -0.00000 0.96593 -0.25882 -0.00000 1.00000 -0.00000 0.00000 0.96593 0.25882 0.00000 0.86603 0.50000 0.00000 0.70711 0.70711 0.00000 0.50000 0.86603 0.00000 0.25882 0.96593 0.00000 0.00000 1.00000 0.00000 -0.25882 0.96593 0.00000 -0.50000 0.86603 0.00000 -0.70711 0.70711 0.00000 -0.86603 0.50000 0.00000 -0.96593 0.25882 0.00000 -1.00000 0.00000 0.00000 -0.96593 -0.25882 0.00000 -0.86603 -0.50000 0.00000 -0.70711 -0.70711 0.00000 -0.50000 -0.86603 0.00000 -0.25882 -0.96593 0.00000 -0.00000 -1.00000 -0.00000 0.25882 -0.96593 -0.00000 0.50000 -0.86603 -0.00000 0.70711 -0.70711 -0.00000 0.86603 -0.50000 -0.00000 0.96593 -0.25882 -0.00000 1.00000 -0.00000 0.00000 0.96593 0.25882 0.00000 0.86603 0.50000 0.00000 0.70711 0.70711 0.00000 0.50000 0.86603 0.00000 0.25882 0.96593 1.00000 0.00000 0.00000 0.00000 0.00000 1.00000 0.00000 -0.25882 0.96593 0.00000 -0.50000 0.86603 0.00000 -0.70711 0.70711 0.00000 -0.86603 0.50000 0.00000 -0.96593 0.25882 0.00000 -1.00000 0.00000 0.00000 -0.96593 -0.25882 0.00000 -0.86603 -0.50000 0.00000 -0.70711 -0.70711 0.00000 -0.50000 -0.86603 0.00000 -0.25882 -0.96593 0.00000 -0.00000 -1.00000 -0.00000 0.25882 -0.96593 -0.00000 0.50000 -0.86603 -0.00000 0.70711 -0.70711 -0.00000 0.86603 -0.50000 -0.00000 0.96593 -0.25882 -0.00000 1.00000 -0.00000 0.00000 0.96593 0.25882 0.00000 0.86603 0.50000 0.00000 0.70711 0.70711 0.00000 0.50000 0.86603 0.00000 0.25882 0.96593 0.00000 0.00000 1.00000 0.00000 -0.25882 0.96593 0.00000 -0.50000 0.86603 0.00000 -0.70711 0.70711 0.00000 -0.86603 0.50000 0.00000 -0.96593 0.25882 0.00000 -1.00000 0.00000 0.00000 -0.96593 -0.25882 0.00000 -0.86603 -0.50000 0.00000 -0.70711 -0.70711 0.00000 -0.50000 -0.86603 0.00000 -0.25882 -0.96593 0.00000 -0.00000 -1.00000 -0.00000 0.25882 -0.96593 -0.00000 0.50000 -0.86603 -0.00000 0.70711 -0.70711 -0.00000 0.86603 -0.50000 -0.00000 0.96593 -0.25882 -0.00000 1.00000 -0.00000 0.00000 0.96593 0.25882 0.00000 0.86603 0.50000 0.00000 0.70711 0.70711 0.00000 0.50000 0.86603 0.00000 0.25882 0.96593 1.00000 0.00000 0.00000</float_array>
          <technique_common>
            <accessor source="#snorkel_bolide_tall_v11-nrm-array" count="412" stride="3">
              <param name="X" type="float"/><param name="Y" type="float"/><param name="Z" type="float"/>
            </accessor>
          </technique_common>
        </source>
        <vertices id="snorkel_bolide_tall_v11-vtx"><input semantic="POSITION" source="#snorkel_bolide_tall_v11-pos"/></vertices>
        <triangles material="snorkel_black" count="768">
          <input semantic="VERTEX" source="#snorkel_bolide_tall_v11-vtx" offset="0"/>
          <input semantic="NORMAL" source="#snorkel_bolide_tall_v11-nrm" offset="1"/>
          <p>0 0 24 24 25 25 0 0 25 25 1 1 1 1 25 25 26 26 1 1 26 26 2 2 2 2 26 26 27 27 2 2 27 27 3 3 3 3 27 27 28 28 3 3 28 28 4 4 4 4 28 28 29 29 4 4 29 29 5 5 5 5 29 29 30 30 5 5 30 30 6 6 6 6 30 30 31 31 6 6 31 31 7 7 7 7 31 31 32 32 7 7 32 32 8 8 8 8 32 32 33 33 8 8 33 33 9 9 9 9 33 33 34 34 9 9 34 34 10 10 10 10 34 34 35 35 10 10 35 35 11 11 11 11 35 35 36 36 11 11 36 36 12 12 12 12 36 36 37 37 12 12 37 37 13 13 13 13 37 37 38 38 13 13 38 38 14 14 14 14 38 38 39 39 14 14 39 39 15 15 15 15 39 39 40 40 15 15 40 40 16 16 16 16 40 40 41 41 16 16 41 41 17 17 17 17 41 41 42 42 17 17 42 42 18 18 18 18 42 42 43 43 18 18 43 43 19 19 19 19 43 43 44 44 19 19 44 44 20 20 20 20 44 44 45 45 20 20 45 45 21 21 21 21 45 45 46 46 21 21 46 46 22 22 22 22 46 46 47 47 22 22 47 47 23 23 23 23 47 47 24 24 23 23 24 24 0 0 24 24 48 48 49 49 24 24 49 49 25 25 25 25 49 49 50 50 25 25 50 50 26 26 26 26 50 50 51 51 26 26 51 51 27 27 27 27 51 51 52 52 27 27 52 52 28 28 28 28 52 52 53 53 28 28 53 53 29 29 29 29 53 53 54 54 29 29 54 54 30 30 30 30 54 54 55 55 30 30 55 55 31 31 31 31 55 55 56 56 31 31 56 56 32 32 32 32 56 56 57 57 32 32 57 57 33 33 33 33 57 57 58 58 33 33 58 58 34 34 34 34 58 58 59 59 34 34 59 59 35 35 35 35 59 59 60 60 35 35 60 60 36 36 36 36 60 60 61 61 36 36 61 61 37 37 37 37 61 61 62 62 37 37 62 62 38 38 38 38 62 62 63 63 38 38 63 63 39 39 39 39 63 63 64 64 39 39 64 64 40 40 40 40 64 64 65 65 40 40 65 65 41 41 41 41 65 65 66 66 41 41 66 66 42 42 42 42 66 66 67 67 42 42 67 67 43 43 43 43 67 67 68 68 43 43 68 68 44 44 44 44 68 68 69 69 44 44 69 69 45 45 45 45 69 69 70 70 45 45 70 70 46 46 46 46 70 70 71 71 46 46 71 71 47 47 47 47 71 71 48 48 47 47 48 48 24 24 48 48 72 72 73 73 48 48 73 73 49 49 49 49 73 73 74 74 49 49 74 74 50 50 50 50 74 74 75 75 50 50 75 75 51 51 51 51 75 75 76 76 51 51 76 76 52 52 52 52 76 76 77 77 52 52 77 77 53 53 53 53 77 77 78 78 53 53 78 78 54 54 54 54 78 78 79 79 54 54 79 79 55 55 55 55 79 79 80 80 55 55 80 80 56 56 56 56 80 80 81 81 56 56 81 81 57 57 57 57 81 81 82 82 57 57 82 82 58 58 58 58 82 82 83 83 58 58 83 83 59 59 59 59 83 83 84 84 59 59 84 84 60 60 60 60 84 84 85 85 60 60 85 85 61 61 61 61 85 85 86 86 61 61 86 86 62 62 62 62 86 86 87 87 62 62 87 87 63 63 63 63 87 87 88 88 63 63 88 88 64 64 64 64 88 88 89 89 64 64 89 89 65 65 65 65 89 89 90 90 65 65 90 90 66 66 66 66 90 90 91 91 66 66 91 91 67 67 67 67 91 91 92 92 67 67 92 92 68 68 68 68 92 92 93 93 68 68 93 93 69 69 69 69 93 93 94 94 69 69 94 94 70 70 70 70 94 94 95 95 70 70 95 95 71 71 71 71 95 95 72 72 71 71 72 72 48 48 72 72 96 96 97 97 72 72 97 97 73 73 73 73 97 97 98 98 73 73 98 98 74 74 74 74 98 98 99 99 74 74 99 99 75 75 75 75 99 99 100 100 75 75 100 100 76 76 76 76 100 100 101 101 76 76 101 101 77 77 77 77 101 101 102 102 77 77 102 102 78 78 78 78 102 102 103 103 78 78 103 103 79 79 79 79 103 103 104 104 79 79 104 104 80 80 80 80 104 104 105 105 80 80 105 105 81 81 81 81 105 105 106 106 81 81 106 106 82 82 82 82 106 106 107 107 82 82 107 107 83 83 83 83 107 107 108 108 83 83 108 108 84 84 84 84 108 108 109 109 84 84 109 109 85 85 85 85 109 109 110 110 85 85 110 110 86 86 86 86 110 110 111 111 86 86 111 111 87 87 87 87 111 111 112 112 87 87 112 112 88 88 88 88 112 112 113 113 88 88 113 113 89 89 89 89 113 113 114 114 89 89 114 114 90 90 90 90 114 114 115 115 90 90 115 115 91 91 91 91 115 115 116 116 91 91 116 116 92 92 92 92 116 116 117 117 92 92 117 117 93 93 93 93 117 117 118 118 93 93 118 118 94 94 94 94 118 118 119 119 94 94 119 119 95 95 95 95 119 119 96 96 95 95 96 96 72 72 96 96 120 120 121 121 96 96 121 121 97 97 97 97 121 121 122 122 97 97 122 122 98 98 98 98 122 122 123 123 98 98 123 123 99 99 99 99 123 123 124 124 99 99 124 124 100 100 100 100 124 124 125 125 100 100 125 125 101 101 101 101 125 125 126 126 101 101 126 126 102 102 102 102 126 126 127 127 102 102 127 127 103 103 103 103 127 127 128 128 103 103 128 128 104 104 104 104 128 128 129 129 104 104 129 129 105 105 105 105 129 129 130 130 105 105 130 130 106 106 106 106 130 130 131 131 106 106 131 131 107 107 107 107 131 131 132 132 107 107 132 132 108 108 108 108 132 132 133 133 108 108 133 133 109 109 109 109 133 133 134 134 109 109 134 134 110 110 110 110 134 134 135 135 110 110 135 135 111 111 111 111 135 135 136 136 111 111 136 136 112 112 112 112 136 136 137 137 112 112 137 137 113 113 113 113 137 137 138 138 113 113 138 138 114 114 114 114 138 138 139 139 114 114 139 139 115 115 115 115 139 139 140 140 115 115 140 140 116 116 116 116 140 140 141 141 116 116 141 141 117 117 117 117 141 141 142 142 117 117 142 142 118 118 118 118 142 142 143 143 118 118 143 143 119 119 119 119 143 143 120 120 119 119 120 120 96 96 120 120 144 144 145 145 120 120 145 145 121 121 121 121 145 145 146 146 121 121 146 146 122 122 122 122 146 146 147 147 122 122 147 147 123 123 123 123 147 147 148 148 123 123 148 148 124 124 124 124 148 148 149 149 124 124 149 149 125 125 125 125 149 149 150 150 125 125 150 150 126 126 126 126 150 150 151 151 126 126 151 151 127 127 127 127 151 151 152 152 127 127 152 152 128 128 128 128 152 152 153 153 128 128 153 153 129 129 129 129 153 153 154 154 129 129 154 154 130 130 130 130 154 154 155 155 130 130 155 155 131 131 131 131 155 155 156 156 131 131 156 156 132 132 132 132 156 156 157 157 132 132 157 157 133 133 133 133 157 157 158 158 133 133 158 158 134 134 134 134 158 158 159 159 134 134 159 159 135 135 135 135 159 159 160 160 135 135 160 160 136 136 136 136 160 160 161 161 136 136 161 161 137 137 137 137 161 161 162 162 137 137 162 162 138 138 138 138 162 162 163 163 138 138 163 163 139 139 139 139 163 163 164 164 139 139 164 164 140 140 140 140 164 164 165 165 140 140 165 165 141 141 141 141 165 165 166 166 141 141 166 166 142 142 142 142 166 166 167 167 142 142 167 167 143 143 143 143 167 167 144 144 143 143 144 144 120 120 144 144 168 168 169 169 144 144 169 169 145 145 145 145 169 169 170 170 145 145 170 170 146 146 146 146 170 170 171 171 146 146 171 171 147 147 147 147 171 171 172 172 147 147 172 172 148 148 148 148 172 172 173 173 148 148 173 173 149 149 149 149 173 173 174 174 149 149 174 174 150 150 150 150 174 174 175 175 150 150 175 175 151 151 151 151 175 175 176 176 151 151 176 176 152 152 152 152 176 176 177 177 152 152 177 177 153 153 153 153 177 177 178 178 153 153 178 178 154 154 154 154 178 178 179 179 154 154 179 179 155 155 155 155 179 179 180 180 155 155 180 180 156 156 156 156 180 180 181 181 156 156 181 181 157 157 157 157 181 181 182 182 157 157 182 182 158 158 158 158 182 182 183 183 158 158 183 183 159 159 159 159 183 183 184 184 159 159 184 184 160 160 160 160 184 184 185 185 160 160 185 185 161 161 161 161 185 185 186 186 161 161 186 186 162 162 162 162 186 186 187 187 162 162 187 187 163 163 163 163 187 187 188 188 163 163 188 188 164 164 164 164 188 188 189 189 164 164 189 189 165 165 165 165 189 189 190 190 165 165 190 190 166 166 166 166 190 190 191 191 166 166 191 191 167 167 167 167 191 191 168 168 167 167 168 168 144 144 168 168 192 192 193 193 168 168 193 193 169 169 169 169 193 193 194 194 169 169 194 194 170 170 170 170 194 194 195 195 170 170 195 195 171 171 171 171 195 195 196 196 171 171 196 196 172 172 172 172 196 196 197 197 172 172 197 197 173 173 173 173 197 197 198 198 173 173 198 198 174 174 174 174 198 198 199 199 174 174 199 199 175 175 175 175 199 199 200 200 175 175 200 200 176 176 176 176 200 200 201 201 176 176 201 201 177 177 177 177 201 201 202 202 177 177 202 202 178 178 178 178 202 202 203 203 178 178 203 203 179 179 179 179 203 203 204 204 179 179 204 204 180 180 180 180 204 204 205 205 180 180 205 205 181 181 181 181 205 205 206 206 181 181 206 206 182 182 182 182 206 206 207 207 182 182 207 207 183 183 183 183 207 207 208 208 183 183 208 208 184 184 184 184 208 208 209 209 184 184 209 209 185 185 185 185 209 209 210 210 185 185 210 210 186 186 186 186 210 210 211 211 186 186 211 211 187 187 187 187 211 211 212 212 187 187 212 212 188 188 188 188 212 212 213 213 188 188 213 213 189 189 189 189 213 213 214 214 189 189 214 214 190 190 190 190 214 214 215 215 190 190 215 215 191 191 191 191 215 215 192 192 191 191 192 192 168 168 192 192 216 216 217 217 192 192 217 217 193 193 193 193 217 217 218 218 193 193 218 218 194 194 194 194 218 218 219 219 194 194 219 219 195 195 195 195 219 219 220 220 195 195 220 220 196 196 196 196 220 220 221 221 196 196 221 221 197 197 197 197 221 221 222 222 197 197 222 222 198 198 198 198 222 222 223 223 198 198 223 223 199 199 199 199 223 223 224 224 199 199 224 224 200 200 200 200 224 224 225 225 200 200 225 225 201 201 201 201 225 225 226 226 201 201 226 226 202 202 202 202 226 226 227 227 202 202 227 227 203 203 203 203 227 227 228 228 203 203 228 228 204 204 204 204 228 228 229 229 204 204 229 229 205 205 205 205 229 229 230 230 205 205 230 230 206 206 206 206 230 230 231 231 206 206 231 231 207 207 207 207 231 231 232 232 207 207 232 232 208 208 208 208 232 232 233 233 208 208 233 233 209 209 209 209 233 233 234 234 209 209 234 234 210 210 210 210 234 234 235 235 210 210 235 235 211 211 211 211 235 235 236 236 211 211 236 236 212 212 212 212 236 236 237 237 212 212 237 237 213 213 213 213 237 237 238 238 213 213 238 238 214 214 214 214 238 238 239 239 214 214 239 239 215 215 215 215 239 239 216 216 215 215 216 216 192 192 216 216 240 240 241 241 216 216 241 241 217 217 217 217 241 241 242 242 217 217 242 242 218 218 218 218 242 242 243 243 218 218 243 243 219 219 219 219 243 243 244 244 219 219 244 244 220 220 220 220 244 244 245 245 220 220 245 245 221 221 221 221 245 245 246 246 221 221 246 246 222 222 222 222 246 246 247 247 222 222 247 247 223 223 223 223 247 247 248 248 223 223 248 248 224 224 224 224 248 248 249 249 224 224 249 249 225 225 225 225 249 249 250 250 225 225 250 250 226 226 226 226 250 250 251 251 226 226 251 251 227 227 227 227 251 251 252 252 227 227 252 252 228 228 228 228 252 252 253 253 228 228 253 253 229 229 229 229 253 253 254 254 229 229 254 254 230 230 230 230 254 254 255 255 230 230 255 255 231 231 231 231 255 255 256 256 231 231 256 256 232 232 232 232 256 256 257 257 232 232 257 257 233 233 233 233 257 257 258 258 233 233 258 258 234 234 234 234 258 258 259 259 234 234 259 259 235 235 235 235 259 259 260 260 235 235 260 260 236 236 236 236 260 260 261 261 236 236 261 261 237 237 237 237 261 261 262 262 237 237 262 262 238 238 238 238 262 262 263 263 238 238 263 263 239 239 239 239 263 263 240 240 239 239 240 240 216 216 240 240 264 264 265 265 240 240 265 265 241 241 241 241 265 265 266 266 241 241 266 266 242 242 242 242 266 266 267 267 242 242 267 267 243 243 243 243 267 267 268 268 243 243 268 268 244 244 244 244 268 268 269 269 244 244 269 269 245 245 245 245 269 269 270 270 245 245 270 270 246 246 246 246 270 270 271 271 246 246 271 271 247 247 247 247 271 271 272 272 247 247 272 272 248 248 248 248 272 272 273 273 248 248 273 273 249 249 249 249 273 273 274 274 249 249 274 274 250 250 250 250 274 274 275 275 250 250 275 275 251 251 251 251 275 275 276 276 251 251 276 276 252 252 252 252 276 276 277 277 252 252 277 277 253 253 253 253 277 277 278 278 253 253 278 278 254 254 254 254 278 278 279 279 254 254 279 279 255 255 255 255 279 279 280 280 255 255 280 280 256 256 256 256 280 280 281 281 256 256 281 281 257 257 257 257 281 281 282 282 257 257 282 282 258 258 258 258 282 282 283 283 258 258 283 283 259 259 259 259 283 283 284 284 259 259 284 284 260 260 260 260 284 284 285 285 260 260 285 285 261 261 261 261 285 285 286 286 261 261 286 286 262 262 262 262 286 286 287 287 262 262 287 287 263 263 263 263 287 287 264 264 263 263 264 264 240 240 264 264 288 288 289 289 264 264 289 289 265 265 265 265 289 289 290 290 265 265 290 290 266 266 266 266 290 290 291 291 266 266 291 291 267 267 267 267 291 291 292 292 267 267 292 292 268 268 268 268 292 292 293 293 268 268 293 293 269 269 269 269 293 293 294 294 269 269 294 294 270 270 270 270 294 294 295 295 270 270 295 295 271 271 271 271 295 295 296 296 271 271 296 296 272 272 272 272 296 296 297 297 272 272 297 297 273 273 273 273 297 297 298 298 273 273 298 298 274 274 274 274 298 298 299 299 274 274 299 299 275 275 275 275 299 299 300 300 275 275 300 300 276 276 276 276 300 300 301 301 276 276 301 301 277 277 277 277 301 301 302 302 277 277 302 302 278 278 278 278 302 302 303 303 278 278 303 303 279 279 279 279 303 303 304 304 279 279 304 304 280 280 280 280 304 304 305 305 280 280 305 305 281 281 281 281 305 305 306 306 281 281 306 306 282 282 282 282 306 306 307 307 282 282 307 307 283 283 283 283 307 307 308 308 283 283 308 308 284 284 284 284 308 308 309 309 284 284 309 309 285 285 285 285 309 309 310 310 285 285 310 310 286 286 286 286 310 310 311 311 286 286 311 311 287 287 287 287 311 311 288 288 287 287 288 288 264 264 312 312 1 1 0 0 312 312 2 2 1 1 312 312 3 3 2 2 312 312 4 4 3 3 312 312 5 5 4 4 312 312 6 6 5 5 312 312 7 7 6 6 312 312 8 8 7 7 312 312 9 9 8 8 312 312 10 10 9 9 312 312 11 11 10 10 312 312 12 12 11 11 312 312 13 13 12 12 312 312 14 14 13 13 312 312 15 15 14 14 312 312 16 16 15 15 312 312 17 17 16 16 312 312 18 18 17 17 312 312 19 19 18 18 312 312 20 20 19 19 312 312 21 21 20 20 312 312 22 22 21 21 312 312 23 23 22 22 312 312 0 0 23 23 313 313 288 288 289 289 313 313 289 289 290 290 313 313 290 290 291 291 313 313 291 291 292 292 313 313 292 292 293 293 313 313 293 293 294 294 313 313 294 294 295 295 313 313 295 295 296 296 313 313 296 296 297 297 313 313 297 297 298 298 313 313 298 298 299 299 313 313 299 299 300 300 313 313 300 300 301 301 313 313 301 301 302 302 313 313 302 302 303 303 313 313 303 303 304 304 313 313 304 304 305 305 313 313 305 305 306 306 313 313 306 306 307 307 313 313 307 307 308 308 313 313 308 308 309 309 313 313 309 309 310 310 313 313 310 310 311 311 313 313 311 311 288 288 314 314 338 338 339 339 314 314 339 339 315 315 315 315 339 339 340 340 315 315 340 340 316 316 316 316 340 340 341 341 316 316 341 341 317 317 317 317 341 341 342 342 317 317 342 342 318 318 318 318 342 342 343 343 318 318 343 343 319 319 319 319 343 343 344 344 319 319 344 344 320 320 320 320 344 344 345 345 320 320 345 345 321 321 321 321 345 345 346 346 321 321 346 346 322 322 322 322 346 346 347 347 322 322 347 347 323 323 323 323 347 347 348 348 323 323 348 348 324 324 324 324 348 348 349 349 324 324 349 349 325 325 325 325 349 349 350 350 325 325 350 350 326 326 326 326 350 350 351 351 326 326 351 351 327 327 327 327 351 351 352 352 327 327 352 352 328 328 328 328 352 352 353 353 328 328 353 353 329 329 329 329 353 353 354 354 329 329 354 354 330 330 330 330 354 354 355 355 330 330 355 355 331 331 331 331 355 355 356 356 331 331 356 356 332 332 332 332 356 356 357 357 332 332 357 357 333 333 333 333 357 357 358 358 333 333 358 358 334 334 334 334 358 358 359 359 334 334 359 359 335 335 335 335 359 359 360 360 335 335 360 360 336 336 336 336 360 360 361 361 336 336 361 361 337 337 337 337 361 361 338 338 337 337 338 338 314 314 362 362 338 338 339 339 362 362 339 339 340 340 362 362 340 340 341 341 362 362 341 341 342 342 362 362 342 342 343 343 362 362 343 343 344 344 362 362 344 344 345 345 362 362 345 345 346 346 362 362 346 346 347 347 362 362 347 347 348 348 362 362 348 348 349 349 362 362 349 349 350 350 362 362 350 350 351 351 362 362 351 351 352 352 362 362 352 352 353 353 362 362 353 353 354 354 362 362 354 354 355 355 362 362 355 355 356 356 362 362 356 356 357 357 362 362 357 357 358 358 362 362 358 358 359 359 362 362 359 359 360 360 362 362 360 360 361 361 362 362 361 361 338 338 363 363 387 387 388 388 363 363 388 388 364 364 364 364 388 388 389 389 364 364 389 389 365 365 365 365 389 389 390 390 365 365 390 390 366 366 366 366 390 390 391 391 366 366 391 391 367 367 367 367 391 391 392 392 367 367 392 392 368 368 368 368 392 392 393 393 368 368 393 393 369 369 369 369 393 393 394 394 369 369 394 394 370 370 370 370 394 394 395 395 370 370 395 395 371 371 371 371 395 395 396 396 371 371 396 396 372 372 372 372 396 396 397 397 372 372 397 397 373 373 373 373 397 397 398 398 373 373 398 398 374 374 374 374 398 398 399 399 374 374 399 399 375 375 375 375 399 399 400 400 375 375 400 400 376 376 376 376 400 400 401 401 376 376 401 401 377 377 377 377 401 401 402 402 377 377 402 402 378 378 378 378 402 402 403 403 378 378 403 403 379 379 379 379 403 403 404 404 379 379 404 404 380 380 380 380 404 404 405 405 380 380 405 405 381 381 381 381 405 405 406 406 381 381 406 406 382 382 382 382 406 406 407 407 382 382 407 407 383 383 383 383 407 407 408 408 383 383 408 408 384 384 384 384 408 408 409 409 384 384 409 409 385 385 385 385 409 409 410 410 385 385 410 410 386 386 386 386 410 410 387 387 386 386 387 387 363 363 411 411 387 387 388 388 411 411 388 388 389 389 411 411 389 389 390 390 411 411 390 390 391 391 411 411 391 391 392 392 411 411 392 392 393 393 411 411 393 393 394 394 411 411 394 394 395 395 411 411 395 395 396 396 411 411 396 396 397 397 411 411 397 397 398 398 411 411 398 398 399 399 411 411 399 399 400 400 411 411 400 400 401 401 411 411 401 401 402 402 411 411 402 402 403 403 411 411 403 403 404 404 411 411 404 404 405 405 411 411 405 405 406 406 411 411 406 406 407 407 411 411 407 407 408 408 411 411 408 408 409 409 411 411 409 409 410 410 411 411 410 410 387 387</p>
        </triangles>
      </mesh>
    </geometry>
  </library_geometries>
  <library_visual_scenes>
    <visual_scene id="Scene" name="Scene">
      <node id="snorkel_bolide_small_v11" name="snorkel_bolide_small_v11" type="NODE">
        <matrix sid="transform">1 0 0 0 0 1 0 0 0 0 1 0 0 0 0 1</matrix>
        <instance_geometry url="#snorkel_bolide_small_v11-mesh" name="snorkel_bolide_small_v11">
          <bind_material><technique_common>
            <instance_material symbol="snorkel_black" target="#snorkel_black-material"/>
          </technique_common></bind_material>
        </instance_geometry>
      </node>
      <node id="snorkel_bolide_medium_v11" name="snorkel_bolide_medium_v11" type="NODE">
        <matrix sid="transform">1 0 0 0 0 1 0 0 0 0 1 0 0 0 0 1</matrix>
        <instance_geometry url="#snorkel_bolide_medium_v11-mesh" name="snorkel_bolide_medium_v11">
          <bind_material><technique_common>
            <instance_material symbol="snorkel_black" target="#snorkel_black-material"/>
          </technique_common></bind_material>
        </instance_geometry>
      </node>
      <node id="snorkel_bolide_tall_v11" name="snorkel_bolide_tall_v11" type="NODE">
        <matrix sid="transform">1 0 0 0 0 1 0 0 0 0 1 0 0 0 0 1</matrix>
        <instance_geometry url="#snorkel_bolide_tall_v11-mesh" name="snorkel_bolide_tall_v11">
          <bind_material><technique_common>
            <instance_material symbol="snorkel_black" target="#snorkel_black-material"/>
          </technique_common></bind_material>
        </instance_geometry>
      </node>
    </visual_scene>
  </library_visual_scenes>
  <scene><instance_visual_scene url="#Scene"/></scene>
</COLLADA>
