<?xml version="1.0" encoding="utf-8"?>
<COLLADA xmlns="http://www.collada.org/2005/11/COLLADASchema" version="1.4.1">
  <asset>
    <contributor><authoring_tool>generate_snorkel_dae.py</authoring_tool></contributor>
    <unit name="meter" meter="1"/>
    <up_axis>Z_UP</up_axis>
  </asset>
  <library_effects>
    <effect id="snorkel_black-effect">
      <profile_COMMON><technique sid="common"><phong>
        <diffuse><color sid="diffuse">0.03 0.03 0.03 1</color></diffuse>
        <specular><color sid="specular">0.15 0.15 0.15 1</color></specular>
        <shininess><float sid="shininess">25</float></shininess>
      </phong></technique></profile_COMMON>
    </effect>
  </library_effects>
  <library_materials>
    <material id="snorkel_black-material" name="snorkel_black">
      <instance_effect url="#snorkel_black-effect"/>
    </material>
  </library_materials>
  <library_geometries>
    <geometry id="snorkel_bluebuck_small_v10-mesh" name="snorkel_bluebuck_small_v10">
      <mesh>
        <source id="snorkel_bluebuck_small_v10-pos">
          <float_array id="snorkel_bluebuck_small_v10-pos-array" count="732">-0.86000 -1.28921 0.84148 -0.86978 -1.29285 0.84188 -0.87890 -1.29697 0.84488 -0.88672 -1.30129 0.85027 -0.89273 -1.30553 0.85768 -0.89651 -1.30940 0.86662 -0.89779 -1.31262 0.87647 -0.89651 -1.31498 0.88656 -0.89273 -1.31632 0.89620 -0.88672 -1.31655 0.90474 -0.87890 -1.31565 0.91159 -0.86978 -1.31368 0.91629 -0.86000 -1.31079 0.91852 -0.85022 -1.30715 0.91812 -0.84110 -1.30303 0.91512 -0.83328 -1.29871 0.90973 -0.82727 -1.29447 0.90232 -0.82349 -1.29060 0.89338 -0.82221 -1.28738 0.88353 -0.82349 -1.28502 0.87344 -0.82727 -1.28368 0.86380 -0.83328 -1.28345 0.85526 -0.84110 -1.28435 0.84841 -0.85022 -1.28632 0.84371 -0.95000 -1.04072 0.91109 -0.96021 -1.04271 0.91202 -0.96972 -1.04520 0.91553 -0.97789 -1.04801 0.92140 -0.98416 -1.05096 0.92921 -0.98810 -1.05384 0.93844 -0.98944 -1.05647 0.94846 -0.98810 -1.05865 0.95858 -0.98416 -1.06024 0.96812 -0.97789 -1.06113 0.97642 -0.96972 -1.06127 0.98292 -0.96021 -1.06064 0.98718 -0.95000 -1.05928 0.98891 -0.93979 -1.05729 0.98798 -0.93028 -1.05480 0.98447 -0.92211 -1.05199 0.97860 -0.91584 -1.04904 0.97079 -0.91190 -1.04616 0.96156 -0.91056 -1.04353 0.95154 -0.91190 -1.04135 0.94142 -0.91584 -1.03976 0.93188 -0.92211 -1.03887 0.92358 -0.93028 -1.03873 0.91708 -0.93979 -1.03936 0.91282 -0.95000 -0.52868 1.01616 -0.96035 -0.52922 1.01743 -0.97000 -0.53117 1.02092 -0.97828 -0.53441 1.02639 -0.98463 -0.53871 1.03347 -0.98863 -0.54378 1.04168 -0.98999 -0.54928 1.05046 -0.98863 -0.55482 1.05920 -0.98463 -0.56003 1.06732 -0.97828 -0.56456 1.07425 -0.97000 -0.56810 1.07954 -0.96035 -0.57041 1.08281 -0.95000 -0.57132 1.08384 -0.93965 -0.57078 1.08257 -0.93000 -0.56883 1.07908 -0.92172 -0.56559 1.07361 -0.91537 -0.56129 1.06653 -0.91137 -0.55622 1.05832 -0.91001 -0.55072 1.04954 -0.91137 -0.54518 1.04080 -0.91537 -0.53997 1.03268 -0.92172 -0.53544 1.02575 -0.93000 -0.53190 1.02046 -0.93965 -0.52959 1.01719 -0.94000 -0.36800 1.22600 -0.95035 -0.36897 1.22698 -0.96000 -0.37205 1.22954 -0.96828 -0.37703 1.23348 -0.97463 -0.38358 1.23855 -0.97863 -0.39125 1.24441 -0.97999 -0.39952 1.25064 -0.97863 -0.40782 1.25683 -0.97463 -0.41558 1.26255 -0.96828 -0.42229 1.26742 -0.96000 -0.42747 1.27110 -0.95035 -0.43079 1.27335 -0.94000 -0.43200 1.27400 -0.92965 -0.43103 1.27302 -0.92000 -0.42795 1.27046 -0.91172 -0.42297 1.26652 -0.90537 -0.41642 1.26145 -0.90137 -0.40875 1.25559 -0.90001 -0.40048 1.24936 -0.90137 -0.39218 1.24317 -0.90537 -0.38442 1.23745 -0.91172 -0.37771 1.23258 -0.92000 -0.37253 1.22890 -0.92965 -0.36921 1.22665 -0.94000 -0.21205 1.43735 -0.95035 -0.21335 1.43778 -0.96000 -0.21714 1.43905 -0.96828 -0.22317 1.44106 -0.97464 -0.23103 1.44368 -0.97864 -0.24018 1.44673 -0.98000 -0.25000 1.45000 -0.97864 -0.25982 1.45327 -0.97464 -0.26897 1.45632 -0.96828 -0.27683 1.45894 -0.96000 -0.28286 1.46095 -0.95035 -0.28665 1.46222 -0.94000 -0.28795 1.46265 -0.92965 -0.28665 1.46222 -0.92000 -0.28286 1.46095 -0.91172 -0.27683 1.45894 -0.90536 -0.26897 1.45632 -0.90136 -0.25982 1.45327 -0.90000 -0.25000 1.45000 -0.90136 -0.24018 1.44673 -0.90536 -0.23103 1.44368 -0.91172 -0.22317 1.44106 -0.92000 -0.21714 1.43905 -0.92965 -0.21335 1.43778 -0.94000 -0.20520 2.02587 -0.95160 -0.20673 2.02498 -0.96240 -0.21120 2.02240 -0.97168 -0.21832 2.01829 -0.97880 -0.22760 2.01293 -0.98327 -0.23840 2.00669 -0.98480 -0.25000 2.00000 -0.98327 -0.26160 1.99331 -0.97880 -0.27240 1.98707 -0.97168 -0.28168 1.98171 -0.96240 -0.28880 1.97760 -0.95160 -0.29327 1.97502 -0.94000 -0.29480 1.97413 -0.92840 -0.29327 1.97502 -0.91760 -0.28880 1.97760 -0.90832 -0.28168 1.98171 -0.90120 -0.27240 1.98707 -0.89673 -0.26160 1.99331 -0.89520 -0.25000 2.00000 -0.89673 -0.23840 2.00669 -0.90120 -0.22760 2.01293 -0.90832 -0.21832 2.01829 -0.91760 -0.21120 2.02240 -0.92840 -0.20673 2.02498 -0.86000 -1.30000 0.88000 -0.94000 -0.25000 2.00000 -0.94700 -0.46000 1.18400 -0.94700 -0.46362 1.18352 -0.94700 -0.46700 1.18212 -0.94700 -0.46990 1.17990 -0.94700 -0.47212 1.17700 -0.94700 -0.47352 1.17362 -0.94700 -0.47400 1.17000 -0.94700 -0.47352 1.16638 -0.94700 -0.47212 1.16300 -0.94700 -0.46990 1.16010 -0.94700 -0.46700 1.15788 -0.94700 -0.46362 1.15648 -0.94700 -0.46000 1.15600 -0.94700 -0.45638 1.15648 -0.94700 -0.45300 1.15788 -0.94700 -0.45010 1.16010 -0.94700 -0.44788 1.16300 -0.94700 -0.44648 1.16638 -0.94700 -0.44600 1.17000 -0.94700 -0.44648 1.17362 -0.94700 -0.44788 1.17700 -0.94700 -0.45010 1.17990 -0.94700 -0.45300 1.18212 -0.94700 -0.45638 1.18352 -0.88700 -0.46000 1.18400 -0.88700 -0.46362 1.18352 -0.88700 -0.46700 1.18212 -0.88700 -0.46990 1.17990 -0.88700 -0.47212 1.17700 -0.88700 -0.47352 1.17362 -0.88700 -0.47400 1.17000 -0.88700 -0.47352 1.16638 -0.88700 -0.47212 1.16300 -0.88700 -0.46990 1.16010 -0.88700 -0.46700 1.15788 -0.88700 -0.46362 1.15648 -0.88700 -0.46000 1.15600 -0.88700 -0.45638 1.15648 -0.88700 -0.45300 1.15788 -0.88700 -0.45010 1.16010 -0.88700 -0.44788 1.16300 -0.88700 -0.44648 1.16638 -0.88700 -0.44600 1.17000 -0.88700 -0.44648 1.17362 -0.88700 -0.44788 1.17700 -0.88700 -0.45010 1.17990 -0.88700 -0.45300 1.18212 -0.88700 -0.45638 1.18352 -0.88700 -0.46000 1.17000 -0.94200 -0.31000 1.38400 -0.94200 -0.31362 1.38352 -0.94200 -0.31700 1.38212 -0.94200 -0.31990 1.37990 -0.94200 -0.32212 1.37700 -0.94200 -0.32352 1.37362 -0.94200 -0.32400 1.37000 -0.94200 -0.32352 1.36638 -0.94200 -0.32212 1.36300 -0.94200 -0.31990 1.36010 -0.94200 -0.31700 1.35788 -0.94200 -0.31362 1.35648 -0.94200 -0.31000 1.35600 -0.94200 -0.30638 1.35648 -0.94200 -0.30300 1.35788 -0.94200 -0.30010 1.36010 -0.94200 -0.29788 1.36300 -0.94200 -0.29648 1.36638 -0.94200 -0.29600 1.37000 -0.94200 -0.29648 1.37362 -0.94200 -0.29788 1.37700 -0.94200 -0.30010 1.37990 -0.94200 -0.30300 1.38212 -0.94200 -0.30638 1.38352 -0.88200 -0.31000 1.38400 -0.88200 -0.31362 1.38352 -0.88200 -0.31700 1.38212 -0.88200 -0.31990 1.37990 -0.88200 -0.32212 1.37700 -0.88200 -0.32352 1.37362 -0.88200 -0.32400 1.37000 -0.88200 -0.32352 1.36638 -0.88200 -0.32212 1.36300 -0.88200 -0.31990 1.36010 -0.88200 -0.31700 1.35788 -0.88200 -0.31362 1.35648 -0.88200 -0.31000 1.35600 -0.88200 -0.30638 1.35648 -0.88200 -0.30300 1.35788 -0.88200 -0.30010 1.36010 -0.88200 -0.29788 1.36300 -0.88200 -0.29648 1.36638 -0.88200 -0.29600 1.37000 -0.88200 -0.29648 1.37362 -0.88200 -0.29788 1.37700 -0.88200 -0.30010 1.37990 -0.88200 -0.30300 1.38212 -0.88200 -0.30638 1.38352 -0.88200 -0.31000 1.37000</float_array>
          <technique_common>
            <accessor source="#snorkel_bluebuck_small_v10-pos-array" count="244" stride="3">
              <param name="X" type="float"/><param name="Y" type="float"/><param name="Z" type="float"/>
            </accessor>
          </technique_common>
        </source>
        <source id="snorkel_bluebuck_small_v10-nrm">
          <float_array id="snorkel_bluebuck_small_v10-nrm-array" count="732">0.00000 0.26963 -0.96296 -0.24454 0.17881 -0.95301 -0.47242 0.07580 -0.87811 -0.66810 -0.03237 -0.74337 -0.81825 -0.13834 -0.55797 -0.91264 -0.23488 -0.33454 -0.94484 -0.31541 -0.08832 -0.91264 -0.37445 0.16393 -0.81825 -0.40797 0.40500 -0.66810 -0.41369 0.61847 -0.47242 -0.39121 0.78979 -0.24454 -0.34208 0.90729 -0.00000 -0.26963 0.96296 0.24454 -0.17881 0.95301 0.47242 -0.07580 0.87811 0.66810 0.03237 0.74337 0.81825 0.13834 0.55797 0.91264 0.23488 0.33454 0.94484 0.31541 0.08832 0.91264 0.37445 -0.16393 0.81825 0.40797 -0.40500 0.66810 0.41369 -0.61847 0.47242 0.39121 -0.78979 0.24454 0.34208 -0.90729 0.00000 0.23200 -0.97272 -0.25522 0.18225 -0.94955 -0.49305 0.12008 -0.86168 -0.69727 0.04974 -0.71508 -0.85398 -0.02400 -0.51975 -0.95249 -0.09611 -0.28900 -0.98609 -0.16166 -0.03856 -0.95249 -0.21620 0.21452 -0.85398 -0.25600 0.45297 -0.69727 -0.27836 0.66055 -0.49305 -0.28174 0.82312 -0.25522 -0.26593 0.92959 -0.00000 -0.23200 0.97272 0.25522 -0.18225 0.94955 0.49305 -0.12008 0.86168 0.69727 -0.04974 0.71508 0.85398 0.02400 0.51975 0.95249 0.09611 0.28900 0.98609 0.16166 0.03856 0.95249 0.21620 -0.21452 0.85398 0.25600 -0.45297 0.69727 0.27836 -0.66055 0.49305 0.28174 -0.82312 0.25522 0.26593 -0.92959 0.00000 0.53304 -0.84609 -0.25876 0.51957 -0.81431 -0.49989 0.47068 -0.72703 -0.70694 0.38972 -0.59021 -0.86583 0.28220 -0.41317 -0.96570 0.15545 -0.20797 -0.99977 0.01810 0.01141 -0.96570 -0.12048 0.23000 -0.86583 -0.25084 0.43292 -0.70694 -0.36412 0.60634 -0.49989 -0.45258 0.73844 -0.25876 -0.51019 0.82021 -0.00000 -0.53304 0.84609 0.25876 -0.51957 0.81431 0.49989 -0.47068 0.72703 0.70694 -0.38972 0.59021 0.86583 -0.28220 0.41317 0.96570 -0.15545 0.20797 0.99977 -0.01810 -0.01141 0.96570 0.12048 -0.23000 0.86583 0.25084 -0.43292 0.70694 0.36412 -0.60634 0.49989 0.45258 -0.73844 0.25876 0.51019 -0.82021 0.00000 0.80000 -0.60000 -0.25877 0.77584 -0.57542 -0.49990 0.69882 -0.51162 -0.70697 0.57417 -0.41296 -0.86585 0.41039 -0.28615 -0.96573 0.21864 -0.13985 -0.99980 0.01199 0.01599 -0.96573 -0.19547 0.17074 -0.86585 -0.38961 0.31385 -0.70697 -0.55721 0.43557 -0.49990 -0.68682 0.52761 -0.25877 -0.76964 0.58369 -0.00000 -0.80000 0.60000 0.25877 -0.77584 0.57542 0.49990 -0.69882 0.51162 0.70697 -0.57417 0.41296 0.86585 -0.41039 0.28615 0.96573 -0.21864 0.13985 0.99980 -0.01199 -0.01599 0.96573 0.19547 -0.17074 0.86585 0.38961 -0.31385 0.70697 0.55721 -0.43557 0.49990 0.68682 -0.52761 0.25877 0.76964 -0.58369 0.00000 0.94868 -0.31623 -0.25882 0.91636 -0.30545 -0.50000 0.82158 -0.27386 -0.70711 0.67082 -0.22361 -0.86603 0.47434 -0.15811 -0.96593 0.24554 -0.08185 -1.00000 0.00000 -0.00000 -0.96593 -0.24554 0.08185 -0.86603 -0.47434 0.15811 -0.70711 -0.67082 0.22361 -0.50000 -0.82158 0.27386 -0.25882 -0.91636 0.30545 -0.00000 -0.94868 0.31623 0.25882 -0.91636 0.30545 0.50000 -0.82158 0.27386 0.70711 -0.67082 0.22361 0.86603 -0.47434 0.15811 0.96593 -0.24554 0.08185 1.00000 -0.00000 0.00000 0.96593 0.24554 -0.08185 0.86603 0.47434 -0.15811 0.70711 0.67082 -0.22361 0.50000 0.82158 -0.27386 0.25882 0.91636 -0.30545 0.00000 1.00000 0.00000 -0.25882 0.96593 0.00000 -0.50000 0.86603 0.00000 -0.70711 0.70711 0.00000 -0.86603 0.50000 0.00000 -0.96593 0.25882 0.00000 -1.00000 0.00000 0.00000 -0.96593 -0.25882 0.00000 -0.86603 -0.50000 0.00000 -0.70711 -0.70711 0.00000 -0.50000 -0.86603 0.00000 -0.25882 -0.96593 0.00000 -0.00000 -1.00000 0.00000 0.25882 -0.96593 -0.00000 0.50000 -0.86603 -0.00000 0.70711 -0.70711 -0.00000 0.86603 -0.50000 -0.00000 0.96593 -0.25882 -0.00000 1.00000 -0.00000 -0.00000 0.96593 0.25882 0.00000 0.86603 0.50000 0.00000 0.70711 0.70711 0.00000 0.50000 0.86603 0.00000 0.25882 0.96593 0.00000 0.32754 -0.90984 -0.25476 0.00000 -0.50001 0.86602 0.00000 0.00000 1.00000 0.00000 -0.25882 0.96593 0.00000 -0.50000 0.86603 0.00000 -0.70711 0.70711 0.00000 -0.86603 0.50000 0.00000 -0.96593 0.25882 0.00000 -1.00000 0.00000 0.00000 -0.96593 -0.25882 0.00000 -0.86603 -0.50000 0.00000 -0.70711 -0.70711 0.00000 -0.50000 -0.86603 0.00000 -0.25882 -0.96593 0.00000 -0.00000 -1.00000 -0.00000 0.25882 -0.96593 -0.00000 0.50000 -0.86603 -0.00000 0.70711 -0.70711 -0.00000 0.86603 -0.50000 -0.00000 0.96593 -0.25882 -0.00000 1.00000 -0.00000 0.00000 0.96593 0.25882 0.00000 0.86603 0.50000 0.00000 0.70711 0.70711 0.00000 0.50000 0.86603 0.00000 0.25882 0.96593 0.00000 0.00000 1.00000 0.00000 -0.25882 0.96593 0.00000 -0.50000 0.86603 0.00000 -0.70711 0.70711 0.00000 -0.86603 0.50000 0.00000 -0.96593 0.25882 0.00000 -1.00000 0.00000 0.00000 -0.96593 -0.25882 0.00000 -0.86603 -0.50000 0.00000 -0.70711 -0.70711 0.00000 -0.50000 -0.86603 0.00000 -0.25882 -0.96593 0.00000 -0.00000 -1.00000 -0.00000 0.25882 -0.96593 -0.00000 0.50000 -0.86603 -0.00000 0.70711 -0.70711 -0.00000 0.86603 -0.50000 -0.00000 0.96593 -0.25882 -0.00000 1.00000 -0.00000 0.00000 0.96593 0.25882 0.00000 0.86603 0.50000 0.00000 0.70711 0.70711 0.00000 0.50000 0.86603 0.00000 0.25882 0.96593 1.00000 0.00000 0.00000 0.00000 0.00000 1.00000 0.00000 -0.25882 0.96593 0.00000 -0.50000 0.86603 0.00000 -0.70711 0.70711 0.00000 -0.86603 0.50000 0.00000 -0.96593 0.25882 0.00000 -1.00000 0.00000 0.00000 -0.96593 -0.25882 0.00000 -0.86603 -0.50000 0.00000 -0.70711 -0.70711 0.00000 -0.50000 -0.86603 0.00000 -0.25882 -0.96593 0.00000 -0.00000 -1.00000 -0.00000 0.25882 -0.96593 -0.00000 0.50000 -0.86603 -0.00000 0.70711 -0.70711 -0.00000 0.86603 -0.50000 -0.00000 0.96593 -0.25882 -0.00000 1.00000 -0.00000 0.00000 0.96593 0.25882 0.00000 0.86603 0.50000 0.00000 0.70711 0.70711 0.00000 0.50000 0.86603 0.00000 0.25882 0.96593 0.00000 0.00000 1.00000 0.00000 -0.25882 0.96593 0.00000 -0.50000 0.86603 0.00000 -0.70711 0.70711 0.00000 -0.86603 0.50000 0.00000 -0.96593 0.25882 0.00000 -1.00000 0.00000 0.00000 -0.96593 -0.25882 0.00000 -0.86603 -0.50000 0.00000 -0.70711 -0.70711 0.00000 -0.50000 -0.86603 0.00000 -0.25882 -0.96593 0.00000 -0.00000 -1.00000 -0.00000 0.25882 -0.96593 -0.00000 0.50000 -0.86603 -0.00000 0.70711 -0.70711 -0.00000 0.86603 -0.50000 -0.00000 0.96593 -0.25882 -0.00000 1.00000 -0.00000 0.00000 0.96593 0.25882 0.00000 0.86603 0.50000 0.00000 0.70711 0.70711 0.00000 0.50000 0.86603 0.00000 0.25882 0.96593 1.00000 0.00000 0.00000</float_array>
          <technique_common>
            <accessor source="#snorkel_bluebuck_small_v10-nrm-array" count="244" stride="3">
              <param name="X" type="float"/><param name="Y" type="float"/><param name="Z" type="float"/>
            </accessor>
          </technique_common>
        </source>
        <vertices id="snorkel_bluebuck_small_v10-vtx"><input semantic="POSITION" source="#snorkel_bluebuck_small_v10-pos"/></vertices>
        <triangles material="snorkel_black" count="432">
          <input semantic="VERTEX" source="#snorkel_bluebuck_small_v10-vtx" offset="0"/>
          <input semantic="NORMAL" source="#snorkel_bluebuck_small_v10-nrm" offset="1"/>
          <p>0 0 24 24 25 25 0 0 25 25 1 1 1 1 25 25 26 26 1 1 26 26 2 2 2 2 26 26 27 27 2 2 27 27 3 3 3 3 27 27 28 28 3 3 28 28 4 4 4 4 28 28 29 29 4 4 29 29 5 5 5 5 29 29 30 30 5 5 30 30 6 6 6 6 30 30 31 31 6 6 31 31 7 7 7 7 31 31 32 32 7 7 32 32 8 8 8 8 32 32 33 33 8 8 33 33 9 9 9 9 33 33 34 34 9 9 34 34 10 10 10 10 34 34 35 35 10 10 35 35 11 11 11 11 35 35 36 36 11 11 36 36 12 12 12 12 36 36 37 37 12 12 37 37 13 13 13 13 37 37 38 38 13 13 38 38 14 14 14 14 38 38 39 39 14 14 39 39 15 15 15 15 39 39 40 40 15 15 40 40 16 16 16 16 40 40 41 41 16 16 41 41 17 17 17 17 41 41 42 42 17 17 42 42 18 18 18 18 42 42 43 43 18 18 43 43 19 19 19 19 43 43 44 44 19 19 44 44 20 20 20 20 44 44 45 45 20 20 45 45 21 21 21 21 45 45 46 46 21 21 46 46 22 22 22 22 46 46 47 47 22 22 47 47 23 23 23 23 47 47 24 24 23 23 24 24 0 0 24 24 48 48 49 49 24 24 49 49 25 25 25 25 49 49 50 50 25 25 50 50 26 26 26 26 50 50 51 51 26 26 51 51 27 27 27 27 51 51 52 52 27 27 52 52 28 28 28 28 52 52 53 53 28 28 53 53 29 29 29 29 53 53 54 54 29 29 54 54 30 30 30 30 54 54 55 55 30 30 55 55 31 31 31 31 55 55 56 56 31 31 56 56 32 32 32 32 56 56 57 57 32 32 57 57 33 33 33 33 57 57 58 58 33 33 58 58 34 34 34 34 58 58 59 59 34 34 59 59 35 35 35 35 59 59 60 60 35 35 60 60 36 36 36 36 60 60 61 61 36 36 61 61 37 37 37 37 61 61 62 62 37 37 62 62 38 38 38 38 62 62 63 63 38 38 63 63 39 39 39 39 63 63 64 64 39 39 64 64 40 40 40 40 64 64 65 65 40 40 65 65 41 41 41 41 65 65 66 66 41 41 66 66 42 42 42 42 66 66 67 67 42 42 67 67 43 43 43 43 67 67 68 68 43 43 68 68 44 44 44 44 68 68 69 69 44 44 69 69 45 45 45 45 69 69 70 70 45 45 70 70 46 46 46 46 70 70 71 71 46 46 71 71 47 47 47 47 71 71 48 48 47 47 48 48 24 24 48 48 72 72 73 73 48 48 73 73 49 49 49 49 73 73 74 74 49 49 74 74 50 50 50 50 74 74 75 75 50 50 75 75 51 51 51 51 75 75 76 76 51 51 76 76 52 52 52 52 76 76 77 77 52 52 77 77 53 53 53 53 77 77 78 78 53 53 78 78 54 54 54 54 78 78 79 79 54 54 79 79 55 55 55 55 79 79 80 80 55 55 80 80 56 56 56 56 80 80 81 81 56 56 81 81 57 57 57 57 81 81 82 82 57 57 82 82 58 58 58 58 82 82 83 83 58 58 83 83 59 59 59 59 83 83 84 84 59 59 84 84 60 60 60 60 84 84 85 85 60 60 85 85 61 61 61 61 85 85 86 86 61 61 86 86 62 62 62 62 86 86 87 87 62 62 87 87 63 63 63 63 87 87 88 88 63 63 88 88 64 64 64 64 88 88 89 89 64 64 89 89 65 65 65 65 89 89 90 90 65 65 90 90 66 66 66 66 90 90 91 91 66 66 91 91 67 67 67 67 91 91 92 92 67 67 92 92 68 68 68 68 92 92 93 93 68 68 93 93 69 69 69 69 93 93 94 94 69 69 94 94 70 70 70 70 94 94 95 95 70 70 95 95 71 71 71 71 95 95 72 72 71 71 72 72 48 48 72 72 96 96 97 97 72 72 97 97 73 73 73 73 97 97 98 98 73 73 98 98 74 74 74 74 98 98 99 99 74 74 99 99 75 75 75 75 99 99 100 100 75 75 100 100 76 76 76 76 100 100 101 101 76 76 101 101 77 77 77 77 101 101 102 102 77 77 102 102 78 78 78 78 102 102 103 103 78 78 103 103 79 79 79 79 103 103 104 104 79 79 104 104 80 80 80 80 104 104 105 105 80 80 105 105 81 81 81 81 105 105 106 106 81 81 106 106 82 82 82 82 106 106 107 107 82 82 107 107 83 83 83 83 107 107 108 108 83 83 108 108 84 84 84 84 108 108 109 109 84 84 109 109 85 85 85 85 109 109 110 110 85 85 110 110 86 86 86 86 110 110 111 111 86 86 111 111 87 87 87 87 111 111 112 112 87 87 112 112 88 88 88 88 112 112 113 113 88 88 113 113 89 89 89 89 113 113 114 114 89 89 114 114 90 90 90 90 114 114 115 115 90 90 115 115 91 91 91 91 115 115 116 116 91 91 116 116 92 92 92 92 116 116 117 117 92 92 117 117 93 93 93 93 117 117 118 118 93 93 118 118 94 94 94 94 118 118 119 119 94 94 119 119 95 95 95 95 119 119 96 96 95 95 96 96 72 72 96 96 120 120 121 121 96 96 121 121 97 97 97 97 121 121 122 122 97 97 122 122 98 98 98 98 122 122 123 123 98 98 123 123 99 99 99 99 123 123 124 124 99 99 124 124 100 100 100 100 124 124 125 125 100 100 125 125 101 101 101 101 125 125 126 126 101 101 126 126 102 102 102 102 126 126 127 127 102 102 127 127 103 103 103 103 127 127 128 128 103 103 128 128 104 104 104 104 128 128 129 129 104 104 129 129 105 105 105 105 129 129 130 130 105 105 130 130 106 106 106 106 130 130 131 131 106 106 131 131 107 107 107 107 131 131 132 132 107 107 132 132 108 108 108 108 132 132 133 133 108 108 133 133 109 109 109 109 133 133 134 134 109 109 134 134 110 110 110 110 134 134 135 135 110 110 135 135 111 111 111 111 135 135 136 136 111 111 136 136 112 112 112 112 136 136 137 137 112 112 137 137 113 113 113 113 137 137 138 138 113 113 138 138 114 114 114 114 138 138 139 139 114 114 139 139 115 115 115 115 139 139 140 140 115 115 140 140 116 116 116 116 140 140 141 141 116 116 141 141 117 117 117 117 141 141 142 142 117 117 142 142 118 118 118 118 142 142 143 143 118 118 143 143 119 119 119 119 143 143 120 120 119 119 120 120 96 96 144 144 1 1 0 0 144 144 2 2 1 1 144 144 3 3 2 2 144 144 4 4 3 3 144 144 5 5 4 4 144 144 6 6 5 5 144 144 7 7 6 6 144 144 8 8 7 7 144 144 9 9 8 8 144 144 10 10 9 9 144 144 11 11 10 10 144 144 12 12 11 11 144 144 13 13 12 12 144 144 14 14 13 13 144 144 15 15 14 14 144 144 16 16 15 15 144 144 17 17 16 16 144 144 18 18 17 17 144 144 19 19 18 18 144 144 20 20 19 19 144 144 21 21 20 20 144 144 22 22 21 21 144 144 23 23 22 22 144 144 0 0 23 23 145 145 120 120 121 121 145 145 121 121 122 122 145 145 122 122 123 123 145 145 123 123 124 124 145 145 124 124 125 125 145 145 125 125 126 126 145 145 126 126 127 127 145 145 127 127 128 128 145 145 128 128 129 129 145 145 129 129 130 130 145 145 130 130 131 131 145 145 131 131 132 132 145 145 132 132 133 133 145 145 133 133 134 134 145 145 134 134 135 135 145 145 135 135 136 136 145 145 136 136 137 137 145 145 137 137 138 138 145 145 138 138 139 139 145 145 139 139 140 140 145 145 140 140 141 141 145 145 141 141 142 142 145 145 142 142 143 143 145 145 143 143 120 120 146 146 170 170 171 171 146 146 171 171 147 147 147 147 171 171 172 172 147 147 172 172 148 148 148 148 172 172 173 173 148 148 173 173 149 149 149 149 173 173 174 174 149 149 174 174 150 150 150 150 174 174 175 175 150 150 175 175 151 151 151 151 175 175 176 176 151 151 176 176 152 152 152 152 176 176 177 177 152 152 177 177 153 153 153 153 177 177 178 178 153 153 178 178 154 154 154 154 178 178 179 179 154 154 179 179 155 155 155 155 179 179 180 180 155 155 180 180 156 156 156 156 180 180 181 181 156 156 181 181 157 157 157 157 181 181 182 182 157 157 182 182 158 158 158 158 182 182 183 183 158 158 183 183 159 159 159 159 183 183 184 184 159 159 184 184 160 160 160 160 184 184 185 185 160 160 185 185 161 161 161 161 185 185 186 186 161 161 186 186 162 162 162 162 186 186 187 187 162 162 187 187 163 163 163 163 187 187 188 188 163 163 188 188 164 164 164 164 188 188 189 189 164 164 189 189 165 165 165 165 189 189 190 190 165 165 190 190 166 166 166 166 190 190 191 191 166 166 191 191 167 167 167 167 191 191 192 192 167 167 192 192 168 168 168 168 192 192 193 193 168 168 193 193 169 169 169 169 193 193 170 170 169 169 170 170 146 146 194 194 170 170 171 171 194 194 171 171 172 172 194 194 172 172 173 173 194 194 173 173 174 174 194 194 174 174 175 175 194 194 175 175 176 176 194 194 176 176 177 177 194 194 177 177 178 178 194 194 178 178 179 179 194 194 179 179 180 180 194 194 180 180 181 181 194 194 181 181 182 182 194 194 182 182 183 183 194 194 183 183 184 184 194 194 184 184 185 185 194 194 185 185 186 186 194 194 186 186 187 187 194 194 187 187 188 188 194 194 188 188 189 189 194 194 189 189 190 190 194 194 190 190 191 191 194 194 191 191 192 192 194 194 192 192 193 193 194 194 193 193 170 170 195 195 219 219 220 220 195 195 220 220 196 196 196 196 220 220 221 221 196 196 221 221 197 197 197 197 221 221 222 222 197 197 222 222 198 198 198 198 222 222 223 223 198 198 223 223 199 199 199 199 223 223 224 224 199 199 224 224 200 200 200 200 224 224 225 225 200 200 225 225 201 201 201 201 225 225 226 226 201 201 226 226 202 202 202 202 226 226 227 227 202 202 227 227 203 203 203 203 227 227 228 228 203 203 228 228 204 204 204 204 228 228 229 229 204 204 229 229 205 205 205 205 229 229 230 230 205 205 230 230 206 206 206 206 230 230 231 231 206 206 231 231 207 207 207 207 231 231 232 232 207 207 232 232 208 208 208 208 232 232 233 233 208 208 233 233 209 209 209 209 233 233 234 234 209 209 234 234 210 210 210 210 234 234 235 235 210 210 235 235 211 211 211 211 235 235 236 236 211 211 236 236 212 212 212 212 236 236 237 237 212 212 237 237 213 213 213 213 237 237 238 238 213 213 238 238 214 214 214 214 238 238 239 239 214 214 239 239 215 215 215 215 239 239 240 240 215 215 240 240 216 216 216 216 240 240 241 241 216 216 241 241 217 217 217 217 241 241 242 242 217 217 242 242 218 218 218 218 242 242 219 219 218 218 219 219 195 195 243 243 219 219 220 220 243 243 220 220 221 221 243 243 221 221 222 222 243 243 222 222 223 223 243 243 223 223 224 224 243 243 224 224 225 225 243 243 225 225 226 226 243 243 226 226 227 227 243 243 227 227 228 228 243 243 228 228 229 229 243 243 229 229 230 230 243 243 230 230 231 231 243 243 231 231 232 232 243 243 232 232 233 233 243 243 233 233 234 234 243 243 234 234 235 235 243 243 235 235 236 236 243 243 236 236 237 237 243 243 237 237 238 238 243 243 238 238 239 239 243 243 239 239 240 240 243 243 240 240 241 241 243 243 241 241 242 242 243 243 242 242 219 219</p>
        </triangles>
      </mesh>
    </geometry>
    <geometry id="snorkel_bluebuck_medium_v10-mesh" name="snorkel_bluebuck_medium_v10">
      <mesh>
        <source id="snorkel_bluebuck_medium_v10-pos">
          <float_array id="snorkel_bluebuck_medium_v10-pos-array" count="876">-0.86000 -1.28921 0.84148 -0.86978 -1.29285 0.84188 -0.87890 -1.29697 0.84488 -0.88672 -1.30129 0.85027 -0.89273 -1.30553 0.85768 -0.89651 -1.30940 0.86662 -0.89779 -1.31262 0.87647 -0.89651 -1.31498 0.88656 -0.89273 -1.31632 0.89620 -0.88672 -1.31655 0.90474 -0.87890 -1.31565 0.91159 -0.86978 -1.31368 0.91629 -0.86000 -1.31079 0.91852 -0.85022 -1.30715 0.91812 -0.84110 -1.30303 0.91512 -0.83328 -1.29871 0.90973 -0.82727 -1.29447 0.90232 -0.82349 -1.29060 0.89338 -0.82221 -1.28738 0.88353 -0.82349 -1.28502 0.87344 -0.82727 -1.28368 0.86380 -0.83328 -1.28345 0.85526 -0.84110 -1.28435 0.84841 -0.85022 -1.28632 0.84371 -0.95000 -1.04072 0.91109 -0.96021 -1.04271 0.91202 -0.96972 -1.04520 0.91553 -0.97789 -1.04801 0.92140 -0.98416 -1.05096 0.92921 -0.98810 -1.05384 0.93844 -0.98944 -1.05647 0.94846 -0.98810 -1.05865 0.95858 -0.98416 -1.06024 0.96812 -0.97789 -1.06113 0.97642 -0.96972 -1.06127 0.98292 -0.96021 -1.06064 0.98718 -0.95000 -1.05928 0.98891 -0.93979 -1.05729 0.98798 -0.93028 -1.05480 0.98447 -0.92211 -1.05199 0.97860 -0.91584 -1.04904 0.97079 -0.91190 -1.04616 0.96156 -0.91056 -1.04353 0.95154 -0.91190 -1.04135 0.94142 -0.91584 -1.03976 0.93188 -0.92211 -1.03887 0.92358 -0.93028 -1.03873 0.91708 -0.93979 -1.03936 0.91282 -0.95000 -0.52868 1.01616 -0.96035 -0.52922 1.01743 -0.97000 -0.53117 1.02092 -0.97828 -0.53441 1.02639 -0.98463 -0.53871 1.03347 -0.98863 -0.54378 1.04168 -0.98999 -0.54928 1.05046 -0.98863 -0.55482 1.05920 -0.98463 -0.56003 1.06732 -0.97828 -0.56456 1.07425 -0.97000 -0.56810 1.07954 -0.96035 -0.57041 1.08281 -0.95000 -0.57132 1.08384 -0.93965 -0.57078 1.08257 -0.93000 -0.56883 1.07908 -0.92172 -0.56559 1.07361 -0.91537 -0.56129 1.06653 -0.91137 -0.55622 1.05832 -0.91001 -0.55072 1.04954 -0.91137 -0.54518 1.04080 -0.91537 -0.53997 1.03268 -0.92172 -0.53544 1.02575 -0.93000 -0.53190 1.02046 -0.93965 -0.52959 1.01719 -0.94000 -0.36800 1.22600 -0.95035 -0.36897 1.22698 -0.96000 -0.37205 1.22954 -0.96828 -0.37703 1.23348 -0.97463 -0.38358 1.23855 -0.97863 -0.39125 1.24441 -0.97999 -0.39952 1.25064 -0.97863 -0.40782 1.25683 -0.97463 -0.41558 1.26255 -0.96828 -0.42229 1.26742 -0.96000 -0.42747 1.27110 -0.95035 -0.43079 1.27335 -0.94000 -0.43200 1.27400 -0.92965 -0.43103 1.27302 -0.92000 -0.42795 1.27046 -0.91172 -0.42297 1.26652 -0.90537 -0.41642 1.26145 -0.90137 -0.40875 1.25559 -0.90001 -0.40048 1.24936 -0.90137 -0.39218 1.24317 -0.90537 -0.38442 1.23745 -0.91172 -0.37771 1.23258 -0.92000 -0.37253 1.22890 -0.92965 -0.36921 1.22665 -0.94000 -0.21205 1.43735 -0.95035 -0.21335 1.43778 -0.96000 -0.21714 1.43905 -0.96828 -0.22317 1.44106 -0.97464 -0.23103 1.44368 -0.97864 -0.24018 1.44673 -0.98000 -0.25000 1.45000 -0.97864 -0.25982 1.45327 -0.97464 -0.26897 1.45632 -0.96828 -0.27683 1.45894 -0.96000 -0.28286 1.46095 -0.95035 -0.28665 1.46222 -0.94000 -0.28795 1.46265 -0.92965 -0.28665 1.46222 -0.92000 -0.28286 1.46095 -0.91172 -0.27683 1.45894 -0.90536 -0.26897 1.45632 -0.90136 -0.25982 1.45327 -0.90000 -0.25000 1.45000 -0.90136 -0.24018 1.44673 -0.90536 -0.23103 1.44368 -0.91172 -0.22317 1.44106 -0.92000 -0.21714 1.43905 -0.92965 -0.21335 1.43778 -0.94000 -0.21000 1.95000 -0.95035 -0.21136 1.95000 -0.96000 -0.21536 1.95000 -0.96828 -0.22172 1.95000 -0.97464 -0.23000 1.95000 -0.97864 -0.23965 1.95000 -0.98000 -0.25000 1.95000 -0.97864 -0.26035 1.95000 -0.97464 -0.27000 1.95000 -0.96828 -0.27828 1.95000 -0.96000 -0.28464 1.95000 -0.95035 -0.28864 1.95000 -0.94000 -0.29000 1.95000 -0.92965 -0.28864 1.95000 -0.92000 -0.28464 1.95000 -0.91172 -0.27828 1.95000 -0.90536 -0.27000 1.95000 -0.90136 -0.26035 1.95000 -0.90000 -0.25000 1.95000 -0.90136 -0.23965 1.95000 -0.90536 -0.23000 1.95000 -0.91172 -0.22172 1.95000 -0.92000 -0.21536 1.95000 -0.92965 -0.21136 1.95000 -0.94000 -0.21000 2.45000 -0.95035 -0.21136 2.45000 -0.96000 -0.21536 2.45000 -0.96828 -0.22172 2.45000 -0.97464 -0.23000 2.45000 -0.97864 -0.23965 2.45000 -0.98000 -0.25000 2.45000 -0.97864 -0.26035 2.45000 -0.97464 -0.27000 2.45000 -0.96828 -0.27828 2.45000 -0.96000 -0.28464 2.45000 -0.95035 -0.28864 2.45000 -0.94000 -0.29000 2.45000 -0.92965 -0.28864 2.45000 -0.92000 -0.28464 2.45000 -0.91172 -0.27828 2.45000 -0.90536 -0.27000 2.45000 -0.90136 -0.26035 2.45000 -0.90000 -0.25000 2.45000 -0.90136 -0.23965 2.45000 -0.90536 -0.23000 2.45000 -0.91172 -0.22172 2.45000 -0.92000 -0.21536 2.45000 -0.92965 -0.21136 2.45000 -0.94000 -0.20520 3.02587 -0.95160 -0.20673 3.02498 -0.96240 -0.21120 3.02240 -0.97168 -0.21832 3.01829 -0.97880 -0.22760 3.01293 -0.98327 -0.23840 3.00669 -0.98480 -0.25000 3.00000 -0.98327 -0.26160 2.99331 -0.97880 -0.27240 2.98707 -0.97168 -0.28168 2.98171 -0.96240 -0.28880 2.97760 -0.95160 -0.29327 2.97502 -0.94000 -0.29480 2.97413 -0.92840 -0.29327 2.97502 -0.91760 -0.28880 2.97760 -0.90832 -0.28168 2.98171 -0.90120 -0.27240 2.98707 -0.89673 -0.26160 2.99331 -0.89520 -0.25000 3.00000 -0.89673 -0.23840 3.00669 -0.90120 -0.22760 3.01293 -0.90832 -0.21832 3.01829 -0.91760 -0.21120 3.02240 -0.92840 -0.20673 3.02498 -0.86000 -1.30000 0.88000 -0.94000 -0.25000 3.00000 -0.94700 -0.46000 1.18400 -0.94700 -0.46362 1.18352 -0.94700 -0.46700 1.18212 -0.94700 -0.46990 1.17990 -0.94700 -0.47212 1.17700 -0.94700 -0.47352 1.17362 -0.94700 -0.47400 1.17000 -0.94700 -0.47352 1.16638 -0.94700 -0.47212 1.16300 -0.94700 -0.46990 1.16010 -0.94700 -0.46700 1.15788 -0.94700 -0.46362 1.15648 -0.94700 -0.46000 1.15600 -0.94700 -0.45638 1.15648 -0.94700 -0.45300 1.15788 -0.94700 -0.45010 1.16010 -0.94700 -0.44788 1.16300 -0.94700 -0.44648 1.16638 -0.94700 -0.44600 1.17000 -0.94700 -0.44648 1.17362 -0.94700 -0.44788 1.17700 -0.94700 -0.45010 1.17990 -0.94700 -0.45300 1.18212 -0.94700 -0.45638 1.18352 -0.88700 -0.46000 1.18400 -0.88700 -0.46362 1.18352 -0.88700 -0.46700 1.18212 -0.88700 -0.46990 1.17990 -0.88700 -0.47212 1.17700 -0.88700 -0.47352 1.17362 -0.88700 -0.47400 1.17000 -0.88700 -0.47352 1.16638 -0.88700 -0.47212 1.16300 -0.88700 -0.46990 1.16010 -0.88700 -0.46700 1.15788 -0.88700 -0.46362 1.15648 -0.88700 -0.46000 1.15600 -0.88700 -0.45638 1.15648 -0.88700 -0.45300 1.15788 -0.88700 -0.45010 1.16010 -0.88700 -0.44788 1.16300 -0.88700 -0.44648 1.16638 -0.88700 -0.44600 1.17000 -0.88700 -0.44648 1.17362 -0.88700 -0.44788 1.17700 -0.88700 -0.45010 1.17990 -0.88700 -0.45300 1.18212 -0.88700 -0.45638 1.18352 -0.88700 -0.46000 1.17000 -0.94200 -0.31000 1.38400 -0.94200 -0.31362 1.38352 -0.94200 -0.31700 1.38212 -0.94200 -0.31990 1.37990 -0.94200 -0.32212 1.37700 -0.94200 -0.32352 1.37362 -0.94200 -0.32400 1.37000 -0.94200 -0.32352 1.36638 -0.94200 -0.32212 1.36300 -0.94200 -0.31990 1.36010 -0.94200 -0.31700 1.35788 -0.94200 -0.31362 1.35648 -0.94200 -0.31000 1.35600 -0.94200 -0.30638 1.35648 -0.94200 -0.30300 1.35788 -0.94200 -0.30010 1.36010 -0.94200 -0.29788 1.36300 -0.94200 -0.29648 1.36638 -0.94200 -0.29600 1.37000 -0.94200 -0.29648 1.37362 -0.94200 -0.29788 1.37700 -0.94200 -0.30010 1.37990 -0.94200 -0.30300 1.38212 -0.94200 -0.30638 1.38352 -0.88200 -0.31000 1.38400 -0.88200 -0.31362 1.38352 -0.88200 -0.31700 1.38212 -0.88200 -0.31990 1.37990 -0.88200 -0.32212 1.37700 -0.88200 -0.32352 1.37362 -0.88200 -0.32400 1.37000 -0.88200 -0.32352 1.36638 -0.88200 -0.32212 1.36300 -0.88200 -0.31990 1.36010 -0.88200 -0.31700 1.35788 -0.88200 -0.31362 1.35648 -0.88200 -0.31000 1.35600 -0.88200 -0.30638 1.35648 -0.88200 -0.30300 1.35788 -0.88200 -0.30010 1.36010 -0.88200 -0.29788 1.36300 -0.88200 -0.29648 1.36638 -0.88200 -0.29600 1.37000 -0.88200 -0.29648 1.37362 -0.88200 -0.29788 1.37700 -0.88200 -0.30010 1.37990 -0.88200 -0.30300 1.38212 -0.88200 -0.30638 1.38352 -0.88200 -0.31000 1.37000</float_array>
          <technique_common>
            <accessor source="#snorkel_bluebuck_medium_v10-pos-array" count="292" stride="3">
              <param name="X" type="float"/><param name="Y" type="float"/><param name="Z" type="float"/>
            </accessor>
          </technique_common>
        </source>
        <source id="snorkel_bluebuck_medium_v10-nrm">
          <float_array id="snorkel_bluebuck_medium_v10-nrm-array" count="876">0.00000 0.26963 -0.96296 -0.24454 0.17881 -0.95301 -0.47242 0.07580 -0.87811 -0.66810 -0.03237 -0.74337 -0.81825 -0.13834 -0.55797 -0.91264 -0.23488 -0.33454 -0.94484 -0.31541 -0.08832 -0.91264 -0.37445 0.16393 -0.81825 -0.40797 0.40500 -0.66810 -0.41369 0.61847 -0.47242 -0.39121 0.78979 -0.24454 -0.34208 0.90729 -0.00000 -0.26963 0.96296 0.24454 -0.17881 0.95301 0.47242 -0.07580 0.87811 0.66810 0.03237 0.74337 0.81825 0.13834 0.55797 0.91264 0.23488 0.33454 0.94484 0.31541 0.08832 0.91264 0.37445 -0.16393 0.81825 0.40797 -0.40500 0.66810 0.41369 -0.61847 0.47242 0.39121 -0.78979 0.24454 0.34208 -0.90729 0.00000 0.23200 -0.97272 -0.25522 0.18225 -0.94955 -0.49305 0.12008 -0.86168 -0.69727 0.04974 -0.71508 -0.85398 -0.02400 -0.51975 -0.95249 -0.09611 -0.28900 -0.98609 -0.16166 -0.03856 -0.95249 -0.21620 0.21452 -0.85398 -0.25600 0.45297 -0.69727 -0.27836 0.66055 -0.49305 -0.28174 0.82312 -0.25522 -0.26593 0.92959 -0.00000 -0.23200 0.97272 0.25522 -0.18225 0.94955 0.49305 -0.12008 0.86168 0.69727 -0.04974 0.71508 0.85398 0.02400 0.51975 0.95249 0.09611 0.28900 0.98609 0.16166 0.03856 0.95249 0.21620 -0.21452 0.85398 0.25600 -0.45297 0.69727 0.27836 -0.66055 0.49305 0.28174 -0.82312 0.25522 0.26593 -0.92959 0.00000 0.53304 -0.84609 -0.25876 0.51957 -0.81431 -0.49989 0.47068 -0.72703 -0.70694 0.38972 -0.59021 -0.86583 0.28220 -0.41317 -0.96570 0.15545 -0.20797 -0.99977 0.01810 0.01141 -0.96570 -0.12048 0.23000 -0.86583 -0.25084 0.43292 -0.70694 -0.36412 0.60634 -0.49989 -0.45258 0.73844 -0.25876 -0.51019 0.82021 -0.00000 -0.53304 0.84609 0.25876 -0.51957 0.81431 0.49989 -0.47068 0.72703 0.70694 -0.38972 0.59021 0.86583 -0.28220 0.41317 0.96570 -0.15545 0.20797 0.99977 -0.01810 -0.01141 0.96570 0.12048 -0.23000 0.86583 0.25084 -0.43292 0.70694 0.36412 -0.60634 0.49989 0.45258 -0.73844 0.25876 0.51019 -0.82021 0.00000 0.80000 -0.60000 -0.25877 0.77584 -0.57542 -0.49990 0.69882 -0.51162 -0.70697 0.57417 -0.41296 -0.86585 0.41039 -0.28615 -0.96573 0.21864 -0.13985 -0.99980 0.01199 0.01599 -0.96573 -0.19547 0.17074 -0.86585 -0.38961 0.31385 -0.70697 -0.55721 0.43557 -0.49990 -0.68682 0.52761 -0.25877 -0.76964 0.58369 -0.00000 -0.80000 0.60000 0.25877 -0.77584 0.57542 0.49990 -0.69882 0.51162 0.70697 -0.57417 0.41296 0.86585 -0.41039 0.28615 0.96573 -0.21864 0.13985 0.99980 -0.01199 -0.01599 0.96573 0.19547 -0.17074 0.86585 0.38961 -0.31385 0.70697 0.55721 -0.43557 0.49990 0.68682 -0.52761 0.25877 0.76964 -0.58369 0.00000 0.94868 -0.31623 -0.25882 0.91636 -0.30545 -0.50000 0.82158 -0.27386 -0.70711 0.67082 -0.22361 -0.86603 0.47434 -0.15811 -0.96593 0.24554 -0.08185 -1.00000 0.00000 -0.00000 -0.96593 -0.24554 0.08185 -0.86603 -0.47434 0.15811 -0.70711 -0.67082 0.22361 -0.50000 -0.82158 0.27386 -0.25882 -0.91636 0.30545 -0.00000 -0.94868 0.31623 0.25882 -0.91636 0.30545 0.50000 -0.82158 0.27386 0.70711 -0.67082 0.22361 0.86603 -0.47434 0.15811 0.96593 -0.24554 0.08185 1.00000 -0.00000 0.00000 0.96593 0.24554 -0.08185 0.86603 0.47434 -0.15811 0.70711 0.67082 -0.22361 0.50000 0.82158 -0.27386 0.25882 0.91636 -0.30545 0.00000 1.00000 0.00000 -0.25882 0.96593 0.00000 -0.50000 0.86603 0.00000 -0.70711 0.70711 0.00000 -0.86603 0.50000 0.00000 -0.96593 0.25882 0.00000 -1.00000 0.00000 0.00000 -0.96593 -0.25882 0.00000 -0.86603 -0.50000 0.00000 -0.70711 -0.70711 0.00000 -0.50000 -0.86603 0.00000 -0.25882 -0.96593 0.00000 -0.00000 -1.00000 0.00000 0.25882 -0.96593 -0.00000 0.50000 -0.86603 -0.00000 0.70711 -0.70711 -0.00000 0.86603 -0.50000 -0.00000 0.96593 -0.25882 -0.00000 1.00000 -0.00000 -0.00000 0.96593 0.25882 0.00000 0.86603 0.50000 0.00000 0.70711 0.70711 0.00000 0.50000 0.86603 0.00000 0.25882 0.96593 0.00000 0.00000 1.00000 0.00000 -0.25882 0.96593 0.00000 -0.50000 0.86603 0.00000 -0.70711 0.70711 0.00000 -0.86603 0.50000 0.00000 -0.96593 0.25882 0.00000 -1.00000 0.00000 0.00000 -0.96593 -0.25882 0.00000 -0.86603 -0.50000 0.00000 -0.70711 -0.70711 0.00000 -0.50000 -0.86603 0.00000 -0.25882 -0.96593 0.00000 -0.00000 -1.00000 0.00000 0.25882 -0.96593 -0.00000 0.50000 -0.86603 -0.00000 0.70711 -0.70711 -0.00000 0.86603 -0.50000 -0.00000 0.96593 -0.25882 -0.00000 1.00000 -0.00000 -0.00000 0.96593 0.25882 0.00000 0.86603 0.50000 0.00000 0.70711 0.70711 0.00000 0.50000 0.86603 0.00000 0.25882 0.96593 0.00000 0.00000 1.00000 0.00000 -0.25882 0.96593 0.00000 -0.50000 0.86603 0.00000 -0.70711 0.70711 0.00000 -0.86603 0.50000 0.00000 -0.96593 0.25882 0.00000 -1.00000 0.00000 0.00000 -0.96593 -0.25882 0.00000 -0.86603 -0.50000 0.00000 -0.70711 -0.70711 0.00000 -0.50000 -0.86603 0.00000 -0.25882 -0.96593 0.00000 -0.00000 -1.00000 0.00000 0.25882 -0.96593 -0.00000 0.50000 -0.86603 -0.00000 0.70711 -0.70711 -0.00000 0.86603 -0.50000 -0.00000 0.96593 -0.25882 -0.00000 1.00000 -0.00000 -0.00000 0.96593 0.25882 0.00000 0.86603 0.50000 0.00000 0.70711 0.70711 0.00000 0.50000 0.86603 0.00000 0.25882 0.96593 0.00000 0.32754 -0.90984 -0.25476 0.00000 -0.50001 0.86602 0.00000 0.00000 1.00000 0.00000 -0.25882 0.96593 0.00000 -0.50000 0.86603 0.00000 -0.70711 0.70711 0.00000 -0.86603 0.50000 0.00000 -0.96593 0.25882 0.00000 -1.00000 0.00000 0.00000 -0.96593 -0.25882 0.00000 -0.86603 -0.50000 0.00000 -0.70711 -0.70711 0.00000 -0.50000 -0.86603 0.00000 -0.25882 -0.96593 0.00000 -0.00000 -1.00000 -0.00000 0.25882 -0.96593 -0.00000 0.50000 -0.86603 -0.00000 0.70711 -0.70711 -0.00000 0.86603 -0.50000 -0.00000 0.96593 -0.25882 -0.00000 1.00000 -0.00000 0.00000 0.96593 0.25882 0.00000 0.86603 0.50000 0.00000 0.70711 0.70711 0.00000 0.50000 0.86603 0.00000 0.25882 0.96593 0.00000 0.00000 1.00000 0.00000 -0.25882 0.96593 0.00000 -0.50000 0.86603 0.00000 -0.70711 0.70711 0.00000 -0.86603 0.50000 0.00000 -0.96593 0.25882 0.00000 -1.00000 0.00000 0.00000 -0.96593 -0.25882 0.00000 -0.86603 -0.50000 0.00000 -0.70711 -0.70711 0.00000 -0.50000 -0.86603 0.00000 -0.25882 -0.96593 0.00000 -0.00000 -1.00000 -0.00000 0.25882 -0.96593 -0.00000 0.50000 -0.86603 -0.00000 0.70711 -0.70711 -0.00000 0.86603 -0.50000 -0.00000 0.96593 -0.25882 -0.00000 1.00000 -0.00000 0.00000 0.96593 0.25882 0.00000 0.86603 0.50000 0.00000 0.70711 0.70711 0.00000 0.50000 0.86603 0.00000 0.25882 0.96593 1.00000 0.00000 0.00000 0.00000 0.00000 1.00000 0.00000 -0.25882 0.96593 0.00000 -0.50000 0.86603 0.00000 -0.70711 0.70711 0.00000 -0.86603 0.50000 0.00000 -0.96593 0.25882 0.00000 -1.00000 0.00000 0.00000 -0.96593 -0.25882 0.00000 -0.86603 -0.50000 0.00000 -0.70711 -0.70711 0.00000 -0.50000 -0.86603 0.00000 -0.25882 -0.96593 0.00000 -0.00000 -1.00000 -0.00000 0.25882 -0.96593 -0.00000 0.50000 -0.86603 -0.00000 0.70711 -0.70711 -0.00000 0.86603 -0.50000 -0.00000 0.96593 -0.25882 -0.00000 1.00000 -0.00000 0.00000 0.96593 0.25882 0.00000 0.86603 0.50000 0.00000 0.70711 0.70711 0.00000 0.50000 0.86603 0.00000 0.25882 0.96593 0.00000 0.00000 1.00000 0.00000 -0.25882 0.96593 0.00000 -0.50000 0.86603 0.00000 -0.70711 0.70711 0.00000 -0.86603 0.50000 0.00000 -0.96593 0.25882 0.00000 -1.00000 0.00000 0.00000 -0.96593 -0.25882 0.00000 -0.86603 -0.50000 0.00000 -0.70711 -0.70711 0.00000 -0.50000 -0.86603 0.00000 -0.25882 -0.96593 0.00000 -0.00000 -1.00000 -0.00000 0.25882 -0.96593 -0.00000 0.50000 -0.86603 -0.00000 0.70711 -0.70711 -0.00000 0.86603 -0.50000 -0.00000 0.96593 -0.25882 -0.00000 1.00000 -0.00000 0.00000 0.96593 0.25882 0.00000 0.86603 0.50000 0.00000 0.70711 0.70711 0.00000 0.50000 0.86603 0.00000 0.25882 0.96593 1.00000 0.00000 0.00000</float_array>
          <technique_common>
            <accessor source="#snorkel_bluebuck_medium_v10-nrm-array" count="292" stride="3">
              <param name="X" type="float"/><param name="Y" type="float"/><param name="Z" type="float"/>
            </accessor>
          </technique_common>
        </source>
        <vertices id="snorkel_bluebuck_medium_v10-vtx"><input semantic="POSITION" source="#snorkel_bluebuck_medium_v10-pos"/></vertices>
        <triangles material="snorkel_black" count="528">
          <input semantic="VERTEX" source="#snorkel_bluebuck_medium_v10-vtx" offset="0"/>
          <input semantic="NORMAL" source="#snorkel_bluebuck_medium_v10-nrm" offset="1"/>
          <p>0 0 24 24 25 25 0 0 25 25 1 1 1 1 25 25 26 26 1 1 26 26 2 2 2 2 26 26 27 27 2 2 27 27 3 3 3 3 27 27 28 28 3 3 28 28 4 4 4 4 28 28 29 29 4 4 29 29 5 5 5 5 29 29 30 30 5 5 30 30 6 6 6 6 30 30 31 31 6 6 31 31 7 7 7 7 31 31 32 32 7 7 32 32 8 8 8 8 32 32 33 33 8 8 33 33 9 9 9 9 33 33 34 34 9 9 34 34 10 10 10 10 34 34 35 35 10 10 35 35 11 11 11 11 35 35 36 36 11 11 36 36 12 12 12 12 36 36 37 37 12 12 37 37 13 13 13 13 37 37 38 38 13 13 38 38 14 14 14 14 38 38 39 39 14 14 39 39 15 15 15 15 39 39 40 40 15 15 40 40 16 16 16 16 40 40 41 41 16 16 41 41 17 17 17 17 41 41 42 42 17 17 42 42 18 18 18 18 42 42 43 43 18 18 43 43 19 19 19 19 43 43 44 44 19 19 44 44 20 20 20 20 44 44 45 45 20 20 45 45 21 21 21 21 45 45 46 46 21 21 46 46 22 22 22 22 46 46 47 47 22 22 47 47 23 23 23 23 47 47 24 24 23 23 24 24 0 0 24 24 48 48 49 49 24 24 49 49 25 25 25 25 49 49 50 50 25 25 50 50 26 26 26 26 50 50 51 51 26 26 51 51 27 27 27 27 51 51 52 52 27 27 52 52 28 28 28 28 52 52 53 53 28 28 53 53 29 29 29 29 53 53 54 54 29 29 54 54 30 30 30 30 54 54 55 55 30 30 55 55 31 31 31 31 55 55 56 56 31 31 56 56 32 32 32 32 56 56 57 57 32 32 57 57 33 33 33 33 57 57 58 58 33 33 58 58 34 34 34 34 58 58 59 59 34 34 59 59 35 35 35 35 59 59 60 60 35 35 60 60 36 36 36 36 60 60 61 61 36 36 61 61 37 37 37 37 61 61 62 62 37 37 62 62 38 38 38 38 62 62 63 63 38 38 63 63 39 39 39 39 63 63 64 64 39 39 64 64 40 40 40 40 64 64 65 65 40 40 65 65 41 41 41 41 65 65 66 66 41 41 66 66 42 42 42 42 66 66 67 67 42 42 67 67 43 43 43 43 67 67 68 68 43 43 68 68 44 44 44 44 68 68 69 69 44 44 69 69 45 45 45 45 69 69 70 70 45 45 70 70 46 46 46 46 70 70 71 71 46 46 71 71 47 47 47 47 71 71 48 48 47 47 48 48 24 24 48 48 72 72 73 73 48 48 73 73 49 49 49 49 73 73 74 74 49 49 74 74 50 50 50 50 74 74 75 75 50 50 75 75 51 51 51 51 75 75 76 76 51 51 76 76 52 52 52 52 76 76 77 77 52 52 77 77 53 53 53 53 77 77 78 78 53 53 78 78 54 54 54 54 78 78 79 79 54 54 79 79 55 55 55 55 79 79 80 80 55 55 80 80 56 56 56 56 80 80 81 81 56 56 81 81 57 57 57 57 81 81 82 82 57 57 82 82 58 58 58 58 82 82 83 83 58 58 83 83 59 59 59 59 83 83 84 84 59 59 84 84 60 60 60 60 84 84 85 85 60 60 85 85 61 61 61 61 85 85 86 86 61 61 86 86 62 62 62 62 86 86 87 87 62 62 87 87 63 63 63 63 87 87 88 88 63 63 88 88 64 64 64 64 88 88 89 89 64 64 89 89 65 65 65 65 89 89 90 90 65 65 90 90 66 66 66 66 90 90 91 91 66 66 91 91 67 67 67 67 91 91 92 92 67 67 92 92 68 68 68 68 92 92 93 93 68 68 93 93 69 69 69 69 93 93 94 94 69 69 94 94 70 70 70 70 94 94 95 95 70 70 95 95 71 71 71 71 95 95 72 72 71 71 72 72 48 48 72 72 96 96 97 97 72 72 97 97 73 73 73 73 97 97 98 98 73 73 98 98 74 74 74 74 98 98 99 99 74 74 99 99 75 75 75 75 99 99 100 100 75 75 100 100 76 76 76 76 100 100 101 101 76 76 101 101 77 77 77 77 101 101 102 102 77 77 102 102 78 78 78 78 102 102 103 103 78 78 103 103 79 79 79 79 103 103 104 104 79 79 104 104 80 80 80 80 104 104 105 105 80 80 105 105 81 81 81 81 105 105 106 106 81 81 106 106 82 82 82 82 106 106 107 107 82 82 107 107 83 83 83 83 107 107 108 108 83 83 108 108 84 84 84 84 108 108 109 109 84 84 109 109 85 85 85 85 109 109 110 110 85 85 110 110 86 86 86 86 110 110 111 111 86 86 111 111 87 87 87 87 111 111 112 112 87 87 112 112 88 88 88 88 112 112 113 113 88 88 113 113 89 89 89 89 113 113 114 114 89 89 114 114 90 90 90 90 114 114 115 115 90 90 115 115 91 91 91 91 115 115 116 116 91 91 116 116 92 92 92 92 116 116 117 117 92 92 117 117 93 93 93 93 117 117 118 118 93 93 118 118 94 94 94 94 118 118 119 119 94 94 119 119 95 95 95 95 119 119 96 96 95 95 96 96 72 72 96 96 120 120 121 121 96 96 121 121 97 97 97 97 121 121 122 122 97 97 122 122 98 98 98 98 122 122 123 123 98 98 123 123 99 99 99 99 123 123 124 124 99 99 124 124 100 100 100 100 124 124 125 125 100 100 125 125 101 101 101 101 125 125 126 126 101 101 126 126 102 102 102 102 126 126 127 127 102 102 127 127 103 103 103 103 127 127 128 128 103 103 128 128 104 104 104 104 128 128 129 129 104 104 129 129 105 105 105 105 129 129 130 130 105 105 130 130 106 106 106 106 130 130 131 131 106 106 131 131 107 107 107 107 131 131 132 132 107 107 132 132 108 108 108 108 132 132 133 133 108 108 133 133 109 109 109 109 133 133 134 134 109 109 134 134 110 110 110 110 134 134 135 135 110 110 135 135 111 111 111 111 135 135 136 136 111 111 136 136 112 112 112 112 136 136 137 137 112 112 137 137 113 113 113 113 137 137 138 138 113 113 138 138 114 114 114 114 138 138 139 139 114 114 139 139 115 115 115 115 139 139 140 140 115 115 140 140 116 116 116 116 140 140 141 141 116 116 141 141 117 117 117 117 141 141 142 142 117 117 142 142 118 118 118 118 142 142 143 143 118 118 143 143 119 119 119 119 143 143 120 120 119 119 120 120 96 96 120 120 144 144 145 145 120 120 145 145 121 121 121 121 145 145 146 146 121 121 146 146 122 122 122 122 146 146 147 147 122 122 147 147 123 123 123 123 147 147 148 148 123 123 148 148 124 124 124 124 148 148 149 149 124 124 149 149 125 125 125 125 149 149 150 150 125 125 150 150 126 126 126 126 150 150 151 151 126 126 151 151 127 127 127 127 151 151 152 152 127 127 152 152 128 128 128 128 152 152 153 153 128 128 153 153 129 129 129 129 153 153 154 154 129 129 154 154 130 130 130 130 154 154 155 155 130 130 155 155 131 131 131 131 155 155 156 156 131 131 156 156 132 132 132 132 156 156 157 157 132 132 157 157 133 133 133 133 157 157 158 158 133 133 158 158 134 134 134 134 158 158 159 159 134 134 159 159 135 135 135 135 159 159 160 160 135 135 160 160 136 136 136 136 160 160 161 161 136 136 161 161 137 137 137 137 161 161 162 162 137 137 162 162 138 138 138 138 162 162 163 163 138 138 163 163 139 139 139 139 163 163 164 164 139 139 164 164 140 140 140 140 164 164 165 165 140 140 165 165 141 141 141 141 165 165 166 166 141 141 166 166 142 142 142 142 166 166 167 167 142 142 167 167 143 143 143 143 167 167 144 144 143 143 144 144 120 120 144 144 168 168 169 169 144 144 169 169 145 145 145 145 169 169 170 170 145 145 170 170 146 146 146 146 170 170 171 171 146 146 171 171 147 147 147 147 171 171 172 172 147 147 172 172 148 148 148 148 172 172 173 173 148 148 173 173 149 149 149 149 173 173 174 174 149 149 174 174 150 150 150 150 174 174 175 175 150 150 175 175 151 151 151 151 175 175 176 176 151 151 176 176 152 152 152 152 176 176 177 177 152 152 177 177 153 153 153 153 177 177 178 178 153 153 178 178 154 154 154 154 178 178 179 179 154 154 179 179 155 155 155 155 179 179 180 180 155 155 180 180 156 156 156 156 180 180 181 181 156 156 181 181 157 157 157 157 181 181 182 182 157 157 182 182 158 158 158 158 182 182 183 183 158 158 183 183 159 159 159 159 183 183 184 184 159 159 184 184 160 160 160 160 184 184 185 185 160 160 185 185 161 161 161 161 185 185 186 186 161 161 186 186 162 162 162 162 186 186 187 187 162 162 187 187 163 163 163 163 187 187 188 188 163 163 188 188 164 164 164 164 188 188 189 189 164 164 189 189 165 165 165 165 189 189 190 190 165 165 190 190 166 166 166 166 190 190 191 191 166 166 191 191 167 167 167 167 191 191 168 168 167 167 168 168 144 144 192 192 1 1 0 0 192 192 2 2 1 1 192 192 3 3 2 2 192 192 4 4 3 3 192 192 5 5 4 4 192 192 6 6 5 5 192 192 7 7 6 6 192 192 8 8 7 7 192 192 9 9 8 8 192 192 10 10 9 9 192 192 11 11 10 10 192 192 12 12 11 11 192 192 13 13 12 12 192 192 14 14 13 13 192 192 15 15 14 14 192 192 16 16 15 15 192 192 17 17 16 16 192 192 18 18 17 17 192 192 19 19 18 18 192 192 20 20 19 19 192 192 21 21 20 20 192 192 22 22 21 21 192 192 23 23 22 22 192 192 0 0 23 23 193 193 168 168 169 169 193 193 169 169 170 170 193 193 170 170 171 171 193 193 171 171 172 172 193 193 172 172 173 173 193 193 173 173 174 174 193 193 174 174 175 175 193 193 175 175 176 176 193 193 176 176 177 177 193 193 177 177 178 178 193 193 178 178 179 179 193 193 179 179 180 180 193 193 180 180 181 181 193 193 181 181 182 182 193 193 182 182 183 183 193 193 183 183 184 184 193 193 184 184 185 185 193 193 185 185 186 186 193 193 186 186 187 187 193 193 187 187 188 188 193 193 188 188 189 189 193 193 189 189 190 190 193 193 190 190 191 191 193 193 191 191 168 168 194 194 218 218 219 219 194 194 219 219 195 195 195 195 219 219 220 220 195 195 220 220 196 196 196 196 220 220 221 221 196 196 221 221 197 197 197 197 221 221 222 222 197 197 222 222 198 198 198 198 222 222 223 223 198 198 223 223 199 199 199 199 223 223 224 224 199 199 224 224 200 200 200 200 224 224 225 225 200 200 225 225 201 201 201 201 225 225 226 226 201 201 226 226 202 202 202 202 226 226 227 227 202 202 227 227 203 203 203 203 227 227 228 228 203 203 228 228 204 204 204 204 228 228 229 229 204 204 229 229 205 205 205 205 229 229 230 230 205 205 230 230 206 206 206 206 230 230 231 231 206 206 231 231 207 207 207 207 231 231 232 232 207 207 232 232 208 208 208 208 232 232 233 233 208 208 233 233 209 209 209 209 233 233 234 234 209 209 234 234 210 210 210 210 234 234 235 235 210 210 235 235 211 211 211 211 235 235 236 236 211 211 236 236 212 212 212 212 236 236 237 237 212 212 237 237 213 213 213 213 237 237 238 238 213 213 238 238 214 214 214 214 238 238 239 239 214 214 239 239 215 215 215 215 239 239 240 240 215 215 240 240 216 216 216 216 240 240 241 241 216 216 241 241 217 217 217 217 241 241 218 218 217 217 218 218 194 194 242 242 218 218 219 219 242 242 219 219 220 220 242 242 220 220 221 221 242 242 221 221 222 222 242 242 222 222 223 223 242 242 223 223 224 224 242 242 224 224 225 225 242 242 225 225 226 226 242 242 226 226 227 227 242 242 227 227 228 228 242 242 228 228 229 229 242 242 229 229 230 230 242 242 230 230 231 231 242 242 231 231 232 232 242 242 232 232 233 233 242 242 233 233 234 234 242 242 234 234 235 235 242 242 235 235 236 236 242 242 236 236 237 237 242 242 237 237 238 238 242 242 238 238 239 239 242 242 239 239 240 240 242 242 240 240 241 241 242 242 241 241 218 218 243 243 267 267 268 268 243 243 268 268 244 244 244 244 268 268 269 269 244 244 269 269 245 245 245 245 269 269 270 270 245 245 270 270 246 246 246 246 270 270 271 271 246 246 271 271 247 247 247 247 271 271 272 272 247 247 272 272 248 248 248 248 272 272 273 273 248 248 273 273 249 249 249 249 273 273 274 274 249 249 274 274 250 250 250 250 274 274 275 275 250 250 275 275 251 251 251 251 275 275 276 276 251 251 276 276 252 252 252 252 276 276 277 277 252 252 277 277 253 253 253 253 277 277 278 278 253 253 278 278 254 254 254 254 278 278 279 279 254 254 279 279 255 255 255 255 279 279 280 280 255 255 280 280 256 256 256 256 280 280 281 281 256 256 281 281 257 257 257 257 281 281 282 282 257 257 282 282 258 258 258 258 282 282 283 283 258 258 283 283 259 259 259 259 283 283 284 284 259 259 284 284 260 260 260 260 284 284 285 285 260 260 285 285 261 261 261 261 285 285 286 286 261 261 286 286 262 262 262 262 286 286 287 287 262 262 287 287 263 263 263 263 287 287 288 288 263 263 288 288 264 264 264 264 288 288 289 289 264 264 289 289 265 265 265 265 289 289 290 290 265 265 290 290 266 266 266 266 290 290 267 267 266 266 267 267 243 243 291 291 267 267 268 268 291 291 268 268 269 269 291 291 269 269 270 270 291 291 270 270 271 271 291 291 271 271 272 272 291 291 272 272 273 273 291 291 273 273 274 274 291 291 274 274 275 275 291 291 275 275 276 276 291 291 276 276 277 277 291 291 277 277 278 278 291 291 278 278 279 279 291 291 279 279 280 280 291 291 280 280 281 281 291 291 281 281 282 282 291 291 282 282 283 283 291 291 283 283 284 284 291 291 284 284 285 285 291 291 285 285 286 286 291 291 286 286 287 287 291 291 287 287 288 288 291 291 288 288 289 289 291 291 289 289 290 290 291 291 290 290 267 267</p>
        </triangles>
      </mesh>
    </geometry>
    <geometry id="snorkel_bluebuck_tall_v10-mesh" name="snorkel_bluebuck_tall_v10">
      <mesh>
        <source id="snorkel_bluebuck_tall_v10-pos">
          <float_array id="snorkel_bluebuck_tall_v10-pos-array" count="1164">-0.86000 -1.28921 0.84148 -0.86978 -1.29285 0.84188 -0.87890 -1.29697 0.84488 -0.88672 -1.30129 0.85027 -0.89273 -1.30553 0.85768 -0.89651 -1.30940 0.86662 -0.89779 -1.31262 0.87647 -0.89651 -1.31498 0.88656 -0.89273 -1.31632 0.89620 -0.88672 -1.31655 0.90474 -0.87890 -1.31565 0.91159 -0.86978 -1.31368 0.91629 -0.86000 -1.31079 0.91852 -0.85022 -1.30715 0.91812 -0.84110 -1.30303 0.91512 -0.83328 -1.29871 0.90973 -0.82727 -1.29447 0.90232 -0.82349 -1.29060 0.89338 -0.82221 -1.28738 0.88353 -0.82349 -1.28502 0.87344 -0.82727 -1.28368 0.86380 -0.83328 -1.28345 0.85526 -0.84110 -1.28435 0.84841 -0.85022 -1.28632 0.84371 -0.95000 -1.04072 0.91109 -0.96021 -1.04271 0.91202 -0.96972 -1.04520 0.91553 -0.97789 -1.04801 0.92140 -0.98416 -1.05096 0.92921 -0.98810 -1.05384 0.93844 -0.98944 -1.05647 0.94846 -0.98810 -1.05865 0.95858 -0.98416 -1.06024 0.96812 -0.97789 -1.06113 0.97642 -0.96972 -1.06127 0.98292 -0.96021 -1.06064 0.98718 -0.95000 -1.05928 0.98891 -0.93979 -1.05729 0.98798 -0.93028 -1.05480 0.98447 -0.92211 -1.05199 0.97860 -0.91584 -1.04904 0.97079 -0.91190 -1.04616 0.96156 -0.91056 -1.04353 0.95154 -0.91190 -1.04135 0.94142 -0.91584 -1.03976 0.93188 -0.92211 -1.03887 0.92358 -0.93028 -1.03873 0.91708 -0.93979 -1.03936 0.91282 -0.95000 -0.52868 1.01616 -0.96035 -0.52922 1.01743 -0.97000 -0.53117 1.02092 -0.97828 -0.53441 1.02639 -0.98463 -0.53871 1.03347 -0.98863 -0.54378 1.04168 -0.98999 -0.54928 1.05046 -0.98863 -0.55482 1.05920 -0.98463 -0.56003 1.06732 -0.97828 -0.56456 1.07425 -0.97000 -0.56810 1.07954 -0.96035 -0.57041 1.08281 -0.95000 -0.57132 1.08384 -0.93965 -0.57078 1.08257 -0.93000 -0.56883 1.07908 -0.92172 -0.56559 1.07361 -0.91537 -0.56129 1.06653 -0.91137 -0.55622 1.05832 -0.91001 -0.55072 1.04954 -0.91137 -0.54518 1.04080 -0.91537 -0.53997 1.03268 -0.92172 -0.53544 1.02575 -0.93000 -0.53190 1.02046 -0.93965 -0.52959 1.01719 -0.94000 -0.36800 1.22600 -0.95035 -0.36897 1.22698 -0.96000 -0.37205 1.22954 -0.96828 -0.37703 1.23348 -0.97463 -0.38358 1.23855 -0.97863 -0.39125 1.24441 -0.97999 -0.39952 1.25064 -0.97863 -0.40782 1.25683 -0.97463 -0.41558 1.26255 -0.96828 -0.42229 1.26742 -0.96000 -0.42747 1.27110 -0.95035 -0.43079 1.27335 -0.94000 -0.43200 1.27400 -0.92965 -0.43103 1.27302 -0.92000 -0.42795 1.27046 -0.91172 -0.42297 1.26652 -0.90537 -0.41642 1.26145 -0.90137 -0.40875 1.25559 -0.90001 -0.40048 1.24936 -0.90137 -0.39218 1.24317 -0.90537 -0.38442 1.23745 -0.91172 -0.37771 1.23258 -0.92000 -0.37253 1.22890 -0.92965 -0.36921 1.22665 -0.94000 -0.21205 1.43735 -0.95035 -0.21335 1.43778 -0.96000 -0.21714 1.43905 -0.96828 -0.22317 1.44106 -0.97464 -0.23103 1.44368 -0.97864 -0.24018 1.44673 -0.98000 -0.25000 1.45000 -0.97864 -0.25982 1.45327 -0.97464 -0.26897 1.45632 -0.96828 -0.27683 1.45894 -0.96000 -0.28286 1.46095 -0.95035 -0.28665 1.46222 -0.94000 -0.28795 1.46265 -0.92965 -0.28665 1.46222 -0.92000 -0.28286 1.46095 -0.91172 -0.27683 1.45894 -0.90536 -0.26897 1.45632 -0.90136 -0.25982 1.45327 -0.90000 -0.25000 1.45000 -0.90136 -0.24018 1.44673 -0.90536 -0.23103 1.44368 -0.91172 -0.22317 1.44106 -0.92000 -0.21714 1.43905 -0.92965 -0.21335 1.43778 -0.94000 -0.21000 1.95000 -0.95035 -0.21136 1.95000 -0.96000 -0.21536 1.95000 -0.96828 -0.22172 1.95000 -0.97464 -0.23000 1.95000 -0.97864 -0.23965 1.95000 -0.98000 -0.25000 1.95000 -0.97864 -0.26035 1.95000 -0.97464 -0.27000 1.95000 -0.96828 -0.27828 1.95000 -0.96000 -0.28464 1.95000 -0.95035 -0.28864 1.95000 -0.94000 -0.29000 1.95000 -0.92965 -0.28864 1.95000 -0.92000 -0.28464 1.95000 -0.91172 -0.27828 1.95000 -0.90536 -0.27000 1.95000 -0.90136 -0.26035 1.95000 -0.90000 -0.25000 1.95000 -0.90136 -0.23965 1.95000 -0.90536 -0.23000 1.95000 -0.91172 -0.22172 1.95000 -0.92000 -0.21536 1.95000 -0.92965 -0.21136 1.95000 -0.94000 -0.21000 2.45000 -0.95035 -0.21136 2.45000 -0.96000 -0.21536 2.45000 -0.96828 -0.22172 2.45000 -0.97464 -0.23000 2.45000 -0.97864 -0.23965 2.45000 -0.98000 -0.25000 2.45000 -0.97864 -0.26035 2.45000 -0.97464 -0.27000 2.45000 -0.96828 -0.27828 2.45000 -0.96000 -0.28464 2.45000 -0.95035 -0.28864 2.45000 -0.94000 -0.29000 2.45000 -0.92965 -0.28864 2.45000 -0.92000 -0.28464 2.45000 -0.91172 -0.27828 2.45000 -0.90536 -0.27000 2.45000 -0.90136 -0.26035 2.45000 -0.90000 -0.25000 2.45000 -0.90136 -0.23965 2.45000 -0.90536 -0.23000 2.45000 -0.91172 -0.22172 2.45000 -0.92000 -0.21536 2.45000 -0.92965 -0.21136 2.45000 -0.94000 -0.21000 2.95000 -0.95035 -0.21136 2.95000 -0.96000 -0.21536 2.95000 -0.96828 -0.22172 2.95000 -0.97464 -0.23000 2.95000 -0.97864 -0.23965 2.95000 -0.98000 -0.25000 2.95000 -0.97864 -0.26035 2.95000 -0.97464 -0.27000 2.95000 -0.96828 -0.27828 2.95000 -0.96000 -0.28464 2.95000 -0.95035 -0.28864 2.95000 -0.94000 -0.29000 2.95000 -0.92965 -0.28864 2.95000 -0.92000 -0.28464 2.95000 -0.91172 -0.27828 2.95000 -0.90536 -0.27000 2.95000 -0.90136 -0.26035 2.95000 -0.90000 -0.25000 2.95000 -0.90136 -0.23965 2.95000 -0.90536 -0.23000 2.95000 -0.91172 -0.22172 2.95000 -0.92000 -0.21536 2.95000 -0.92965 -0.21136 2.95000 -0.94000 -0.21000 3.45000 -0.95035 -0.21136 3.45000 -0.96000 -0.21536 3.45000 -0.96828 -0.22172 3.45000 -0.97464 -0.23000 3.45000 -0.97864 -0.23965 3.45000 -0.98000 -0.25000 3.45000 -0.97864 -0.26035 3.45000 -0.97464 -0.27000 3.45000 -0.96828 -0.27828 3.45000 -0.96000 -0.28464 3.45000 -0.95035 -0.28864 3.45000 -0.94000 -0.29000 3.45000 -0.92965 -0.28864 3.45000 -0.92000 -0.28464 3.45000 -0.91172 -0.27828 3.45000 -0.90536 -0.27000 3.45000 -0.90136 -0.26035 3.45000 -0.90000 -0.25000 3.45000 -0.90136 -0.23965 3.45000 -0.90536 -0.23000 3.45000 -0.91172 -0.22172 3.45000 -0.92000 -0.21536 3.45000 -0.92965 -0.21136 3.45000 -0.94000 -0.21000 3.95000 -0.95035 -0.21136 3.95000 -0.96000 -0.21536 3.95000 -0.96828 -0.22172 3.95000 -0.97464 -0.23000 3.95000 -0.97864 -0.23965 3.95000 -0.98000 -0.25000 3.95000 -0.97864 -0.26035 3.95000 -0.97464 -0.27000 3.95000 -0.96828 -0.27828 3.95000 -0.96000 -0.28464 3.95000 -0.95035 -0.28864 3.95000 -0.94000 -0.29000 3.95000 -0.92965 -0.28864 3.95000 -0.92000 -0.28464 3.95000 -0.91172 -0.27828 3.95000 -0.90536 -0.27000 3.95000 -0.90136 -0.26035 3.95000 -0.90000 -0.25000 3.95000 -0.90136 -0.23965 3.95000 -0.90536 -0.23000 3.95000 -0.91172 -0.22172 3.95000 -0.92000 -0.21536 3.95000 -0.92965 -0.21136 3.95000 -0.94000 -0.21000 4.45000 -0.95035 -0.21136 4.45000 -0.96000 -0.21536 4.45000 -0.96828 -0.22172 4.45000 -0.97464 -0.23000 4.45000 -0.97864 -0.23965 4.45000 -0.98000 -0.25000 4.45000 -0.97864 -0.26035 4.45000 -0.97464 -0.27000 4.45000 -0.96828 -0.27828 4.45000 -0.96000 -0.28464 4.45000 -0.95035 -0.28864 4.45000 -0.94000 -0.29000 4.45000 -0.92965 -0.28864 4.45000 -0.92000 -0.28464 4.45000 -0.91172 -0.27828 4.45000 -0.90536 -0.27000 4.45000 -0.90136 -0.26035 4.45000 -0.90000 -0.25000 4.45000 -0.90136 -0.23965 4.45000 -0.90536 -0.23000 4.45000 -0.91172 -0.22172 4.45000 -0.92000 -0.21536 4.45000 -0.92965 -0.21136 4.45000 -0.94000 -0.20520 5.02587 -0.95160 -0.20673 5.02498 -0.96240 -0.21120 5.02240 -0.97168 -0.21832 5.01829 -0.97880 -0.22760 5.01293 -0.98327 -0.23840 5.00669 -0.98480 -0.25000 5.00000 -0.98327 -0.26160 4.99331 -0.97880 -0.27240 4.98707 -0.97168 -0.28168 4.98171 -0.96240 -0.28880 4.97760 -0.95160 -0.29327 4.97502 -0.94000 -0.29480 4.97413 -0.92840 -0.29327 4.97502 -0.91760 -0.28880 4.97760 -0.90832 -0.28168 4.98171 -0.90120 -0.27240 4.98707 -0.89673 -0.26160 4.99331 -0.89520 -0.25000 5.00000 -0.89673 -0.23840 5.00669 -0.90120 -0.22760 5.01293 -0.90832 -0.21832 5.01829 -0.91760 -0.21120 5.02240 -0.92840 -0.20673 5.02498 -0.86000 -1.30000 0.88000 -0.94000 -0.25000 5.00000 -0.94700 -0.46000 1.18400 -0.94700 -0.46362 1.18352 -0.94700 -0.46700 1.18212 -0.94700 -0.46990 1.17990 -0.94700 -0.47212 1.17700 -0.94700 -0.47352 1.17362 -0.94700 -0.47400 1.17000 -0.94700 -0.47352 1.16638 -0.94700 -0.47212 1.16300 -0.94700 -0.46990 1.16010 -0.94700 -0.46700 1.15788 -0.94700 -0.46362 1.15648 -0.94700 -0.46000 1.15600 -0.94700 -0.45638 1.15648 -0.94700 -0.45300 1.15788 -0.94700 -0.45010 1.16010 -0.94700 -0.44788 1.16300 -0.94700 -0.44648 1.16638 -0.94700 -0.44600 1.17000 -0.94700 -0.44648 1.17362 -0.94700 -0.44788 1.17700 -0.94700 -0.45010 1.17990 -0.94700 -0.45300 1.18212 -0.94700 -0.45638 1.18352 -0.88700 -0.46000 1.18400 -0.88700 -0.46362 1.18352 -0.88700 -0.46700 1.18212 -0.88700 -0.46990 1.17990 -0.88700 -0.47212 1.17700 -0.88700 -0.47352 1.17362 -0.88700 -0.47400 1.17000 -0.88700 -0.47352 1.16638 -0.88700 -0.47212 1.16300 -0.88700 -0.46990 1.16010 -0.88700 -0.46700 1.15788 -0.88700 -0.46362 1.15648 -0.88700 -0.46000 1.15600 -0.88700 -0.45638 1.15648 -0.88700 -0.45300 1.15788 -0.88700 -0.45010 1.16010 -0.88700 -0.44788 1.16300 -0.88700 -0.44648 1.16638 -0.88700 -0.44600 1.17000 -0.88700 -0.44648 1.17362 -0.88700 -0.44788 1.17700 -0.88700 -0.45010 1.17990 -0.88700 -0.45300 1.18212 -0.88700 -0.45638 1.18352 -0.88700 -0.46000 1.17000 -0.94200 -0.31000 1.38400 -0.94200 -0.31362 1.38352 -0.94200 -0.31700 1.38212 -0.94200 -0.31990 1.37990 -0.94200 -0.32212 1.37700 -0.94200 -0.32352 1.37362 -0.94200 -0.32400 1.37000 -0.94200 -0.32352 1.36638 -0.94200 -0.32212 1.36300 -0.94200 -0.31990 1.36010 -0.94200 -0.31700 1.35788 -0.94200 -0.31362 1.35648 -0.94200 -0.31000 1.35600 -0.94200 -0.30638 1.35648 -0.94200 -0.30300 1.35788 -0.94200 -0.30010 1.36010 -0.94200 -0.29788 1.36300 -0.94200 -0.29648 1.36638 -0.94200 -0.29600 1.37000 -0.94200 -0.29648 1.37362 -0.94200 -0.29788 1.37700 -0.94200 -0.30010 1.37990 -0.94200 -0.30300 1.38212 -0.94200 -0.30638 1.38352 -0.88200 -0.31000 1.38400 -0.88200 -0.31362 1.38352 -0.88200 -0.31700 1.38212 -0.88200 -0.31990 1.37990 -0.88200 -0.32212 1.37700 -0.88200 -0.32352 1.37362 -0.88200 -0.32400 1.37000 -0.88200 -0.32352 1.36638 -0.88200 -0.32212 1.36300 -0.88200 -0.31990 1.36010 -0.88200 -0.31700 1.35788 -0.88200 -0.31362 1.35648 -0.88200 -0.31000 1.35600 -0.88200 -0.30638 1.35648 -0.88200 -0.30300 1.35788 -0.88200 -0.30010 1.36010 -0.88200 -0.29788 1.36300 -0.88200 -0.29648 1.36638 -0.88200 -0.29600 1.37000 -0.88200 -0.29648 1.37362 -0.88200 -0.29788 1.37700 -0.88200 -0.30010 1.37990 -0.88200 -0.30300 1.38212 -0.88200 -0.30638 1.38352 -0.88200 -0.31000 1.37000</float_array>
          <technique_common>
            <accessor source="#snorkel_bluebuck_tall_v10-pos-array" count="388" stride="3">
              <param name="X" type="float"/><param name="Y" type="float"/><param name="Z" type="float"/>
            </accessor>
          </technique_common>
        </source>
        <source id="snorkel_bluebuck_tall_v10-nrm">
          <float_array id="snorkel_bluebuck_tall_v10-nrm-array" count="1164">0.00000 0.26963 -0.96296 -0.24454 0.17881 -0.95301 -0.47242 0.07580 -0.87811 -0.66810 -0.03237 -0.74337 -0.81825 -0.13834 -0.55797 -0.91264 -0.23488 -0.33454 -0.94484 -0.31541 -0.08832 -0.91264 -0.37445 0.16393 -0.81825 -0.40797 0.40500 -0.66810 -0.41369 0.61847 -0.47242 -0.39121 0.78979 -0.24454 -0.34208 0.90729 -0.00000 -0.26963 0.96296 0.24454 -0.17881 0.95301 0.47242 -0.07580 0.87811 0.66810 0.03237 0.74337 0.81825 0.13834 0.55797 0.91264 0.23488 0.33454 0.94484 0.31541 0.08832 0.91264 0.37445 -0.16393 0.81825 0.40797 -0.40500 0.66810 0.41369 -0.61847 0.47242 0.39121 -0.78979 0.24454 0.34208 -0.90729 0.00000 0.23200 -0.97272 -0.25522 0.18225 -0.94955 -0.49305 0.12008 -0.86168 -0.69727 0.04974 -0.71508 -0.85398 -0.02400 -0.51975 -0.95249 -0.09611 -0.28900 -0.98609 -0.16166 -0.03856 -0.95249 -0.21620 0.21452 -0.85398 -0.25600 0.45297 -0.69727 -0.27836 0.66055 -0.49305 -0.28174 0.82312 -0.25522 -0.26593 0.92959 -0.00000 -0.23200 0.97272 0.25522 -0.18225 0.94955 0.49305 -0.12008 0.86168 0.69727 -0.04974 0.71508 0.85398 0.02400 0.51975 0.95249 0.09611 0.28900 0.98609 0.16166 0.03856 0.95249 0.21620 -0.21452 0.85398 0.25600 -0.45297 0.69727 0.27836 -0.66055 0.49305 0.28174 -0.82312 0.25522 0.26593 -0.92959 0.00000 0.53304 -0.84609 -0.25876 0.51957 -0.81431 -0.49989 0.47068 -0.72703 -0.70694 0.38972 -0.59021 -0.86583 0.28220 -0.41317 -0.96570 0.15545 -0.20797 -0.99977 0.01810 0.01141 -0.96570 -0.12048 0.23000 -0.86583 -0.25084 0.43292 -0.70694 -0.36412 0.60634 -0.49989 -0.45258 0.73844 -0.25876 -0.51019 0.82021 -0.00000 -0.53304 0.84609 0.25876 -0.51957 0.81431 0.49989 -0.47068 0.72703 0.70694 -0.38972 0.59021 0.86583 -0.28220 0.41317 0.96570 -0.15545 0.20797 0.99977 -0.01810 -0.01141 0.96570 0.12048 -0.23000 0.86583 0.25084 -0.43292 0.70694 0.36412 -0.60634 0.49989 0.45258 -0.73844 0.25876 0.51019 -0.82021 0.00000 0.80000 -0.60000 -0.25877 0.77584 -0.57542 -0.49990 0.69882 -0.51162 -0.70697 0.57417 -0.41296 -0.86585 0.41039 -0.28615 -0.96573 0.21864 -0.13985 -0.99980 0.01199 0.01599 -0.96573 -0.19547 0.17074 -0.86585 -0.38961 0.31385 -0.70697 -0.55721 0.43557 -0.49990 -0.68682 0.52761 -0.25877 -0.76964 0.58369 -0.00000 -0.80000 0.60000 0.25877 -0.77584 0.57542 0.49990 -0.69882 0.51162 0.70697 -0.57417 0.41296 0.86585 -0.41039 0.28615 0.96573 -0.21864 0.13985 0.99980 -0.01199 -0.01599 0.96573 0.19547 -0.17074 0.86585 0.38961 -0.31385 0.70697 0.55721 -0.43557 0.49990 0.68682 -0.52761 0.25877 0.76964 -0.58369 0.00000 0.94868 -0.31623 -0.25882 0.91636 -0.30545 -0.50000 0.82158 -0.27386 -0.70711 0.67082 -0.22361 -0.86603 0.47434 -0.15811 -0.96593 0.24554 -0.08185 -1.00000 0.00000 -0.00000 -0.96593 -0.24554 0.08185 -0.86603 -0.47434 0.15811 -0.70711 -0.67082 0.22361 -0.50000 -0.82158 0.27386 -0.25882 -0.91636 0.30545 -0.00000 -0.94868 0.31623 0.25882 -0.91636 0.30545 0.50000 -0.82158 0.27386 0.70711 -0.67082 0.22361 0.86603 -0.47434 0.15811 0.96593 -0.24554 0.08185 1.00000 -0.00000 0.00000 0.96593 0.24554 -0.08185 0.86603 0.47434 -0.15811 0.70711 0.67082 -0.22361 0.50000 0.82158 -0.27386 0.25882 0.91636 -0.30545 0.00000 1.00000 0.00000 -0.25882 0.96593 0.00000 -0.50000 0.86603 0.00000 -0.70711 0.70711 0.00000 -0.86603 0.50000 0.00000 -0.96593 0.25882 0.00000 -1.00000 0.00000 0.00000 -0.96593 -0.25882 0.00000 -0.86603 -0.50000 0.00000 -0.70711 -0.70711 0.00000 -0.50000 -0.86603 0.00000 -0.25882 -0.96593 0.00000 -0.00000 -1.00000 0.00000 0.25882 -0.96593 -0.00000 0.50000 -0.86603 -0.00000 0.70711 -0.70711 -0.00000 0.86603 -0.50000 -0.00000 0.96593 -0.25882 -0.00000 1.00000 -0.00000 -0.00000 0.96593 0.25882 0.00000 0.86603 0.50000 0.00000 0.70711 0.70711 0.00000 0.50000 0.86603 0.00000 0.25882 0.96593 0.00000 0.00000 1.00000 0.00000 -0.25882 0.96593 0.00000 -0.50000 0.86603 0.00000 -0.70711 0.70711 0.00000 -0.86603 0.50000 0.00000 -0.96593 0.25882 0.00000 -1.00000 0.00000 0.00000 -0.96593 -0.25882 0.00000 -0.86603 -0.50000 0.00000 -0.70711 -0.70711 0.00000 -0.50000 -0.86603 0.00000 -0.25882 -0.96593 0.00000 -0.00000 -1.00000 0.00000 0.25882 -0.96593 -0.00000 0.50000 -0.86603 -0.00000 0.70711 -0.70711 -0.00000 0.86603 -0.50000 -0.00000 0.96593 -0.25882 -0.00000 1.00000 -0.00000 -0.00000 0.96593 0.25882 0.00000 0.86603 0.50000 0.00000 0.70711 0.70711 0.00000 0.50000 0.86603 0.00000 0.25882 0.96593 0.00000 0.00000 1.00000 0.00000 -0.25882 0.96593 0.00000 -0.50000 0.86603 0.00000 -0.70711 0.70711 0.00000 -0.86603 0.50000 0.00000 -0.96593 0.25882 0.00000 -1.00000 0.00000 0.00000 -0.96593 -0.25882 0.00000 -0.86603 -0.50000 0.00000 -0.70711 -0.70711 0.00000 -0.50000 -0.86603 0.00000 -0.25882 -0.96593 0.00000 -0.00000 -1.00000 0.00000 0.25882 -0.96593 -0.00000 0.50000 -0.86603 -0.00000 0.70711 -0.70711 -0.00000 0.86603 -0.50000 -0.00000 0.96593 -0.25882 -0.00000 1.00000 -0.00000 -0.00000 0.96593 0.25882 0.00000 0.86603 0.50000 0.00000 0.70711 0.70711 0.00000 0.50000 0.86603 0.00000 0.25882 0.96593 0.00000 0.00000 1.00000 0.00000 -0.25882 0.96593 0.00000 -0.50000 0.86603 0.00000 -0.70711 0.70711 0.00000 -0.86603 0.50000 0.00000 -0.96593 0.25882 0.00000 -1.00000 0.00000 0.00000 -0.96593 -0.25882 0.00000 -0.86603 -0.50000 0.00000 -0.70711 -0.70711 0.00000 -0.50000 -0.86603 0.00000 -0.25882 -0.96593 0.00000 -0.00000 -1.00000 0.00000 0.25882 -0.96593 -0.00000 0.50000 -0.86603 -0.00000 0.70711 -0.70711 -0.00000 0.86603 -0.50000 -0.00000 0.96593 -0.25882 -0.00000 1.00000 -0.00000 -0.00000 0.96593 0.25882 0.00000 0.86603 0.50000 0.00000 0.70711 0.70711 0.00000 0.50000 0.86603 0.00000 0.25882 0.96593 0.00000 0.00000 1.00000 0.00000 -0.25882 0.96593 0.00000 -0.50000 0.86603 0.00000 -0.70711 0.70711 0.00000 -0.86603 0.50000 0.00000 -0.96593 0.25882 0.00000 -1.00000 0.00000 0.00000 -0.96593 -0.25882 0.00000 -0.86603 -0.50000 0.00000 -0.70711 -0.70711 0.00000 -0.50000 -0.86603 0.00000 -0.25882 -0.96593 0.00000 -0.00000 -1.00000 0.00000 0.25882 -0.96593 -0.00000 0.50000 -0.86603 -0.00000 0.70711 -0.70711 -0.00000 0.86603 -0.50000 -0.00000 0.96593 -0.25882 -0.00000 1.00000 -0.00000 -0.00000 0.96593 0.25882 0.00000 0.86603 0.50000 0.00000 0.70711 0.70711 0.00000 0.50000 0.86603 0.00000 0.25882 0.96593 0.00000 0.00000 1.00000 0.00000 -0.25882 0.96593 0.00000 -0.50000 0.86603 0.00000 -0.70711 0.70711 0.00000 -0.86603 0.50000 0.00000 -0.96593 0.25882 0.00000 -1.00000 0.00000 0.00000 -0.96593 -0.25882 0.00000 -0.86603 -0.50000 0.00000 -0.70711 -0.70711 0.00000 -0.50000 -0.86603 0.00000 -0.25882 -0.96593 0.00000 -0.00000 -1.00000 0.00000 0.25882 -0.96593 -0.00000 0.50000 -0.86603 -0.00000 0.70711 -0.70711 -0.00000 0.86603 -0.50000 -0.00000 0.96593 -0.25882 -0.00000 1.00000 -0.00000 -0.00000 0.96593 0.25882 0.00000 0.86603 0.50000 0.00000 0.70711 0.70711 0.00000 0.50000 0.86603 0.00000 0.25882 0.96593 0.00000 0.00000 1.00000 0.00000 -0.25882 0.96593 0.00000 -0.50000 0.86603 0.00000 -0.70711 0.70711 0.00000 -0.86603 0.50000 0.00000 -0.96593 0.25882 0.00000 -1.00000 0.00000 0.00000 -0.96593 -0.25882 0.00000 -0.86603 -0.50000 0.00000 -0.70711 -0.70711 0.00000 -0.50000 -0.86603 0.00000 -0.25882 -0.96593 0.00000 -0.00000 -1.00000 0.00000 0.25882 -0.96593 -0.00000 0.50000 -0.86603 -0.00000 0.70711 -0.70711 -0.00000 0.86603 -0.50000 -0.00000 0.96593 -0.25882 -0.00000 1.00000 -0.00000 -0.00000 0.96593 0.25882 0.00000 0.86603 0.50000 0.00000 0.70711 0.70711 0.00000 0.50000 0.86603 0.00000 0.25882 0.96593 0.00000 0.32754 -0.90984 -0.25476 0.00000 -0.50001 0.86602 0.00000 0.00000 1.00000 0.00000 -0.25882 0.96593 0.00000 -0.50000 0.86603 0.00000 -0.70711 0.70711 0.00000 -0.86603 0.50000 0.00000 -0.96593 0.25882 0.00000 -1.00000 0.00000 0.00000 -0.96593 -0.25882 0.00000 -0.86603 -0.50000 0.00000 -0.70711 -0.70711 0.00000 -0.50000 -0.86603 0.00000 -0.25882 -0.96593 0.00000 -0.00000 -1.00000 -0.00000 0.25882 -0.96593 -0.00000 0.50000 -0.86603 -0.00000 0.70711 -0.70711 -0.00000 0.86603 -0.50000 -0.00000 0.96593 -0.25882 -0.00000 1.00000 -0.00000 0.00000 0.96593 0.25882 0.00000 0.86603 0.50000 0.00000 0.70711 0.70711 0.00000 0.50000 0.86603 0.00000 0.25882 0.96593 0.00000 0.00000 1.00000 0.00000 -0.25882 0.96593 0.00000 -0.50000 0.86603 0.00000 -0.70711 0.70711 0.00000 -0.86603 0.50000 0.00000 -0.96593 0.25882 0.00000 -1.00000 0.00000 0.00000 -0.96593 -0.25882 0.00000 -0.86603 -0.50000 0.00000 -0.70711 -0.70711 0.00000 -0.50000 -0.86603 0.00000 -0.25882 -0.96593 0.00000 -0.00000 -1.00000 -0.00000 0.25882 -0.96593 -0.00000 0.50000 -0.86603 -0.00000 0.70711 -0.70711 -0.00000 0.86603 -0.50000 -0.00000 0.96593 -0.25882 -0.00000 1.00000 -0.00000 0.00000 0.96593 0.25882 0.00000 0.86603 0.50000 0.00000 0.70711 0.70711 0.00000 0.50000 0.86603 0.00000 0.25882 0.96593 1.00000 0.00000 0.00000 0.00000 0.00000 1.00000 0.00000 -0.25882 0.96593 0.00000 -0.50000 0.86603 0.00000 -0.70711 0.70711 0.00000 -0.86603 0.50000 0.00000 -0.96593 0.25882 0.00000 -1.00000 0.00000 0.00000 -0.96593 -0.25882 0.00000 -0.86603 -0.50000 0.00000 -0.70711 -0.70711 0.00000 -0.50000 -0.86603 0.00000 -0.25882 -0.96593 0.00000 -0.00000 -1.00000 -0.00000 0.25882 -0.96593 -0.00000 0.50000 -0.86603 -0.00000 0.70711 -0.70711 -0.00000 0.86603 -0.50000 -0.00000 0.96593 -0.25882 -0.00000 1.00000 -0.00000 0.00000 0.96593 0.25882 0.00000 0.86603 0.50000 0.00000 0.70711 0.70711 0.00000 0.50000 0.86603 0.00000 0.25882 0.96593 0.00000 0.00000 1.00000 0.00000 -0.25882 0.96593 0.00000 -0.50000 0.86603 0.00000 -0.70711 0.70711 0.00000 -0.86603 0.50000 0.00000 -0.96593 0.25882 0.00000 -1.00000 0.00000 0.00000 -0.96593 -0.25882 0.00000 -0.86603 -0.50000 0.00000 -0.70711 -0.70711 0.00000 -0.50000 -0.86603 0.00000 -0.25882 -0.96593 0.00000 -0.00000 -1.00000 -0.00000 0.25882 -0.96593 -0.00000 0.50000 -0.86603 -0.00000 0.70711 -0.70711 -0.00000 0.86603 -0.50000 -0.00000 0.96593 -0.25882 -0.00000 1.00000 -0.00000 0.00000 0.96593 0.25882 0.00000 0.86603 0.50000 0.00000 0.70711 0.70711 0.00000 0.50000 0.86603 0.00000 0.25882 0.96593 1.00000 0.00000 0.00000</float_array>
          <technique_common>
            <accessor source="#snorkel_bluebuck_tall_v10-nrm-array" count="388" stride="3">
              <param name="X" type="float"/><param name="Y" type="float"/><param name="Z" type="float"/>
            </accessor>
          </technique_common>
        </source>
        <vertices id="snorkel_bluebuck_tall_v10-vtx"><input semantic="POSITION" source="#snorkel_bluebuck_tall_v10-pos"/></vertices>
        <triangles material="snorkel_black" count="720">
          <input semantic="VERTEX" source="#snorkel_bluebuck_tall_v10-vtx" offset="0"/>
          <input semantic="NORMAL" source="#snorkel_bluebuck_tall_v10-nrm" offset="1"/>
          <p>0 0 24 24 25 25 0 0 25 25 1 1 1 1 25 25 26 26 1 1 26 26 2 2 2 2 26 26 27 27 2 2 27 27 3 3 3 3 27 27 28 28 3 3 28 28 4 4 4 4 28 28 29 29 4 4 29 29 5 5 5 5 29 29 30 30 5 5 30 30 6 6 6 6 30 30 31 31 6 6 31 31 7 7 7 7 31 31 32 32 7 7 32 32 8 8 8 8 32 32 33 33 8 8 33 33 9 9 9 9 33 33 34 34 9 9 34 34 10 10 10 10 34 34 35 35 10 10 35 35 11 11 11 11 35 35 36 36 11 11 36 36 12 12 12 12 36 36 37 37 12 12 37 37 13 13 13 13 37 37 38 38 13 13 38 38 14 14 14 14 38 38 39 39 14 14 39 39 15 15 15 15 39 39 40 40 15 15 40 40 16 16 16 16 40 40 41 41 16 16 41 41 17 17 17 17 41 41 42 42 17 17 42 42 18 18 18 18 42 42 43 43 18 18 43 43 19 19 19 19 43 43 44 44 19 19 44 44 20 20 20 20 44 44 45 45 20 20 45 45 21 21 21 21 45 45 46 46 21 21 46 46 22 22 22 22 46 46 47 47 22 22 47 47 23 23 23 23 47 47 24 24 23 23 24 24 0 0 24 24 48 48 49 49 24 24 49 49 25 25 25 25 49 49 50 50 25 25 50 50 26 26 26 26 50 50 51 51 26 26 51 51 27 27 27 27 51 51 52 52 27 27 52 52 28 28 28 28 52 52 53 53 28 28 53 53 29 29 29 29 53 53 54 54 29 29 54 54 30 30 30 30 54 54 55 55 30 30 55 55 31 31 31 31 55 55 56 56 31 31 56 56 32 32 32 32 56 56 57 57 32 32 57 57 33 33 33 33 57 57 58 58 33 33 58 58 34 34 34 34 58 58 59 59 34 34 59 59 35 35 35 35 59 59 60 60 35 35 60 60 36 36 36 36 60 60 61 61 36 36 61 61 37 37 37 37 61 61 62 62 37 37 62 62 38 38 38 38 62 62 63 63 38 38 63 63 39 39 39 39 63 63 64 64 39 39 64 64 40 40 40 40 64 64 65 65 40 40 65 65 41 41 41 41 65 65 66 66 41 41 66 66 42 42 42 42 66 66 67 67 42 42 67 67 43 43 43 43 67 67 68 68 43 43 68 68 44 44 44 44 68 68 69 69 44 44 69 69 45 45 45 45 69 69 70 70 45 45 70 70 46 46 46 46 70 70 71 71 46 46 71 71 47 47 47 47 71 71 48 48 47 47 48 48 24 24 48 48 72 72 73 73 48 48 73 73 49 49 49 49 73 73 74 74 49 49 74 74 50 50 50 50 74 74 75 75 50 50 75 75 51 51 51 51 75 75 76 76 51 51 76 76 52 52 52 52 76 76 77 77 52 52 77 77 53 53 53 53 77 77 78 78 53 53 78 78 54 54 54 54 78 78 79 79 54 54 79 79 55 55 55 55 79 79 80 80 55 55 80 80 56 56 56 56 80 80 81 81 56 56 81 81 57 57 57 57 81 81 82 82 57 57 82 82 58 58 58 58 82 82 83 83 58 58 83 83 59 59 59 59 83 83 84 84 59 59 84 84 60 60 60 60 84 84 85 85 60 60 85 85 61 61 61 61 85 85 86 86 61 61 86 86 62 62 62 62 86 86 87 87 62 62 87 87 63 63 63 63 87 87 88 88 63 63 88 88 64 64 64 64 88 88 89 89 64 64 89 89 65 65 65 65 89 89 90 90 65 65 90 90 66 66 66 66 90 90 91 91 66 66 91 91 67 67 67 67 91 91 92 92 67 67 92 92 68 68 68 68 92 92 93 93 68 68 93 93 69 69 69 69 93 93 94 94 69 69 94 94 70 70 70 70 94 94 95 95 70 70 95 95 71 71 71 71 95 95 72 72 71 71 72 72 48 48 72 72 96 96 97 97 72 72 97 97 73 73 73 73 97 97 98 98 73 73 98 98 74 74 74 74 98 98 99 99 74 74 99 99 75 75 75 75 99 99 100 100 75 75 100 100 76 76 76 76 100 100 101 101 76 76 101 101 77 77 77 77 101 101 102 102 77 77 102 102 78 78 78 78 102 102 103 103 78 78 103 103 79 79 79 79 103 103 104 104 79 79 104 104 80 80 80 80 104 104 105 105 80 80 105 105 81 81 81 81 105 105 106 106 81 81 106 106 82 82 82 82 106 106 107 107 82 82 107 107 83 83 83 83 107 107 108 108 83 83 108 108 84 84 84 84 108 108 109 109 84 84 109 109 85 85 85 85 109 109 110 110 85 85 110 110 86 86 86 86 110 110 111 111 86 86 111 111 87 87 87 87 111 111 112 112 87 87 112 112 88 88 88 88 112 112 113 113 88 88 113 113 89 89 89 89 113 113 114 114 89 89 114 114 90 90 90 90 114 114 115 115 90 90 115 115 91 91 91 91 115 115 116 116 91 91 116 116 92 92 92 92 116 116 117 117 92 92 117 117 93 93 93 93 117 117 118 118 93 93 118 118 94 94 94 94 118 118 119 119 94 94 119 119 95 95 95 95 119 119 96 96 95 95 96 96 72 72 96 96 120 120 121 121 96 96 121 121 97 97 97 97 121 121 122 122 97 97 122 122 98 98 98 98 122 122 123 123 98 98 123 123 99 99 99 99 123 123 124 124 99 99 124 124 100 100 100 100 124 124 125 125 100 100 125 125 101 101 101 101 125 125 126 126 101 101 126 126 102 102 102 102 126 126 127 127 102 102 127 127 103 103 103 103 127 127 128 128 103 103 128 128 104 104 104 104 128 128 129 129 104 104 129 129 105 105 105 105 129 129 130 130 105 105 130 130 106 106 106 106 130 130 131 131 106 106 131 131 107 107 107 107 131 131 132 132 107 107 132 132 108 108 108 108 132 132 133 133 108 108 133 133 109 109 109 109 133 133 134 134 109 109 134 134 110 110 110 110 134 134 135 135 110 110 135 135 111 111 111 111 135 135 136 136 111 111 136 136 112 112 112 112 136 136 137 137 112 112 137 137 113 113 113 113 137 137 138 138 113 113 138 138 114 114 114 114 138 138 139 139 114 114 139 139 115 115 115 115 139 139 140 140 115 115 140 140 116 116 116 116 140 140 141 141 116 116 141 141 117 117 117 117 141 141 142 142 117 117 142 142 118 118 118 118 142 142 143 143 118 118 143 143 119 119 119 119 143 143 120 120 119 119 120 120 96 96 120 120 144 144 145 145 120 120 145 145 121 121 121 121 145 145 146 146 121 121 146 146 122 122 122 122 146 146 147 147 122 122 147 147 123 123 123 123 147 147 148 148 123 123 148 148 124 124 124 124 148 148 149 149 124 124 149 149 125 125 125 125 149 149 150 150 125 125 150 150 126 126 126 126 150 150 151 151 126 126 151 151 127 127 127 127 151 151 152 152 127 127 152 152 128 128 128 128 152 152 153 153 128 128 153 153 129 129 129 129 153 153 154 154 129 129 154 154 130 130 130 130 154 154 155 155 130 130 155 155 131 131 131 131 155 155 156 156 131 131 156 156 132 132 132 132 156 156 157 157 132 132 157 157 133 133 133 133 157 157 158 158 133 133 158 158 134 134 134 134 158 158 159 159 134 134 159 159 135 135 135 135 159 159 160 160 135 135 160 160 136 136 136 136 160 160 161 161 136 136 161 161 137 137 137 137 161 161 162 162 137 137 162 162 138 138 138 138 162 162 163 163 138 138 163 163 139 139 139 139 163 163 164 164 139 139 164 164 140 140 140 140 164 164 165 165 140 140 165 165 141 141 141 141 165 165 166 166 141 141 166 166 142 142 142 142 166 166 167 167 142 142 167 167 143 143 143 143 167 167 144 144 143 143 144 144 120 120 144 144 168 168 169 169 144 144 169 169 145 145 145 145 169 169 170 170 145 145 170 170 146 146 146 146 170 170 171 171 146 146 171 171 147 147 147 147 171 171 172 172 147 147 172 172 148 148 148 148 172 172 173 173 148 148 173 173 149 149 149 149 173 173 174 174 149 149 174 174 150 150 150 150 174 174 175 175 150 150 175 175 151 151 151 151 175 175 176 176 151 151 176 176 152 152 152 152 176 176 177 177 152 152 177 177 153 153 153 153 177 177 178 178 153 153 178 178 154 154 154 154 178 178 179 179 154 154 179 179 155 155 155 155 179 179 180 180 155 155 180 180 156 156 156 156 180 180 181 181 156 156 181 181 157 157 157 157 181 181 182 182 157 157 182 182 158 158 158 158 182 182 183 183 158 158 183 183 159 159 159 159 183 183 184 184 159 159 184 184 160 160 160 160 184 184 185 185 160 160 185 185 161 161 161 161 185 185 186 186 161 161 186 186 162 162 162 162 186 186 187 187 162 162 187 187 163 163 163 163 187 187 188 188 163 163 188 188 164 164 164 164 188 188 189 189 164 164 189 189 165 165 165 165 189 189 190 190 165 165 190 190 166 166 166 166 190 190 191 191 166 166 191 191 167 167 167 167 191 191 168 168 167 167 168 168 144 144 168 168 192 192 193 193 168 168 193 193 169 169 169 169 193 193 194 194 169 169 194 194 170 170 170 170 194 194 195 195 170 170 195 195 171 171 171 171 195 195 196 196 171 171 196 196 172 172 172 172 196 196 197 197 172 172 197 197 173 173 173 173 197 197 198 198 173 173 198 198 174 174 174 174 198 198 199 199 174 174 199 199 175 175 175 175 199 199 200 200 175 175 200 200 176 176 176 176 200 200 201 201 176 176 201 201 177 177 177 177 201 201 202 202 177 177 202 202 178 178 178 178 202 202 203 203 178 178 203 203 179 179 179 179 203 203 204 204 179 179 204 204 180 180 180 180 204 204 205 205 180 180 205 205 181 181 181 181 205 205 206 206 181 181 206 206 182 182 182 182 206 206 207 207 182 182 207 207 183 183 183 183 207 207 208 208 183 183 208 208 184 184 184 184 208 208 209 209 184 184 209 209 185 185 185 185 209 209 210 210 185 185 210 210 186 186 186 186 210 210 211 211 186 186 211 211 187 187 187 187 211 211 212 212 187 187 212 212 188 188 188 188 212 212 213 213 188 188 213 213 189 189 189 189 213 213 214 214 189 189 214 214 190 190 190 190 214 214 215 215 190 190 215 215 191 191 191 191 215 215 192 192 191 191 192 192 168 168 192 192 216 216 217 217 192 192 217 217 193 193 193 193 217 217 218 218 193 193 218 218 194 194 194 194 218 218 219 219 194 194 219 219 195 195 195 195 219 219 220 220 195 195 220 220 196 196 196 196 220 220 221 221 196 196 221 221 197 197 197 197 221 221 222 222 197 197 222 222 198 198 198 198 222 222 223 223 198 198 223 223 199 199 199 199 223 223 224 224 199 199 224 224 200 200 200 200 224 224 225 225 200 200 225 225 201 201 201 201 225 225 226 226 201 201 226 226 202 202 202 202 226 226 227 227 202 202 227 227 203 203 203 203 227 227 228 228 203 203 228 228 204 204 204 204 228 228 229 229 204 204 229 229 205 205 205 205 229 229 230 230 205 205 230 230 206 206 206 206 230 230 231 231 206 206 231 231 207 207 207 207 231 231 232 232 207 207 232 232 208 208 208 208 232 232 233 233 208 208 233 233 209 209 209 209 233 233 234 234 209 209 234 234 210 210 210 210 234 234 235 235 210 210 235 235 211 211 211 211 235 235 236 236 211 211 236 236 212 212 212 212 236 236 237 237 212 212 237 237 213 213 213 213 237 237 238 238 213 213 238 238 214 214 214 214 238 238 239 239 214 214 239 239 215 215 215 215 239 239 216 216 215 215 216 216 192 192 216 216 240 240 241 241 216 216 241 241 217 217 217 217 241 241 242 242 217 217 242 242 218 218 218 218 242 242 243 243 218 218 243 243 219 219 219 219 243 243 244 244 219 219 244 244 220 220 220 220 244 244 245 245 220 220 245 245 221 221 221 221 245 245 246 246 221 221 246 246 222 222 222 222 246 246 247 247 222 222 247 247 223 223 223 223 247 247 248 248 223 223 248 248 224 224 224 224 248 248 249 249 224 224 249 249 225 225 225 225 249 249 250 250 225 225 250 250 226 226 226 226 250 250 251 251 226 226 251 251 227 227 227 227 251 251 252 252 227 227 252 252 228 228 228 228 252 252 253 253 228 228 253 253 229 229 229 229 253 253 254 254 229 229 254 254 230 230 230 230 254 254 255 255 230 230 255 255 231 231 231 231 255 255 256 256 231 231 256 256 232 232 232 232 256 256 257 257 232 232 257 257 233 233 233 233 257 257 258 258 233 233 258 258 234 234 234 234 258 258 259 259 234 234 259 259 235 235 235 235 259 259 260 260 235 235 260 260 236 236 236 236 260 260 261 261 236 236 261 261 237 237 237 237 261 261 262 262 237 237 262 262 238 238 238 238 262 262 263 263 238 238 263 263 239 239 239 239 263 263 240 240 239 239 240 240 216 216 240 240 264 264 265 265 240 240 265 265 241 241 241 241 265 265 266 266 241 241 266 266 242 242 242 242 266 266 267 267 242 242 267 267 243 243 243 243 267 267 268 268 243 243 268 268 244 244 244 244 268 268 269 269 244 244 269 269 245 245 245 245 269 269 270 270 245 245 270 270 246 246 246 246 270 270 271 271 246 246 271 271 247 247 247 247 271 271 272 272 247 247 272 272 248 248 248 248 272 272 273 273 248 248 273 273 249 249 249 249 273 273 274 274 249 249 274 274 250 250 250 250 274 274 275 275 250 250 275 275 251 251 251 251 275 275 276 276 251 251 276 276 252 252 252 252 276 276 277 277 252 252 277 277 253 253 253 253 277 277 278 278 253 253 278 278 254 254 254 254 278 278 279 279 254 254 279 279 255 255 255 255 279 279 280 280 255 255 280 280 256 256 256 256 280 280 281 281 256 256 281 281 257 257 257 257 281 281 282 282 257 257 282 282 258 258 258 258 282 282 283 283 258 258 283 283 259 259 259 259 283 283 284 284 259 259 284 284 260 260 260 260 284 284 285 285 260 260 285 285 261 261 261 261 285 285 286 286 261 261 286 286 262 262 262 262 286 286 287 287 262 262 287 287 263 263 263 263 287 287 264 264 263 263 264 264 240 240 288 288 1 1 0 0 288 288 2 2 1 1 288 288 3 3 2 2 288 288 4 4 3 3 288 288 5 5 4 4 288 288 6 6 5 5 288 288 7 7 6 6 288 288 8 8 7 7 288 288 9 9 8 8 288 288 10 10 9 9 288 288 11 11 10 10 288 288 12 12 11 11 288 288 13 13 12 12 288 288 14 14 13 13 288 288 15 15 14 14 288 288 16 16 15 15 288 288 17 17 16 16 288 288 18 18 17 17 288 288 19 19 18 18 288 288 20 20 19 19 288 288 21 21 20 20 288 288 22 22 21 21 288 288 23 23 22 22 288 288 0 0 23 23 289 289 264 264 265 265 289 289 265 265 266 266 289 289 266 266 267 267 289 289 267 267 268 268 289 289 268 268 269 269 289 289 269 269 270 270 289 289 270 270 271 271 289 289 271 271 272 272 289 289 272 272 273 273 289 289 273 273 274 274 289 289 274 274 275 275 289 289 275 275 276 276 289 289 276 276 277 277 289 289 277 277 278 278 289 289 278 278 279 279 289 289 279 279 280 280 289 289 280 280 281 281 289 289 281 281 282 282 289 289 282 282 283 283 289 289 283 283 284 284 289 289 284 284 285 285 289 289 285 285 286 286 289 289 286 286 287 287 289 289 287 287 264 264 290 290 314 314 315 315 290 290 315 315 291 291 291 291 315 315 316 316 291 291 316 316 292 292 292 292 316 316 317 317 292 292 317 317 293 293 293 293 317 317 318 318 293 293 318 318 294 294 294 294 318 318 319 319 294 294 319 319 295 295 295 295 319 319 320 320 295 295 320 320 296 296 296 296 320 320 321 321 296 296 321 321 297 297 297 297 321 321 322 322 297 297 322 322 298 298 298 298 322 322 323 323 298 298 323 323 299 299 299 299 323 323 324 324 299 299 324 324 300 300 300 300 324 324 325 325 300 300 325 325 301 301 301 301 325 325 326 326 301 301 326 326 302 302 302 302 326 326 327 327 302 302 327 327 303 303 303 303 327 327 328 328 303 303 328 328 304 304 304 304 328 328 329 329 304 304 329 329 305 305 305 305 329 329 330 330 305 305 330 330 306 306 306 306 330 330 331 331 306 306 331 331 307 307 307 307 331 331 332 332 307 307 332 332 308 308 308 308 332 332 333 333 308 308 333 333 309 309 309 309 333 333 334 334 309 309 334 334 310 310 310 310 334 334 335 335 310 310 335 335 311 311 311 311 335 335 336 336 311 311 336 336 312 312 312 312 336 336 337 337 312 312 337 337 313 313 313 313 337 337 314 314 313 313 314 314 290 290 338 338 314 314 315 315 338 338 315 315 316 316 338 338 316 316 317 317 338 338 317 317 318 318 338 338 318 318 319 319 338 338 319 319 320 320 338 338 320 320 321 321 338 338 321 321 322 322 338 338 322 322 323 323 338 338 323 323 324 324 338 338 324 324 325 325 338 338 325 325 326 326 338 338 326 326 327 327 338 338 327 327 328 328 338 338 328 328 329 329 338 338 329 329 330 330 338 338 330 330 331 331 338 338 331 331 332 332 338 338 332 332 333 333 338 338 333 333 334 334 338 338 334 334 335 335 338 338 335 335 336 336 338 338 336 336 337 337 338 338 337 337 314 314 339 339 363 363 364 364 339 339 364 364 340 340 340 340 364 364 365 365 340 340 365 365 341 341 341 341 365 365 366 366 341 341 366 366 342 342 342 342 366 366 367 367 342 342 367 367 343 343 343 343 367 367 368 368 343 343 368 368 344 344 344 344 368 368 369 369 344 344 369 369 345 345 345 345 369 369 370 370 345 345 370 370 346 346 346 346 370 370 371 371 346 346 371 371 347 347 347 347 371 371 372 372 347 347 372 372 348 348 348 348 372 372 373 373 348 348 373 373 349 349 349 349 373 373 374 374 349 349 374 374 350 350 350 350 374 374 375 375 350 350 375 375 351 351 351 351 375 375 376 376 351 351 376 376 352 352 352 352 376 376 377 377 352 352 377 377 353 353 353 353 377 377 378 378 353 353 378 378 354 354 354 354 378 378 379 379 354 354 379 379 355 355 355 355 379 379 380 380 355 355 380 380 356 356 356 356 380 380 381 381 356 356 381 381 357 357 357 357 381 381 382 382 357 357 382 382 358 358 358 358 382 382 383 383 358 358 383 383 359 359 359 359 383 383 384 384 359 359 384 384 360 360 360 360 384 384 385 385 360 360 385 385 361 361 361 361 385 385 386 386 361 361 386 386 362 362 362 362 386 386 363 363 362 362 363 363 339 339 387 387 363 363 364 364 387 387 364 364 365 365 387 387 365 365 366 366 387 387 366 366 367 367 387 387 367 367 368 368 387 387 368 368 369 369 387 387 369 369 370 370 387 387 370 370 371 371 387 387 371 371 372 372 387 387 372 372 373 373 387 387 373 373 374 374 387 387 374 374 375 375 387 387 375 375 376 376 387 387 376 376 377 377 387 387 377 377 378 378 387 387 378 378 379 379 387 387 379 379 380 380 387 387 380 380 381 381 387 387 381 381 382 382 387 387 382 382 383 383 387 387 383 383 384 384 387 387 384 384 385 385 387 387 385 385 386 386 387 387 386 386 363 363</p>
        </triangles>
      </mesh>
    </geometry>
  </library_geometries>
  <library_visual_scenes>
    <visual_scene id="Scene" name="Scene">
      <node id="snorkel_bluebuck_small_v10" name="snorkel_bluebuck_small_v10" type="NODE">
        <matrix sid="transform">1 0 0 0 0 1 0 0 0 0 1 0 0 0 0 1</matrix>
        <instance_geometry url="#snorkel_bluebuck_small_v10-mesh" name="snorkel_bluebuck_small_v10">
          <bind_material><technique_common>
            <instance_material symbol="snorkel_black" target="#snorkel_black-material"/>
          </technique_common></bind_material>
        </instance_geometry>
      </node>
      <node id="snorkel_bluebuck_medium_v10" name="snorkel_bluebuck_medium_v10" type="NODE">
        <matrix sid="transform">1 0 0 0 0 1 0 0 0 0 1 0 0 0 0 1</matrix>
        <instance_geometry url="#snorkel_bluebuck_medium_v10-mesh" name="snorkel_bluebuck_medium_v10">
          <bind_material><technique_common>
            <instance_material symbol="snorkel_black" target="#snorkel_black-material"/>
          </technique_common></bind_material>
        </instance_geometry>
      </node>
      <node id="snorkel_bluebuck_tall_v10" name="snorkel_bluebuck_tall_v10" type="NODE">
        <matrix sid="transform">1 0 0 0 0 1 0 0 0 0 1 0 0 0 0 1</matrix>
        <instance_geometry url="#snorkel_bluebuck_tall_v10-mesh" name="snorkel_bluebuck_tall_v10">
          <bind_material><technique_common>
            <instance_material symbol="snorkel_black" target="#snorkel_black-material"/>
          </technique_common></bind_material>
        </instance_geometry>
      </node>
    </visual_scene>
  </library_visual_scenes>
  <scene><instance_visual_scene url="#Scene"/></scene>
</COLLADA>
